G04 #@! TF.FileFunction,Soldermask,Top*
%FSLAX46Y46*%
G04 Gerber Fmt 4.6, Leading zero omitted, Abs format (unit mm)*
G04 Created by KiCad (PCBNEW 4.0.4-stable) date 04/18/19 20:28:09*
%MOMM*%
%LPD*%
G01*
G04 APERTURE LIST*
%ADD10C,0.100000*%
%ADD11R,2.100000X2.100000*%
%ADD12O,2.100000X2.100000*%
%ADD13C,1.924000*%
%ADD14C,1.300000*%
%ADD15R,2.400000X2.000000*%
%ADD16R,0.750000X2.400000*%
%ADD17R,2.100000X2.400000*%
%ADD18R,2.400000X2.100000*%
%ADD19R,2.200000X1.800000*%
G04 APERTURE END LIST*
D10*
D11*
X127635000Y-64897000D03*
D12*
X130175000Y-64897000D03*
D10*
G36*
X131268691Y-52454253D02*
X132965747Y-50757197D01*
X134662803Y-52454253D01*
X132965747Y-54151309D01*
X131268691Y-52454253D01*
X131268691Y-52454253D01*
G37*
G36*
X127026051Y-56696893D02*
X128723107Y-54999837D01*
X130420163Y-56696893D01*
X128723107Y-58393949D01*
X127026051Y-56696893D01*
X127026051Y-56696893D01*
G37*
G36*
X138380691Y-59566253D02*
X140077747Y-57869197D01*
X141774803Y-59566253D01*
X140077747Y-61263309D01*
X138380691Y-59566253D01*
X138380691Y-59566253D01*
G37*
G36*
X134138051Y-63808893D02*
X135835107Y-62111837D01*
X137532163Y-63808893D01*
X135835107Y-65505949D01*
X134138051Y-63808893D01*
X134138051Y-63808893D01*
G37*
G36*
X138380691Y-46358253D02*
X140077747Y-44661197D01*
X141774803Y-46358253D01*
X140077747Y-48055309D01*
X138380691Y-46358253D01*
X138380691Y-46358253D01*
G37*
G36*
X134138051Y-50600893D02*
X135835107Y-48903837D01*
X137532163Y-50600893D01*
X135835107Y-52297949D01*
X134138051Y-50600893D01*
X134138051Y-50600893D01*
G37*
G36*
X145492691Y-52454253D02*
X147189747Y-50757197D01*
X148886803Y-52454253D01*
X147189747Y-54151309D01*
X145492691Y-52454253D01*
X145492691Y-52454253D01*
G37*
G36*
X141250051Y-56696893D02*
X142947107Y-54999837D01*
X144644163Y-56696893D01*
X142947107Y-58393949D01*
X141250051Y-56696893D01*
X141250051Y-56696893D01*
G37*
G36*
X144222691Y-75822253D02*
X145919747Y-74125197D01*
X147616803Y-75822253D01*
X145919747Y-77519309D01*
X144222691Y-75822253D01*
X144222691Y-75822253D01*
G37*
G36*
X139980051Y-80064893D02*
X141677107Y-78367837D01*
X143374163Y-80064893D01*
X141677107Y-81761949D01*
X139980051Y-80064893D01*
X139980051Y-80064893D01*
G37*
D13*
X100330000Y-81915000D03*
X100330000Y-79375000D03*
X100330000Y-76835000D03*
X100330000Y-74295000D03*
D14*
X99746000Y-43918000D03*
X99746000Y-40918000D03*
D15*
X144304000Y-83820000D03*
X148304000Y-83820000D03*
D13*
X105791000Y-68326000D03*
X108331000Y-68326000D03*
X110871000Y-68326000D03*
X113411000Y-68326000D03*
X115951000Y-68326000D03*
X118491000Y-68326000D03*
X121031000Y-68326000D03*
X123571000Y-68326000D03*
X126111000Y-68326000D03*
X128651000Y-68326000D03*
X131191000Y-68326000D03*
X133731000Y-68326000D03*
X136271000Y-68326000D03*
X138811000Y-68326000D03*
X141351000Y-68326000D03*
X143891000Y-68326000D03*
X143891000Y-88646000D03*
X141351000Y-88646000D03*
X138811000Y-88646000D03*
X136271000Y-88646000D03*
X133731000Y-88646000D03*
X131191000Y-88646000D03*
X128651000Y-88646000D03*
X126111000Y-88646000D03*
X123571000Y-88646000D03*
X121031000Y-88646000D03*
X118491000Y-88646000D03*
X115951000Y-88646000D03*
D16*
X118760000Y-53340000D03*
X118060000Y-53340000D03*
X117360000Y-53340000D03*
X116660000Y-53340000D03*
X115960000Y-53340000D03*
X115260000Y-53340000D03*
X114560000Y-53340000D03*
X113860000Y-53340000D03*
X113160000Y-53340000D03*
X112460000Y-53340000D03*
X111760000Y-53340000D03*
X111060000Y-53340000D03*
D17*
X127508000Y-44863000D03*
X127508000Y-48863000D03*
D18*
X143986000Y-40894000D03*
X139986000Y-40894000D03*
D17*
X146050000Y-47974000D03*
X146050000Y-43974000D03*
D18*
X139351000Y-71374000D03*
X143351000Y-71374000D03*
X142399000Y-35941000D03*
X146399000Y-35941000D03*
D19*
X133617000Y-35561000D03*
X133617000Y-38861000D03*
X138417000Y-38861000D03*
X138417000Y-35561000D03*
M02*
