G04 #@! TF.FileFunction,Copper,L1,Top,Signal*
%FSLAX46Y46*%
G04 Gerber Fmt 4.6, Leading zero omitted, Abs format (unit mm)*
G04 Created by KiCad (PCBNEW 4.0.4-stable) date 04/18/19 20:28:09*
%MOMM*%
%LPD*%
G01*
G04 APERTURE LIST*
%ADD10C,0.100000*%
%ADD11R,1.270000X4.191000*%
%ADD12R,1.700000X1.700000*%
%ADD13O,1.700000X1.700000*%
%ADD14C,1.524000*%
%ADD15R,2.000000X1.600000*%
%ADD16R,0.350000X2.000000*%
%ADD17R,1.700000X2.000000*%
%ADD18R,2.000000X1.700000*%
%ADD19R,1.800000X1.400000*%
%ADD20C,0.600000*%
%ADD21C,0.250000*%
%ADD22C,0.200000*%
G04 APERTURE END LIST*
D10*
D11*
X126885700Y-36893500D03*
X131178300Y-36893500D03*
D12*
X127635000Y-64897000D03*
D13*
X130175000Y-64897000D03*
D10*
G36*
X131551533Y-52454253D02*
X132965747Y-51040039D01*
X134379961Y-52454253D01*
X132965747Y-53868467D01*
X131551533Y-52454253D01*
X131551533Y-52454253D01*
G37*
G36*
X127308893Y-56696893D02*
X128723107Y-55282679D01*
X130137321Y-56696893D01*
X128723107Y-58111107D01*
X127308893Y-56696893D01*
X127308893Y-56696893D01*
G37*
G36*
X138663533Y-59566253D02*
X140077747Y-58152039D01*
X141491961Y-59566253D01*
X140077747Y-60980467D01*
X138663533Y-59566253D01*
X138663533Y-59566253D01*
G37*
G36*
X134420893Y-63808893D02*
X135835107Y-62394679D01*
X137249321Y-63808893D01*
X135835107Y-65223107D01*
X134420893Y-63808893D01*
X134420893Y-63808893D01*
G37*
G36*
X138663533Y-46358253D02*
X140077747Y-44944039D01*
X141491961Y-46358253D01*
X140077747Y-47772467D01*
X138663533Y-46358253D01*
X138663533Y-46358253D01*
G37*
G36*
X134420893Y-50600893D02*
X135835107Y-49186679D01*
X137249321Y-50600893D01*
X135835107Y-52015107D01*
X134420893Y-50600893D01*
X134420893Y-50600893D01*
G37*
G36*
X145775533Y-52454253D02*
X147189747Y-51040039D01*
X148603961Y-52454253D01*
X147189747Y-53868467D01*
X145775533Y-52454253D01*
X145775533Y-52454253D01*
G37*
G36*
X141532893Y-56696893D02*
X142947107Y-55282679D01*
X144361321Y-56696893D01*
X142947107Y-58111107D01*
X141532893Y-56696893D01*
X141532893Y-56696893D01*
G37*
G36*
X144505533Y-75822253D02*
X145919747Y-74408039D01*
X147333961Y-75822253D01*
X145919747Y-77236467D01*
X144505533Y-75822253D01*
X144505533Y-75822253D01*
G37*
G36*
X140262893Y-80064893D02*
X141677107Y-78650679D01*
X143091321Y-80064893D01*
X141677107Y-81479107D01*
X140262893Y-80064893D01*
X140262893Y-80064893D01*
G37*
D14*
X100330000Y-81915000D03*
X100330000Y-79375000D03*
X100330000Y-76835000D03*
X100330000Y-74295000D03*
D15*
X144304000Y-83820000D03*
X148304000Y-83820000D03*
D14*
X105791000Y-68326000D03*
X108331000Y-68326000D03*
X110871000Y-68326000D03*
X113411000Y-68326000D03*
X115951000Y-68326000D03*
X118491000Y-68326000D03*
X121031000Y-68326000D03*
X123571000Y-68326000D03*
X126111000Y-68326000D03*
X128651000Y-68326000D03*
X131191000Y-68326000D03*
X133731000Y-68326000D03*
X136271000Y-68326000D03*
X138811000Y-68326000D03*
X141351000Y-68326000D03*
X143891000Y-68326000D03*
X143891000Y-88646000D03*
X141351000Y-88646000D03*
X138811000Y-88646000D03*
X136271000Y-88646000D03*
X133731000Y-88646000D03*
X131191000Y-88646000D03*
X128651000Y-88646000D03*
X126111000Y-88646000D03*
X123571000Y-88646000D03*
X121031000Y-88646000D03*
X118491000Y-88646000D03*
X115951000Y-88646000D03*
D16*
X118760000Y-53340000D03*
X118060000Y-53340000D03*
X117360000Y-53340000D03*
X116660000Y-53340000D03*
X115960000Y-53340000D03*
X115260000Y-53340000D03*
X114560000Y-53340000D03*
X113860000Y-53340000D03*
X113160000Y-53340000D03*
X112460000Y-53340000D03*
X111760000Y-53340000D03*
X111060000Y-53340000D03*
D17*
X127508000Y-44863000D03*
X127508000Y-48863000D03*
D18*
X143986000Y-40894000D03*
X139986000Y-40894000D03*
D17*
X146050000Y-47974000D03*
X146050000Y-43974000D03*
D18*
X139351000Y-71374000D03*
X143351000Y-71374000D03*
X142399000Y-35941000D03*
X146399000Y-35941000D03*
D19*
X133617000Y-35561000D03*
X133617000Y-38861000D03*
X138417000Y-38861000D03*
X138417000Y-35561000D03*
D20*
X138417000Y-38861000D03*
X130937000Y-44577000D03*
X127000000Y-42291000D03*
X122555000Y-46228000D03*
X102997000Y-63627000D03*
X102997000Y-65278000D03*
X144145000Y-83947000D03*
X128778000Y-61087000D03*
X115824000Y-49657000D03*
X117348000Y-49657000D03*
X108966000Y-47498000D03*
X139954000Y-41021000D03*
X115824000Y-59817000D03*
X110871000Y-61976000D03*
X136906000Y-44323000D03*
X116205000Y-60960000D03*
X118999000Y-63373000D03*
X123698000Y-64897000D03*
X118999000Y-60452000D03*
X113919000Y-58801000D03*
X122174000Y-71755000D03*
X120015000Y-72517000D03*
X106172000Y-69977000D03*
X106680000Y-62992000D03*
X113157000Y-59563000D03*
X123063000Y-72517000D03*
X120904000Y-73406000D03*
X107061000Y-70739000D03*
X108077000Y-63500000D03*
X112522000Y-60325000D03*
X114681000Y-77089000D03*
X113030000Y-62357000D03*
X111379000Y-63500000D03*
X112395000Y-77216000D03*
X133731000Y-65024000D03*
X133477000Y-66675000D03*
X132461000Y-70739000D03*
X117602000Y-78740000D03*
X125730000Y-62103000D03*
X130429000Y-55245000D03*
X141859000Y-66421000D03*
X140335000Y-49149000D03*
X145919747Y-75822253D03*
X100457000Y-51435000D03*
X100203000Y-83566000D03*
X138811000Y-51181000D03*
X143891000Y-41021000D03*
X132588000Y-40894000D03*
X125984000Y-43434000D03*
X125730000Y-45720000D03*
X146050000Y-47974000D03*
X147447000Y-58166000D03*
X149352000Y-59817000D03*
X149352000Y-49276000D03*
X132334000Y-86106000D03*
X134747000Y-86106000D03*
X147193000Y-81026000D03*
X149098000Y-79883000D03*
D21*
X128778000Y-61087000D02*
X126873000Y-59182000D01*
X130937000Y-42799000D02*
X130937000Y-44577000D01*
X129921000Y-41783000D02*
X130937000Y-42799000D01*
X127508000Y-41783000D02*
X129921000Y-41783000D01*
X127000000Y-42291000D02*
X127508000Y-41783000D01*
X122555000Y-55626000D02*
X122555000Y-46228000D01*
X126111000Y-59182000D02*
X122555000Y-55626000D01*
X126873000Y-59182000D02*
X126111000Y-59182000D01*
X128778000Y-61087000D02*
X122301000Y-61087000D01*
X118060000Y-56846000D02*
X118060000Y-53340000D01*
X122301000Y-61087000D02*
X118060000Y-56846000D01*
X102997000Y-65278000D02*
X102997000Y-63627000D01*
X144145000Y-83947000D02*
X144272000Y-83820000D01*
X144272000Y-83820000D02*
X144304000Y-83820000D01*
X130175000Y-64897000D02*
X130175000Y-64389000D01*
X130175000Y-64389000D02*
X128778000Y-62992000D01*
X128778000Y-62992000D02*
X128778000Y-61087000D01*
X118060000Y-53340000D02*
X118760000Y-53340000D01*
X114427000Y-49657000D02*
X115824000Y-49657000D01*
X117348000Y-49657000D02*
X117983000Y-50292000D01*
X117983000Y-50292000D02*
X117983000Y-50673000D01*
X117983000Y-50673000D02*
X118060000Y-50750000D01*
X118060000Y-50750000D02*
X118060000Y-53340000D01*
X115260000Y-53340000D02*
X115960000Y-53340000D01*
X111060000Y-49657000D02*
X114427000Y-49657000D01*
X115260000Y-50490000D02*
X115260000Y-53340000D01*
X114427000Y-49657000D02*
X115260000Y-50490000D01*
X111060000Y-53340000D02*
X111060000Y-49657000D01*
X111060000Y-49657000D02*
X111060000Y-49592000D01*
X111060000Y-49592000D02*
X108966000Y-47498000D01*
X100330000Y-81915000D02*
X108966000Y-81915000D01*
X113411000Y-77470000D02*
X113411000Y-68326000D01*
X108966000Y-81915000D02*
X113411000Y-77470000D01*
X136620000Y-40894000D02*
X136620000Y-37814000D01*
X136620000Y-37814000D02*
X134367000Y-35561000D01*
X134367000Y-35561000D02*
X133617000Y-35561000D01*
X139954000Y-41021000D02*
X139986000Y-40989000D01*
X139986000Y-40989000D02*
X139986000Y-40894000D01*
X108331000Y-68326000D02*
X108331000Y-64516000D01*
X116660000Y-55044000D02*
X116660000Y-53340000D01*
X116586000Y-55118000D02*
X116660000Y-55044000D01*
X116586000Y-59055000D02*
X116586000Y-55118000D01*
X115824000Y-59817000D02*
X116586000Y-59055000D01*
X108331000Y-64516000D02*
X110871000Y-61976000D01*
X143351000Y-71374000D02*
X143891000Y-71374000D01*
X143891000Y-71374000D02*
X145415000Y-69850000D01*
X147764500Y-49847500D02*
X147828000Y-49847500D01*
X149225000Y-51308000D02*
X147764500Y-49847500D01*
X149225000Y-58674000D02*
X149225000Y-51308000D01*
X145415000Y-62484000D02*
X149225000Y-58674000D01*
X145415000Y-69850000D02*
X145415000Y-62484000D01*
X147828000Y-44323000D02*
X147828000Y-44196000D01*
X147606000Y-43974000D02*
X146050000Y-43974000D01*
X147828000Y-44196000D02*
X147606000Y-43974000D01*
X147828000Y-44260000D02*
X147828000Y-44323000D01*
X147828000Y-44323000D02*
X147828000Y-49847500D01*
X147828000Y-49847500D02*
X147828000Y-49784000D01*
X147828000Y-49784000D02*
X147320000Y-50292000D01*
X147320000Y-50292000D02*
X139573000Y-50292000D01*
X139573000Y-50292000D02*
X137541000Y-48260000D01*
X137541000Y-48260000D02*
X136779000Y-48260000D01*
X136779000Y-48260000D02*
X136779000Y-44450000D01*
X136779000Y-44450000D02*
X136906000Y-44323000D01*
X136620000Y-40894000D02*
X136620000Y-44037000D01*
X136620000Y-44037000D02*
X136906000Y-44323000D01*
X129032000Y-46387000D02*
X127508000Y-44863000D01*
X136779000Y-48260000D02*
X134239000Y-48260000D01*
X134239000Y-48260000D02*
X133604000Y-47625000D01*
X133604000Y-47625000D02*
X129794000Y-47625000D01*
X129794000Y-47625000D02*
X129032000Y-46863000D01*
X129032000Y-46863000D02*
X129032000Y-46387000D01*
X127508000Y-44863000D02*
X118078000Y-44863000D01*
X116660000Y-46281000D02*
X116660000Y-53340000D01*
X118078000Y-44863000D02*
X116660000Y-46281000D01*
X139986000Y-40894000D02*
X140970000Y-40894000D01*
X140970000Y-40894000D02*
X142621000Y-39243000D01*
X145796000Y-40005000D02*
X145796000Y-43720000D01*
X145034000Y-39243000D02*
X145796000Y-40005000D01*
X142621000Y-39243000D02*
X145034000Y-39243000D01*
X145796000Y-43720000D02*
X146050000Y-43974000D01*
X136620000Y-40894000D02*
X139986000Y-40894000D01*
X148304000Y-83820000D02*
X148304000Y-75914000D01*
X148304000Y-75914000D02*
X143764000Y-71374000D01*
X143764000Y-71374000D02*
X143351000Y-71374000D01*
X100330000Y-79375000D02*
X104648000Y-79375000D01*
X108331000Y-75692000D02*
X108331000Y-68326000D01*
X104648000Y-79375000D02*
X108331000Y-75692000D01*
X115951000Y-68326000D02*
X115951000Y-61214000D01*
X115951000Y-61214000D02*
X116205000Y-60960000D01*
X118491000Y-68326000D02*
X118491000Y-63881000D01*
X118491000Y-63881000D02*
X118999000Y-63373000D01*
X113860000Y-53340000D02*
X113860000Y-58742000D01*
X123698000Y-64516000D02*
X123698000Y-64897000D01*
X121158000Y-61976000D02*
X123698000Y-64516000D01*
X120523000Y-61976000D02*
X121158000Y-61976000D01*
X118999000Y-60452000D02*
X120523000Y-61976000D01*
X113860000Y-58742000D02*
X113919000Y-58801000D01*
X113160000Y-53340000D02*
X113160000Y-59560000D01*
X122047000Y-71882000D02*
X122174000Y-71755000D01*
X120650000Y-71882000D02*
X122047000Y-71882000D01*
X120015000Y-72517000D02*
X120650000Y-71882000D01*
X105029000Y-69977000D02*
X106172000Y-69977000D01*
X104140000Y-69088000D02*
X105029000Y-69977000D01*
X104140000Y-67437000D02*
X104140000Y-69088000D01*
X104648000Y-66929000D02*
X104140000Y-67437000D01*
X104648000Y-65024000D02*
X104648000Y-66929000D01*
X106680000Y-62992000D02*
X104648000Y-65024000D01*
X113160000Y-59560000D02*
X113157000Y-59563000D01*
X112460000Y-53340000D02*
X112460000Y-60263000D01*
X121793000Y-72517000D02*
X123063000Y-72517000D01*
X120904000Y-73406000D02*
X121793000Y-72517000D01*
X107061000Y-70231000D02*
X107061000Y-70739000D01*
X107061000Y-67310000D02*
X107061000Y-70231000D01*
X107442000Y-66929000D02*
X107061000Y-67310000D01*
X107442000Y-64135000D02*
X107442000Y-66929000D01*
X108077000Y-63500000D02*
X107442000Y-64135000D01*
X112460000Y-60263000D02*
X112522000Y-60325000D01*
X111760000Y-62357000D02*
X111760000Y-53340000D01*
X114681000Y-65278000D02*
X111760000Y-62357000D01*
X114681000Y-68580000D02*
X114681000Y-65278000D01*
X114681000Y-77089000D02*
X114681000Y-68580000D01*
X114681000Y-60706000D02*
X114681000Y-53461000D01*
X113919000Y-61468000D02*
X114681000Y-60706000D01*
X113030000Y-62357000D02*
X113919000Y-61468000D01*
X111379000Y-63627000D02*
X111379000Y-63500000D01*
X112014000Y-64262000D02*
X111379000Y-63627000D01*
X112014000Y-69088000D02*
X112014000Y-64262000D01*
X112268000Y-69342000D02*
X112014000Y-69088000D01*
X112268000Y-77089000D02*
X112268000Y-69342000D01*
X112395000Y-77216000D02*
X112268000Y-77089000D01*
X114681000Y-53461000D02*
X114560000Y-53340000D01*
X133731000Y-88646000D02*
X133731000Y-72009000D01*
X133731000Y-66421000D02*
X133731000Y-65024000D01*
X133477000Y-66675000D02*
X133731000Y-66421000D01*
X133731000Y-72009000D02*
X132461000Y-70739000D01*
X117360000Y-62599000D02*
X117360000Y-53340000D01*
X117221000Y-62738000D02*
X117360000Y-62599000D01*
X117221000Y-78359000D02*
X117221000Y-62738000D01*
X117602000Y-78740000D02*
X117221000Y-78359000D01*
X126111000Y-68326000D02*
X126111000Y-67564000D01*
X126111000Y-67564000D02*
X125730000Y-67183000D01*
X125730000Y-67183000D02*
X125730000Y-62103000D01*
X130429000Y-55245000D02*
X132965747Y-52708253D01*
X132965747Y-52708253D02*
X132965747Y-52454253D01*
X140077747Y-59566253D02*
X140077747Y-60582253D01*
X140077747Y-60582253D02*
X139954000Y-60706000D01*
X139954000Y-60706000D02*
X139954000Y-64516000D01*
X139954000Y-64516000D02*
X141859000Y-66421000D01*
X140077747Y-48891747D02*
X140077747Y-46358253D01*
X140335000Y-49149000D02*
X140077747Y-48891747D01*
X147189747Y-52454253D02*
X147189747Y-52574747D01*
X147189747Y-52574747D02*
X148590000Y-53975000D01*
X148590000Y-53975000D02*
X148590000Y-58293000D01*
X148590000Y-58293000D02*
X145034000Y-61849000D01*
X145034000Y-61849000D02*
X144780000Y-62103000D01*
X144780000Y-62103000D02*
X144780000Y-64643000D01*
X144780000Y-64643000D02*
X142621000Y-66802000D01*
X142621000Y-66802000D02*
X142621000Y-69342000D01*
X142621000Y-69342000D02*
X142113000Y-69850000D01*
X142113000Y-69850000D02*
X123952000Y-69850000D01*
X123952000Y-69850000D02*
X123571000Y-69469000D01*
X123571000Y-69469000D02*
X123571000Y-68326000D01*
X100457000Y-52578000D02*
X100457000Y-51435000D01*
X98298000Y-54737000D02*
X100457000Y-52578000D01*
X98298000Y-82423000D02*
X98298000Y-54737000D01*
X99060000Y-83185000D02*
X98298000Y-82423000D01*
X99822000Y-83185000D02*
X99060000Y-83185000D01*
X100203000Y-83566000D02*
X99822000Y-83185000D01*
X128723107Y-56696893D02*
X128723107Y-55952107D01*
X128723107Y-55952107D02*
X127508000Y-54737000D01*
X127508000Y-54737000D02*
X127508000Y-48863000D01*
X135835107Y-63808893D02*
X135962107Y-63808893D01*
X135962107Y-63808893D02*
X136906000Y-62865000D01*
X136906000Y-62865000D02*
X136906000Y-53086000D01*
X136906000Y-53086000D02*
X138811000Y-51181000D01*
X143891000Y-41021000D02*
X143986000Y-40926000D01*
X143986000Y-40926000D02*
X143986000Y-40894000D01*
X126492000Y-46482000D02*
X125730000Y-45720000D01*
X126492000Y-46736000D02*
X126492000Y-46482000D01*
X127127000Y-47371000D02*
X126492000Y-46736000D01*
X128651000Y-47371000D02*
X127127000Y-47371000D01*
X129413000Y-48133000D02*
X128651000Y-47371000D01*
X132969000Y-48133000D02*
X129413000Y-48133000D01*
X135436893Y-50600893D02*
X132969000Y-48133000D01*
X126873000Y-40894000D02*
X132588000Y-40894000D01*
X125984000Y-41783000D02*
X126873000Y-40894000D01*
X125984000Y-43434000D02*
X125984000Y-41783000D01*
X135835107Y-50600893D02*
X135436893Y-50600893D01*
X142947107Y-56696893D02*
X145977893Y-56696893D01*
X147447000Y-58166000D02*
X145977893Y-56696893D01*
X149352000Y-59690000D02*
X149352000Y-59817000D01*
X149860000Y-59182000D02*
X149352000Y-59690000D01*
X149860000Y-58039000D02*
X149860000Y-59182000D01*
X149860000Y-54483000D02*
X149860000Y-58039000D01*
X149860000Y-49784000D02*
X149860000Y-54483000D01*
X149352000Y-49276000D02*
X149860000Y-49784000D01*
X141677107Y-80064893D02*
X141151893Y-80064893D01*
X141151893Y-80064893D02*
X139351000Y-78264000D01*
X139351000Y-78264000D02*
X139351000Y-71374000D01*
X138417000Y-35561000D02*
X142019000Y-35561000D01*
X142019000Y-35561000D02*
X142399000Y-35941000D01*
X126111000Y-88646000D02*
X126111000Y-88392000D01*
X126111000Y-88392000D02*
X128397000Y-86106000D01*
X128397000Y-86106000D02*
X132334000Y-86106000D01*
X134747000Y-86106000D02*
X135128000Y-85725000D01*
X135128000Y-85725000D02*
X145542000Y-85725000D01*
X145542000Y-85725000D02*
X146431000Y-84836000D01*
X146431000Y-84836000D02*
X146431000Y-81788000D01*
X146431000Y-81788000D02*
X147193000Y-81026000D01*
X149098000Y-79883000D02*
X149987000Y-78994000D01*
X149987000Y-78994000D02*
X149987000Y-62611000D01*
X149987000Y-62611000D02*
X150368000Y-62230000D01*
X150368000Y-62230000D02*
X150368000Y-37846000D01*
X150368000Y-37846000D02*
X148463000Y-35941000D01*
X148463000Y-35941000D02*
X146399000Y-35941000D01*
D22*
G36*
X125944823Y-38989000D02*
X125965742Y-39100173D01*
X126031445Y-39202279D01*
X126131697Y-39270778D01*
X126250700Y-39294877D01*
X127520700Y-39294877D01*
X127631873Y-39273958D01*
X127733979Y-39208255D01*
X127802478Y-39108003D01*
X127826577Y-38989000D01*
X127826577Y-34919000D01*
X130237423Y-34919000D01*
X130237423Y-38989000D01*
X130258342Y-39100173D01*
X130324045Y-39202279D01*
X130424297Y-39270778D01*
X130543300Y-39294877D01*
X131813300Y-39294877D01*
X131924473Y-39273958D01*
X132026579Y-39208255D01*
X132095078Y-39108003D01*
X132119177Y-38989000D01*
X132119177Y-38161000D01*
X132411123Y-38161000D01*
X132411123Y-39561000D01*
X132432042Y-39672173D01*
X132497745Y-39774279D01*
X132597997Y-39842778D01*
X132717000Y-39866877D01*
X134517000Y-39866877D01*
X134628173Y-39845958D01*
X134730279Y-39780255D01*
X134798778Y-39680003D01*
X134822877Y-39561000D01*
X134822877Y-38161000D01*
X134801958Y-38049827D01*
X134736255Y-37947721D01*
X134636003Y-37879222D01*
X134517000Y-37855123D01*
X132717000Y-37855123D01*
X132605827Y-37876042D01*
X132503721Y-37941745D01*
X132435222Y-38041997D01*
X132411123Y-38161000D01*
X132119177Y-38161000D01*
X132119177Y-34919000D01*
X132411123Y-34919000D01*
X132411123Y-36261000D01*
X132432042Y-36372173D01*
X132497745Y-36474279D01*
X132597997Y-36542778D01*
X132717000Y-36566877D01*
X134517000Y-36566877D01*
X134628173Y-36545958D01*
X134702859Y-36497899D01*
X136195000Y-37990040D01*
X136195000Y-44037000D01*
X136217374Y-44149480D01*
X136227351Y-44199641D01*
X136306004Y-44317353D01*
X136305896Y-44441824D01*
X136354000Y-44558245D01*
X136354000Y-47835000D01*
X134415041Y-47835000D01*
X133904520Y-47324480D01*
X133766641Y-47232351D01*
X133739657Y-47226984D01*
X133604000Y-47200000D01*
X129970041Y-47200000D01*
X129457000Y-46686960D01*
X129457000Y-46387000D01*
X129424649Y-46224360D01*
X129353821Y-46118359D01*
X129332520Y-46086479D01*
X128663877Y-45417836D01*
X128663877Y-43863000D01*
X128642958Y-43751827D01*
X128577255Y-43649721D01*
X128477003Y-43581222D01*
X128358000Y-43557123D01*
X126658000Y-43557123D01*
X126576150Y-43572524D01*
X126583896Y-43553871D01*
X126584104Y-43315176D01*
X126492952Y-43094571D01*
X126409000Y-43010472D01*
X126409000Y-41959040D01*
X127049040Y-41319000D01*
X132164470Y-41319000D01*
X132247683Y-41402359D01*
X132468129Y-41493896D01*
X132706824Y-41494104D01*
X132927429Y-41402952D01*
X133096359Y-41234317D01*
X133187896Y-41013871D01*
X133188104Y-40775176D01*
X133096952Y-40554571D01*
X132928317Y-40385641D01*
X132707871Y-40294104D01*
X132469176Y-40293896D01*
X132248571Y-40385048D01*
X132164472Y-40469000D01*
X126873000Y-40469000D01*
X126710359Y-40501351D01*
X126572480Y-40593480D01*
X125683480Y-41482480D01*
X125591351Y-41620359D01*
X125591351Y-41620360D01*
X125559000Y-41783000D01*
X125559000Y-43010470D01*
X125475641Y-43093683D01*
X125384104Y-43314129D01*
X125383896Y-43552824D01*
X125475048Y-43773429D01*
X125643683Y-43942359D01*
X125864129Y-44033896D01*
X126102824Y-44034104D01*
X126323429Y-43942952D01*
X126352123Y-43914308D01*
X126352123Y-44438000D01*
X118078000Y-44438000D01*
X117915359Y-44470351D01*
X117777480Y-44562479D01*
X116359480Y-45980480D01*
X116267351Y-46118359D01*
X116267351Y-46118360D01*
X116235000Y-46281000D01*
X116235000Y-52056703D01*
X116194674Y-52040000D01*
X116085000Y-52040000D01*
X116010000Y-52115000D01*
X116010000Y-53290000D01*
X116030000Y-53290000D01*
X116030000Y-53390000D01*
X116010000Y-53390000D01*
X116010000Y-54565000D01*
X116085000Y-54640000D01*
X116194674Y-54640000D01*
X116235000Y-54623297D01*
X116235000Y-54893028D01*
X116193351Y-54955359D01*
X116193351Y-54955360D01*
X116161000Y-55118000D01*
X116161000Y-58878959D01*
X115822961Y-59216999D01*
X115705176Y-59216896D01*
X115484571Y-59308048D01*
X115315641Y-59476683D01*
X115224104Y-59697129D01*
X115223896Y-59935824D01*
X115315048Y-60156429D01*
X115483683Y-60325359D01*
X115704129Y-60416896D01*
X115942824Y-60417104D01*
X116163429Y-60325952D01*
X116332359Y-60157317D01*
X116423896Y-59936871D01*
X116424000Y-59818041D01*
X116886521Y-59355520D01*
X116935000Y-59282966D01*
X116935000Y-62422960D01*
X116920480Y-62437480D01*
X116828351Y-62575359D01*
X116828351Y-62575360D01*
X116796000Y-62738000D01*
X116796000Y-67669269D01*
X116553360Y-67426205D01*
X116376000Y-67352559D01*
X116376000Y-61538545D01*
X116544429Y-61468952D01*
X116713359Y-61300317D01*
X116804896Y-61079871D01*
X116805104Y-60841176D01*
X116713952Y-60620571D01*
X116545317Y-60451641D01*
X116324871Y-60360104D01*
X116086176Y-60359896D01*
X115865571Y-60451048D01*
X115696641Y-60619683D01*
X115605104Y-60840129D01*
X115604981Y-60981574D01*
X115558351Y-61051359D01*
X115558351Y-61051360D01*
X115526000Y-61214000D01*
X115526000Y-67352521D01*
X115350211Y-67425155D01*
X115106000Y-67668940D01*
X115106000Y-65278000D01*
X115073649Y-65115360D01*
X115073649Y-65115359D01*
X114981521Y-64977480D01*
X112960981Y-62956940D01*
X113148824Y-62957104D01*
X113369429Y-62865952D01*
X113538359Y-62697317D01*
X113629896Y-62476871D01*
X113630000Y-62358040D01*
X114219520Y-61768520D01*
X114981521Y-61006520D01*
X115073649Y-60868641D01*
X115106000Y-60706000D01*
X115106000Y-54640000D01*
X115135000Y-54640000D01*
X115210000Y-54565000D01*
X115210000Y-53390000D01*
X115310000Y-53390000D01*
X115310000Y-54565000D01*
X115385000Y-54640000D01*
X115494674Y-54640000D01*
X115604937Y-54594328D01*
X115610000Y-54589265D01*
X115615063Y-54594328D01*
X115725326Y-54640000D01*
X115835000Y-54640000D01*
X115910000Y-54565000D01*
X115910000Y-53390000D01*
X115310000Y-53390000D01*
X115210000Y-53390000D01*
X115190000Y-53390000D01*
X115190000Y-53290000D01*
X115210000Y-53290000D01*
X115210000Y-52115000D01*
X115310000Y-52115000D01*
X115310000Y-53290000D01*
X115910000Y-53290000D01*
X115910000Y-52115000D01*
X115835000Y-52040000D01*
X115725326Y-52040000D01*
X115615063Y-52085672D01*
X115610000Y-52090735D01*
X115604937Y-52085672D01*
X115494674Y-52040000D01*
X115385000Y-52040000D01*
X115310000Y-52115000D01*
X115210000Y-52115000D01*
X115135000Y-52040000D01*
X115025326Y-52040000D01*
X114915063Y-52085672D01*
X114906585Y-52094150D01*
X114854003Y-52058222D01*
X114735000Y-52034123D01*
X114385000Y-52034123D01*
X114273827Y-52055042D01*
X114209721Y-52096293D01*
X114154003Y-52058222D01*
X114035000Y-52034123D01*
X113685000Y-52034123D01*
X113573827Y-52055042D01*
X113509721Y-52096293D01*
X113454003Y-52058222D01*
X113335000Y-52034123D01*
X112985000Y-52034123D01*
X112873827Y-52055042D01*
X112809721Y-52096293D01*
X112754003Y-52058222D01*
X112635000Y-52034123D01*
X112285000Y-52034123D01*
X112173827Y-52055042D01*
X112109721Y-52096293D01*
X112054003Y-52058222D01*
X111935000Y-52034123D01*
X111585000Y-52034123D01*
X111473827Y-52055042D01*
X111413272Y-52094008D01*
X111404937Y-52085672D01*
X111294674Y-52040000D01*
X111185000Y-52040000D01*
X111110000Y-52115000D01*
X111110000Y-53290000D01*
X111130000Y-53290000D01*
X111130000Y-53390000D01*
X111110000Y-53390000D01*
X111110000Y-54565000D01*
X111185000Y-54640000D01*
X111294674Y-54640000D01*
X111335000Y-54623297D01*
X111335000Y-61591540D01*
X111211317Y-61467641D01*
X110990871Y-61376104D01*
X110752176Y-61375896D01*
X110531571Y-61467048D01*
X110362641Y-61635683D01*
X110271104Y-61856129D01*
X110271000Y-61974959D01*
X108676940Y-63569019D01*
X108677104Y-63381176D01*
X108585952Y-63160571D01*
X108417317Y-62991641D01*
X108196871Y-62900104D01*
X107958176Y-62899896D01*
X107737571Y-62991048D01*
X107568641Y-63159683D01*
X107477104Y-63380129D01*
X107477000Y-63498959D01*
X107141480Y-63834480D01*
X107049351Y-63972359D01*
X107049351Y-63972360D01*
X107017000Y-64135000D01*
X107017000Y-66752959D01*
X106760480Y-67009480D01*
X106668351Y-67147359D01*
X106668351Y-67147360D01*
X106636000Y-67310000D01*
X106636000Y-67669269D01*
X106393360Y-67426205D01*
X106003172Y-67264185D01*
X105580682Y-67263816D01*
X105190211Y-67425155D01*
X104891205Y-67723640D01*
X104729185Y-68113828D01*
X104728816Y-68536318D01*
X104890155Y-68926789D01*
X105188640Y-69225795D01*
X105578828Y-69387815D01*
X106001318Y-69388184D01*
X106391789Y-69226845D01*
X106636000Y-68983060D01*
X106636000Y-69592540D01*
X106512317Y-69468641D01*
X106291871Y-69377104D01*
X106053176Y-69376896D01*
X105832571Y-69468048D01*
X105748472Y-69552000D01*
X105205040Y-69552000D01*
X104565000Y-68911960D01*
X104565000Y-67613040D01*
X104948520Y-67229521D01*
X105033379Y-67102520D01*
X105040649Y-67091640D01*
X105073000Y-66929000D01*
X105073000Y-65200040D01*
X106681039Y-63592001D01*
X106798824Y-63592104D01*
X107019429Y-63500952D01*
X107188359Y-63332317D01*
X107279896Y-63111871D01*
X107280104Y-62873176D01*
X107188952Y-62652571D01*
X107020317Y-62483641D01*
X106799871Y-62392104D01*
X106561176Y-62391896D01*
X106340571Y-62483048D01*
X106171641Y-62651683D01*
X106080104Y-62872129D01*
X106080000Y-62990960D01*
X104347480Y-64723480D01*
X104255351Y-64861359D01*
X104255351Y-64861360D01*
X104223000Y-65024000D01*
X104223000Y-66752959D01*
X103839480Y-67136480D01*
X103747351Y-67274359D01*
X103747351Y-67274360D01*
X103715000Y-67437000D01*
X103715000Y-69088000D01*
X103733173Y-69179360D01*
X103747351Y-69250641D01*
X103839480Y-69388520D01*
X104728480Y-70277520D01*
X104866359Y-70369649D01*
X105029000Y-70402000D01*
X105748470Y-70402000D01*
X105831683Y-70485359D01*
X106052129Y-70576896D01*
X106290824Y-70577104D01*
X106511429Y-70485952D01*
X106519926Y-70477470D01*
X106461104Y-70619129D01*
X106460896Y-70857824D01*
X106552048Y-71078429D01*
X106720683Y-71247359D01*
X106941129Y-71338896D01*
X107179824Y-71339104D01*
X107400429Y-71247952D01*
X107569359Y-71079317D01*
X107660896Y-70858871D01*
X107661104Y-70620176D01*
X107569952Y-70399571D01*
X107486000Y-70315472D01*
X107486000Y-68982731D01*
X107728640Y-69225795D01*
X107906000Y-69299441D01*
X107906000Y-75515959D01*
X104471960Y-78950000D01*
X101303479Y-78950000D01*
X101230845Y-78774211D01*
X100932360Y-78475205D01*
X100542172Y-78313185D01*
X100119682Y-78312816D01*
X99729211Y-78474155D01*
X99430205Y-78772640D01*
X99268185Y-79162828D01*
X99267816Y-79585318D01*
X99429155Y-79975789D01*
X99727640Y-80274795D01*
X100117828Y-80436815D01*
X100540318Y-80437184D01*
X100930789Y-80275845D01*
X101229795Y-79977360D01*
X101303441Y-79800000D01*
X104648000Y-79800000D01*
X104783657Y-79773016D01*
X104810641Y-79767649D01*
X104948520Y-79675520D01*
X108631521Y-75992520D01*
X108723649Y-75854641D01*
X108756000Y-75692000D01*
X108756000Y-69299479D01*
X108931789Y-69226845D01*
X109230795Y-68928360D01*
X109392815Y-68538172D01*
X109392816Y-68536318D01*
X109808816Y-68536318D01*
X109970155Y-68926789D01*
X110268640Y-69225795D01*
X110658828Y-69387815D01*
X111081318Y-69388184D01*
X111471789Y-69226845D01*
X111592624Y-69106220D01*
X111607173Y-69179360D01*
X111621351Y-69250641D01*
X111713480Y-69388520D01*
X111843000Y-69518041D01*
X111843000Y-76980782D01*
X111795104Y-77096129D01*
X111794896Y-77334824D01*
X111886048Y-77555429D01*
X112054683Y-77724359D01*
X112275129Y-77815896D01*
X112513824Y-77816104D01*
X112734429Y-77724952D01*
X112903359Y-77556317D01*
X112994896Y-77335871D01*
X112995104Y-77097176D01*
X112903952Y-76876571D01*
X112735317Y-76707641D01*
X112693000Y-76690069D01*
X112693000Y-69342000D01*
X112660649Y-69179360D01*
X112599604Y-69088000D01*
X112589651Y-69073104D01*
X112734606Y-69073104D01*
X112815673Y-69230463D01*
X113207112Y-69389437D01*
X113629591Y-69386512D01*
X114006327Y-69230463D01*
X114087394Y-69073104D01*
X113411000Y-68396711D01*
X112734606Y-69073104D01*
X112589651Y-69073104D01*
X112568520Y-69041479D01*
X112439000Y-68911960D01*
X112439000Y-68758278D01*
X112506537Y-68921327D01*
X112663896Y-69002394D01*
X113340289Y-68326000D01*
X112663896Y-67649606D01*
X112506537Y-67730673D01*
X112439000Y-67896968D01*
X112439000Y-67578896D01*
X112734606Y-67578896D01*
X113411000Y-68255289D01*
X114087394Y-67578896D01*
X114006327Y-67421537D01*
X113614888Y-67262563D01*
X113192409Y-67265488D01*
X112815673Y-67421537D01*
X112734606Y-67578896D01*
X112439000Y-67578896D01*
X112439000Y-64262000D01*
X112406649Y-64099360D01*
X112406649Y-64099359D01*
X112314521Y-63961480D01*
X111977140Y-63624100D01*
X111978896Y-63619871D01*
X111979104Y-63381176D01*
X111887952Y-63160571D01*
X111719317Y-62991641D01*
X111498871Y-62900104D01*
X111260176Y-62899896D01*
X111039571Y-62991048D01*
X110870641Y-63159683D01*
X110779104Y-63380129D01*
X110778896Y-63618824D01*
X110870048Y-63839429D01*
X111038683Y-64008359D01*
X111244981Y-64094021D01*
X111589000Y-64438041D01*
X111589000Y-67542047D01*
X111473360Y-67426205D01*
X111083172Y-67264185D01*
X110660682Y-67263816D01*
X110270211Y-67425155D01*
X109971205Y-67723640D01*
X109809185Y-68113828D01*
X109808816Y-68536318D01*
X109392816Y-68536318D01*
X109393184Y-68115682D01*
X109231845Y-67725211D01*
X108933360Y-67426205D01*
X108756000Y-67352559D01*
X108756000Y-64692040D01*
X110872040Y-62576001D01*
X110989824Y-62576104D01*
X111210429Y-62484952D01*
X111335597Y-62360002D01*
X111358844Y-62476871D01*
X111367351Y-62519641D01*
X111459480Y-62657520D01*
X114256000Y-65454041D01*
X114256000Y-67700039D01*
X114158104Y-67649606D01*
X113481711Y-68326000D01*
X114158104Y-69002394D01*
X114256000Y-68951961D01*
X114256000Y-76665470D01*
X114172641Y-76748683D01*
X114081104Y-76969129D01*
X114080896Y-77207824D01*
X114172048Y-77428429D01*
X114340683Y-77597359D01*
X114561129Y-77688896D01*
X114799824Y-77689104D01*
X115020429Y-77597952D01*
X115189359Y-77429317D01*
X115280896Y-77208871D01*
X115281104Y-76970176D01*
X115189952Y-76749571D01*
X115106000Y-76665472D01*
X115106000Y-68982731D01*
X115348640Y-69225795D01*
X115738828Y-69387815D01*
X116161318Y-69388184D01*
X116551789Y-69226845D01*
X116796000Y-68983060D01*
X116796000Y-78359000D01*
X116818906Y-78474155D01*
X116828351Y-78521641D01*
X116920480Y-78659520D01*
X117001999Y-78741039D01*
X117001896Y-78858824D01*
X117093048Y-79079429D01*
X117261683Y-79248359D01*
X117482129Y-79339896D01*
X117720824Y-79340104D01*
X117941429Y-79248952D01*
X118110359Y-79080317D01*
X118201896Y-78859871D01*
X118202104Y-78621176D01*
X118110952Y-78400571D01*
X117942317Y-78231641D01*
X117721871Y-78140104D01*
X117646000Y-78140038D01*
X117646000Y-72635824D01*
X119414896Y-72635824D01*
X119506048Y-72856429D01*
X119674683Y-73025359D01*
X119895129Y-73116896D01*
X120133824Y-73117104D01*
X120354429Y-73025952D01*
X120523359Y-72857317D01*
X120614896Y-72636871D01*
X120615000Y-72518041D01*
X120826041Y-72307000D01*
X121401960Y-72307000D01*
X120902961Y-72805999D01*
X120785176Y-72805896D01*
X120564571Y-72897048D01*
X120395641Y-73065683D01*
X120304104Y-73286129D01*
X120303896Y-73524824D01*
X120395048Y-73745429D01*
X120563683Y-73914359D01*
X120784129Y-74005896D01*
X121022824Y-74006104D01*
X121243429Y-73914952D01*
X121412359Y-73746317D01*
X121503896Y-73525871D01*
X121504000Y-73407040D01*
X121969040Y-72942000D01*
X122639470Y-72942000D01*
X122722683Y-73025359D01*
X122943129Y-73116896D01*
X123181824Y-73117104D01*
X123402429Y-73025952D01*
X123571359Y-72857317D01*
X123662896Y-72636871D01*
X123663104Y-72398176D01*
X123571952Y-72177571D01*
X123403317Y-72008641D01*
X123182871Y-71917104D01*
X122944176Y-71916896D01*
X122723571Y-72008048D01*
X122715074Y-72016530D01*
X122773896Y-71874871D01*
X122774104Y-71636176D01*
X122682952Y-71415571D01*
X122514317Y-71246641D01*
X122293871Y-71155104D01*
X122055176Y-71154896D01*
X121834571Y-71246048D01*
X121665641Y-71414683D01*
X121648069Y-71457000D01*
X120650000Y-71457000D01*
X120487359Y-71489351D01*
X120349480Y-71581479D01*
X120013961Y-71916999D01*
X119896176Y-71916896D01*
X119675571Y-72008048D01*
X119506641Y-72176683D01*
X119415104Y-72397129D01*
X119414896Y-72635824D01*
X117646000Y-72635824D01*
X117646000Y-68982731D01*
X117888640Y-69225795D01*
X118278828Y-69387815D01*
X118701318Y-69388184D01*
X119091789Y-69226845D01*
X119390795Y-68928360D01*
X119552815Y-68538172D01*
X119552816Y-68536318D01*
X119968816Y-68536318D01*
X120130155Y-68926789D01*
X120428640Y-69225795D01*
X120818828Y-69387815D01*
X121241318Y-69388184D01*
X121631789Y-69226845D01*
X121930795Y-68928360D01*
X122092815Y-68538172D01*
X122093184Y-68115682D01*
X121931845Y-67725211D01*
X121633360Y-67426205D01*
X121243172Y-67264185D01*
X120820682Y-67263816D01*
X120430211Y-67425155D01*
X120131205Y-67723640D01*
X119969185Y-68113828D01*
X119968816Y-68536318D01*
X119552816Y-68536318D01*
X119553184Y-68115682D01*
X119391845Y-67725211D01*
X119093360Y-67426205D01*
X118916000Y-67352559D01*
X118916000Y-64057040D01*
X119000039Y-63973001D01*
X119117824Y-63973104D01*
X119338429Y-63881952D01*
X119507359Y-63713317D01*
X119598896Y-63492871D01*
X119599104Y-63254176D01*
X119507952Y-63033571D01*
X119339317Y-62864641D01*
X119118871Y-62773104D01*
X118880176Y-62772896D01*
X118659571Y-62864048D01*
X118490641Y-63032683D01*
X118399104Y-63253129D01*
X118399000Y-63371959D01*
X118190480Y-63580480D01*
X118098351Y-63718359D01*
X118098351Y-63718360D01*
X118066000Y-63881000D01*
X118066000Y-67352521D01*
X117890211Y-67425155D01*
X117646000Y-67668940D01*
X117646000Y-62914041D01*
X117660521Y-62899520D01*
X117752649Y-62761641D01*
X117785000Y-62599000D01*
X117785000Y-60570824D01*
X118398896Y-60570824D01*
X118490048Y-60791429D01*
X118658683Y-60960359D01*
X118879129Y-61051896D01*
X118997959Y-61052000D01*
X120222479Y-62276520D01*
X120280711Y-62315429D01*
X120360360Y-62368649D01*
X120523000Y-62401000D01*
X120981960Y-62401000D01*
X123174384Y-64593425D01*
X123098104Y-64777129D01*
X123097896Y-65015824D01*
X123189048Y-65236429D01*
X123357683Y-65405359D01*
X123578129Y-65496896D01*
X123816824Y-65497104D01*
X124037429Y-65405952D01*
X124206359Y-65237317D01*
X124297896Y-65016871D01*
X124298104Y-64778176D01*
X124206952Y-64557571D01*
X124112436Y-64462889D01*
X124090649Y-64353360D01*
X124029604Y-64262000D01*
X123998520Y-64215479D01*
X121458520Y-61675480D01*
X121320641Y-61583351D01*
X121293657Y-61577984D01*
X121158000Y-61551000D01*
X120699041Y-61551000D01*
X119599001Y-60450961D01*
X119599104Y-60333176D01*
X119507952Y-60112571D01*
X119339317Y-59943641D01*
X119118871Y-59852104D01*
X118880176Y-59851896D01*
X118659571Y-59943048D01*
X118490641Y-60111683D01*
X118399104Y-60332129D01*
X118398896Y-60570824D01*
X117785000Y-60570824D01*
X117785000Y-54623297D01*
X117825326Y-54640000D01*
X117935000Y-54640000D01*
X118010000Y-54565000D01*
X118010000Y-53390000D01*
X118110000Y-53390000D01*
X118110000Y-54565000D01*
X118185000Y-54640000D01*
X118294674Y-54640000D01*
X118404937Y-54594328D01*
X118410000Y-54589265D01*
X118415063Y-54594328D01*
X118525326Y-54640000D01*
X118635000Y-54640000D01*
X118710000Y-54565000D01*
X118710000Y-53390000D01*
X118810000Y-53390000D01*
X118810000Y-54565000D01*
X118885000Y-54640000D01*
X118994674Y-54640000D01*
X119104937Y-54594328D01*
X119189328Y-54509936D01*
X119235000Y-54399673D01*
X119235000Y-53465000D01*
X119160000Y-53390000D01*
X118810000Y-53390000D01*
X118710000Y-53390000D01*
X118110000Y-53390000D01*
X118010000Y-53390000D01*
X117990000Y-53390000D01*
X117990000Y-53290000D01*
X118010000Y-53290000D01*
X118010000Y-52115000D01*
X118110000Y-52115000D01*
X118110000Y-53290000D01*
X118710000Y-53290000D01*
X118710000Y-52115000D01*
X118810000Y-52115000D01*
X118810000Y-53290000D01*
X119160000Y-53290000D01*
X119235000Y-53215000D01*
X119235000Y-52280327D01*
X119189328Y-52170064D01*
X119104937Y-52085672D01*
X118994674Y-52040000D01*
X118885000Y-52040000D01*
X118810000Y-52115000D01*
X118710000Y-52115000D01*
X118635000Y-52040000D01*
X118525326Y-52040000D01*
X118415063Y-52085672D01*
X118410000Y-52090735D01*
X118404937Y-52085672D01*
X118294674Y-52040000D01*
X118185000Y-52040000D01*
X118110000Y-52115000D01*
X118010000Y-52115000D01*
X117935000Y-52040000D01*
X117825326Y-52040000D01*
X117715063Y-52085672D01*
X117706585Y-52094150D01*
X117654003Y-52058222D01*
X117535000Y-52034123D01*
X117185000Y-52034123D01*
X117085000Y-52052940D01*
X117085000Y-46457040D01*
X118254041Y-45288000D01*
X125313484Y-45288000D01*
X125221641Y-45379683D01*
X125130104Y-45600129D01*
X125129896Y-45838824D01*
X125221048Y-46059429D01*
X125389683Y-46228359D01*
X125610129Y-46319896D01*
X125728959Y-46320000D01*
X126067000Y-46658041D01*
X126067000Y-46736000D01*
X126090670Y-46854997D01*
X126099351Y-46898641D01*
X126191480Y-47036520D01*
X126712082Y-47557123D01*
X126658000Y-47557123D01*
X126546827Y-47578042D01*
X126444721Y-47643745D01*
X126376222Y-47743997D01*
X126352123Y-47863000D01*
X126352123Y-49863000D01*
X126373042Y-49974173D01*
X126438745Y-50076279D01*
X126538997Y-50144778D01*
X126658000Y-50168877D01*
X127083000Y-50168877D01*
X127083000Y-54737000D01*
X127109984Y-54872657D01*
X127115351Y-54899641D01*
X127207480Y-55037520D01*
X127871585Y-55701625D01*
X127092605Y-56480605D01*
X127028786Y-56574008D01*
X127003045Y-56692667D01*
X127025498Y-56811992D01*
X127092605Y-56913181D01*
X128506819Y-58327395D01*
X128600222Y-58391214D01*
X128718881Y-58416955D01*
X128838206Y-58394502D01*
X128939395Y-58327395D01*
X130353609Y-56913181D01*
X130417428Y-56819778D01*
X130443169Y-56701119D01*
X130420716Y-56581794D01*
X130353609Y-56480605D01*
X129236828Y-55363824D01*
X129828896Y-55363824D01*
X129920048Y-55584429D01*
X130088683Y-55753359D01*
X130309129Y-55844896D01*
X130547824Y-55845104D01*
X130768429Y-55753952D01*
X130937359Y-55585317D01*
X131028896Y-55364871D01*
X131029000Y-55246040D01*
X132469872Y-53805168D01*
X132749459Y-54084755D01*
X132842862Y-54148574D01*
X132961521Y-54174315D01*
X133080846Y-54151862D01*
X133182035Y-54084755D01*
X134596249Y-52670541D01*
X134660068Y-52577138D01*
X134685809Y-52458479D01*
X134663356Y-52339154D01*
X134596249Y-52237965D01*
X133182035Y-50823751D01*
X133088632Y-50759932D01*
X132969973Y-50734191D01*
X132850648Y-50756644D01*
X132749459Y-50823751D01*
X131335245Y-52237965D01*
X131271426Y-52331368D01*
X131245685Y-52450027D01*
X131268138Y-52569352D01*
X131335245Y-52670541D01*
X131868832Y-53204128D01*
X130427961Y-54644999D01*
X130310176Y-54644896D01*
X130089571Y-54736048D01*
X129920641Y-54904683D01*
X129829104Y-55125129D01*
X129828896Y-55363824D01*
X129236828Y-55363824D01*
X128939395Y-55066391D01*
X128845992Y-55002572D01*
X128727333Y-54976831D01*
X128608008Y-54999284D01*
X128506819Y-55066391D01*
X128472625Y-55100585D01*
X127933000Y-54560960D01*
X127933000Y-50168877D01*
X128358000Y-50168877D01*
X128469173Y-50147958D01*
X128571279Y-50082255D01*
X128639778Y-49982003D01*
X128663877Y-49863000D01*
X128663877Y-47984917D01*
X129112480Y-48433521D01*
X129250359Y-48525649D01*
X129413000Y-48558000D01*
X132792960Y-48558000D01*
X134412085Y-50177125D01*
X134204605Y-50384605D01*
X134140786Y-50478008D01*
X134115045Y-50596667D01*
X134137498Y-50715992D01*
X134204605Y-50817181D01*
X135618819Y-52231395D01*
X135712222Y-52295214D01*
X135830881Y-52320955D01*
X135950206Y-52298502D01*
X136051395Y-52231395D01*
X137465609Y-50817181D01*
X137529428Y-50723778D01*
X137555169Y-50605119D01*
X137532716Y-50485794D01*
X137465609Y-50384605D01*
X136051395Y-48970391D01*
X135957992Y-48906572D01*
X135839333Y-48880831D01*
X135720008Y-48903284D01*
X135618819Y-48970391D01*
X135013125Y-49576085D01*
X134092999Y-48655959D01*
X134239000Y-48685000D01*
X137364960Y-48685000D01*
X139272480Y-50592520D01*
X139410359Y-50684649D01*
X139437343Y-50690016D01*
X139573000Y-50717000D01*
X147320000Y-50717000D01*
X147455657Y-50690016D01*
X147482641Y-50684649D01*
X147620520Y-50592520D01*
X147764500Y-50448540D01*
X148800000Y-51484040D01*
X148800000Y-52217716D01*
X147406035Y-50823751D01*
X147312632Y-50759932D01*
X147193973Y-50734191D01*
X147074648Y-50756644D01*
X146973459Y-50823751D01*
X145559245Y-52237965D01*
X145495426Y-52331368D01*
X145469685Y-52450027D01*
X145492138Y-52569352D01*
X145559245Y-52670541D01*
X146973459Y-54084755D01*
X147066862Y-54148574D01*
X147185521Y-54174315D01*
X147304846Y-54151862D01*
X147406035Y-54084755D01*
X147752375Y-53738415D01*
X148165000Y-54151041D01*
X148165000Y-58116959D01*
X148046940Y-58235019D01*
X148047104Y-58047176D01*
X147955952Y-57826571D01*
X147787317Y-57657641D01*
X147566871Y-57566104D01*
X147448040Y-57566000D01*
X146278413Y-56396373D01*
X146140534Y-56304244D01*
X146113550Y-56298877D01*
X145977893Y-56271893D01*
X144368897Y-56271893D01*
X143163395Y-55066391D01*
X143069992Y-55002572D01*
X142951333Y-54976831D01*
X142832008Y-54999284D01*
X142730819Y-55066391D01*
X141316605Y-56480605D01*
X141252786Y-56574008D01*
X141227045Y-56692667D01*
X141249498Y-56811992D01*
X141316605Y-56913181D01*
X142730819Y-58327395D01*
X142824222Y-58391214D01*
X142942881Y-58416955D01*
X143062206Y-58394502D01*
X143163395Y-58327395D01*
X144368897Y-57121893D01*
X145801853Y-57121893D01*
X146846999Y-58167039D01*
X146846896Y-58284824D01*
X146938048Y-58505429D01*
X147106683Y-58674359D01*
X147327129Y-58765896D01*
X147515899Y-58766060D01*
X144733482Y-61548478D01*
X144733479Y-61548480D01*
X144479480Y-61802480D01*
X144387351Y-61940359D01*
X144387351Y-61940360D01*
X144355000Y-62103000D01*
X144355000Y-64466960D01*
X142459051Y-66362909D01*
X142459104Y-66302176D01*
X142367952Y-66081571D01*
X142199317Y-65912641D01*
X141978871Y-65821104D01*
X141860040Y-65821000D01*
X140379000Y-64339960D01*
X140379000Y-61111790D01*
X141708249Y-59782541D01*
X141772068Y-59689138D01*
X141797809Y-59570479D01*
X141775356Y-59451154D01*
X141708249Y-59349965D01*
X140294035Y-57935751D01*
X140200632Y-57871932D01*
X140081973Y-57846191D01*
X139962648Y-57868644D01*
X139861459Y-57935751D01*
X138447245Y-59349965D01*
X138383426Y-59443368D01*
X138357685Y-59562027D01*
X138380138Y-59681352D01*
X138447245Y-59782541D01*
X139529000Y-60864296D01*
X139529000Y-64516000D01*
X139538254Y-64562521D01*
X139561351Y-64678641D01*
X139653480Y-64816520D01*
X141258999Y-66422039D01*
X141258896Y-66539824D01*
X141350048Y-66760429D01*
X141518683Y-66929359D01*
X141739129Y-67020896D01*
X141977824Y-67021104D01*
X142196000Y-66930956D01*
X142196000Y-67669269D01*
X141953360Y-67426205D01*
X141563172Y-67264185D01*
X141140682Y-67263816D01*
X140750211Y-67425155D01*
X140451205Y-67723640D01*
X140289185Y-68113828D01*
X140288816Y-68536318D01*
X140450155Y-68926789D01*
X140748640Y-69225795D01*
X141138828Y-69387815D01*
X141561318Y-69388184D01*
X141951789Y-69226845D01*
X142196000Y-68983060D01*
X142196000Y-69165959D01*
X141936960Y-69425000D01*
X124128041Y-69425000D01*
X124000613Y-69297573D01*
X124171789Y-69226845D01*
X124470795Y-68928360D01*
X124632815Y-68538172D01*
X124632816Y-68536318D01*
X125048816Y-68536318D01*
X125210155Y-68926789D01*
X125508640Y-69225795D01*
X125898828Y-69387815D01*
X126321318Y-69388184D01*
X126711789Y-69226845D01*
X127010795Y-68928360D01*
X127172815Y-68538172D01*
X127172816Y-68536318D01*
X127588816Y-68536318D01*
X127750155Y-68926789D01*
X128048640Y-69225795D01*
X128438828Y-69387815D01*
X128861318Y-69388184D01*
X129251789Y-69226845D01*
X129550795Y-68928360D01*
X129712815Y-68538172D01*
X129712816Y-68536318D01*
X130128816Y-68536318D01*
X130290155Y-68926789D01*
X130588640Y-69225795D01*
X130978828Y-69387815D01*
X131401318Y-69388184D01*
X131791789Y-69226845D01*
X132090795Y-68928360D01*
X132252815Y-68538172D01*
X132252816Y-68536318D01*
X132668816Y-68536318D01*
X132830155Y-68926789D01*
X133128640Y-69225795D01*
X133518828Y-69387815D01*
X133941318Y-69388184D01*
X134331789Y-69226845D01*
X134630795Y-68928360D01*
X134792815Y-68538172D01*
X134792816Y-68536318D01*
X135208816Y-68536318D01*
X135370155Y-68926789D01*
X135668640Y-69225795D01*
X136058828Y-69387815D01*
X136481318Y-69388184D01*
X136871789Y-69226845D01*
X137170795Y-68928360D01*
X137332815Y-68538172D01*
X137332816Y-68536318D01*
X137748816Y-68536318D01*
X137910155Y-68926789D01*
X138208640Y-69225795D01*
X138598828Y-69387815D01*
X139021318Y-69388184D01*
X139411789Y-69226845D01*
X139710795Y-68928360D01*
X139872815Y-68538172D01*
X139873184Y-68115682D01*
X139711845Y-67725211D01*
X139413360Y-67426205D01*
X139023172Y-67264185D01*
X138600682Y-67263816D01*
X138210211Y-67425155D01*
X137911205Y-67723640D01*
X137749185Y-68113828D01*
X137748816Y-68536318D01*
X137332816Y-68536318D01*
X137333184Y-68115682D01*
X137171845Y-67725211D01*
X136873360Y-67426205D01*
X136483172Y-67264185D01*
X136060682Y-67263816D01*
X135670211Y-67425155D01*
X135371205Y-67723640D01*
X135209185Y-68113828D01*
X135208816Y-68536318D01*
X134792816Y-68536318D01*
X134793184Y-68115682D01*
X134631845Y-67725211D01*
X134333360Y-67426205D01*
X133943172Y-67264185D01*
X133622927Y-67263905D01*
X133816429Y-67183952D01*
X133985359Y-67015317D01*
X134076896Y-66794871D01*
X134077019Y-66653426D01*
X134123648Y-66583641D01*
X134123649Y-66583640D01*
X134156000Y-66421000D01*
X134156000Y-65447530D01*
X134239359Y-65364317D01*
X134330896Y-65143871D01*
X134331104Y-64905176D01*
X134239952Y-64684571D01*
X134071317Y-64515641D01*
X133850871Y-64424104D01*
X133612176Y-64423896D01*
X133391571Y-64515048D01*
X133222641Y-64683683D01*
X133131104Y-64904129D01*
X133130896Y-65142824D01*
X133222048Y-65363429D01*
X133306000Y-65447528D01*
X133306000Y-66096455D01*
X133137571Y-66166048D01*
X132968641Y-66334683D01*
X132877104Y-66555129D01*
X132876896Y-66793824D01*
X132968048Y-67014429D01*
X133136683Y-67183359D01*
X133357129Y-67274896D01*
X133493579Y-67275015D01*
X133130211Y-67425155D01*
X132831205Y-67723640D01*
X132669185Y-68113828D01*
X132668816Y-68536318D01*
X132252816Y-68536318D01*
X132253184Y-68115682D01*
X132091845Y-67725211D01*
X131793360Y-67426205D01*
X131403172Y-67264185D01*
X130980682Y-67263816D01*
X130590211Y-67425155D01*
X130291205Y-67723640D01*
X130129185Y-68113828D01*
X130128816Y-68536318D01*
X129712816Y-68536318D01*
X129713184Y-68115682D01*
X129551845Y-67725211D01*
X129253360Y-67426205D01*
X128863172Y-67264185D01*
X128440682Y-67263816D01*
X128050211Y-67425155D01*
X127751205Y-67723640D01*
X127589185Y-68113828D01*
X127588816Y-68536318D01*
X127172816Y-68536318D01*
X127173184Y-68115682D01*
X127011845Y-67725211D01*
X126713360Y-67426205D01*
X126446097Y-67315228D01*
X126442604Y-67310000D01*
X126411520Y-67263479D01*
X126155000Y-67006960D01*
X126155000Y-64047000D01*
X126479123Y-64047000D01*
X126479123Y-65747000D01*
X126500042Y-65858173D01*
X126565745Y-65960279D01*
X126665997Y-66028778D01*
X126785000Y-66052877D01*
X128485000Y-66052877D01*
X128596173Y-66031958D01*
X128698279Y-65966255D01*
X128766778Y-65866003D01*
X128790877Y-65747000D01*
X128790877Y-65126115D01*
X129048050Y-65126115D01*
X129221512Y-65539940D01*
X129540134Y-65855883D01*
X129945886Y-66023946D01*
X130125000Y-65970837D01*
X130125000Y-64947000D01*
X130225000Y-64947000D01*
X130225000Y-65970837D01*
X130404114Y-66023946D01*
X130809866Y-65855883D01*
X131128488Y-65539940D01*
X131301950Y-65126115D01*
X131248917Y-64947000D01*
X130225000Y-64947000D01*
X130125000Y-64947000D01*
X129101083Y-64947000D01*
X129048050Y-65126115D01*
X128790877Y-65126115D01*
X128790877Y-64667885D01*
X129048050Y-64667885D01*
X129101083Y-64847000D01*
X130125000Y-64847000D01*
X130125000Y-63823163D01*
X130225000Y-63823163D01*
X130225000Y-64847000D01*
X131248917Y-64847000D01*
X131301950Y-64667885D01*
X131128488Y-64254060D01*
X130809866Y-63938117D01*
X130487680Y-63804667D01*
X134115045Y-63804667D01*
X134137498Y-63923992D01*
X134204605Y-64025181D01*
X135618819Y-65439395D01*
X135712222Y-65503214D01*
X135830881Y-65528955D01*
X135950206Y-65506502D01*
X136051395Y-65439395D01*
X137465609Y-64025181D01*
X137529428Y-63931778D01*
X137555169Y-63813119D01*
X137532716Y-63693794D01*
X137465609Y-63592605D01*
X137122522Y-63249518D01*
X137206520Y-63165521D01*
X137291379Y-63038520D01*
X137298649Y-63027640D01*
X137331000Y-62865000D01*
X137331000Y-53262040D01*
X138812039Y-51781001D01*
X138929824Y-51781104D01*
X139150429Y-51689952D01*
X139319359Y-51521317D01*
X139410896Y-51300871D01*
X139411104Y-51062176D01*
X139319952Y-50841571D01*
X139151317Y-50672641D01*
X138930871Y-50581104D01*
X138692176Y-50580896D01*
X138471571Y-50672048D01*
X138302641Y-50840683D01*
X138211104Y-51061129D01*
X138211000Y-51179960D01*
X136605480Y-52785480D01*
X136513351Y-52923359D01*
X136513351Y-52923360D01*
X136481000Y-53086000D01*
X136481000Y-62607996D01*
X136051395Y-62178391D01*
X135957992Y-62114572D01*
X135839333Y-62088831D01*
X135720008Y-62111284D01*
X135618819Y-62178391D01*
X134204605Y-63592605D01*
X134140786Y-63686008D01*
X134115045Y-63804667D01*
X130487680Y-63804667D01*
X130404114Y-63770054D01*
X130225000Y-63823163D01*
X130125000Y-63823163D01*
X129945886Y-63770054D01*
X129540134Y-63938117D01*
X129221512Y-64254060D01*
X129048050Y-64667885D01*
X128790877Y-64667885D01*
X128790877Y-64047000D01*
X128769958Y-63935827D01*
X128704255Y-63833721D01*
X128604003Y-63765222D01*
X128485000Y-63741123D01*
X126785000Y-63741123D01*
X126673827Y-63762042D01*
X126571721Y-63827745D01*
X126503222Y-63927997D01*
X126479123Y-64047000D01*
X126155000Y-64047000D01*
X126155000Y-62526530D01*
X126238359Y-62443317D01*
X126329896Y-62222871D01*
X126330104Y-61984176D01*
X126238952Y-61763571D01*
X126070317Y-61594641D01*
X125849871Y-61503104D01*
X125611176Y-61502896D01*
X125390571Y-61594048D01*
X125221641Y-61762683D01*
X125130104Y-61983129D01*
X125129896Y-62221824D01*
X125221048Y-62442429D01*
X125305000Y-62526528D01*
X125305000Y-67183000D01*
X125323321Y-67275104D01*
X125337351Y-67345641D01*
X125429480Y-67483520D01*
X125440602Y-67494642D01*
X125211205Y-67723640D01*
X125049185Y-68113828D01*
X125048816Y-68536318D01*
X124632816Y-68536318D01*
X124633184Y-68115682D01*
X124471845Y-67725211D01*
X124173360Y-67426205D01*
X123783172Y-67264185D01*
X123360682Y-67263816D01*
X122970211Y-67425155D01*
X122671205Y-67723640D01*
X122509185Y-68113828D01*
X122508816Y-68536318D01*
X122670155Y-68926789D01*
X122968640Y-69225795D01*
X123146000Y-69299441D01*
X123146000Y-69469000D01*
X123162510Y-69552000D01*
X123178351Y-69631641D01*
X123270480Y-69769520D01*
X123651479Y-70150520D01*
X123743608Y-70212078D01*
X123789360Y-70242649D01*
X123952000Y-70275000D01*
X132076540Y-70275000D01*
X131952641Y-70398683D01*
X131861104Y-70619129D01*
X131860896Y-70857824D01*
X131952048Y-71078429D01*
X132120683Y-71247359D01*
X132341129Y-71338896D01*
X132459959Y-71339000D01*
X133306000Y-72185041D01*
X133306000Y-87672521D01*
X133130211Y-87745155D01*
X132831205Y-88043640D01*
X132669185Y-88433828D01*
X132668816Y-88856318D01*
X132830155Y-89246789D01*
X133128640Y-89545795D01*
X133518828Y-89707815D01*
X133941318Y-89708184D01*
X134331789Y-89546845D01*
X134630795Y-89248360D01*
X134792815Y-88858172D01*
X134792816Y-88856318D01*
X135208816Y-88856318D01*
X135370155Y-89246789D01*
X135668640Y-89545795D01*
X136058828Y-89707815D01*
X136481318Y-89708184D01*
X136871789Y-89546845D01*
X137170795Y-89248360D01*
X137332815Y-88858172D01*
X137332816Y-88856318D01*
X137748816Y-88856318D01*
X137910155Y-89246789D01*
X138208640Y-89545795D01*
X138598828Y-89707815D01*
X139021318Y-89708184D01*
X139411789Y-89546845D01*
X139710795Y-89248360D01*
X139872815Y-88858172D01*
X139872816Y-88856318D01*
X140288816Y-88856318D01*
X140450155Y-89246789D01*
X140748640Y-89545795D01*
X141138828Y-89707815D01*
X141561318Y-89708184D01*
X141951789Y-89546845D01*
X142250795Y-89248360D01*
X142412815Y-88858172D01*
X142412816Y-88856318D01*
X142828816Y-88856318D01*
X142990155Y-89246789D01*
X143288640Y-89545795D01*
X143678828Y-89707815D01*
X144101318Y-89708184D01*
X144491789Y-89546845D01*
X144790795Y-89248360D01*
X144952815Y-88858172D01*
X144953184Y-88435682D01*
X144791845Y-88045211D01*
X144493360Y-87746205D01*
X144103172Y-87584185D01*
X143680682Y-87583816D01*
X143290211Y-87745155D01*
X142991205Y-88043640D01*
X142829185Y-88433828D01*
X142828816Y-88856318D01*
X142412816Y-88856318D01*
X142413184Y-88435682D01*
X142251845Y-88045211D01*
X141953360Y-87746205D01*
X141563172Y-87584185D01*
X141140682Y-87583816D01*
X140750211Y-87745155D01*
X140451205Y-88043640D01*
X140289185Y-88433828D01*
X140288816Y-88856318D01*
X139872816Y-88856318D01*
X139873184Y-88435682D01*
X139711845Y-88045211D01*
X139413360Y-87746205D01*
X139023172Y-87584185D01*
X138600682Y-87583816D01*
X138210211Y-87745155D01*
X137911205Y-88043640D01*
X137749185Y-88433828D01*
X137748816Y-88856318D01*
X137332816Y-88856318D01*
X137333184Y-88435682D01*
X137171845Y-88045211D01*
X136873360Y-87746205D01*
X136483172Y-87584185D01*
X136060682Y-87583816D01*
X135670211Y-87745155D01*
X135371205Y-88043640D01*
X135209185Y-88433828D01*
X135208816Y-88856318D01*
X134792816Y-88856318D01*
X134793184Y-88435682D01*
X134631845Y-88045211D01*
X134333360Y-87746205D01*
X134156000Y-87672559D01*
X134156000Y-87376000D01*
X145546866Y-87376000D01*
X145710840Y-88200351D01*
X146177797Y-88899203D01*
X146876649Y-89366160D01*
X147701000Y-89530134D01*
X148525351Y-89366160D01*
X149224203Y-88899203D01*
X149691160Y-88200351D01*
X149855134Y-87376000D01*
X149691160Y-86551649D01*
X149224203Y-85852797D01*
X148525351Y-85385840D01*
X147701000Y-85221866D01*
X146876649Y-85385840D01*
X146177797Y-85852797D01*
X145710840Y-86551649D01*
X145546866Y-87376000D01*
X134156000Y-87376000D01*
X134156000Y-86246857D01*
X134238048Y-86445429D01*
X134406683Y-86614359D01*
X134627129Y-86705896D01*
X134865824Y-86706104D01*
X135086429Y-86614952D01*
X135255359Y-86446317D01*
X135346896Y-86225871D01*
X135346962Y-86150000D01*
X145542000Y-86150000D01*
X145677657Y-86123016D01*
X145704641Y-86117649D01*
X145842520Y-86025520D01*
X146731520Y-85136520D01*
X146823649Y-84998641D01*
X146856000Y-84836000D01*
X146856000Y-81964040D01*
X147194039Y-81626001D01*
X147311824Y-81626104D01*
X147532429Y-81534952D01*
X147701359Y-81366317D01*
X147792896Y-81145871D01*
X147793104Y-80907176D01*
X147701952Y-80686571D01*
X147533317Y-80517641D01*
X147312871Y-80426104D01*
X147074176Y-80425896D01*
X146853571Y-80517048D01*
X146684641Y-80685683D01*
X146593104Y-80906129D01*
X146593000Y-81024959D01*
X146130480Y-81487480D01*
X146038351Y-81625359D01*
X146038351Y-81625360D01*
X146006000Y-81788000D01*
X146006000Y-84659960D01*
X145365960Y-85300000D01*
X135128000Y-85300000D01*
X134965360Y-85332351D01*
X134965358Y-85332352D01*
X134965359Y-85332352D01*
X134827479Y-85424480D01*
X134745961Y-85505999D01*
X134628176Y-85505896D01*
X134407571Y-85597048D01*
X134238641Y-85765683D01*
X134156000Y-85964705D01*
X134156000Y-83945000D01*
X143004000Y-83945000D01*
X143004000Y-84679673D01*
X143049672Y-84789936D01*
X143134063Y-84874328D01*
X143244326Y-84920000D01*
X144179000Y-84920000D01*
X144254000Y-84845000D01*
X144254000Y-83870000D01*
X144354000Y-83870000D01*
X144354000Y-84845000D01*
X144429000Y-84920000D01*
X145363674Y-84920000D01*
X145473937Y-84874328D01*
X145558328Y-84789936D01*
X145604000Y-84679673D01*
X145604000Y-83945000D01*
X145529000Y-83870000D01*
X144354000Y-83870000D01*
X144254000Y-83870000D01*
X143079000Y-83870000D01*
X143004000Y-83945000D01*
X134156000Y-83945000D01*
X134156000Y-82960327D01*
X143004000Y-82960327D01*
X143004000Y-83695000D01*
X143079000Y-83770000D01*
X144254000Y-83770000D01*
X144254000Y-82795000D01*
X144354000Y-82795000D01*
X144354000Y-83770000D01*
X145529000Y-83770000D01*
X145604000Y-83695000D01*
X145604000Y-82960327D01*
X145558328Y-82850064D01*
X145473937Y-82765672D01*
X145363674Y-82720000D01*
X144429000Y-82720000D01*
X144354000Y-82795000D01*
X144254000Y-82795000D01*
X144179000Y-82720000D01*
X143244326Y-82720000D01*
X143134063Y-82765672D01*
X143049672Y-82850064D01*
X143004000Y-82960327D01*
X134156000Y-82960327D01*
X134156000Y-72009000D01*
X134123649Y-71846360D01*
X134070388Y-71766649D01*
X134031520Y-71708479D01*
X133061001Y-70737961D01*
X133061104Y-70620176D01*
X132969952Y-70399571D01*
X132845599Y-70275000D01*
X138183946Y-70275000D01*
X138137721Y-70304745D01*
X138069222Y-70404997D01*
X138045123Y-70524000D01*
X138045123Y-72224000D01*
X138066042Y-72335173D01*
X138131745Y-72437279D01*
X138231997Y-72505778D01*
X138351000Y-72529877D01*
X138926000Y-72529877D01*
X138926000Y-78264000D01*
X138952984Y-78399657D01*
X138958351Y-78426641D01*
X139050480Y-78564520D01*
X140190585Y-79704625D01*
X140046605Y-79848605D01*
X139982786Y-79942008D01*
X139957045Y-80060667D01*
X139979498Y-80179992D01*
X140046605Y-80281181D01*
X141460819Y-81695395D01*
X141554222Y-81759214D01*
X141672881Y-81784955D01*
X141792206Y-81762502D01*
X141893395Y-81695395D01*
X143307609Y-80281181D01*
X143371428Y-80187778D01*
X143397169Y-80069119D01*
X143374716Y-79949794D01*
X143307609Y-79848605D01*
X141893395Y-78434391D01*
X141799992Y-78370572D01*
X141681333Y-78344831D01*
X141562008Y-78367284D01*
X141460819Y-78434391D01*
X140791625Y-79103585D01*
X139776000Y-78087960D01*
X139776000Y-72529877D01*
X140351000Y-72529877D01*
X140462173Y-72508958D01*
X140564279Y-72443255D01*
X140632778Y-72343003D01*
X140656877Y-72224000D01*
X140656877Y-70524000D01*
X140635958Y-70412827D01*
X140570255Y-70310721D01*
X140517975Y-70275000D01*
X142113000Y-70275000D01*
X142215690Y-70254574D01*
X142137721Y-70304745D01*
X142069222Y-70404997D01*
X142045123Y-70524000D01*
X142045123Y-72224000D01*
X142066042Y-72335173D01*
X142131745Y-72437279D01*
X142231997Y-72505778D01*
X142351000Y-72529877D01*
X144318837Y-72529877D01*
X145896348Y-74107389D01*
X145804648Y-74124644D01*
X145703459Y-74191751D01*
X144289245Y-75605965D01*
X144225426Y-75699368D01*
X144199685Y-75818027D01*
X144222138Y-75937352D01*
X144289245Y-76038541D01*
X145703459Y-77452755D01*
X145796862Y-77516574D01*
X145915521Y-77542315D01*
X146034846Y-77519862D01*
X146136035Y-77452755D01*
X147550249Y-76038541D01*
X147614068Y-75945138D01*
X147635465Y-75846506D01*
X147879000Y-76090041D01*
X147879000Y-82714123D01*
X147304000Y-82714123D01*
X147192827Y-82735042D01*
X147090721Y-82800745D01*
X147022222Y-82900997D01*
X146998123Y-83020000D01*
X146998123Y-84620000D01*
X147019042Y-84731173D01*
X147084745Y-84833279D01*
X147184997Y-84901778D01*
X147304000Y-84925877D01*
X149304000Y-84925877D01*
X149415173Y-84904958D01*
X149517279Y-84839255D01*
X149585778Y-84739003D01*
X149609877Y-84620000D01*
X149609877Y-83020000D01*
X149588958Y-82908827D01*
X149523255Y-82806721D01*
X149423003Y-82738222D01*
X149304000Y-82714123D01*
X148729000Y-82714123D01*
X148729000Y-80362626D01*
X148757683Y-80391359D01*
X148978129Y-80482896D01*
X149216824Y-80483104D01*
X149437429Y-80391952D01*
X149606359Y-80223317D01*
X149697896Y-80002871D01*
X149698000Y-79884040D01*
X150287520Y-79294520D01*
X150379649Y-79156641D01*
X150412000Y-78994000D01*
X150412000Y-62787040D01*
X150668520Y-62530521D01*
X150755000Y-62401094D01*
X150755000Y-90133064D01*
X150680085Y-90509689D01*
X150487666Y-90797666D01*
X150199689Y-90990085D01*
X149823068Y-91065000D01*
X99096936Y-91065000D01*
X98720311Y-90990085D01*
X98432334Y-90797666D01*
X98239915Y-90509689D01*
X98165000Y-90133068D01*
X98165000Y-87376000D01*
X99701000Y-87376000D01*
X99826218Y-88005514D01*
X100182809Y-88539191D01*
X100716486Y-88895782D01*
X101346000Y-89021000D01*
X101975514Y-88895782D01*
X102034576Y-88856318D01*
X114888816Y-88856318D01*
X115050155Y-89246789D01*
X115348640Y-89545795D01*
X115738828Y-89707815D01*
X116161318Y-89708184D01*
X116551789Y-89546845D01*
X116850795Y-89248360D01*
X117012815Y-88858172D01*
X117012816Y-88856318D01*
X117428816Y-88856318D01*
X117590155Y-89246789D01*
X117888640Y-89545795D01*
X118278828Y-89707815D01*
X118701318Y-89708184D01*
X119091789Y-89546845D01*
X119390795Y-89248360D01*
X119552815Y-88858172D01*
X119552816Y-88856318D01*
X119968816Y-88856318D01*
X120130155Y-89246789D01*
X120428640Y-89545795D01*
X120818828Y-89707815D01*
X121241318Y-89708184D01*
X121631789Y-89546845D01*
X121930795Y-89248360D01*
X122092815Y-88858172D01*
X122092816Y-88856318D01*
X122508816Y-88856318D01*
X122670155Y-89246789D01*
X122968640Y-89545795D01*
X123358828Y-89707815D01*
X123781318Y-89708184D01*
X124171789Y-89546845D01*
X124470795Y-89248360D01*
X124632815Y-88858172D01*
X124632816Y-88856318D01*
X125048816Y-88856318D01*
X125210155Y-89246789D01*
X125508640Y-89545795D01*
X125898828Y-89707815D01*
X126321318Y-89708184D01*
X126711789Y-89546845D01*
X127010795Y-89248360D01*
X127172815Y-88858172D01*
X127172816Y-88856318D01*
X127588816Y-88856318D01*
X127750155Y-89246789D01*
X128048640Y-89545795D01*
X128438828Y-89707815D01*
X128861318Y-89708184D01*
X129251789Y-89546845D01*
X129550795Y-89248360D01*
X129712815Y-88858172D01*
X129712816Y-88856318D01*
X130128816Y-88856318D01*
X130290155Y-89246789D01*
X130588640Y-89545795D01*
X130978828Y-89707815D01*
X131401318Y-89708184D01*
X131791789Y-89546845D01*
X132090795Y-89248360D01*
X132252815Y-88858172D01*
X132253184Y-88435682D01*
X132091845Y-88045211D01*
X131793360Y-87746205D01*
X131403172Y-87584185D01*
X130980682Y-87583816D01*
X130590211Y-87745155D01*
X130291205Y-88043640D01*
X130129185Y-88433828D01*
X130128816Y-88856318D01*
X129712816Y-88856318D01*
X129713184Y-88435682D01*
X129551845Y-88045211D01*
X129253360Y-87746205D01*
X128863172Y-87584185D01*
X128440682Y-87583816D01*
X128050211Y-87745155D01*
X127751205Y-88043640D01*
X127589185Y-88433828D01*
X127588816Y-88856318D01*
X127172816Y-88856318D01*
X127173184Y-88435682D01*
X127025582Y-88078458D01*
X128573041Y-86531000D01*
X131910470Y-86531000D01*
X131993683Y-86614359D01*
X132214129Y-86705896D01*
X132452824Y-86706104D01*
X132673429Y-86614952D01*
X132842359Y-86446317D01*
X132933896Y-86225871D01*
X132934104Y-85987176D01*
X132842952Y-85766571D01*
X132674317Y-85597641D01*
X132453871Y-85506104D01*
X132215176Y-85505896D01*
X131994571Y-85597048D01*
X131910472Y-85681000D01*
X128397000Y-85681000D01*
X128234360Y-85713351D01*
X128234358Y-85713352D01*
X128234359Y-85713352D01*
X128096479Y-85805480D01*
X126317779Y-87584180D01*
X125900682Y-87583816D01*
X125510211Y-87745155D01*
X125211205Y-88043640D01*
X125049185Y-88433828D01*
X125048816Y-88856318D01*
X124632816Y-88856318D01*
X124633184Y-88435682D01*
X124471845Y-88045211D01*
X124173360Y-87746205D01*
X123783172Y-87584185D01*
X123360682Y-87583816D01*
X122970211Y-87745155D01*
X122671205Y-88043640D01*
X122509185Y-88433828D01*
X122508816Y-88856318D01*
X122092816Y-88856318D01*
X122093184Y-88435682D01*
X121931845Y-88045211D01*
X121633360Y-87746205D01*
X121243172Y-87584185D01*
X120820682Y-87583816D01*
X120430211Y-87745155D01*
X120131205Y-88043640D01*
X119969185Y-88433828D01*
X119968816Y-88856318D01*
X119552816Y-88856318D01*
X119553184Y-88435682D01*
X119391845Y-88045211D01*
X119093360Y-87746205D01*
X118703172Y-87584185D01*
X118280682Y-87583816D01*
X117890211Y-87745155D01*
X117591205Y-88043640D01*
X117429185Y-88433828D01*
X117428816Y-88856318D01*
X117012816Y-88856318D01*
X117013184Y-88435682D01*
X116851845Y-88045211D01*
X116553360Y-87746205D01*
X116163172Y-87584185D01*
X115740682Y-87583816D01*
X115350211Y-87745155D01*
X115051205Y-88043640D01*
X114889185Y-88433828D01*
X114888816Y-88856318D01*
X102034576Y-88856318D01*
X102509191Y-88539191D01*
X102865782Y-88005514D01*
X102991000Y-87376000D01*
X102865782Y-86746486D01*
X102509191Y-86212809D01*
X101975514Y-85856218D01*
X101346000Y-85731000D01*
X100716486Y-85856218D01*
X100182809Y-86212809D01*
X99826218Y-86746486D01*
X99701000Y-87376000D01*
X98165000Y-87376000D01*
X98165000Y-82891040D01*
X98759480Y-83485521D01*
X98897359Y-83577649D01*
X99060000Y-83610000D01*
X99602961Y-83610000D01*
X99602896Y-83684824D01*
X99694048Y-83905429D01*
X99862683Y-84074359D01*
X100083129Y-84165896D01*
X100321824Y-84166104D01*
X100542429Y-84074952D01*
X100711359Y-83906317D01*
X100802896Y-83685871D01*
X100803104Y-83447176D01*
X100711952Y-83226571D01*
X100543317Y-83057641D01*
X100348858Y-82976895D01*
X100548591Y-82975512D01*
X100925327Y-82819463D01*
X101006394Y-82662104D01*
X100330000Y-81985711D01*
X99653606Y-82662104D01*
X99704039Y-82760000D01*
X99236041Y-82760000D01*
X98723000Y-82246960D01*
X98723000Y-81711112D01*
X99266563Y-81711112D01*
X99269488Y-82133591D01*
X99425537Y-82510327D01*
X99582896Y-82591394D01*
X100259289Y-81915000D01*
X100400711Y-81915000D01*
X101077104Y-82591394D01*
X101234463Y-82510327D01*
X101393437Y-82118888D01*
X101390512Y-81696409D01*
X101234463Y-81319673D01*
X101077104Y-81238606D01*
X100400711Y-81915000D01*
X100259289Y-81915000D01*
X99582896Y-81238606D01*
X99425537Y-81319673D01*
X99266563Y-81711112D01*
X98723000Y-81711112D01*
X98723000Y-81167896D01*
X99653606Y-81167896D01*
X100330000Y-81844289D01*
X101006394Y-81167896D01*
X100925327Y-81010537D01*
X100533888Y-80851563D01*
X100111409Y-80854488D01*
X99734673Y-81010537D01*
X99653606Y-81167896D01*
X98723000Y-81167896D01*
X98723000Y-77045318D01*
X99267816Y-77045318D01*
X99429155Y-77435789D01*
X99727640Y-77734795D01*
X100117828Y-77896815D01*
X100540318Y-77897184D01*
X100930789Y-77735845D01*
X101229795Y-77437360D01*
X101391815Y-77047172D01*
X101392184Y-76624682D01*
X101230845Y-76234211D01*
X100932360Y-75935205D01*
X100542172Y-75773185D01*
X100119682Y-75772816D01*
X99729211Y-75934155D01*
X99430205Y-76232640D01*
X99268185Y-76622828D01*
X99267816Y-77045318D01*
X98723000Y-77045318D01*
X98723000Y-74505318D01*
X99267816Y-74505318D01*
X99429155Y-74895789D01*
X99727640Y-75194795D01*
X100117828Y-75356815D01*
X100540318Y-75357184D01*
X100930789Y-75195845D01*
X101229795Y-74897360D01*
X101391815Y-74507172D01*
X101392184Y-74084682D01*
X101230845Y-73694211D01*
X100932360Y-73395205D01*
X100542172Y-73233185D01*
X100119682Y-73232816D01*
X99729211Y-73394155D01*
X99430205Y-73692640D01*
X99268185Y-74082828D01*
X99267816Y-74505318D01*
X98723000Y-74505318D01*
X98723000Y-69596000D01*
X99693087Y-69596000D01*
X99818908Y-70228542D01*
X100177214Y-70764786D01*
X100713458Y-71123092D01*
X101346000Y-71248913D01*
X101978542Y-71123092D01*
X102514786Y-70764786D01*
X102873092Y-70228542D01*
X102998913Y-69596000D01*
X102873092Y-68963458D01*
X102514786Y-68427214D01*
X101978542Y-68068908D01*
X101346000Y-67943087D01*
X100713458Y-68068908D01*
X100177214Y-68427214D01*
X99818908Y-68963458D01*
X99693087Y-69596000D01*
X98723000Y-69596000D01*
X98723000Y-54913040D01*
X100171040Y-53465000D01*
X110585000Y-53465000D01*
X110585000Y-54399673D01*
X110630672Y-54509936D01*
X110715063Y-54594328D01*
X110825326Y-54640000D01*
X110935000Y-54640000D01*
X111010000Y-54565000D01*
X111010000Y-53390000D01*
X110660000Y-53390000D01*
X110585000Y-53465000D01*
X100171040Y-53465000D01*
X100757520Y-52878520D01*
X100849649Y-52740641D01*
X100859055Y-52693351D01*
X100882000Y-52578000D01*
X100882000Y-52280327D01*
X110585000Y-52280327D01*
X110585000Y-53215000D01*
X110660000Y-53290000D01*
X111010000Y-53290000D01*
X111010000Y-52115000D01*
X110935000Y-52040000D01*
X110825326Y-52040000D01*
X110715063Y-52085672D01*
X110630672Y-52170064D01*
X110585000Y-52280327D01*
X100882000Y-52280327D01*
X100882000Y-51858530D01*
X100965359Y-51775317D01*
X101056896Y-51554871D01*
X101057104Y-51316176D01*
X100965952Y-51095571D01*
X100797317Y-50926641D01*
X100576871Y-50835104D01*
X100338176Y-50834896D01*
X100117571Y-50926048D01*
X99948641Y-51094683D01*
X99857104Y-51315129D01*
X99856896Y-51553824D01*
X99948048Y-51774429D01*
X100032000Y-51858528D01*
X100032000Y-52401960D01*
X98165000Y-54268960D01*
X98165000Y-44066530D01*
X98995870Y-44066530D01*
X99109811Y-44342286D01*
X99320605Y-44553448D01*
X99596161Y-44667869D01*
X99894530Y-44668130D01*
X100170286Y-44554189D01*
X100381448Y-44343395D01*
X100495869Y-44067839D01*
X100496130Y-43769470D01*
X100382189Y-43493714D01*
X100171395Y-43282552D01*
X99895839Y-43168131D01*
X99597470Y-43167870D01*
X99321714Y-43281811D01*
X99110552Y-43492605D01*
X98996131Y-43768161D01*
X98995870Y-44066530D01*
X98165000Y-44066530D01*
X98165000Y-41066530D01*
X98995870Y-41066530D01*
X99109811Y-41342286D01*
X99320605Y-41553448D01*
X99596161Y-41667869D01*
X99894530Y-41668130D01*
X100170286Y-41554189D01*
X100381448Y-41343395D01*
X100495869Y-41067839D01*
X100496130Y-40769470D01*
X100382189Y-40493714D01*
X100171395Y-40282552D01*
X99895839Y-40168131D01*
X99597470Y-40167870D01*
X99321714Y-40281811D01*
X99110552Y-40492605D01*
X98996131Y-40768161D01*
X98995870Y-41066530D01*
X98165000Y-41066530D01*
X98165000Y-35596937D01*
X98220581Y-35317511D01*
X98357940Y-35111940D01*
X98563512Y-34974581D01*
X98842936Y-34919000D01*
X125944823Y-34919000D01*
X125944823Y-38989000D01*
X125944823Y-38989000D01*
G37*
X125944823Y-38989000D02*
X125965742Y-39100173D01*
X126031445Y-39202279D01*
X126131697Y-39270778D01*
X126250700Y-39294877D01*
X127520700Y-39294877D01*
X127631873Y-39273958D01*
X127733979Y-39208255D01*
X127802478Y-39108003D01*
X127826577Y-38989000D01*
X127826577Y-34919000D01*
X130237423Y-34919000D01*
X130237423Y-38989000D01*
X130258342Y-39100173D01*
X130324045Y-39202279D01*
X130424297Y-39270778D01*
X130543300Y-39294877D01*
X131813300Y-39294877D01*
X131924473Y-39273958D01*
X132026579Y-39208255D01*
X132095078Y-39108003D01*
X132119177Y-38989000D01*
X132119177Y-38161000D01*
X132411123Y-38161000D01*
X132411123Y-39561000D01*
X132432042Y-39672173D01*
X132497745Y-39774279D01*
X132597997Y-39842778D01*
X132717000Y-39866877D01*
X134517000Y-39866877D01*
X134628173Y-39845958D01*
X134730279Y-39780255D01*
X134798778Y-39680003D01*
X134822877Y-39561000D01*
X134822877Y-38161000D01*
X134801958Y-38049827D01*
X134736255Y-37947721D01*
X134636003Y-37879222D01*
X134517000Y-37855123D01*
X132717000Y-37855123D01*
X132605827Y-37876042D01*
X132503721Y-37941745D01*
X132435222Y-38041997D01*
X132411123Y-38161000D01*
X132119177Y-38161000D01*
X132119177Y-34919000D01*
X132411123Y-34919000D01*
X132411123Y-36261000D01*
X132432042Y-36372173D01*
X132497745Y-36474279D01*
X132597997Y-36542778D01*
X132717000Y-36566877D01*
X134517000Y-36566877D01*
X134628173Y-36545958D01*
X134702859Y-36497899D01*
X136195000Y-37990040D01*
X136195000Y-44037000D01*
X136217374Y-44149480D01*
X136227351Y-44199641D01*
X136306004Y-44317353D01*
X136305896Y-44441824D01*
X136354000Y-44558245D01*
X136354000Y-47835000D01*
X134415041Y-47835000D01*
X133904520Y-47324480D01*
X133766641Y-47232351D01*
X133739657Y-47226984D01*
X133604000Y-47200000D01*
X129970041Y-47200000D01*
X129457000Y-46686960D01*
X129457000Y-46387000D01*
X129424649Y-46224360D01*
X129353821Y-46118359D01*
X129332520Y-46086479D01*
X128663877Y-45417836D01*
X128663877Y-43863000D01*
X128642958Y-43751827D01*
X128577255Y-43649721D01*
X128477003Y-43581222D01*
X128358000Y-43557123D01*
X126658000Y-43557123D01*
X126576150Y-43572524D01*
X126583896Y-43553871D01*
X126584104Y-43315176D01*
X126492952Y-43094571D01*
X126409000Y-43010472D01*
X126409000Y-41959040D01*
X127049040Y-41319000D01*
X132164470Y-41319000D01*
X132247683Y-41402359D01*
X132468129Y-41493896D01*
X132706824Y-41494104D01*
X132927429Y-41402952D01*
X133096359Y-41234317D01*
X133187896Y-41013871D01*
X133188104Y-40775176D01*
X133096952Y-40554571D01*
X132928317Y-40385641D01*
X132707871Y-40294104D01*
X132469176Y-40293896D01*
X132248571Y-40385048D01*
X132164472Y-40469000D01*
X126873000Y-40469000D01*
X126710359Y-40501351D01*
X126572480Y-40593480D01*
X125683480Y-41482480D01*
X125591351Y-41620359D01*
X125591351Y-41620360D01*
X125559000Y-41783000D01*
X125559000Y-43010470D01*
X125475641Y-43093683D01*
X125384104Y-43314129D01*
X125383896Y-43552824D01*
X125475048Y-43773429D01*
X125643683Y-43942359D01*
X125864129Y-44033896D01*
X126102824Y-44034104D01*
X126323429Y-43942952D01*
X126352123Y-43914308D01*
X126352123Y-44438000D01*
X118078000Y-44438000D01*
X117915359Y-44470351D01*
X117777480Y-44562479D01*
X116359480Y-45980480D01*
X116267351Y-46118359D01*
X116267351Y-46118360D01*
X116235000Y-46281000D01*
X116235000Y-52056703D01*
X116194674Y-52040000D01*
X116085000Y-52040000D01*
X116010000Y-52115000D01*
X116010000Y-53290000D01*
X116030000Y-53290000D01*
X116030000Y-53390000D01*
X116010000Y-53390000D01*
X116010000Y-54565000D01*
X116085000Y-54640000D01*
X116194674Y-54640000D01*
X116235000Y-54623297D01*
X116235000Y-54893028D01*
X116193351Y-54955359D01*
X116193351Y-54955360D01*
X116161000Y-55118000D01*
X116161000Y-58878959D01*
X115822961Y-59216999D01*
X115705176Y-59216896D01*
X115484571Y-59308048D01*
X115315641Y-59476683D01*
X115224104Y-59697129D01*
X115223896Y-59935824D01*
X115315048Y-60156429D01*
X115483683Y-60325359D01*
X115704129Y-60416896D01*
X115942824Y-60417104D01*
X116163429Y-60325952D01*
X116332359Y-60157317D01*
X116423896Y-59936871D01*
X116424000Y-59818041D01*
X116886521Y-59355520D01*
X116935000Y-59282966D01*
X116935000Y-62422960D01*
X116920480Y-62437480D01*
X116828351Y-62575359D01*
X116828351Y-62575360D01*
X116796000Y-62738000D01*
X116796000Y-67669269D01*
X116553360Y-67426205D01*
X116376000Y-67352559D01*
X116376000Y-61538545D01*
X116544429Y-61468952D01*
X116713359Y-61300317D01*
X116804896Y-61079871D01*
X116805104Y-60841176D01*
X116713952Y-60620571D01*
X116545317Y-60451641D01*
X116324871Y-60360104D01*
X116086176Y-60359896D01*
X115865571Y-60451048D01*
X115696641Y-60619683D01*
X115605104Y-60840129D01*
X115604981Y-60981574D01*
X115558351Y-61051359D01*
X115558351Y-61051360D01*
X115526000Y-61214000D01*
X115526000Y-67352521D01*
X115350211Y-67425155D01*
X115106000Y-67668940D01*
X115106000Y-65278000D01*
X115073649Y-65115360D01*
X115073649Y-65115359D01*
X114981521Y-64977480D01*
X112960981Y-62956940D01*
X113148824Y-62957104D01*
X113369429Y-62865952D01*
X113538359Y-62697317D01*
X113629896Y-62476871D01*
X113630000Y-62358040D01*
X114219520Y-61768520D01*
X114981521Y-61006520D01*
X115073649Y-60868641D01*
X115106000Y-60706000D01*
X115106000Y-54640000D01*
X115135000Y-54640000D01*
X115210000Y-54565000D01*
X115210000Y-53390000D01*
X115310000Y-53390000D01*
X115310000Y-54565000D01*
X115385000Y-54640000D01*
X115494674Y-54640000D01*
X115604937Y-54594328D01*
X115610000Y-54589265D01*
X115615063Y-54594328D01*
X115725326Y-54640000D01*
X115835000Y-54640000D01*
X115910000Y-54565000D01*
X115910000Y-53390000D01*
X115310000Y-53390000D01*
X115210000Y-53390000D01*
X115190000Y-53390000D01*
X115190000Y-53290000D01*
X115210000Y-53290000D01*
X115210000Y-52115000D01*
X115310000Y-52115000D01*
X115310000Y-53290000D01*
X115910000Y-53290000D01*
X115910000Y-52115000D01*
X115835000Y-52040000D01*
X115725326Y-52040000D01*
X115615063Y-52085672D01*
X115610000Y-52090735D01*
X115604937Y-52085672D01*
X115494674Y-52040000D01*
X115385000Y-52040000D01*
X115310000Y-52115000D01*
X115210000Y-52115000D01*
X115135000Y-52040000D01*
X115025326Y-52040000D01*
X114915063Y-52085672D01*
X114906585Y-52094150D01*
X114854003Y-52058222D01*
X114735000Y-52034123D01*
X114385000Y-52034123D01*
X114273827Y-52055042D01*
X114209721Y-52096293D01*
X114154003Y-52058222D01*
X114035000Y-52034123D01*
X113685000Y-52034123D01*
X113573827Y-52055042D01*
X113509721Y-52096293D01*
X113454003Y-52058222D01*
X113335000Y-52034123D01*
X112985000Y-52034123D01*
X112873827Y-52055042D01*
X112809721Y-52096293D01*
X112754003Y-52058222D01*
X112635000Y-52034123D01*
X112285000Y-52034123D01*
X112173827Y-52055042D01*
X112109721Y-52096293D01*
X112054003Y-52058222D01*
X111935000Y-52034123D01*
X111585000Y-52034123D01*
X111473827Y-52055042D01*
X111413272Y-52094008D01*
X111404937Y-52085672D01*
X111294674Y-52040000D01*
X111185000Y-52040000D01*
X111110000Y-52115000D01*
X111110000Y-53290000D01*
X111130000Y-53290000D01*
X111130000Y-53390000D01*
X111110000Y-53390000D01*
X111110000Y-54565000D01*
X111185000Y-54640000D01*
X111294674Y-54640000D01*
X111335000Y-54623297D01*
X111335000Y-61591540D01*
X111211317Y-61467641D01*
X110990871Y-61376104D01*
X110752176Y-61375896D01*
X110531571Y-61467048D01*
X110362641Y-61635683D01*
X110271104Y-61856129D01*
X110271000Y-61974959D01*
X108676940Y-63569019D01*
X108677104Y-63381176D01*
X108585952Y-63160571D01*
X108417317Y-62991641D01*
X108196871Y-62900104D01*
X107958176Y-62899896D01*
X107737571Y-62991048D01*
X107568641Y-63159683D01*
X107477104Y-63380129D01*
X107477000Y-63498959D01*
X107141480Y-63834480D01*
X107049351Y-63972359D01*
X107049351Y-63972360D01*
X107017000Y-64135000D01*
X107017000Y-66752959D01*
X106760480Y-67009480D01*
X106668351Y-67147359D01*
X106668351Y-67147360D01*
X106636000Y-67310000D01*
X106636000Y-67669269D01*
X106393360Y-67426205D01*
X106003172Y-67264185D01*
X105580682Y-67263816D01*
X105190211Y-67425155D01*
X104891205Y-67723640D01*
X104729185Y-68113828D01*
X104728816Y-68536318D01*
X104890155Y-68926789D01*
X105188640Y-69225795D01*
X105578828Y-69387815D01*
X106001318Y-69388184D01*
X106391789Y-69226845D01*
X106636000Y-68983060D01*
X106636000Y-69592540D01*
X106512317Y-69468641D01*
X106291871Y-69377104D01*
X106053176Y-69376896D01*
X105832571Y-69468048D01*
X105748472Y-69552000D01*
X105205040Y-69552000D01*
X104565000Y-68911960D01*
X104565000Y-67613040D01*
X104948520Y-67229521D01*
X105033379Y-67102520D01*
X105040649Y-67091640D01*
X105073000Y-66929000D01*
X105073000Y-65200040D01*
X106681039Y-63592001D01*
X106798824Y-63592104D01*
X107019429Y-63500952D01*
X107188359Y-63332317D01*
X107279896Y-63111871D01*
X107280104Y-62873176D01*
X107188952Y-62652571D01*
X107020317Y-62483641D01*
X106799871Y-62392104D01*
X106561176Y-62391896D01*
X106340571Y-62483048D01*
X106171641Y-62651683D01*
X106080104Y-62872129D01*
X106080000Y-62990960D01*
X104347480Y-64723480D01*
X104255351Y-64861359D01*
X104255351Y-64861360D01*
X104223000Y-65024000D01*
X104223000Y-66752959D01*
X103839480Y-67136480D01*
X103747351Y-67274359D01*
X103747351Y-67274360D01*
X103715000Y-67437000D01*
X103715000Y-69088000D01*
X103733173Y-69179360D01*
X103747351Y-69250641D01*
X103839480Y-69388520D01*
X104728480Y-70277520D01*
X104866359Y-70369649D01*
X105029000Y-70402000D01*
X105748470Y-70402000D01*
X105831683Y-70485359D01*
X106052129Y-70576896D01*
X106290824Y-70577104D01*
X106511429Y-70485952D01*
X106519926Y-70477470D01*
X106461104Y-70619129D01*
X106460896Y-70857824D01*
X106552048Y-71078429D01*
X106720683Y-71247359D01*
X106941129Y-71338896D01*
X107179824Y-71339104D01*
X107400429Y-71247952D01*
X107569359Y-71079317D01*
X107660896Y-70858871D01*
X107661104Y-70620176D01*
X107569952Y-70399571D01*
X107486000Y-70315472D01*
X107486000Y-68982731D01*
X107728640Y-69225795D01*
X107906000Y-69299441D01*
X107906000Y-75515959D01*
X104471960Y-78950000D01*
X101303479Y-78950000D01*
X101230845Y-78774211D01*
X100932360Y-78475205D01*
X100542172Y-78313185D01*
X100119682Y-78312816D01*
X99729211Y-78474155D01*
X99430205Y-78772640D01*
X99268185Y-79162828D01*
X99267816Y-79585318D01*
X99429155Y-79975789D01*
X99727640Y-80274795D01*
X100117828Y-80436815D01*
X100540318Y-80437184D01*
X100930789Y-80275845D01*
X101229795Y-79977360D01*
X101303441Y-79800000D01*
X104648000Y-79800000D01*
X104783657Y-79773016D01*
X104810641Y-79767649D01*
X104948520Y-79675520D01*
X108631521Y-75992520D01*
X108723649Y-75854641D01*
X108756000Y-75692000D01*
X108756000Y-69299479D01*
X108931789Y-69226845D01*
X109230795Y-68928360D01*
X109392815Y-68538172D01*
X109392816Y-68536318D01*
X109808816Y-68536318D01*
X109970155Y-68926789D01*
X110268640Y-69225795D01*
X110658828Y-69387815D01*
X111081318Y-69388184D01*
X111471789Y-69226845D01*
X111592624Y-69106220D01*
X111607173Y-69179360D01*
X111621351Y-69250641D01*
X111713480Y-69388520D01*
X111843000Y-69518041D01*
X111843000Y-76980782D01*
X111795104Y-77096129D01*
X111794896Y-77334824D01*
X111886048Y-77555429D01*
X112054683Y-77724359D01*
X112275129Y-77815896D01*
X112513824Y-77816104D01*
X112734429Y-77724952D01*
X112903359Y-77556317D01*
X112994896Y-77335871D01*
X112995104Y-77097176D01*
X112903952Y-76876571D01*
X112735317Y-76707641D01*
X112693000Y-76690069D01*
X112693000Y-69342000D01*
X112660649Y-69179360D01*
X112599604Y-69088000D01*
X112589651Y-69073104D01*
X112734606Y-69073104D01*
X112815673Y-69230463D01*
X113207112Y-69389437D01*
X113629591Y-69386512D01*
X114006327Y-69230463D01*
X114087394Y-69073104D01*
X113411000Y-68396711D01*
X112734606Y-69073104D01*
X112589651Y-69073104D01*
X112568520Y-69041479D01*
X112439000Y-68911960D01*
X112439000Y-68758278D01*
X112506537Y-68921327D01*
X112663896Y-69002394D01*
X113340289Y-68326000D01*
X112663896Y-67649606D01*
X112506537Y-67730673D01*
X112439000Y-67896968D01*
X112439000Y-67578896D01*
X112734606Y-67578896D01*
X113411000Y-68255289D01*
X114087394Y-67578896D01*
X114006327Y-67421537D01*
X113614888Y-67262563D01*
X113192409Y-67265488D01*
X112815673Y-67421537D01*
X112734606Y-67578896D01*
X112439000Y-67578896D01*
X112439000Y-64262000D01*
X112406649Y-64099360D01*
X112406649Y-64099359D01*
X112314521Y-63961480D01*
X111977140Y-63624100D01*
X111978896Y-63619871D01*
X111979104Y-63381176D01*
X111887952Y-63160571D01*
X111719317Y-62991641D01*
X111498871Y-62900104D01*
X111260176Y-62899896D01*
X111039571Y-62991048D01*
X110870641Y-63159683D01*
X110779104Y-63380129D01*
X110778896Y-63618824D01*
X110870048Y-63839429D01*
X111038683Y-64008359D01*
X111244981Y-64094021D01*
X111589000Y-64438041D01*
X111589000Y-67542047D01*
X111473360Y-67426205D01*
X111083172Y-67264185D01*
X110660682Y-67263816D01*
X110270211Y-67425155D01*
X109971205Y-67723640D01*
X109809185Y-68113828D01*
X109808816Y-68536318D01*
X109392816Y-68536318D01*
X109393184Y-68115682D01*
X109231845Y-67725211D01*
X108933360Y-67426205D01*
X108756000Y-67352559D01*
X108756000Y-64692040D01*
X110872040Y-62576001D01*
X110989824Y-62576104D01*
X111210429Y-62484952D01*
X111335597Y-62360002D01*
X111358844Y-62476871D01*
X111367351Y-62519641D01*
X111459480Y-62657520D01*
X114256000Y-65454041D01*
X114256000Y-67700039D01*
X114158104Y-67649606D01*
X113481711Y-68326000D01*
X114158104Y-69002394D01*
X114256000Y-68951961D01*
X114256000Y-76665470D01*
X114172641Y-76748683D01*
X114081104Y-76969129D01*
X114080896Y-77207824D01*
X114172048Y-77428429D01*
X114340683Y-77597359D01*
X114561129Y-77688896D01*
X114799824Y-77689104D01*
X115020429Y-77597952D01*
X115189359Y-77429317D01*
X115280896Y-77208871D01*
X115281104Y-76970176D01*
X115189952Y-76749571D01*
X115106000Y-76665472D01*
X115106000Y-68982731D01*
X115348640Y-69225795D01*
X115738828Y-69387815D01*
X116161318Y-69388184D01*
X116551789Y-69226845D01*
X116796000Y-68983060D01*
X116796000Y-78359000D01*
X116818906Y-78474155D01*
X116828351Y-78521641D01*
X116920480Y-78659520D01*
X117001999Y-78741039D01*
X117001896Y-78858824D01*
X117093048Y-79079429D01*
X117261683Y-79248359D01*
X117482129Y-79339896D01*
X117720824Y-79340104D01*
X117941429Y-79248952D01*
X118110359Y-79080317D01*
X118201896Y-78859871D01*
X118202104Y-78621176D01*
X118110952Y-78400571D01*
X117942317Y-78231641D01*
X117721871Y-78140104D01*
X117646000Y-78140038D01*
X117646000Y-72635824D01*
X119414896Y-72635824D01*
X119506048Y-72856429D01*
X119674683Y-73025359D01*
X119895129Y-73116896D01*
X120133824Y-73117104D01*
X120354429Y-73025952D01*
X120523359Y-72857317D01*
X120614896Y-72636871D01*
X120615000Y-72518041D01*
X120826041Y-72307000D01*
X121401960Y-72307000D01*
X120902961Y-72805999D01*
X120785176Y-72805896D01*
X120564571Y-72897048D01*
X120395641Y-73065683D01*
X120304104Y-73286129D01*
X120303896Y-73524824D01*
X120395048Y-73745429D01*
X120563683Y-73914359D01*
X120784129Y-74005896D01*
X121022824Y-74006104D01*
X121243429Y-73914952D01*
X121412359Y-73746317D01*
X121503896Y-73525871D01*
X121504000Y-73407040D01*
X121969040Y-72942000D01*
X122639470Y-72942000D01*
X122722683Y-73025359D01*
X122943129Y-73116896D01*
X123181824Y-73117104D01*
X123402429Y-73025952D01*
X123571359Y-72857317D01*
X123662896Y-72636871D01*
X123663104Y-72398176D01*
X123571952Y-72177571D01*
X123403317Y-72008641D01*
X123182871Y-71917104D01*
X122944176Y-71916896D01*
X122723571Y-72008048D01*
X122715074Y-72016530D01*
X122773896Y-71874871D01*
X122774104Y-71636176D01*
X122682952Y-71415571D01*
X122514317Y-71246641D01*
X122293871Y-71155104D01*
X122055176Y-71154896D01*
X121834571Y-71246048D01*
X121665641Y-71414683D01*
X121648069Y-71457000D01*
X120650000Y-71457000D01*
X120487359Y-71489351D01*
X120349480Y-71581479D01*
X120013961Y-71916999D01*
X119896176Y-71916896D01*
X119675571Y-72008048D01*
X119506641Y-72176683D01*
X119415104Y-72397129D01*
X119414896Y-72635824D01*
X117646000Y-72635824D01*
X117646000Y-68982731D01*
X117888640Y-69225795D01*
X118278828Y-69387815D01*
X118701318Y-69388184D01*
X119091789Y-69226845D01*
X119390795Y-68928360D01*
X119552815Y-68538172D01*
X119552816Y-68536318D01*
X119968816Y-68536318D01*
X120130155Y-68926789D01*
X120428640Y-69225795D01*
X120818828Y-69387815D01*
X121241318Y-69388184D01*
X121631789Y-69226845D01*
X121930795Y-68928360D01*
X122092815Y-68538172D01*
X122093184Y-68115682D01*
X121931845Y-67725211D01*
X121633360Y-67426205D01*
X121243172Y-67264185D01*
X120820682Y-67263816D01*
X120430211Y-67425155D01*
X120131205Y-67723640D01*
X119969185Y-68113828D01*
X119968816Y-68536318D01*
X119552816Y-68536318D01*
X119553184Y-68115682D01*
X119391845Y-67725211D01*
X119093360Y-67426205D01*
X118916000Y-67352559D01*
X118916000Y-64057040D01*
X119000039Y-63973001D01*
X119117824Y-63973104D01*
X119338429Y-63881952D01*
X119507359Y-63713317D01*
X119598896Y-63492871D01*
X119599104Y-63254176D01*
X119507952Y-63033571D01*
X119339317Y-62864641D01*
X119118871Y-62773104D01*
X118880176Y-62772896D01*
X118659571Y-62864048D01*
X118490641Y-63032683D01*
X118399104Y-63253129D01*
X118399000Y-63371959D01*
X118190480Y-63580480D01*
X118098351Y-63718359D01*
X118098351Y-63718360D01*
X118066000Y-63881000D01*
X118066000Y-67352521D01*
X117890211Y-67425155D01*
X117646000Y-67668940D01*
X117646000Y-62914041D01*
X117660521Y-62899520D01*
X117752649Y-62761641D01*
X117785000Y-62599000D01*
X117785000Y-60570824D01*
X118398896Y-60570824D01*
X118490048Y-60791429D01*
X118658683Y-60960359D01*
X118879129Y-61051896D01*
X118997959Y-61052000D01*
X120222479Y-62276520D01*
X120280711Y-62315429D01*
X120360360Y-62368649D01*
X120523000Y-62401000D01*
X120981960Y-62401000D01*
X123174384Y-64593425D01*
X123098104Y-64777129D01*
X123097896Y-65015824D01*
X123189048Y-65236429D01*
X123357683Y-65405359D01*
X123578129Y-65496896D01*
X123816824Y-65497104D01*
X124037429Y-65405952D01*
X124206359Y-65237317D01*
X124297896Y-65016871D01*
X124298104Y-64778176D01*
X124206952Y-64557571D01*
X124112436Y-64462889D01*
X124090649Y-64353360D01*
X124029604Y-64262000D01*
X123998520Y-64215479D01*
X121458520Y-61675480D01*
X121320641Y-61583351D01*
X121293657Y-61577984D01*
X121158000Y-61551000D01*
X120699041Y-61551000D01*
X119599001Y-60450961D01*
X119599104Y-60333176D01*
X119507952Y-60112571D01*
X119339317Y-59943641D01*
X119118871Y-59852104D01*
X118880176Y-59851896D01*
X118659571Y-59943048D01*
X118490641Y-60111683D01*
X118399104Y-60332129D01*
X118398896Y-60570824D01*
X117785000Y-60570824D01*
X117785000Y-54623297D01*
X117825326Y-54640000D01*
X117935000Y-54640000D01*
X118010000Y-54565000D01*
X118010000Y-53390000D01*
X118110000Y-53390000D01*
X118110000Y-54565000D01*
X118185000Y-54640000D01*
X118294674Y-54640000D01*
X118404937Y-54594328D01*
X118410000Y-54589265D01*
X118415063Y-54594328D01*
X118525326Y-54640000D01*
X118635000Y-54640000D01*
X118710000Y-54565000D01*
X118710000Y-53390000D01*
X118810000Y-53390000D01*
X118810000Y-54565000D01*
X118885000Y-54640000D01*
X118994674Y-54640000D01*
X119104937Y-54594328D01*
X119189328Y-54509936D01*
X119235000Y-54399673D01*
X119235000Y-53465000D01*
X119160000Y-53390000D01*
X118810000Y-53390000D01*
X118710000Y-53390000D01*
X118110000Y-53390000D01*
X118010000Y-53390000D01*
X117990000Y-53390000D01*
X117990000Y-53290000D01*
X118010000Y-53290000D01*
X118010000Y-52115000D01*
X118110000Y-52115000D01*
X118110000Y-53290000D01*
X118710000Y-53290000D01*
X118710000Y-52115000D01*
X118810000Y-52115000D01*
X118810000Y-53290000D01*
X119160000Y-53290000D01*
X119235000Y-53215000D01*
X119235000Y-52280327D01*
X119189328Y-52170064D01*
X119104937Y-52085672D01*
X118994674Y-52040000D01*
X118885000Y-52040000D01*
X118810000Y-52115000D01*
X118710000Y-52115000D01*
X118635000Y-52040000D01*
X118525326Y-52040000D01*
X118415063Y-52085672D01*
X118410000Y-52090735D01*
X118404937Y-52085672D01*
X118294674Y-52040000D01*
X118185000Y-52040000D01*
X118110000Y-52115000D01*
X118010000Y-52115000D01*
X117935000Y-52040000D01*
X117825326Y-52040000D01*
X117715063Y-52085672D01*
X117706585Y-52094150D01*
X117654003Y-52058222D01*
X117535000Y-52034123D01*
X117185000Y-52034123D01*
X117085000Y-52052940D01*
X117085000Y-46457040D01*
X118254041Y-45288000D01*
X125313484Y-45288000D01*
X125221641Y-45379683D01*
X125130104Y-45600129D01*
X125129896Y-45838824D01*
X125221048Y-46059429D01*
X125389683Y-46228359D01*
X125610129Y-46319896D01*
X125728959Y-46320000D01*
X126067000Y-46658041D01*
X126067000Y-46736000D01*
X126090670Y-46854997D01*
X126099351Y-46898641D01*
X126191480Y-47036520D01*
X126712082Y-47557123D01*
X126658000Y-47557123D01*
X126546827Y-47578042D01*
X126444721Y-47643745D01*
X126376222Y-47743997D01*
X126352123Y-47863000D01*
X126352123Y-49863000D01*
X126373042Y-49974173D01*
X126438745Y-50076279D01*
X126538997Y-50144778D01*
X126658000Y-50168877D01*
X127083000Y-50168877D01*
X127083000Y-54737000D01*
X127109984Y-54872657D01*
X127115351Y-54899641D01*
X127207480Y-55037520D01*
X127871585Y-55701625D01*
X127092605Y-56480605D01*
X127028786Y-56574008D01*
X127003045Y-56692667D01*
X127025498Y-56811992D01*
X127092605Y-56913181D01*
X128506819Y-58327395D01*
X128600222Y-58391214D01*
X128718881Y-58416955D01*
X128838206Y-58394502D01*
X128939395Y-58327395D01*
X130353609Y-56913181D01*
X130417428Y-56819778D01*
X130443169Y-56701119D01*
X130420716Y-56581794D01*
X130353609Y-56480605D01*
X129236828Y-55363824D01*
X129828896Y-55363824D01*
X129920048Y-55584429D01*
X130088683Y-55753359D01*
X130309129Y-55844896D01*
X130547824Y-55845104D01*
X130768429Y-55753952D01*
X130937359Y-55585317D01*
X131028896Y-55364871D01*
X131029000Y-55246040D01*
X132469872Y-53805168D01*
X132749459Y-54084755D01*
X132842862Y-54148574D01*
X132961521Y-54174315D01*
X133080846Y-54151862D01*
X133182035Y-54084755D01*
X134596249Y-52670541D01*
X134660068Y-52577138D01*
X134685809Y-52458479D01*
X134663356Y-52339154D01*
X134596249Y-52237965D01*
X133182035Y-50823751D01*
X133088632Y-50759932D01*
X132969973Y-50734191D01*
X132850648Y-50756644D01*
X132749459Y-50823751D01*
X131335245Y-52237965D01*
X131271426Y-52331368D01*
X131245685Y-52450027D01*
X131268138Y-52569352D01*
X131335245Y-52670541D01*
X131868832Y-53204128D01*
X130427961Y-54644999D01*
X130310176Y-54644896D01*
X130089571Y-54736048D01*
X129920641Y-54904683D01*
X129829104Y-55125129D01*
X129828896Y-55363824D01*
X129236828Y-55363824D01*
X128939395Y-55066391D01*
X128845992Y-55002572D01*
X128727333Y-54976831D01*
X128608008Y-54999284D01*
X128506819Y-55066391D01*
X128472625Y-55100585D01*
X127933000Y-54560960D01*
X127933000Y-50168877D01*
X128358000Y-50168877D01*
X128469173Y-50147958D01*
X128571279Y-50082255D01*
X128639778Y-49982003D01*
X128663877Y-49863000D01*
X128663877Y-47984917D01*
X129112480Y-48433521D01*
X129250359Y-48525649D01*
X129413000Y-48558000D01*
X132792960Y-48558000D01*
X134412085Y-50177125D01*
X134204605Y-50384605D01*
X134140786Y-50478008D01*
X134115045Y-50596667D01*
X134137498Y-50715992D01*
X134204605Y-50817181D01*
X135618819Y-52231395D01*
X135712222Y-52295214D01*
X135830881Y-52320955D01*
X135950206Y-52298502D01*
X136051395Y-52231395D01*
X137465609Y-50817181D01*
X137529428Y-50723778D01*
X137555169Y-50605119D01*
X137532716Y-50485794D01*
X137465609Y-50384605D01*
X136051395Y-48970391D01*
X135957992Y-48906572D01*
X135839333Y-48880831D01*
X135720008Y-48903284D01*
X135618819Y-48970391D01*
X135013125Y-49576085D01*
X134092999Y-48655959D01*
X134239000Y-48685000D01*
X137364960Y-48685000D01*
X139272480Y-50592520D01*
X139410359Y-50684649D01*
X139437343Y-50690016D01*
X139573000Y-50717000D01*
X147320000Y-50717000D01*
X147455657Y-50690016D01*
X147482641Y-50684649D01*
X147620520Y-50592520D01*
X147764500Y-50448540D01*
X148800000Y-51484040D01*
X148800000Y-52217716D01*
X147406035Y-50823751D01*
X147312632Y-50759932D01*
X147193973Y-50734191D01*
X147074648Y-50756644D01*
X146973459Y-50823751D01*
X145559245Y-52237965D01*
X145495426Y-52331368D01*
X145469685Y-52450027D01*
X145492138Y-52569352D01*
X145559245Y-52670541D01*
X146973459Y-54084755D01*
X147066862Y-54148574D01*
X147185521Y-54174315D01*
X147304846Y-54151862D01*
X147406035Y-54084755D01*
X147752375Y-53738415D01*
X148165000Y-54151041D01*
X148165000Y-58116959D01*
X148046940Y-58235019D01*
X148047104Y-58047176D01*
X147955952Y-57826571D01*
X147787317Y-57657641D01*
X147566871Y-57566104D01*
X147448040Y-57566000D01*
X146278413Y-56396373D01*
X146140534Y-56304244D01*
X146113550Y-56298877D01*
X145977893Y-56271893D01*
X144368897Y-56271893D01*
X143163395Y-55066391D01*
X143069992Y-55002572D01*
X142951333Y-54976831D01*
X142832008Y-54999284D01*
X142730819Y-55066391D01*
X141316605Y-56480605D01*
X141252786Y-56574008D01*
X141227045Y-56692667D01*
X141249498Y-56811992D01*
X141316605Y-56913181D01*
X142730819Y-58327395D01*
X142824222Y-58391214D01*
X142942881Y-58416955D01*
X143062206Y-58394502D01*
X143163395Y-58327395D01*
X144368897Y-57121893D01*
X145801853Y-57121893D01*
X146846999Y-58167039D01*
X146846896Y-58284824D01*
X146938048Y-58505429D01*
X147106683Y-58674359D01*
X147327129Y-58765896D01*
X147515899Y-58766060D01*
X144733482Y-61548478D01*
X144733479Y-61548480D01*
X144479480Y-61802480D01*
X144387351Y-61940359D01*
X144387351Y-61940360D01*
X144355000Y-62103000D01*
X144355000Y-64466960D01*
X142459051Y-66362909D01*
X142459104Y-66302176D01*
X142367952Y-66081571D01*
X142199317Y-65912641D01*
X141978871Y-65821104D01*
X141860040Y-65821000D01*
X140379000Y-64339960D01*
X140379000Y-61111790D01*
X141708249Y-59782541D01*
X141772068Y-59689138D01*
X141797809Y-59570479D01*
X141775356Y-59451154D01*
X141708249Y-59349965D01*
X140294035Y-57935751D01*
X140200632Y-57871932D01*
X140081973Y-57846191D01*
X139962648Y-57868644D01*
X139861459Y-57935751D01*
X138447245Y-59349965D01*
X138383426Y-59443368D01*
X138357685Y-59562027D01*
X138380138Y-59681352D01*
X138447245Y-59782541D01*
X139529000Y-60864296D01*
X139529000Y-64516000D01*
X139538254Y-64562521D01*
X139561351Y-64678641D01*
X139653480Y-64816520D01*
X141258999Y-66422039D01*
X141258896Y-66539824D01*
X141350048Y-66760429D01*
X141518683Y-66929359D01*
X141739129Y-67020896D01*
X141977824Y-67021104D01*
X142196000Y-66930956D01*
X142196000Y-67669269D01*
X141953360Y-67426205D01*
X141563172Y-67264185D01*
X141140682Y-67263816D01*
X140750211Y-67425155D01*
X140451205Y-67723640D01*
X140289185Y-68113828D01*
X140288816Y-68536318D01*
X140450155Y-68926789D01*
X140748640Y-69225795D01*
X141138828Y-69387815D01*
X141561318Y-69388184D01*
X141951789Y-69226845D01*
X142196000Y-68983060D01*
X142196000Y-69165959D01*
X141936960Y-69425000D01*
X124128041Y-69425000D01*
X124000613Y-69297573D01*
X124171789Y-69226845D01*
X124470795Y-68928360D01*
X124632815Y-68538172D01*
X124632816Y-68536318D01*
X125048816Y-68536318D01*
X125210155Y-68926789D01*
X125508640Y-69225795D01*
X125898828Y-69387815D01*
X126321318Y-69388184D01*
X126711789Y-69226845D01*
X127010795Y-68928360D01*
X127172815Y-68538172D01*
X127172816Y-68536318D01*
X127588816Y-68536318D01*
X127750155Y-68926789D01*
X128048640Y-69225795D01*
X128438828Y-69387815D01*
X128861318Y-69388184D01*
X129251789Y-69226845D01*
X129550795Y-68928360D01*
X129712815Y-68538172D01*
X129712816Y-68536318D01*
X130128816Y-68536318D01*
X130290155Y-68926789D01*
X130588640Y-69225795D01*
X130978828Y-69387815D01*
X131401318Y-69388184D01*
X131791789Y-69226845D01*
X132090795Y-68928360D01*
X132252815Y-68538172D01*
X132252816Y-68536318D01*
X132668816Y-68536318D01*
X132830155Y-68926789D01*
X133128640Y-69225795D01*
X133518828Y-69387815D01*
X133941318Y-69388184D01*
X134331789Y-69226845D01*
X134630795Y-68928360D01*
X134792815Y-68538172D01*
X134792816Y-68536318D01*
X135208816Y-68536318D01*
X135370155Y-68926789D01*
X135668640Y-69225795D01*
X136058828Y-69387815D01*
X136481318Y-69388184D01*
X136871789Y-69226845D01*
X137170795Y-68928360D01*
X137332815Y-68538172D01*
X137332816Y-68536318D01*
X137748816Y-68536318D01*
X137910155Y-68926789D01*
X138208640Y-69225795D01*
X138598828Y-69387815D01*
X139021318Y-69388184D01*
X139411789Y-69226845D01*
X139710795Y-68928360D01*
X139872815Y-68538172D01*
X139873184Y-68115682D01*
X139711845Y-67725211D01*
X139413360Y-67426205D01*
X139023172Y-67264185D01*
X138600682Y-67263816D01*
X138210211Y-67425155D01*
X137911205Y-67723640D01*
X137749185Y-68113828D01*
X137748816Y-68536318D01*
X137332816Y-68536318D01*
X137333184Y-68115682D01*
X137171845Y-67725211D01*
X136873360Y-67426205D01*
X136483172Y-67264185D01*
X136060682Y-67263816D01*
X135670211Y-67425155D01*
X135371205Y-67723640D01*
X135209185Y-68113828D01*
X135208816Y-68536318D01*
X134792816Y-68536318D01*
X134793184Y-68115682D01*
X134631845Y-67725211D01*
X134333360Y-67426205D01*
X133943172Y-67264185D01*
X133622927Y-67263905D01*
X133816429Y-67183952D01*
X133985359Y-67015317D01*
X134076896Y-66794871D01*
X134077019Y-66653426D01*
X134123648Y-66583641D01*
X134123649Y-66583640D01*
X134156000Y-66421000D01*
X134156000Y-65447530D01*
X134239359Y-65364317D01*
X134330896Y-65143871D01*
X134331104Y-64905176D01*
X134239952Y-64684571D01*
X134071317Y-64515641D01*
X133850871Y-64424104D01*
X133612176Y-64423896D01*
X133391571Y-64515048D01*
X133222641Y-64683683D01*
X133131104Y-64904129D01*
X133130896Y-65142824D01*
X133222048Y-65363429D01*
X133306000Y-65447528D01*
X133306000Y-66096455D01*
X133137571Y-66166048D01*
X132968641Y-66334683D01*
X132877104Y-66555129D01*
X132876896Y-66793824D01*
X132968048Y-67014429D01*
X133136683Y-67183359D01*
X133357129Y-67274896D01*
X133493579Y-67275015D01*
X133130211Y-67425155D01*
X132831205Y-67723640D01*
X132669185Y-68113828D01*
X132668816Y-68536318D01*
X132252816Y-68536318D01*
X132253184Y-68115682D01*
X132091845Y-67725211D01*
X131793360Y-67426205D01*
X131403172Y-67264185D01*
X130980682Y-67263816D01*
X130590211Y-67425155D01*
X130291205Y-67723640D01*
X130129185Y-68113828D01*
X130128816Y-68536318D01*
X129712816Y-68536318D01*
X129713184Y-68115682D01*
X129551845Y-67725211D01*
X129253360Y-67426205D01*
X128863172Y-67264185D01*
X128440682Y-67263816D01*
X128050211Y-67425155D01*
X127751205Y-67723640D01*
X127589185Y-68113828D01*
X127588816Y-68536318D01*
X127172816Y-68536318D01*
X127173184Y-68115682D01*
X127011845Y-67725211D01*
X126713360Y-67426205D01*
X126446097Y-67315228D01*
X126442604Y-67310000D01*
X126411520Y-67263479D01*
X126155000Y-67006960D01*
X126155000Y-64047000D01*
X126479123Y-64047000D01*
X126479123Y-65747000D01*
X126500042Y-65858173D01*
X126565745Y-65960279D01*
X126665997Y-66028778D01*
X126785000Y-66052877D01*
X128485000Y-66052877D01*
X128596173Y-66031958D01*
X128698279Y-65966255D01*
X128766778Y-65866003D01*
X128790877Y-65747000D01*
X128790877Y-65126115D01*
X129048050Y-65126115D01*
X129221512Y-65539940D01*
X129540134Y-65855883D01*
X129945886Y-66023946D01*
X130125000Y-65970837D01*
X130125000Y-64947000D01*
X130225000Y-64947000D01*
X130225000Y-65970837D01*
X130404114Y-66023946D01*
X130809866Y-65855883D01*
X131128488Y-65539940D01*
X131301950Y-65126115D01*
X131248917Y-64947000D01*
X130225000Y-64947000D01*
X130125000Y-64947000D01*
X129101083Y-64947000D01*
X129048050Y-65126115D01*
X128790877Y-65126115D01*
X128790877Y-64667885D01*
X129048050Y-64667885D01*
X129101083Y-64847000D01*
X130125000Y-64847000D01*
X130125000Y-63823163D01*
X130225000Y-63823163D01*
X130225000Y-64847000D01*
X131248917Y-64847000D01*
X131301950Y-64667885D01*
X131128488Y-64254060D01*
X130809866Y-63938117D01*
X130487680Y-63804667D01*
X134115045Y-63804667D01*
X134137498Y-63923992D01*
X134204605Y-64025181D01*
X135618819Y-65439395D01*
X135712222Y-65503214D01*
X135830881Y-65528955D01*
X135950206Y-65506502D01*
X136051395Y-65439395D01*
X137465609Y-64025181D01*
X137529428Y-63931778D01*
X137555169Y-63813119D01*
X137532716Y-63693794D01*
X137465609Y-63592605D01*
X137122522Y-63249518D01*
X137206520Y-63165521D01*
X137291379Y-63038520D01*
X137298649Y-63027640D01*
X137331000Y-62865000D01*
X137331000Y-53262040D01*
X138812039Y-51781001D01*
X138929824Y-51781104D01*
X139150429Y-51689952D01*
X139319359Y-51521317D01*
X139410896Y-51300871D01*
X139411104Y-51062176D01*
X139319952Y-50841571D01*
X139151317Y-50672641D01*
X138930871Y-50581104D01*
X138692176Y-50580896D01*
X138471571Y-50672048D01*
X138302641Y-50840683D01*
X138211104Y-51061129D01*
X138211000Y-51179960D01*
X136605480Y-52785480D01*
X136513351Y-52923359D01*
X136513351Y-52923360D01*
X136481000Y-53086000D01*
X136481000Y-62607996D01*
X136051395Y-62178391D01*
X135957992Y-62114572D01*
X135839333Y-62088831D01*
X135720008Y-62111284D01*
X135618819Y-62178391D01*
X134204605Y-63592605D01*
X134140786Y-63686008D01*
X134115045Y-63804667D01*
X130487680Y-63804667D01*
X130404114Y-63770054D01*
X130225000Y-63823163D01*
X130125000Y-63823163D01*
X129945886Y-63770054D01*
X129540134Y-63938117D01*
X129221512Y-64254060D01*
X129048050Y-64667885D01*
X128790877Y-64667885D01*
X128790877Y-64047000D01*
X128769958Y-63935827D01*
X128704255Y-63833721D01*
X128604003Y-63765222D01*
X128485000Y-63741123D01*
X126785000Y-63741123D01*
X126673827Y-63762042D01*
X126571721Y-63827745D01*
X126503222Y-63927997D01*
X126479123Y-64047000D01*
X126155000Y-64047000D01*
X126155000Y-62526530D01*
X126238359Y-62443317D01*
X126329896Y-62222871D01*
X126330104Y-61984176D01*
X126238952Y-61763571D01*
X126070317Y-61594641D01*
X125849871Y-61503104D01*
X125611176Y-61502896D01*
X125390571Y-61594048D01*
X125221641Y-61762683D01*
X125130104Y-61983129D01*
X125129896Y-62221824D01*
X125221048Y-62442429D01*
X125305000Y-62526528D01*
X125305000Y-67183000D01*
X125323321Y-67275104D01*
X125337351Y-67345641D01*
X125429480Y-67483520D01*
X125440602Y-67494642D01*
X125211205Y-67723640D01*
X125049185Y-68113828D01*
X125048816Y-68536318D01*
X124632816Y-68536318D01*
X124633184Y-68115682D01*
X124471845Y-67725211D01*
X124173360Y-67426205D01*
X123783172Y-67264185D01*
X123360682Y-67263816D01*
X122970211Y-67425155D01*
X122671205Y-67723640D01*
X122509185Y-68113828D01*
X122508816Y-68536318D01*
X122670155Y-68926789D01*
X122968640Y-69225795D01*
X123146000Y-69299441D01*
X123146000Y-69469000D01*
X123162510Y-69552000D01*
X123178351Y-69631641D01*
X123270480Y-69769520D01*
X123651479Y-70150520D01*
X123743608Y-70212078D01*
X123789360Y-70242649D01*
X123952000Y-70275000D01*
X132076540Y-70275000D01*
X131952641Y-70398683D01*
X131861104Y-70619129D01*
X131860896Y-70857824D01*
X131952048Y-71078429D01*
X132120683Y-71247359D01*
X132341129Y-71338896D01*
X132459959Y-71339000D01*
X133306000Y-72185041D01*
X133306000Y-87672521D01*
X133130211Y-87745155D01*
X132831205Y-88043640D01*
X132669185Y-88433828D01*
X132668816Y-88856318D01*
X132830155Y-89246789D01*
X133128640Y-89545795D01*
X133518828Y-89707815D01*
X133941318Y-89708184D01*
X134331789Y-89546845D01*
X134630795Y-89248360D01*
X134792815Y-88858172D01*
X134792816Y-88856318D01*
X135208816Y-88856318D01*
X135370155Y-89246789D01*
X135668640Y-89545795D01*
X136058828Y-89707815D01*
X136481318Y-89708184D01*
X136871789Y-89546845D01*
X137170795Y-89248360D01*
X137332815Y-88858172D01*
X137332816Y-88856318D01*
X137748816Y-88856318D01*
X137910155Y-89246789D01*
X138208640Y-89545795D01*
X138598828Y-89707815D01*
X139021318Y-89708184D01*
X139411789Y-89546845D01*
X139710795Y-89248360D01*
X139872815Y-88858172D01*
X139872816Y-88856318D01*
X140288816Y-88856318D01*
X140450155Y-89246789D01*
X140748640Y-89545795D01*
X141138828Y-89707815D01*
X141561318Y-89708184D01*
X141951789Y-89546845D01*
X142250795Y-89248360D01*
X142412815Y-88858172D01*
X142412816Y-88856318D01*
X142828816Y-88856318D01*
X142990155Y-89246789D01*
X143288640Y-89545795D01*
X143678828Y-89707815D01*
X144101318Y-89708184D01*
X144491789Y-89546845D01*
X144790795Y-89248360D01*
X144952815Y-88858172D01*
X144953184Y-88435682D01*
X144791845Y-88045211D01*
X144493360Y-87746205D01*
X144103172Y-87584185D01*
X143680682Y-87583816D01*
X143290211Y-87745155D01*
X142991205Y-88043640D01*
X142829185Y-88433828D01*
X142828816Y-88856318D01*
X142412816Y-88856318D01*
X142413184Y-88435682D01*
X142251845Y-88045211D01*
X141953360Y-87746205D01*
X141563172Y-87584185D01*
X141140682Y-87583816D01*
X140750211Y-87745155D01*
X140451205Y-88043640D01*
X140289185Y-88433828D01*
X140288816Y-88856318D01*
X139872816Y-88856318D01*
X139873184Y-88435682D01*
X139711845Y-88045211D01*
X139413360Y-87746205D01*
X139023172Y-87584185D01*
X138600682Y-87583816D01*
X138210211Y-87745155D01*
X137911205Y-88043640D01*
X137749185Y-88433828D01*
X137748816Y-88856318D01*
X137332816Y-88856318D01*
X137333184Y-88435682D01*
X137171845Y-88045211D01*
X136873360Y-87746205D01*
X136483172Y-87584185D01*
X136060682Y-87583816D01*
X135670211Y-87745155D01*
X135371205Y-88043640D01*
X135209185Y-88433828D01*
X135208816Y-88856318D01*
X134792816Y-88856318D01*
X134793184Y-88435682D01*
X134631845Y-88045211D01*
X134333360Y-87746205D01*
X134156000Y-87672559D01*
X134156000Y-87376000D01*
X145546866Y-87376000D01*
X145710840Y-88200351D01*
X146177797Y-88899203D01*
X146876649Y-89366160D01*
X147701000Y-89530134D01*
X148525351Y-89366160D01*
X149224203Y-88899203D01*
X149691160Y-88200351D01*
X149855134Y-87376000D01*
X149691160Y-86551649D01*
X149224203Y-85852797D01*
X148525351Y-85385840D01*
X147701000Y-85221866D01*
X146876649Y-85385840D01*
X146177797Y-85852797D01*
X145710840Y-86551649D01*
X145546866Y-87376000D01*
X134156000Y-87376000D01*
X134156000Y-86246857D01*
X134238048Y-86445429D01*
X134406683Y-86614359D01*
X134627129Y-86705896D01*
X134865824Y-86706104D01*
X135086429Y-86614952D01*
X135255359Y-86446317D01*
X135346896Y-86225871D01*
X135346962Y-86150000D01*
X145542000Y-86150000D01*
X145677657Y-86123016D01*
X145704641Y-86117649D01*
X145842520Y-86025520D01*
X146731520Y-85136520D01*
X146823649Y-84998641D01*
X146856000Y-84836000D01*
X146856000Y-81964040D01*
X147194039Y-81626001D01*
X147311824Y-81626104D01*
X147532429Y-81534952D01*
X147701359Y-81366317D01*
X147792896Y-81145871D01*
X147793104Y-80907176D01*
X147701952Y-80686571D01*
X147533317Y-80517641D01*
X147312871Y-80426104D01*
X147074176Y-80425896D01*
X146853571Y-80517048D01*
X146684641Y-80685683D01*
X146593104Y-80906129D01*
X146593000Y-81024959D01*
X146130480Y-81487480D01*
X146038351Y-81625359D01*
X146038351Y-81625360D01*
X146006000Y-81788000D01*
X146006000Y-84659960D01*
X145365960Y-85300000D01*
X135128000Y-85300000D01*
X134965360Y-85332351D01*
X134965358Y-85332352D01*
X134965359Y-85332352D01*
X134827479Y-85424480D01*
X134745961Y-85505999D01*
X134628176Y-85505896D01*
X134407571Y-85597048D01*
X134238641Y-85765683D01*
X134156000Y-85964705D01*
X134156000Y-83945000D01*
X143004000Y-83945000D01*
X143004000Y-84679673D01*
X143049672Y-84789936D01*
X143134063Y-84874328D01*
X143244326Y-84920000D01*
X144179000Y-84920000D01*
X144254000Y-84845000D01*
X144254000Y-83870000D01*
X144354000Y-83870000D01*
X144354000Y-84845000D01*
X144429000Y-84920000D01*
X145363674Y-84920000D01*
X145473937Y-84874328D01*
X145558328Y-84789936D01*
X145604000Y-84679673D01*
X145604000Y-83945000D01*
X145529000Y-83870000D01*
X144354000Y-83870000D01*
X144254000Y-83870000D01*
X143079000Y-83870000D01*
X143004000Y-83945000D01*
X134156000Y-83945000D01*
X134156000Y-82960327D01*
X143004000Y-82960327D01*
X143004000Y-83695000D01*
X143079000Y-83770000D01*
X144254000Y-83770000D01*
X144254000Y-82795000D01*
X144354000Y-82795000D01*
X144354000Y-83770000D01*
X145529000Y-83770000D01*
X145604000Y-83695000D01*
X145604000Y-82960327D01*
X145558328Y-82850064D01*
X145473937Y-82765672D01*
X145363674Y-82720000D01*
X144429000Y-82720000D01*
X144354000Y-82795000D01*
X144254000Y-82795000D01*
X144179000Y-82720000D01*
X143244326Y-82720000D01*
X143134063Y-82765672D01*
X143049672Y-82850064D01*
X143004000Y-82960327D01*
X134156000Y-82960327D01*
X134156000Y-72009000D01*
X134123649Y-71846360D01*
X134070388Y-71766649D01*
X134031520Y-71708479D01*
X133061001Y-70737961D01*
X133061104Y-70620176D01*
X132969952Y-70399571D01*
X132845599Y-70275000D01*
X138183946Y-70275000D01*
X138137721Y-70304745D01*
X138069222Y-70404997D01*
X138045123Y-70524000D01*
X138045123Y-72224000D01*
X138066042Y-72335173D01*
X138131745Y-72437279D01*
X138231997Y-72505778D01*
X138351000Y-72529877D01*
X138926000Y-72529877D01*
X138926000Y-78264000D01*
X138952984Y-78399657D01*
X138958351Y-78426641D01*
X139050480Y-78564520D01*
X140190585Y-79704625D01*
X140046605Y-79848605D01*
X139982786Y-79942008D01*
X139957045Y-80060667D01*
X139979498Y-80179992D01*
X140046605Y-80281181D01*
X141460819Y-81695395D01*
X141554222Y-81759214D01*
X141672881Y-81784955D01*
X141792206Y-81762502D01*
X141893395Y-81695395D01*
X143307609Y-80281181D01*
X143371428Y-80187778D01*
X143397169Y-80069119D01*
X143374716Y-79949794D01*
X143307609Y-79848605D01*
X141893395Y-78434391D01*
X141799992Y-78370572D01*
X141681333Y-78344831D01*
X141562008Y-78367284D01*
X141460819Y-78434391D01*
X140791625Y-79103585D01*
X139776000Y-78087960D01*
X139776000Y-72529877D01*
X140351000Y-72529877D01*
X140462173Y-72508958D01*
X140564279Y-72443255D01*
X140632778Y-72343003D01*
X140656877Y-72224000D01*
X140656877Y-70524000D01*
X140635958Y-70412827D01*
X140570255Y-70310721D01*
X140517975Y-70275000D01*
X142113000Y-70275000D01*
X142215690Y-70254574D01*
X142137721Y-70304745D01*
X142069222Y-70404997D01*
X142045123Y-70524000D01*
X142045123Y-72224000D01*
X142066042Y-72335173D01*
X142131745Y-72437279D01*
X142231997Y-72505778D01*
X142351000Y-72529877D01*
X144318837Y-72529877D01*
X145896348Y-74107389D01*
X145804648Y-74124644D01*
X145703459Y-74191751D01*
X144289245Y-75605965D01*
X144225426Y-75699368D01*
X144199685Y-75818027D01*
X144222138Y-75937352D01*
X144289245Y-76038541D01*
X145703459Y-77452755D01*
X145796862Y-77516574D01*
X145915521Y-77542315D01*
X146034846Y-77519862D01*
X146136035Y-77452755D01*
X147550249Y-76038541D01*
X147614068Y-75945138D01*
X147635465Y-75846506D01*
X147879000Y-76090041D01*
X147879000Y-82714123D01*
X147304000Y-82714123D01*
X147192827Y-82735042D01*
X147090721Y-82800745D01*
X147022222Y-82900997D01*
X146998123Y-83020000D01*
X146998123Y-84620000D01*
X147019042Y-84731173D01*
X147084745Y-84833279D01*
X147184997Y-84901778D01*
X147304000Y-84925877D01*
X149304000Y-84925877D01*
X149415173Y-84904958D01*
X149517279Y-84839255D01*
X149585778Y-84739003D01*
X149609877Y-84620000D01*
X149609877Y-83020000D01*
X149588958Y-82908827D01*
X149523255Y-82806721D01*
X149423003Y-82738222D01*
X149304000Y-82714123D01*
X148729000Y-82714123D01*
X148729000Y-80362626D01*
X148757683Y-80391359D01*
X148978129Y-80482896D01*
X149216824Y-80483104D01*
X149437429Y-80391952D01*
X149606359Y-80223317D01*
X149697896Y-80002871D01*
X149698000Y-79884040D01*
X150287520Y-79294520D01*
X150379649Y-79156641D01*
X150412000Y-78994000D01*
X150412000Y-62787040D01*
X150668520Y-62530521D01*
X150755000Y-62401094D01*
X150755000Y-90133064D01*
X150680085Y-90509689D01*
X150487666Y-90797666D01*
X150199689Y-90990085D01*
X149823068Y-91065000D01*
X99096936Y-91065000D01*
X98720311Y-90990085D01*
X98432334Y-90797666D01*
X98239915Y-90509689D01*
X98165000Y-90133068D01*
X98165000Y-87376000D01*
X99701000Y-87376000D01*
X99826218Y-88005514D01*
X100182809Y-88539191D01*
X100716486Y-88895782D01*
X101346000Y-89021000D01*
X101975514Y-88895782D01*
X102034576Y-88856318D01*
X114888816Y-88856318D01*
X115050155Y-89246789D01*
X115348640Y-89545795D01*
X115738828Y-89707815D01*
X116161318Y-89708184D01*
X116551789Y-89546845D01*
X116850795Y-89248360D01*
X117012815Y-88858172D01*
X117012816Y-88856318D01*
X117428816Y-88856318D01*
X117590155Y-89246789D01*
X117888640Y-89545795D01*
X118278828Y-89707815D01*
X118701318Y-89708184D01*
X119091789Y-89546845D01*
X119390795Y-89248360D01*
X119552815Y-88858172D01*
X119552816Y-88856318D01*
X119968816Y-88856318D01*
X120130155Y-89246789D01*
X120428640Y-89545795D01*
X120818828Y-89707815D01*
X121241318Y-89708184D01*
X121631789Y-89546845D01*
X121930795Y-89248360D01*
X122092815Y-88858172D01*
X122092816Y-88856318D01*
X122508816Y-88856318D01*
X122670155Y-89246789D01*
X122968640Y-89545795D01*
X123358828Y-89707815D01*
X123781318Y-89708184D01*
X124171789Y-89546845D01*
X124470795Y-89248360D01*
X124632815Y-88858172D01*
X124632816Y-88856318D01*
X125048816Y-88856318D01*
X125210155Y-89246789D01*
X125508640Y-89545795D01*
X125898828Y-89707815D01*
X126321318Y-89708184D01*
X126711789Y-89546845D01*
X127010795Y-89248360D01*
X127172815Y-88858172D01*
X127172816Y-88856318D01*
X127588816Y-88856318D01*
X127750155Y-89246789D01*
X128048640Y-89545795D01*
X128438828Y-89707815D01*
X128861318Y-89708184D01*
X129251789Y-89546845D01*
X129550795Y-89248360D01*
X129712815Y-88858172D01*
X129712816Y-88856318D01*
X130128816Y-88856318D01*
X130290155Y-89246789D01*
X130588640Y-89545795D01*
X130978828Y-89707815D01*
X131401318Y-89708184D01*
X131791789Y-89546845D01*
X132090795Y-89248360D01*
X132252815Y-88858172D01*
X132253184Y-88435682D01*
X132091845Y-88045211D01*
X131793360Y-87746205D01*
X131403172Y-87584185D01*
X130980682Y-87583816D01*
X130590211Y-87745155D01*
X130291205Y-88043640D01*
X130129185Y-88433828D01*
X130128816Y-88856318D01*
X129712816Y-88856318D01*
X129713184Y-88435682D01*
X129551845Y-88045211D01*
X129253360Y-87746205D01*
X128863172Y-87584185D01*
X128440682Y-87583816D01*
X128050211Y-87745155D01*
X127751205Y-88043640D01*
X127589185Y-88433828D01*
X127588816Y-88856318D01*
X127172816Y-88856318D01*
X127173184Y-88435682D01*
X127025582Y-88078458D01*
X128573041Y-86531000D01*
X131910470Y-86531000D01*
X131993683Y-86614359D01*
X132214129Y-86705896D01*
X132452824Y-86706104D01*
X132673429Y-86614952D01*
X132842359Y-86446317D01*
X132933896Y-86225871D01*
X132934104Y-85987176D01*
X132842952Y-85766571D01*
X132674317Y-85597641D01*
X132453871Y-85506104D01*
X132215176Y-85505896D01*
X131994571Y-85597048D01*
X131910472Y-85681000D01*
X128397000Y-85681000D01*
X128234360Y-85713351D01*
X128234358Y-85713352D01*
X128234359Y-85713352D01*
X128096479Y-85805480D01*
X126317779Y-87584180D01*
X125900682Y-87583816D01*
X125510211Y-87745155D01*
X125211205Y-88043640D01*
X125049185Y-88433828D01*
X125048816Y-88856318D01*
X124632816Y-88856318D01*
X124633184Y-88435682D01*
X124471845Y-88045211D01*
X124173360Y-87746205D01*
X123783172Y-87584185D01*
X123360682Y-87583816D01*
X122970211Y-87745155D01*
X122671205Y-88043640D01*
X122509185Y-88433828D01*
X122508816Y-88856318D01*
X122092816Y-88856318D01*
X122093184Y-88435682D01*
X121931845Y-88045211D01*
X121633360Y-87746205D01*
X121243172Y-87584185D01*
X120820682Y-87583816D01*
X120430211Y-87745155D01*
X120131205Y-88043640D01*
X119969185Y-88433828D01*
X119968816Y-88856318D01*
X119552816Y-88856318D01*
X119553184Y-88435682D01*
X119391845Y-88045211D01*
X119093360Y-87746205D01*
X118703172Y-87584185D01*
X118280682Y-87583816D01*
X117890211Y-87745155D01*
X117591205Y-88043640D01*
X117429185Y-88433828D01*
X117428816Y-88856318D01*
X117012816Y-88856318D01*
X117013184Y-88435682D01*
X116851845Y-88045211D01*
X116553360Y-87746205D01*
X116163172Y-87584185D01*
X115740682Y-87583816D01*
X115350211Y-87745155D01*
X115051205Y-88043640D01*
X114889185Y-88433828D01*
X114888816Y-88856318D01*
X102034576Y-88856318D01*
X102509191Y-88539191D01*
X102865782Y-88005514D01*
X102991000Y-87376000D01*
X102865782Y-86746486D01*
X102509191Y-86212809D01*
X101975514Y-85856218D01*
X101346000Y-85731000D01*
X100716486Y-85856218D01*
X100182809Y-86212809D01*
X99826218Y-86746486D01*
X99701000Y-87376000D01*
X98165000Y-87376000D01*
X98165000Y-82891040D01*
X98759480Y-83485521D01*
X98897359Y-83577649D01*
X99060000Y-83610000D01*
X99602961Y-83610000D01*
X99602896Y-83684824D01*
X99694048Y-83905429D01*
X99862683Y-84074359D01*
X100083129Y-84165896D01*
X100321824Y-84166104D01*
X100542429Y-84074952D01*
X100711359Y-83906317D01*
X100802896Y-83685871D01*
X100803104Y-83447176D01*
X100711952Y-83226571D01*
X100543317Y-83057641D01*
X100348858Y-82976895D01*
X100548591Y-82975512D01*
X100925327Y-82819463D01*
X101006394Y-82662104D01*
X100330000Y-81985711D01*
X99653606Y-82662104D01*
X99704039Y-82760000D01*
X99236041Y-82760000D01*
X98723000Y-82246960D01*
X98723000Y-81711112D01*
X99266563Y-81711112D01*
X99269488Y-82133591D01*
X99425537Y-82510327D01*
X99582896Y-82591394D01*
X100259289Y-81915000D01*
X100400711Y-81915000D01*
X101077104Y-82591394D01*
X101234463Y-82510327D01*
X101393437Y-82118888D01*
X101390512Y-81696409D01*
X101234463Y-81319673D01*
X101077104Y-81238606D01*
X100400711Y-81915000D01*
X100259289Y-81915000D01*
X99582896Y-81238606D01*
X99425537Y-81319673D01*
X99266563Y-81711112D01*
X98723000Y-81711112D01*
X98723000Y-81167896D01*
X99653606Y-81167896D01*
X100330000Y-81844289D01*
X101006394Y-81167896D01*
X100925327Y-81010537D01*
X100533888Y-80851563D01*
X100111409Y-80854488D01*
X99734673Y-81010537D01*
X99653606Y-81167896D01*
X98723000Y-81167896D01*
X98723000Y-77045318D01*
X99267816Y-77045318D01*
X99429155Y-77435789D01*
X99727640Y-77734795D01*
X100117828Y-77896815D01*
X100540318Y-77897184D01*
X100930789Y-77735845D01*
X101229795Y-77437360D01*
X101391815Y-77047172D01*
X101392184Y-76624682D01*
X101230845Y-76234211D01*
X100932360Y-75935205D01*
X100542172Y-75773185D01*
X100119682Y-75772816D01*
X99729211Y-75934155D01*
X99430205Y-76232640D01*
X99268185Y-76622828D01*
X99267816Y-77045318D01*
X98723000Y-77045318D01*
X98723000Y-74505318D01*
X99267816Y-74505318D01*
X99429155Y-74895789D01*
X99727640Y-75194795D01*
X100117828Y-75356815D01*
X100540318Y-75357184D01*
X100930789Y-75195845D01*
X101229795Y-74897360D01*
X101391815Y-74507172D01*
X101392184Y-74084682D01*
X101230845Y-73694211D01*
X100932360Y-73395205D01*
X100542172Y-73233185D01*
X100119682Y-73232816D01*
X99729211Y-73394155D01*
X99430205Y-73692640D01*
X99268185Y-74082828D01*
X99267816Y-74505318D01*
X98723000Y-74505318D01*
X98723000Y-69596000D01*
X99693087Y-69596000D01*
X99818908Y-70228542D01*
X100177214Y-70764786D01*
X100713458Y-71123092D01*
X101346000Y-71248913D01*
X101978542Y-71123092D01*
X102514786Y-70764786D01*
X102873092Y-70228542D01*
X102998913Y-69596000D01*
X102873092Y-68963458D01*
X102514786Y-68427214D01*
X101978542Y-68068908D01*
X101346000Y-67943087D01*
X100713458Y-68068908D01*
X100177214Y-68427214D01*
X99818908Y-68963458D01*
X99693087Y-69596000D01*
X98723000Y-69596000D01*
X98723000Y-54913040D01*
X100171040Y-53465000D01*
X110585000Y-53465000D01*
X110585000Y-54399673D01*
X110630672Y-54509936D01*
X110715063Y-54594328D01*
X110825326Y-54640000D01*
X110935000Y-54640000D01*
X111010000Y-54565000D01*
X111010000Y-53390000D01*
X110660000Y-53390000D01*
X110585000Y-53465000D01*
X100171040Y-53465000D01*
X100757520Y-52878520D01*
X100849649Y-52740641D01*
X100859055Y-52693351D01*
X100882000Y-52578000D01*
X100882000Y-52280327D01*
X110585000Y-52280327D01*
X110585000Y-53215000D01*
X110660000Y-53290000D01*
X111010000Y-53290000D01*
X111010000Y-52115000D01*
X110935000Y-52040000D01*
X110825326Y-52040000D01*
X110715063Y-52085672D01*
X110630672Y-52170064D01*
X110585000Y-52280327D01*
X100882000Y-52280327D01*
X100882000Y-51858530D01*
X100965359Y-51775317D01*
X101056896Y-51554871D01*
X101057104Y-51316176D01*
X100965952Y-51095571D01*
X100797317Y-50926641D01*
X100576871Y-50835104D01*
X100338176Y-50834896D01*
X100117571Y-50926048D01*
X99948641Y-51094683D01*
X99857104Y-51315129D01*
X99856896Y-51553824D01*
X99948048Y-51774429D01*
X100032000Y-51858528D01*
X100032000Y-52401960D01*
X98165000Y-54268960D01*
X98165000Y-44066530D01*
X98995870Y-44066530D01*
X99109811Y-44342286D01*
X99320605Y-44553448D01*
X99596161Y-44667869D01*
X99894530Y-44668130D01*
X100170286Y-44554189D01*
X100381448Y-44343395D01*
X100495869Y-44067839D01*
X100496130Y-43769470D01*
X100382189Y-43493714D01*
X100171395Y-43282552D01*
X99895839Y-43168131D01*
X99597470Y-43167870D01*
X99321714Y-43281811D01*
X99110552Y-43492605D01*
X98996131Y-43768161D01*
X98995870Y-44066530D01*
X98165000Y-44066530D01*
X98165000Y-41066530D01*
X98995870Y-41066530D01*
X99109811Y-41342286D01*
X99320605Y-41553448D01*
X99596161Y-41667869D01*
X99894530Y-41668130D01*
X100170286Y-41554189D01*
X100381448Y-41343395D01*
X100495869Y-41067839D01*
X100496130Y-40769470D01*
X100382189Y-40493714D01*
X100171395Y-40282552D01*
X99895839Y-40168131D01*
X99597470Y-40167870D01*
X99321714Y-40281811D01*
X99110552Y-40492605D01*
X98996131Y-40768161D01*
X98995870Y-41066530D01*
X98165000Y-41066530D01*
X98165000Y-35596937D01*
X98220581Y-35317511D01*
X98357940Y-35111940D01*
X98563512Y-34974581D01*
X98842936Y-34919000D01*
X125944823Y-34919000D01*
X125944823Y-38989000D01*
G36*
X137211123Y-36261000D02*
X137232042Y-36372173D01*
X137297745Y-36474279D01*
X137397997Y-36542778D01*
X137517000Y-36566877D01*
X139317000Y-36566877D01*
X139428173Y-36545958D01*
X139530279Y-36480255D01*
X139598778Y-36380003D01*
X139622877Y-36261000D01*
X139622877Y-35986000D01*
X141093123Y-35986000D01*
X141093123Y-36791000D01*
X141114042Y-36902173D01*
X141179745Y-37004279D01*
X141279997Y-37072778D01*
X141399000Y-37096877D01*
X143399000Y-37096877D01*
X143510173Y-37075958D01*
X143612279Y-37010255D01*
X143680778Y-36910003D01*
X143704877Y-36791000D01*
X143704877Y-35091000D01*
X143683958Y-34979827D01*
X143644817Y-34919000D01*
X145153433Y-34919000D01*
X145117222Y-34971997D01*
X145093123Y-35091000D01*
X145093123Y-36791000D01*
X145114042Y-36902173D01*
X145179745Y-37004279D01*
X145279997Y-37072778D01*
X145399000Y-37096877D01*
X146936844Y-37096877D01*
X146260678Y-37548678D01*
X145799661Y-38238637D01*
X145637774Y-39052500D01*
X145685754Y-39293714D01*
X145334520Y-38942480D01*
X145196641Y-38850351D01*
X145169657Y-38844984D01*
X145034000Y-38818000D01*
X142621000Y-38818000D01*
X142458359Y-38850351D01*
X142320480Y-38942479D01*
X141280329Y-39982630D01*
X141270958Y-39932827D01*
X141205255Y-39830721D01*
X141105003Y-39762222D01*
X140986000Y-39738123D01*
X139564142Y-39738123D01*
X139571328Y-39730937D01*
X139617000Y-39620674D01*
X139617000Y-38986000D01*
X139542000Y-38911000D01*
X138467000Y-38911000D01*
X138467000Y-39786000D01*
X138542000Y-39861000D01*
X138747949Y-39861000D01*
X138704222Y-39924997D01*
X138680123Y-40044000D01*
X138680123Y-40469000D01*
X137045000Y-40469000D01*
X137045000Y-38986000D01*
X137217000Y-38986000D01*
X137217000Y-39620674D01*
X137262672Y-39730937D01*
X137347064Y-39815328D01*
X137457327Y-39861000D01*
X138292000Y-39861000D01*
X138367000Y-39786000D01*
X138367000Y-38911000D01*
X137292000Y-38911000D01*
X137217000Y-38986000D01*
X137045000Y-38986000D01*
X137045000Y-38101326D01*
X137217000Y-38101326D01*
X137217000Y-38736000D01*
X137292000Y-38811000D01*
X138367000Y-38811000D01*
X138367000Y-37936000D01*
X138467000Y-37936000D01*
X138467000Y-38811000D01*
X139542000Y-38811000D01*
X139617000Y-38736000D01*
X139617000Y-38101326D01*
X139571328Y-37991063D01*
X139486936Y-37906672D01*
X139376673Y-37861000D01*
X138542000Y-37861000D01*
X138467000Y-37936000D01*
X138367000Y-37936000D01*
X138292000Y-37861000D01*
X137457327Y-37861000D01*
X137347064Y-37906672D01*
X137262672Y-37991063D01*
X137217000Y-38101326D01*
X137045000Y-38101326D01*
X137045000Y-37814000D01*
X137012649Y-37651360D01*
X137012649Y-37651359D01*
X136920520Y-37513480D01*
X134822877Y-35415837D01*
X134822877Y-34919000D01*
X137211123Y-34919000D01*
X137211123Y-36261000D01*
X137211123Y-36261000D01*
G37*
X137211123Y-36261000D02*
X137232042Y-36372173D01*
X137297745Y-36474279D01*
X137397997Y-36542778D01*
X137517000Y-36566877D01*
X139317000Y-36566877D01*
X139428173Y-36545958D01*
X139530279Y-36480255D01*
X139598778Y-36380003D01*
X139622877Y-36261000D01*
X139622877Y-35986000D01*
X141093123Y-35986000D01*
X141093123Y-36791000D01*
X141114042Y-36902173D01*
X141179745Y-37004279D01*
X141279997Y-37072778D01*
X141399000Y-37096877D01*
X143399000Y-37096877D01*
X143510173Y-37075958D01*
X143612279Y-37010255D01*
X143680778Y-36910003D01*
X143704877Y-36791000D01*
X143704877Y-35091000D01*
X143683958Y-34979827D01*
X143644817Y-34919000D01*
X145153433Y-34919000D01*
X145117222Y-34971997D01*
X145093123Y-35091000D01*
X145093123Y-36791000D01*
X145114042Y-36902173D01*
X145179745Y-37004279D01*
X145279997Y-37072778D01*
X145399000Y-37096877D01*
X146936844Y-37096877D01*
X146260678Y-37548678D01*
X145799661Y-38238637D01*
X145637774Y-39052500D01*
X145685754Y-39293714D01*
X145334520Y-38942480D01*
X145196641Y-38850351D01*
X145169657Y-38844984D01*
X145034000Y-38818000D01*
X142621000Y-38818000D01*
X142458359Y-38850351D01*
X142320480Y-38942479D01*
X141280329Y-39982630D01*
X141270958Y-39932827D01*
X141205255Y-39830721D01*
X141105003Y-39762222D01*
X140986000Y-39738123D01*
X139564142Y-39738123D01*
X139571328Y-39730937D01*
X139617000Y-39620674D01*
X139617000Y-38986000D01*
X139542000Y-38911000D01*
X138467000Y-38911000D01*
X138467000Y-39786000D01*
X138542000Y-39861000D01*
X138747949Y-39861000D01*
X138704222Y-39924997D01*
X138680123Y-40044000D01*
X138680123Y-40469000D01*
X137045000Y-40469000D01*
X137045000Y-38986000D01*
X137217000Y-38986000D01*
X137217000Y-39620674D01*
X137262672Y-39730937D01*
X137347064Y-39815328D01*
X137457327Y-39861000D01*
X138292000Y-39861000D01*
X138367000Y-39786000D01*
X138367000Y-38911000D01*
X137292000Y-38911000D01*
X137217000Y-38986000D01*
X137045000Y-38986000D01*
X137045000Y-38101326D01*
X137217000Y-38101326D01*
X137217000Y-38736000D01*
X137292000Y-38811000D01*
X138367000Y-38811000D01*
X138367000Y-37936000D01*
X138467000Y-37936000D01*
X138467000Y-38811000D01*
X139542000Y-38811000D01*
X139617000Y-38736000D01*
X139617000Y-38101326D01*
X139571328Y-37991063D01*
X139486936Y-37906672D01*
X139376673Y-37861000D01*
X138542000Y-37861000D01*
X138467000Y-37936000D01*
X138367000Y-37936000D01*
X138292000Y-37861000D01*
X137457327Y-37861000D01*
X137347064Y-37906672D01*
X137262672Y-37991063D01*
X137217000Y-38101326D01*
X137045000Y-38101326D01*
X137045000Y-37814000D01*
X137012649Y-37651360D01*
X137012649Y-37651359D01*
X136920520Y-37513480D01*
X134822877Y-35415837D01*
X134822877Y-34919000D01*
X137211123Y-34919000D01*
X137211123Y-36261000D01*
M02*
