G04 #@! TF.FileFunction,Soldermask,Bot*
%FSLAX46Y46*%
G04 Gerber Fmt 4.6, Leading zero omitted, Abs format (unit mm)*
G04 Created by KiCad (PCBNEW 4.0.4-stable) date 04/18/19 20:28:09*
%MOMM*%
%LPD*%
G01*
G04 APERTURE LIST*
%ADD10C,0.100000*%
%ADD11R,1.670000X4.591000*%
%ADD12R,1.670000X4.083000*%
%ADD13R,1.600000X4.400000*%
%ADD14R,2.100000X2.100000*%
%ADD15O,2.100000X2.100000*%
%ADD16C,1.924000*%
%ADD17C,1.300000*%
%ADD18R,1.900000X1.100000*%
%ADD19R,1.200000X1.400000*%
%ADD20R,1.900000X3.400000*%
%ADD21R,2.400000X2.100000*%
G04 APERTURE END LIST*
D10*
D11*
X126885700Y-36893500D03*
X131178300Y-36893500D03*
D12*
X129032000Y-36639500D03*
D11*
X126885700Y-36893500D03*
X131178300Y-36893500D03*
D13*
X142890000Y-60832000D03*
X140890000Y-60832000D03*
X138890000Y-60832000D03*
X136890000Y-60832000D03*
X134890000Y-60832000D03*
X132890000Y-60832000D03*
X130890000Y-60832000D03*
X128890000Y-60832000D03*
X128890000Y-44832000D03*
X130890000Y-44832000D03*
X132890000Y-44832000D03*
X134890000Y-44832000D03*
X136890000Y-44832000D03*
X138890000Y-44832000D03*
X140890000Y-44832000D03*
X142890000Y-44832000D03*
D14*
X127635000Y-64897000D03*
D15*
X130175000Y-64897000D03*
D16*
X100330000Y-81915000D03*
X100330000Y-79375000D03*
X100330000Y-76835000D03*
X100330000Y-74295000D03*
D17*
X99746000Y-43918000D03*
X99746000Y-40918000D03*
D18*
X101506000Y-44668000D03*
X101506000Y-41668000D03*
X101506000Y-40168000D03*
D19*
X98646000Y-46068000D03*
X98646000Y-38768000D03*
X100856000Y-38768000D03*
X100856000Y-46068000D03*
D16*
X105791000Y-68326000D03*
X108331000Y-68326000D03*
X110871000Y-68326000D03*
X113411000Y-68326000D03*
X115951000Y-68326000D03*
X118491000Y-68326000D03*
X121031000Y-68326000D03*
X123571000Y-68326000D03*
X126111000Y-68326000D03*
X128651000Y-68326000D03*
X131191000Y-68326000D03*
X133731000Y-68326000D03*
X136271000Y-68326000D03*
X138811000Y-68326000D03*
X141351000Y-68326000D03*
X143891000Y-68326000D03*
X143891000Y-88646000D03*
X141351000Y-88646000D03*
X138811000Y-88646000D03*
X136271000Y-88646000D03*
X133731000Y-88646000D03*
X131191000Y-88646000D03*
X128651000Y-88646000D03*
X126111000Y-88646000D03*
X123571000Y-88646000D03*
X121031000Y-88646000D03*
X118491000Y-88646000D03*
X115951000Y-88646000D03*
D20*
X108966000Y-47498000D03*
X108966000Y-37338000D03*
D21*
X136620000Y-40894000D03*
X132620000Y-40894000D03*
M02*
