G04 #@! TF.FileFunction,Legend,Bot*
%FSLAX46Y46*%
G04 Gerber Fmt 4.6, Leading zero omitted, Abs format (unit mm)*
G04 Created by KiCad (PCBNEW 4.0.4-stable) date 04/18/19 20:28:09*
%MOMM*%
%LPD*%
G01*
G04 APERTURE LIST*
%ADD10C,0.100000*%
%ADD11C,0.150000*%
%ADD12C,0.120000*%
%ADD13C,0.010000*%
G04 APERTURE END LIST*
D10*
X149953286Y-44157431D02*
X150453286Y-44300288D01*
X150096143Y-44443145D01*
X150453286Y-44586002D01*
X149953286Y-44728859D01*
X149953286Y-44943145D02*
X150453286Y-45086002D01*
X150096143Y-45228859D01*
X150453286Y-45371716D01*
X149953286Y-45514573D01*
X149953286Y-45728859D02*
X150453286Y-45871716D01*
X150096143Y-46014573D01*
X150453286Y-46157430D01*
X149953286Y-46300287D01*
X150381857Y-46586001D02*
X150417571Y-46621716D01*
X150453286Y-46586001D01*
X150417571Y-46550287D01*
X150381857Y-46586001D01*
X150453286Y-46586001D01*
X150417571Y-46907430D02*
X150453286Y-46978859D01*
X150453286Y-47121716D01*
X150417571Y-47193144D01*
X150346143Y-47228859D01*
X150310429Y-47228859D01*
X150239000Y-47193144D01*
X150203286Y-47121716D01*
X150203286Y-47014573D01*
X150167571Y-46943144D01*
X150096143Y-46907430D01*
X150060429Y-46907430D01*
X149989000Y-46943144D01*
X149953286Y-47014573D01*
X149953286Y-47121716D01*
X149989000Y-47193144D01*
X149953286Y-47550287D02*
X150453286Y-47550287D01*
X150024714Y-47550287D02*
X149989000Y-47586002D01*
X149953286Y-47657430D01*
X149953286Y-47764573D01*
X149989000Y-47836002D01*
X150060429Y-47871716D01*
X150453286Y-47871716D01*
X150453286Y-48550287D02*
X150060429Y-48550287D01*
X149989000Y-48514573D01*
X149953286Y-48443144D01*
X149953286Y-48300287D01*
X149989000Y-48228858D01*
X150417571Y-48550287D02*
X150453286Y-48478858D01*
X150453286Y-48300287D01*
X150417571Y-48228858D01*
X150346143Y-48193144D01*
X150274714Y-48193144D01*
X150203286Y-48228858D01*
X150167571Y-48300287D01*
X150167571Y-48478858D01*
X150131857Y-48550287D01*
X149953286Y-48907429D02*
X150703286Y-48907429D01*
X149989000Y-48907429D02*
X149953286Y-48978858D01*
X149953286Y-49121715D01*
X149989000Y-49193144D01*
X150024714Y-49228858D01*
X150096143Y-49264572D01*
X150310429Y-49264572D01*
X150381857Y-49228858D01*
X150417571Y-49193144D01*
X150453286Y-49121715D01*
X150453286Y-48978858D01*
X150417571Y-48907429D01*
X150453286Y-49693143D02*
X150417571Y-49621715D01*
X150381857Y-49586000D01*
X150310429Y-49550286D01*
X150096143Y-49550286D01*
X150024714Y-49586000D01*
X149989000Y-49621715D01*
X149953286Y-49693143D01*
X149953286Y-49800286D01*
X149989000Y-49871715D01*
X150024714Y-49907429D01*
X150096143Y-49943143D01*
X150310429Y-49943143D01*
X150381857Y-49907429D01*
X150417571Y-49871715D01*
X150453286Y-49800286D01*
X150453286Y-49693143D01*
X149953286Y-50264571D02*
X150453286Y-50264571D01*
X150024714Y-50264571D02*
X149989000Y-50300286D01*
X149953286Y-50371714D01*
X149953286Y-50478857D01*
X149989000Y-50550286D01*
X150060429Y-50586000D01*
X150453286Y-50586000D01*
X150453286Y-51264571D02*
X150060429Y-51264571D01*
X149989000Y-51228857D01*
X149953286Y-51157428D01*
X149953286Y-51014571D01*
X149989000Y-50943142D01*
X150417571Y-51264571D02*
X150453286Y-51193142D01*
X150453286Y-51014571D01*
X150417571Y-50943142D01*
X150346143Y-50907428D01*
X150274714Y-50907428D01*
X150203286Y-50943142D01*
X150167571Y-51014571D01*
X150167571Y-51193142D01*
X150131857Y-51264571D01*
X150453286Y-51621713D02*
X149953286Y-51621713D01*
X149703286Y-51621713D02*
X149739000Y-51585999D01*
X149774714Y-51621713D01*
X149739000Y-51657428D01*
X149703286Y-51621713D01*
X149774714Y-51621713D01*
X150453286Y-51978856D02*
X149953286Y-51978856D01*
X150096143Y-51978856D02*
X150024714Y-52014571D01*
X149989000Y-52050285D01*
X149953286Y-52121714D01*
X149953286Y-52193142D01*
X150381857Y-52443142D02*
X150417571Y-52478857D01*
X150453286Y-52443142D01*
X150417571Y-52407428D01*
X150381857Y-52443142D01*
X150453286Y-52443142D01*
X150417571Y-53121714D02*
X150453286Y-53050285D01*
X150453286Y-52907428D01*
X150417571Y-52836000D01*
X150381857Y-52800285D01*
X150310429Y-52764571D01*
X150096143Y-52764571D01*
X150024714Y-52800285D01*
X149989000Y-52836000D01*
X149953286Y-52907428D01*
X149953286Y-53050285D01*
X149989000Y-53121714D01*
X150453286Y-53550285D02*
X150417571Y-53478857D01*
X150381857Y-53443142D01*
X150310429Y-53407428D01*
X150096143Y-53407428D01*
X150024714Y-53443142D01*
X149989000Y-53478857D01*
X149953286Y-53550285D01*
X149953286Y-53657428D01*
X149989000Y-53728857D01*
X150024714Y-53764571D01*
X150096143Y-53800285D01*
X150310429Y-53800285D01*
X150381857Y-53764571D01*
X150417571Y-53728857D01*
X150453286Y-53657428D01*
X150453286Y-53550285D01*
X150453286Y-54121713D02*
X149953286Y-54121713D01*
X150024714Y-54121713D02*
X149989000Y-54157428D01*
X149953286Y-54228856D01*
X149953286Y-54335999D01*
X149989000Y-54407428D01*
X150060429Y-54443142D01*
X150453286Y-54443142D01*
X150060429Y-54443142D02*
X149989000Y-54478856D01*
X149953286Y-54550285D01*
X149953286Y-54657428D01*
X149989000Y-54728856D01*
X150060429Y-54764571D01*
X150453286Y-54764571D01*
X150096143Y-56157428D02*
X150060429Y-56121714D01*
X150024714Y-56050285D01*
X150024714Y-55978857D01*
X150060429Y-55907428D01*
X150096143Y-55871714D01*
X150167571Y-55836000D01*
X150239000Y-55836000D01*
X150310429Y-55871714D01*
X150346143Y-55907428D01*
X150381857Y-55978857D01*
X150381857Y-56050285D01*
X150346143Y-56121714D01*
X150310429Y-56157428D01*
X150024714Y-56157428D02*
X150310429Y-56157428D01*
X150346143Y-56193142D01*
X150346143Y-56228857D01*
X150310429Y-56300285D01*
X150239000Y-56336000D01*
X150060429Y-56336000D01*
X149953286Y-56264571D01*
X149881857Y-56157428D01*
X149846143Y-56014571D01*
X149881857Y-55871714D01*
X149953286Y-55764571D01*
X150060429Y-55693142D01*
X150203286Y-55657428D01*
X150346143Y-55693142D01*
X150453286Y-55764571D01*
X150524714Y-55871714D01*
X150560429Y-56014571D01*
X150524714Y-56157428D01*
X150453286Y-56264571D01*
X149953286Y-56657428D02*
X150703286Y-56657428D01*
X149989000Y-56657428D02*
X149953286Y-56728857D01*
X149953286Y-56871714D01*
X149989000Y-56943143D01*
X150024714Y-56978857D01*
X150096143Y-57014571D01*
X150310429Y-57014571D01*
X150381857Y-56978857D01*
X150417571Y-56943143D01*
X150453286Y-56871714D01*
X150453286Y-56728857D01*
X150417571Y-56657428D01*
X149953286Y-57264571D02*
X150453286Y-57407428D01*
X150096143Y-57550285D01*
X150453286Y-57693142D01*
X149953286Y-57835999D01*
X150453286Y-58443142D02*
X150060429Y-58443142D01*
X149989000Y-58407428D01*
X149953286Y-58335999D01*
X149953286Y-58193142D01*
X149989000Y-58121713D01*
X150417571Y-58443142D02*
X150453286Y-58371713D01*
X150453286Y-58193142D01*
X150417571Y-58121713D01*
X150346143Y-58085999D01*
X150274714Y-58085999D01*
X150203286Y-58121713D01*
X150167571Y-58193142D01*
X150167571Y-58371713D01*
X150131857Y-58443142D01*
X149953286Y-58728856D02*
X150453286Y-58907427D01*
X149953286Y-59085999D01*
X150453286Y-59371713D02*
X149953286Y-59371713D01*
X150096143Y-59371713D02*
X150024714Y-59407428D01*
X149989000Y-59443142D01*
X149953286Y-59514571D01*
X149953286Y-59585999D01*
X150453286Y-59943142D02*
X150417571Y-59871714D01*
X150381857Y-59835999D01*
X150310429Y-59800285D01*
X150096143Y-59800285D01*
X150024714Y-59835999D01*
X149989000Y-59871714D01*
X149953286Y-59943142D01*
X149953286Y-60050285D01*
X149989000Y-60121714D01*
X150024714Y-60157428D01*
X150096143Y-60193142D01*
X150310429Y-60193142D01*
X150381857Y-60157428D01*
X150417571Y-60121714D01*
X150453286Y-60050285D01*
X150453286Y-59943142D01*
X150453286Y-60514570D02*
X149703286Y-60514570D01*
X149989000Y-60514570D02*
X149953286Y-60585999D01*
X149953286Y-60728856D01*
X149989000Y-60800285D01*
X150024714Y-60835999D01*
X150096143Y-60871713D01*
X150310429Y-60871713D01*
X150381857Y-60835999D01*
X150417571Y-60800285D01*
X150453286Y-60728856D01*
X150453286Y-60585999D01*
X150417571Y-60514570D01*
X150453286Y-61300284D02*
X150417571Y-61228856D01*
X150381857Y-61193141D01*
X150310429Y-61157427D01*
X150096143Y-61157427D01*
X150024714Y-61193141D01*
X149989000Y-61228856D01*
X149953286Y-61300284D01*
X149953286Y-61407427D01*
X149989000Y-61478856D01*
X150024714Y-61514570D01*
X150096143Y-61550284D01*
X150310429Y-61550284D01*
X150381857Y-61514570D01*
X150417571Y-61478856D01*
X150453286Y-61407427D01*
X150453286Y-61300284D01*
X149953286Y-61764570D02*
X149953286Y-62050284D01*
X149703286Y-61871712D02*
X150346143Y-61871712D01*
X150417571Y-61907427D01*
X150453286Y-61978855D01*
X150453286Y-62050284D01*
D11*
X118410810Y-60524381D02*
X118410810Y-59524381D01*
X118172715Y-59524381D01*
X118029857Y-59572000D01*
X117934619Y-59667238D01*
X117887000Y-59762476D01*
X117839381Y-59952952D01*
X117839381Y-60095810D01*
X117887000Y-60286286D01*
X117934619Y-60381524D01*
X118029857Y-60476762D01*
X118172715Y-60524381D01*
X118410810Y-60524381D01*
X117410810Y-60524381D02*
X117410810Y-59857714D01*
X117410810Y-60048190D02*
X117363191Y-59952952D01*
X117315572Y-59905333D01*
X117220334Y-59857714D01*
X117125095Y-59857714D01*
X115458428Y-60429143D02*
X115506047Y-60476762D01*
X115648904Y-60524381D01*
X115744142Y-60524381D01*
X115887000Y-60476762D01*
X115982238Y-60381524D01*
X116029857Y-60286286D01*
X116077476Y-60095810D01*
X116077476Y-59952952D01*
X116029857Y-59762476D01*
X115982238Y-59667238D01*
X115887000Y-59572000D01*
X115744142Y-59524381D01*
X115648904Y-59524381D01*
X115506047Y-59572000D01*
X115458428Y-59619619D01*
X115077476Y-60238667D02*
X114601285Y-60238667D01*
X115172714Y-60524381D02*
X114839381Y-59524381D01*
X114506047Y-60524381D01*
X114172714Y-60524381D02*
X114172714Y-59524381D01*
X113934619Y-59524381D01*
X113791761Y-59572000D01*
X113696523Y-59667238D01*
X113648904Y-59762476D01*
X113601285Y-59952952D01*
X113601285Y-60095810D01*
X113648904Y-60286286D01*
X113696523Y-60381524D01*
X113791761Y-60476762D01*
X113934619Y-60524381D01*
X114172714Y-60524381D01*
X113172714Y-60524381D02*
X113172714Y-59524381D01*
X112125095Y-60429143D02*
X112172714Y-60476762D01*
X112315571Y-60524381D01*
X112410809Y-60524381D01*
X112553667Y-60476762D01*
X112648905Y-60381524D01*
X112696524Y-60286286D01*
X112744143Y-60095810D01*
X112744143Y-59952952D01*
X112696524Y-59762476D01*
X112648905Y-59667238D01*
X112553667Y-59572000D01*
X112410809Y-59524381D01*
X112315571Y-59524381D01*
X112172714Y-59572000D01*
X112125095Y-59619619D01*
X110934619Y-60524381D02*
X110934619Y-59524381D01*
X110553666Y-59524381D01*
X110458428Y-59572000D01*
X110410809Y-59619619D01*
X110363190Y-59714857D01*
X110363190Y-59857714D01*
X110410809Y-59952952D01*
X110458428Y-60000571D01*
X110553666Y-60048190D01*
X110934619Y-60048190D01*
X109934619Y-60524381D02*
X109934619Y-59524381D01*
X109506047Y-60524381D02*
X109506047Y-60000571D01*
X109553666Y-59905333D01*
X109648904Y-59857714D01*
X109791762Y-59857714D01*
X109887000Y-59905333D01*
X109934619Y-59952952D01*
X109029857Y-60524381D02*
X109029857Y-59857714D01*
X109029857Y-59524381D02*
X109077476Y-59572000D01*
X109029857Y-59619619D01*
X108982238Y-59572000D01*
X109029857Y-59524381D01*
X109029857Y-59619619D01*
X108410810Y-60524381D02*
X108506048Y-60476762D01*
X108553667Y-60381524D01*
X108553667Y-59524381D01*
X108029857Y-60524381D02*
X108029857Y-59857714D01*
X108029857Y-59524381D02*
X108077476Y-59572000D01*
X108029857Y-59619619D01*
X107982238Y-59572000D01*
X108029857Y-59524381D01*
X108029857Y-59619619D01*
X107553667Y-59857714D02*
X107553667Y-60857714D01*
X107553667Y-59905333D02*
X107458429Y-59857714D01*
X107267952Y-59857714D01*
X107172714Y-59905333D01*
X107125095Y-59952952D01*
X107077476Y-60048190D01*
X107077476Y-60333905D01*
X107125095Y-60429143D01*
X107172714Y-60476762D01*
X107267952Y-60524381D01*
X107458429Y-60524381D01*
X107553667Y-60476762D01*
X106648905Y-59857714D02*
X106648905Y-60857714D01*
X106648905Y-59905333D02*
X106553667Y-59857714D01*
X106363190Y-59857714D01*
X106267952Y-59905333D01*
X106220333Y-59952952D01*
X106172714Y-60048190D01*
X106172714Y-60333905D01*
X106220333Y-60429143D01*
X106267952Y-60476762D01*
X106363190Y-60524381D01*
X106553667Y-60524381D01*
X106648905Y-60476762D01*
X105363190Y-60476762D02*
X105458428Y-60524381D01*
X105648905Y-60524381D01*
X105744143Y-60476762D01*
X105791762Y-60381524D01*
X105791762Y-60000571D01*
X105744143Y-59905333D01*
X105648905Y-59857714D01*
X105458428Y-59857714D01*
X105363190Y-59905333D01*
X105315571Y-60000571D01*
X105315571Y-60095810D01*
X105791762Y-60191048D01*
X119363191Y-62174381D02*
X119839382Y-62174381D01*
X119839382Y-61174381D01*
X118839382Y-61174381D02*
X118648905Y-61174381D01*
X118553667Y-61222000D01*
X118458429Y-61317238D01*
X118410810Y-61507714D01*
X118410810Y-61841048D01*
X118458429Y-62031524D01*
X118553667Y-62126762D01*
X118648905Y-62174381D01*
X118839382Y-62174381D01*
X118934620Y-62126762D01*
X119029858Y-62031524D01*
X119077477Y-61841048D01*
X119077477Y-61507714D01*
X119029858Y-61317238D01*
X118934620Y-61222000D01*
X118839382Y-61174381D01*
X117410810Y-62174381D02*
X117744144Y-61698190D01*
X117982239Y-62174381D02*
X117982239Y-61174381D01*
X117601286Y-61174381D01*
X117506048Y-61222000D01*
X117458429Y-61269619D01*
X117410810Y-61364857D01*
X117410810Y-61507714D01*
X117458429Y-61602952D01*
X117506048Y-61650571D01*
X117601286Y-61698190D01*
X117982239Y-61698190D01*
X117029858Y-61888667D02*
X116553667Y-61888667D01*
X117125096Y-62174381D02*
X116791763Y-61174381D01*
X116458429Y-62174381D01*
X115410810Y-61126762D02*
X116267953Y-62412476D01*
X114601286Y-62174381D02*
X115077477Y-62174381D01*
X115077477Y-61174381D01*
X114125096Y-62174381D02*
X114220334Y-62126762D01*
X114267953Y-62079143D01*
X114315572Y-61983905D01*
X114315572Y-61698190D01*
X114267953Y-61602952D01*
X114220334Y-61555333D01*
X114125096Y-61507714D01*
X113982238Y-61507714D01*
X113887000Y-61555333D01*
X113839381Y-61602952D01*
X113791762Y-61698190D01*
X113791762Y-61983905D01*
X113839381Y-62079143D01*
X113887000Y-62126762D01*
X113982238Y-62174381D01*
X114125096Y-62174381D01*
X113363191Y-62174381D02*
X113363191Y-61507714D01*
X113363191Y-61698190D02*
X113315572Y-61602952D01*
X113267953Y-61555333D01*
X113172715Y-61507714D01*
X113077476Y-61507714D01*
X112315571Y-62174381D02*
X112315571Y-61650571D01*
X112363190Y-61555333D01*
X112458428Y-61507714D01*
X112648905Y-61507714D01*
X112744143Y-61555333D01*
X112315571Y-62126762D02*
X112410809Y-62174381D01*
X112648905Y-62174381D01*
X112744143Y-62126762D01*
X112791762Y-62031524D01*
X112791762Y-61936286D01*
X112744143Y-61841048D01*
X112648905Y-61793429D01*
X112410809Y-61793429D01*
X112315571Y-61745810D01*
X111934619Y-61507714D02*
X111744143Y-62174381D01*
X111553666Y-61698190D01*
X111363190Y-62174381D01*
X111172714Y-61507714D01*
X110363190Y-62174381D02*
X110363190Y-61650571D01*
X110410809Y-61555333D01*
X110506047Y-61507714D01*
X110696524Y-61507714D01*
X110791762Y-61555333D01*
X110363190Y-62126762D02*
X110458428Y-62174381D01*
X110696524Y-62174381D01*
X110791762Y-62126762D01*
X110839381Y-62031524D01*
X110839381Y-61936286D01*
X110791762Y-61841048D01*
X110696524Y-61793429D01*
X110458428Y-61793429D01*
X110363190Y-61745810D01*
X109887000Y-61507714D02*
X109887000Y-62174381D01*
X109887000Y-61602952D02*
X109839381Y-61555333D01*
X109744143Y-61507714D01*
X109601285Y-61507714D01*
X109506047Y-61555333D01*
X109458428Y-61650571D01*
X109458428Y-62174381D01*
X108220333Y-61650571D02*
X107886999Y-61650571D01*
X107744142Y-62174381D02*
X108220333Y-62174381D01*
X108220333Y-61174381D01*
X107744142Y-61174381D01*
X107363190Y-62126762D02*
X107220333Y-62174381D01*
X106982237Y-62174381D01*
X106886999Y-62126762D01*
X106839380Y-62079143D01*
X106791761Y-61983905D01*
X106791761Y-61888667D01*
X106839380Y-61793429D01*
X106886999Y-61745810D01*
X106982237Y-61698190D01*
X107172714Y-61650571D01*
X107267952Y-61602952D01*
X107315571Y-61555333D01*
X107363190Y-61460095D01*
X107363190Y-61364857D01*
X107315571Y-61269619D01*
X107267952Y-61222000D01*
X107172714Y-61174381D01*
X106934618Y-61174381D01*
X106791761Y-61222000D01*
X106363190Y-62174381D02*
X106363190Y-61174381D01*
X105982237Y-61174381D01*
X105886999Y-61222000D01*
X105839380Y-61269619D01*
X105791761Y-61364857D01*
X105791761Y-61507714D01*
X105839380Y-61602952D01*
X105886999Y-61650571D01*
X105982237Y-61698190D01*
X106363190Y-61698190D01*
X105458428Y-61174381D02*
X104839380Y-61174381D01*
X105172714Y-61555333D01*
X105029856Y-61555333D01*
X104934618Y-61602952D01*
X104886999Y-61650571D01*
X104839380Y-61745810D01*
X104839380Y-61983905D01*
X104886999Y-62079143D01*
X104934618Y-62126762D01*
X105029856Y-62174381D01*
X105315571Y-62174381D01*
X105410809Y-62126762D01*
X105458428Y-62079143D01*
X104458428Y-61269619D02*
X104410809Y-61222000D01*
X104315571Y-61174381D01*
X104077475Y-61174381D01*
X103982237Y-61222000D01*
X103934618Y-61269619D01*
X103886999Y-61364857D01*
X103886999Y-61460095D01*
X103934618Y-61602952D01*
X104506047Y-62174381D01*
X103886999Y-62174381D01*
X119101286Y-63729143D02*
X119148905Y-63776762D01*
X119291762Y-63824381D01*
X119387000Y-63824381D01*
X119529858Y-63776762D01*
X119625096Y-63681524D01*
X119672715Y-63586286D01*
X119720334Y-63395810D01*
X119720334Y-63252952D01*
X119672715Y-63062476D01*
X119625096Y-62967238D01*
X119529858Y-62872000D01*
X119387000Y-62824381D01*
X119291762Y-62824381D01*
X119148905Y-62872000D01*
X119101286Y-62919619D01*
X118529858Y-63824381D02*
X118625096Y-63776762D01*
X118672715Y-63729143D01*
X118720334Y-63633905D01*
X118720334Y-63348190D01*
X118672715Y-63252952D01*
X118625096Y-63205333D01*
X118529858Y-63157714D01*
X118387000Y-63157714D01*
X118291762Y-63205333D01*
X118244143Y-63252952D01*
X118196524Y-63348190D01*
X118196524Y-63633905D01*
X118244143Y-63729143D01*
X118291762Y-63776762D01*
X118387000Y-63824381D01*
X118529858Y-63824381D01*
X117767953Y-63824381D02*
X117767953Y-63157714D01*
X117767953Y-63252952D02*
X117720334Y-63205333D01*
X117625096Y-63157714D01*
X117482238Y-63157714D01*
X117387000Y-63205333D01*
X117339381Y-63300571D01*
X117339381Y-63824381D01*
X117339381Y-63300571D02*
X117291762Y-63205333D01*
X117196524Y-63157714D01*
X117053667Y-63157714D01*
X116958429Y-63205333D01*
X116910810Y-63300571D01*
X116910810Y-63824381D01*
X116434620Y-63824381D02*
X116434620Y-63157714D01*
X116434620Y-63252952D02*
X116387001Y-63205333D01*
X116291763Y-63157714D01*
X116148905Y-63157714D01*
X116053667Y-63205333D01*
X116006048Y-63300571D01*
X116006048Y-63824381D01*
X116006048Y-63300571D02*
X115958429Y-63205333D01*
X115863191Y-63157714D01*
X115720334Y-63157714D01*
X115625096Y-63205333D01*
X115577477Y-63300571D01*
X115577477Y-63824381D01*
X114672715Y-63157714D02*
X114672715Y-63824381D01*
X115101287Y-63157714D02*
X115101287Y-63681524D01*
X115053668Y-63776762D01*
X114958430Y-63824381D01*
X114815572Y-63824381D01*
X114720334Y-63776762D01*
X114672715Y-63729143D01*
X114196525Y-63157714D02*
X114196525Y-63824381D01*
X114196525Y-63252952D02*
X114148906Y-63205333D01*
X114053668Y-63157714D01*
X113910810Y-63157714D01*
X113815572Y-63205333D01*
X113767953Y-63300571D01*
X113767953Y-63824381D01*
X113291763Y-63824381D02*
X113291763Y-63157714D01*
X113291763Y-62824381D02*
X113339382Y-62872000D01*
X113291763Y-62919619D01*
X113244144Y-62872000D01*
X113291763Y-62824381D01*
X113291763Y-62919619D01*
X112387001Y-63776762D02*
X112482239Y-63824381D01*
X112672716Y-63824381D01*
X112767954Y-63776762D01*
X112815573Y-63729143D01*
X112863192Y-63633905D01*
X112863192Y-63348190D01*
X112815573Y-63252952D01*
X112767954Y-63205333D01*
X112672716Y-63157714D01*
X112482239Y-63157714D01*
X112387001Y-63205333D01*
X111529858Y-63824381D02*
X111529858Y-63300571D01*
X111577477Y-63205333D01*
X111672715Y-63157714D01*
X111863192Y-63157714D01*
X111958430Y-63205333D01*
X111529858Y-63776762D02*
X111625096Y-63824381D01*
X111863192Y-63824381D01*
X111958430Y-63776762D01*
X112006049Y-63681524D01*
X112006049Y-63586286D01*
X111958430Y-63491048D01*
X111863192Y-63443429D01*
X111625096Y-63443429D01*
X111529858Y-63395810D01*
X111196525Y-63157714D02*
X110815573Y-63157714D01*
X111053668Y-62824381D02*
X111053668Y-63681524D01*
X111006049Y-63776762D01*
X110910811Y-63824381D01*
X110815573Y-63824381D01*
X110339382Y-63824381D02*
X110434620Y-63776762D01*
X110482239Y-63729143D01*
X110529858Y-63633905D01*
X110529858Y-63348190D01*
X110482239Y-63252952D01*
X110434620Y-63205333D01*
X110339382Y-63157714D01*
X110196524Y-63157714D01*
X110101286Y-63205333D01*
X110053667Y-63252952D01*
X110006048Y-63348190D01*
X110006048Y-63633905D01*
X110053667Y-63729143D01*
X110101286Y-63776762D01*
X110196524Y-63824381D01*
X110339382Y-63824381D01*
X109577477Y-63824381D02*
X109577477Y-63157714D01*
X109577477Y-63348190D02*
X109529858Y-63252952D01*
X109482239Y-63205333D01*
X109387001Y-63157714D01*
X109291762Y-63157714D01*
X108244143Y-62776762D02*
X109101286Y-64062476D01*
X107910810Y-63824381D02*
X107910810Y-62824381D01*
X107529857Y-62824381D01*
X107434619Y-62872000D01*
X107387000Y-62919619D01*
X107339381Y-63014857D01*
X107339381Y-63157714D01*
X107387000Y-63252952D01*
X107434619Y-63300571D01*
X107529857Y-63348190D01*
X107910810Y-63348190D01*
X106482238Y-63824381D02*
X106482238Y-63300571D01*
X106529857Y-63205333D01*
X106625095Y-63157714D01*
X106815572Y-63157714D01*
X106910810Y-63205333D01*
X106482238Y-63776762D02*
X106577476Y-63824381D01*
X106815572Y-63824381D01*
X106910810Y-63776762D01*
X106958429Y-63681524D01*
X106958429Y-63586286D01*
X106910810Y-63491048D01*
X106815572Y-63443429D01*
X106577476Y-63443429D01*
X106482238Y-63395810D01*
X105577476Y-63157714D02*
X105577476Y-63967238D01*
X105625095Y-64062476D01*
X105672714Y-64110095D01*
X105767953Y-64157714D01*
X105910810Y-64157714D01*
X106006048Y-64110095D01*
X105577476Y-63776762D02*
X105672714Y-63824381D01*
X105863191Y-63824381D01*
X105958429Y-63776762D01*
X106006048Y-63729143D01*
X106053667Y-63633905D01*
X106053667Y-63348190D01*
X106006048Y-63252952D01*
X105958429Y-63205333D01*
X105863191Y-63157714D01*
X105672714Y-63157714D01*
X105577476Y-63205333D01*
X104720333Y-63776762D02*
X104815571Y-63824381D01*
X105006048Y-63824381D01*
X105101286Y-63776762D01*
X105148905Y-63681524D01*
X105148905Y-63300571D01*
X105101286Y-63205333D01*
X105006048Y-63157714D01*
X104815571Y-63157714D01*
X104720333Y-63205333D01*
X104672714Y-63300571D01*
X104672714Y-63395810D01*
X105148905Y-63491048D01*
X104244143Y-63824381D02*
X104244143Y-63157714D01*
X104244143Y-63348190D02*
X104196524Y-63252952D01*
X104148905Y-63205333D01*
X104053667Y-63157714D01*
X103958428Y-63157714D01*
X143390000Y-57824000D02*
G75*
G03X143390000Y-57824000I-500000J0D01*
G01*
X127890000Y-60832000D02*
X127890000Y-44832000D01*
X143890000Y-60832000D02*
X143890000Y-44832000D01*
D12*
X101196000Y-41018000D02*
X101196000Y-40818000D01*
X97056000Y-43818000D02*
X96846000Y-43618000D01*
X97056000Y-42518000D02*
X96846000Y-42718000D01*
X98346000Y-43818000D02*
X97056000Y-43818000D01*
X96846000Y-43618000D02*
X96846000Y-42718000D01*
X97056000Y-42518000D02*
X98346000Y-42518000D01*
X98346000Y-45268000D02*
X98346000Y-39568000D01*
X101196000Y-44018000D02*
X101196000Y-42318000D01*
X100146000Y-45868000D02*
X99356000Y-45868000D01*
X99356000Y-38968000D02*
X100146000Y-38968000D01*
D11*
X99441000Y-89916000D02*
G75*
G02X98806000Y-89281000I0J635000D01*
G01*
X98806000Y-67691000D02*
G75*
G02X99441000Y-67056000I635000J0D01*
G01*
X98806000Y-89281000D02*
X98806000Y-67691000D01*
X114681000Y-89916000D02*
X114681000Y-83566000D01*
X114681000Y-83566000D02*
X104521000Y-83566000D01*
X104521000Y-83566000D02*
X104521000Y-89916000D01*
X145161000Y-84836000D02*
X133731000Y-84836000D01*
X133731000Y-84836000D02*
X133731000Y-72136000D01*
X133731000Y-72136000D02*
X145161000Y-72136000D01*
X150241000Y-84836000D02*
X145161000Y-84836000D01*
X145161000Y-84836000D02*
X145161000Y-72136000D01*
X145161000Y-72136000D02*
X150241000Y-72136000D01*
X103142051Y-69596000D02*
G75*
G03X103142051Y-69596000I-1796051J0D01*
G01*
X103142051Y-87376000D02*
G75*
G03X103142051Y-87376000I-1796051J0D01*
G01*
X148971000Y-87376000D02*
G75*
G03X148971000Y-87376000I-1270000J0D01*
G01*
X148971000Y-69596000D02*
G75*
G03X148971000Y-69596000I-1270000J0D01*
G01*
X148971000Y-67056000D02*
G75*
G02X150241000Y-68326000I0J-1270000D01*
G01*
X150241000Y-88646000D02*
G75*
G02X148971000Y-89916000I-1270000J0D01*
G01*
X150241000Y-88646000D02*
X150241000Y-68326000D01*
X148971000Y-89916000D02*
X99441000Y-89916000D01*
X99441000Y-67056000D02*
X148971000Y-67056000D01*
X104766000Y-46618000D02*
X111416000Y-46618000D01*
X113166000Y-38218000D02*
X113166000Y-44468000D01*
X113166000Y-44468000D02*
X111416000Y-46618000D01*
X104766000Y-38218000D02*
X113166000Y-38218000D01*
X104766000Y-46618000D02*
X104766000Y-42418000D01*
X104766000Y-42418000D02*
X104766000Y-38218000D01*
D12*
X133620000Y-41964000D02*
X135620000Y-41964000D01*
X135620000Y-39824000D02*
X133620000Y-39824000D01*
D13*
G36*
X105547379Y-49482592D02*
X105529138Y-49491874D01*
X105391806Y-49644277D01*
X105387556Y-49840864D01*
X105494666Y-49995667D01*
X105588605Y-50153738D01*
X105621666Y-50344700D01*
X105609683Y-50494587D01*
X105543151Y-50565584D01*
X105376195Y-50587027D01*
X105240666Y-50588333D01*
X104859666Y-50588333D01*
X104859666Y-57361667D01*
X107575906Y-57361667D01*
X109720442Y-58293000D01*
X110370223Y-58574917D01*
X110881385Y-58795614D01*
X111270516Y-58961574D01*
X111554205Y-59079281D01*
X111749043Y-59155219D01*
X111871617Y-59195874D01*
X111938518Y-59207729D01*
X111966333Y-59197268D01*
X111971666Y-59172942D01*
X111926021Y-59087038D01*
X111868861Y-58997403D01*
X111717666Y-58997403D01*
X111643858Y-58975311D01*
X111436244Y-58892735D01*
X111115540Y-58758447D01*
X110702463Y-58581222D01*
X110217729Y-58369832D01*
X109791500Y-58181675D01*
X107865333Y-57327008D01*
X106426000Y-57280837D01*
X104986666Y-57234667D01*
X104964494Y-53996167D01*
X104942321Y-50757667D01*
X111525317Y-50757667D01*
X111579158Y-51150484D01*
X111592074Y-51328641D01*
X111603878Y-51652930D01*
X111614187Y-52100151D01*
X111622617Y-52647103D01*
X111628786Y-53270586D01*
X111632309Y-53947400D01*
X111633000Y-54410150D01*
X111633000Y-57277000D01*
X111181444Y-57277000D01*
X110918432Y-57286445D01*
X110730371Y-57310679D01*
X110675520Y-57331368D01*
X110699273Y-57417992D01*
X110804867Y-57612118D01*
X110974869Y-57884069D01*
X111169409Y-58172100D01*
X111387566Y-58488236D01*
X111564559Y-58750876D01*
X111680906Y-58930695D01*
X111717666Y-58997403D01*
X111868861Y-58997403D01*
X111802094Y-58892705D01*
X111619398Y-58619756D01*
X111421333Y-58332210D01*
X111202555Y-58014417D01*
X111024993Y-57748877D01*
X110908143Y-57565263D01*
X110871000Y-57494601D01*
X110947195Y-57467059D01*
X111142000Y-57449584D01*
X111294333Y-57446333D01*
X111717666Y-57446333D01*
X111717666Y-50588333D01*
X111379000Y-50588333D01*
X111162164Y-50579362D01*
X111065800Y-50523970D01*
X111041090Y-50379441D01*
X111040333Y-50292000D01*
X111059331Y-50096100D01*
X111106041Y-49998214D01*
X111115941Y-49995666D01*
X111211515Y-49924982D01*
X111259803Y-49766470D01*
X111256900Y-49741667D01*
X111125000Y-49741667D01*
X111082148Y-49880627D01*
X110976833Y-49894882D01*
X110850874Y-49811396D01*
X110828666Y-49741667D01*
X110899051Y-49622118D01*
X110976833Y-49588451D01*
X111096845Y-49617903D01*
X111125000Y-49741667D01*
X111256900Y-49741667D01*
X111242796Y-49621213D01*
X111114487Y-49473539D01*
X110919832Y-49464090D01*
X110739826Y-49560490D01*
X110539027Y-49718438D01*
X110732556Y-49900249D01*
X110877884Y-50108575D01*
X110888933Y-50335197D01*
X110851781Y-50588333D01*
X105706333Y-50588333D01*
X105706333Y-50360957D01*
X105763726Y-50137475D01*
X105896833Y-49930431D01*
X106044696Y-49772749D01*
X105852125Y-49772749D01*
X105834995Y-49823644D01*
X105711277Y-49894022D01*
X105558332Y-49861369D01*
X105473475Y-49762878D01*
X105503360Y-49653242D01*
X105626383Y-49593051D01*
X105767716Y-49610299D01*
X105806247Y-49638380D01*
X105852125Y-49772749D01*
X106044696Y-49772749D01*
X106087333Y-49727282D01*
X105888971Y-49566370D01*
X105706832Y-49460085D01*
X105547379Y-49482592D01*
X105547379Y-49482592D01*
G37*
X105547379Y-49482592D02*
X105529138Y-49491874D01*
X105391806Y-49644277D01*
X105387556Y-49840864D01*
X105494666Y-49995667D01*
X105588605Y-50153738D01*
X105621666Y-50344700D01*
X105609683Y-50494587D01*
X105543151Y-50565584D01*
X105376195Y-50587027D01*
X105240666Y-50588333D01*
X104859666Y-50588333D01*
X104859666Y-57361667D01*
X107575906Y-57361667D01*
X109720442Y-58293000D01*
X110370223Y-58574917D01*
X110881385Y-58795614D01*
X111270516Y-58961574D01*
X111554205Y-59079281D01*
X111749043Y-59155219D01*
X111871617Y-59195874D01*
X111938518Y-59207729D01*
X111966333Y-59197268D01*
X111971666Y-59172942D01*
X111926021Y-59087038D01*
X111868861Y-58997403D01*
X111717666Y-58997403D01*
X111643858Y-58975311D01*
X111436244Y-58892735D01*
X111115540Y-58758447D01*
X110702463Y-58581222D01*
X110217729Y-58369832D01*
X109791500Y-58181675D01*
X107865333Y-57327008D01*
X106426000Y-57280837D01*
X104986666Y-57234667D01*
X104964494Y-53996167D01*
X104942321Y-50757667D01*
X111525317Y-50757667D01*
X111579158Y-51150484D01*
X111592074Y-51328641D01*
X111603878Y-51652930D01*
X111614187Y-52100151D01*
X111622617Y-52647103D01*
X111628786Y-53270586D01*
X111632309Y-53947400D01*
X111633000Y-54410150D01*
X111633000Y-57277000D01*
X111181444Y-57277000D01*
X110918432Y-57286445D01*
X110730371Y-57310679D01*
X110675520Y-57331368D01*
X110699273Y-57417992D01*
X110804867Y-57612118D01*
X110974869Y-57884069D01*
X111169409Y-58172100D01*
X111387566Y-58488236D01*
X111564559Y-58750876D01*
X111680906Y-58930695D01*
X111717666Y-58997403D01*
X111868861Y-58997403D01*
X111802094Y-58892705D01*
X111619398Y-58619756D01*
X111421333Y-58332210D01*
X111202555Y-58014417D01*
X111024993Y-57748877D01*
X110908143Y-57565263D01*
X110871000Y-57494601D01*
X110947195Y-57467059D01*
X111142000Y-57449584D01*
X111294333Y-57446333D01*
X111717666Y-57446333D01*
X111717666Y-50588333D01*
X111379000Y-50588333D01*
X111162164Y-50579362D01*
X111065800Y-50523970D01*
X111041090Y-50379441D01*
X111040333Y-50292000D01*
X111059331Y-50096100D01*
X111106041Y-49998214D01*
X111115941Y-49995666D01*
X111211515Y-49924982D01*
X111259803Y-49766470D01*
X111256900Y-49741667D01*
X111125000Y-49741667D01*
X111082148Y-49880627D01*
X110976833Y-49894882D01*
X110850874Y-49811396D01*
X110828666Y-49741667D01*
X110899051Y-49622118D01*
X110976833Y-49588451D01*
X111096845Y-49617903D01*
X111125000Y-49741667D01*
X111256900Y-49741667D01*
X111242796Y-49621213D01*
X111114487Y-49473539D01*
X110919832Y-49464090D01*
X110739826Y-49560490D01*
X110539027Y-49718438D01*
X110732556Y-49900249D01*
X110877884Y-50108575D01*
X110888933Y-50335197D01*
X110851781Y-50588333D01*
X105706333Y-50588333D01*
X105706333Y-50360957D01*
X105763726Y-50137475D01*
X105896833Y-49930431D01*
X106044696Y-49772749D01*
X105852125Y-49772749D01*
X105834995Y-49823644D01*
X105711277Y-49894022D01*
X105558332Y-49861369D01*
X105473475Y-49762878D01*
X105503360Y-49653242D01*
X105626383Y-49593051D01*
X105767716Y-49610299D01*
X105806247Y-49638380D01*
X105852125Y-49772749D01*
X106044696Y-49772749D01*
X106087333Y-49727282D01*
X105888971Y-49566370D01*
X105706832Y-49460085D01*
X105547379Y-49482592D01*
G36*
X116558418Y-58022106D02*
X116543666Y-58081333D01*
X116611439Y-58193582D01*
X116670666Y-58208333D01*
X116782915Y-58140560D01*
X116797666Y-58081333D01*
X116729894Y-57969085D01*
X116670666Y-57954333D01*
X116558418Y-58022106D01*
X116558418Y-58022106D01*
G37*
X116558418Y-58022106D02*
X116543666Y-58081333D01*
X116611439Y-58193582D01*
X116670666Y-58208333D01*
X116782915Y-58140560D01*
X116797666Y-58081333D01*
X116729894Y-57969085D01*
X116670666Y-57954333D01*
X116558418Y-58022106D01*
G36*
X115311022Y-57432929D02*
X115195490Y-57538425D01*
X115189000Y-57574946D01*
X115235228Y-57686579D01*
X115273666Y-57700333D01*
X115355873Y-57635904D01*
X115358333Y-57615667D01*
X115432762Y-57559704D01*
X115615777Y-57531731D01*
X115654666Y-57531000D01*
X115853761Y-57545159D01*
X115935422Y-57616979D01*
X115951000Y-57785000D01*
X115934480Y-57955653D01*
X115850690Y-58025647D01*
X115654666Y-58039000D01*
X115458818Y-58016485D01*
X115360900Y-57961120D01*
X115358333Y-57949336D01*
X115306463Y-57898770D01*
X115273666Y-57912000D01*
X115195762Y-58034502D01*
X115189000Y-58086330D01*
X115235609Y-58160469D01*
X115394826Y-58198588D01*
X115659305Y-58208333D01*
X116129611Y-58208333D01*
X116103805Y-57806167D01*
X116079237Y-57561297D01*
X116026836Y-57437874D01*
X115916667Y-57388023D01*
X115834936Y-57376222D01*
X115538405Y-57374482D01*
X115311022Y-57432929D01*
X115311022Y-57432929D01*
G37*
X115311022Y-57432929D02*
X115195490Y-57538425D01*
X115189000Y-57574946D01*
X115235228Y-57686579D01*
X115273666Y-57700333D01*
X115355873Y-57635904D01*
X115358333Y-57615667D01*
X115432762Y-57559704D01*
X115615777Y-57531731D01*
X115654666Y-57531000D01*
X115853761Y-57545159D01*
X115935422Y-57616979D01*
X115951000Y-57785000D01*
X115934480Y-57955653D01*
X115850690Y-58025647D01*
X115654666Y-58039000D01*
X115458818Y-58016485D01*
X115360900Y-57961120D01*
X115358333Y-57949336D01*
X115306463Y-57898770D01*
X115273666Y-57912000D01*
X115195762Y-58034502D01*
X115189000Y-58086330D01*
X115235609Y-58160469D01*
X115394826Y-58198588D01*
X115659305Y-58208333D01*
X116129611Y-58208333D01*
X116103805Y-57806167D01*
X116079237Y-57561297D01*
X116026836Y-57437874D01*
X115916667Y-57388023D01*
X115834936Y-57376222D01*
X115538405Y-57374482D01*
X115311022Y-57432929D01*
G36*
X113850861Y-57806167D02*
X113825055Y-58208333D01*
X114859611Y-58208333D01*
X114833805Y-57806167D01*
X114832447Y-57785000D01*
X114681000Y-57785000D01*
X114667626Y-57947867D01*
X114595154Y-58020268D01*
X114415055Y-58038599D01*
X114342333Y-58039000D01*
X114125178Y-58028970D01*
X114028643Y-57974615D01*
X114004201Y-57839541D01*
X114003666Y-57785000D01*
X114017040Y-57622133D01*
X114089513Y-57549732D01*
X114269611Y-57531401D01*
X114342333Y-57531000D01*
X114559489Y-57541030D01*
X114656024Y-57595385D01*
X114680466Y-57730458D01*
X114681000Y-57785000D01*
X114832447Y-57785000D01*
X114808000Y-57404000D01*
X113876666Y-57404000D01*
X113850861Y-57806167D01*
X113850861Y-57806167D01*
G37*
X113850861Y-57806167D02*
X113825055Y-58208333D01*
X114859611Y-58208333D01*
X114833805Y-57806167D01*
X114832447Y-57785000D01*
X114681000Y-57785000D01*
X114667626Y-57947867D01*
X114595154Y-58020268D01*
X114415055Y-58038599D01*
X114342333Y-58039000D01*
X114125178Y-58028970D01*
X114028643Y-57974615D01*
X114004201Y-57839541D01*
X114003666Y-57785000D01*
X114017040Y-57622133D01*
X114089513Y-57549732D01*
X114269611Y-57531401D01*
X114342333Y-57531000D01*
X114559489Y-57541030D01*
X114656024Y-57595385D01*
X114680466Y-57730458D01*
X114681000Y-57785000D01*
X114832447Y-57785000D01*
X114808000Y-57404000D01*
X113876666Y-57404000D01*
X113850861Y-57806167D01*
G36*
X112397482Y-57763833D02*
X112410636Y-58012143D01*
X112447086Y-58173481D01*
X112479666Y-58208333D01*
X112538112Y-58134509D01*
X112564238Y-57955555D01*
X112564333Y-57942915D01*
X112564333Y-57677497D01*
X112749127Y-57912424D01*
X112933921Y-58147352D01*
X113129706Y-57902676D01*
X113325492Y-57658000D01*
X113325913Y-57933167D01*
X113348978Y-58120464D01*
X113404596Y-58207548D01*
X113411000Y-58208333D01*
X113461772Y-58132720D01*
X113491993Y-57941674D01*
X113495666Y-57832330D01*
X113474710Y-57546499D01*
X113408203Y-57422113D01*
X113290689Y-57456098D01*
X113131019Y-57626914D01*
X112922162Y-57893784D01*
X112661063Y-57606559D01*
X112399964Y-57319333D01*
X112397482Y-57763833D01*
X112397482Y-57763833D01*
G37*
X112397482Y-57763833D02*
X112410636Y-58012143D01*
X112447086Y-58173481D01*
X112479666Y-58208333D01*
X112538112Y-58134509D01*
X112564238Y-57955555D01*
X112564333Y-57942915D01*
X112564333Y-57677497D01*
X112749127Y-57912424D01*
X112933921Y-58147352D01*
X113129706Y-57902676D01*
X113325492Y-57658000D01*
X113325913Y-57933167D01*
X113348978Y-58120464D01*
X113404596Y-58207548D01*
X113411000Y-58208333D01*
X113461772Y-58132720D01*
X113491993Y-57941674D01*
X113495666Y-57832330D01*
X113474710Y-57546499D01*
X113408203Y-57422113D01*
X113290689Y-57456098D01*
X113131019Y-57626914D01*
X112922162Y-57893784D01*
X112661063Y-57606559D01*
X112399964Y-57319333D01*
X112397482Y-57763833D01*
G36*
X118518636Y-54332527D02*
X118314660Y-54380593D01*
X118253933Y-54415267D01*
X118206030Y-54544742D01*
X118173558Y-54825803D01*
X118156010Y-55264758D01*
X118152333Y-55682288D01*
X118154188Y-56150922D01*
X118162211Y-56478472D01*
X118180094Y-56693168D01*
X118211524Y-56823241D01*
X118260192Y-56896921D01*
X118316100Y-56935354D01*
X118567881Y-57004015D01*
X118889374Y-57008882D01*
X119193420Y-56949924D01*
X119231833Y-56935695D01*
X119307601Y-56898093D01*
X119360049Y-56838017D01*
X119393460Y-56727416D01*
X119412117Y-56538240D01*
X119420302Y-56242438D01*
X119421197Y-56049424D01*
X118903678Y-56049424D01*
X118889685Y-56365455D01*
X118852573Y-56537576D01*
X118790357Y-56577957D01*
X118738993Y-56542860D01*
X118702695Y-56421936D01*
X118680474Y-56168467D01*
X118674775Y-55818840D01*
X118678269Y-55639271D01*
X118701963Y-55204729D01*
X118738425Y-54929555D01*
X118781664Y-54815450D01*
X118825684Y-54864115D01*
X118864494Y-55077251D01*
X118892099Y-55456560D01*
X118896540Y-55577315D01*
X118903678Y-56049424D01*
X119421197Y-56049424D01*
X119422299Y-55811960D01*
X119422333Y-55687995D01*
X119415287Y-55130427D01*
X119393806Y-54735151D01*
X119357373Y-54495697D01*
X119320733Y-54415267D01*
X119181793Y-54356481D01*
X118940828Y-54319796D01*
X118787333Y-54313667D01*
X118518636Y-54332527D01*
X118518636Y-54332527D01*
G37*
X118518636Y-54332527D02*
X118314660Y-54380593D01*
X118253933Y-54415267D01*
X118206030Y-54544742D01*
X118173558Y-54825803D01*
X118156010Y-55264758D01*
X118152333Y-55682288D01*
X118154188Y-56150922D01*
X118162211Y-56478472D01*
X118180094Y-56693168D01*
X118211524Y-56823241D01*
X118260192Y-56896921D01*
X118316100Y-56935354D01*
X118567881Y-57004015D01*
X118889374Y-57008882D01*
X119193420Y-56949924D01*
X119231833Y-56935695D01*
X119307601Y-56898093D01*
X119360049Y-56838017D01*
X119393460Y-56727416D01*
X119412117Y-56538240D01*
X119420302Y-56242438D01*
X119421197Y-56049424D01*
X118903678Y-56049424D01*
X118889685Y-56365455D01*
X118852573Y-56537576D01*
X118790357Y-56577957D01*
X118738993Y-56542860D01*
X118702695Y-56421936D01*
X118680474Y-56168467D01*
X118674775Y-55818840D01*
X118678269Y-55639271D01*
X118701963Y-55204729D01*
X118738425Y-54929555D01*
X118781664Y-54815450D01*
X118825684Y-54864115D01*
X118864494Y-55077251D01*
X118892099Y-55456560D01*
X118896540Y-55577315D01*
X118903678Y-56049424D01*
X119421197Y-56049424D01*
X119422299Y-55811960D01*
X119422333Y-55687995D01*
X119415287Y-55130427D01*
X119393806Y-54735151D01*
X119357373Y-54495697D01*
X119320733Y-54415267D01*
X119181793Y-54356481D01*
X118940828Y-54319796D01*
X118787333Y-54313667D01*
X118518636Y-54332527D01*
G36*
X117424302Y-54325650D02*
X117337290Y-54388029D01*
X117276366Y-54540445D01*
X117217710Y-54800500D01*
X117146433Y-55139171D01*
X117101429Y-55315200D01*
X117076147Y-55332066D01*
X117064038Y-55193249D01*
X117058552Y-54902229D01*
X117058351Y-54885167D01*
X117051666Y-54313667D01*
X116543666Y-54313667D01*
X116543666Y-57023000D01*
X116788608Y-57023000D01*
X116944646Y-57007688D01*
X117044907Y-56938355D01*
X117111453Y-56779901D01*
X117166348Y-56497228D01*
X117181625Y-56397783D01*
X117240661Y-56105608D01*
X117299327Y-55979771D01*
X117349243Y-56017464D01*
X117382028Y-56215882D01*
X117390333Y-56467670D01*
X117393966Y-56765159D01*
X117414544Y-56931421D01*
X117466584Y-57004544D01*
X117564603Y-57022617D01*
X117602000Y-57023000D01*
X117813666Y-57023000D01*
X117813666Y-54313667D01*
X117565738Y-54313667D01*
X117424302Y-54325650D01*
X117424302Y-54325650D01*
G37*
X117424302Y-54325650D02*
X117337290Y-54388029D01*
X117276366Y-54540445D01*
X117217710Y-54800500D01*
X117146433Y-55139171D01*
X117101429Y-55315200D01*
X117076147Y-55332066D01*
X117064038Y-55193249D01*
X117058552Y-54902229D01*
X117058351Y-54885167D01*
X117051666Y-54313667D01*
X116543666Y-54313667D01*
X116543666Y-57023000D01*
X116788608Y-57023000D01*
X116944646Y-57007688D01*
X117044907Y-56938355D01*
X117111453Y-56779901D01*
X117166348Y-56497228D01*
X117181625Y-56397783D01*
X117240661Y-56105608D01*
X117299327Y-55979771D01*
X117349243Y-56017464D01*
X117382028Y-56215882D01*
X117390333Y-56467670D01*
X117393966Y-56765159D01*
X117414544Y-56931421D01*
X117466584Y-57004544D01*
X117564603Y-57022617D01*
X117602000Y-57023000D01*
X117813666Y-57023000D01*
X117813666Y-54313667D01*
X117565738Y-54313667D01*
X117424302Y-54325650D01*
G36*
X115293230Y-54337782D02*
X115190480Y-54409688D01*
X115189000Y-54423017D01*
X115178077Y-54560363D01*
X115148810Y-54824710D01*
X115106449Y-55175375D01*
X115056244Y-55571679D01*
X115003446Y-55972940D01*
X114953305Y-56338477D01*
X114911071Y-56627608D01*
X114882719Y-56796130D01*
X114862848Y-56956442D01*
X114922933Y-57014455D01*
X115105925Y-57008895D01*
X115117463Y-57007797D01*
X115314512Y-56968426D01*
X115400406Y-56864078D01*
X115427581Y-56700360D01*
X115478918Y-56503409D01*
X115559495Y-56458149D01*
X115638370Y-56557994D01*
X115681198Y-56754353D01*
X115719549Y-56940661D01*
X115822125Y-57012594D01*
X115981733Y-57023000D01*
X116255737Y-57023000D01*
X116089504Y-55668333D01*
X116081712Y-55604833D01*
X115605649Y-55604833D01*
X115596776Y-55839251D01*
X115566698Y-55984198D01*
X115544668Y-56007000D01*
X115508674Y-55932829D01*
X115503789Y-55748723D01*
X115508471Y-55689500D01*
X115542204Y-55412585D01*
X115571013Y-55298495D01*
X115592659Y-55349181D01*
X115604903Y-55566591D01*
X115605649Y-55604833D01*
X116081712Y-55604833D01*
X115923271Y-54313667D01*
X115556136Y-54313667D01*
X115293230Y-54337782D01*
X115293230Y-54337782D01*
G37*
X115293230Y-54337782D02*
X115190480Y-54409688D01*
X115189000Y-54423017D01*
X115178077Y-54560363D01*
X115148810Y-54824710D01*
X115106449Y-55175375D01*
X115056244Y-55571679D01*
X115003446Y-55972940D01*
X114953305Y-56338477D01*
X114911071Y-56627608D01*
X114882719Y-56796130D01*
X114862848Y-56956442D01*
X114922933Y-57014455D01*
X115105925Y-57008895D01*
X115117463Y-57007797D01*
X115314512Y-56968426D01*
X115400406Y-56864078D01*
X115427581Y-56700360D01*
X115478918Y-56503409D01*
X115559495Y-56458149D01*
X115638370Y-56557994D01*
X115681198Y-56754353D01*
X115719549Y-56940661D01*
X115822125Y-57012594D01*
X115981733Y-57023000D01*
X116255737Y-57023000D01*
X116089504Y-55668333D01*
X116081712Y-55604833D01*
X115605649Y-55604833D01*
X115596776Y-55839251D01*
X115566698Y-55984198D01*
X115544668Y-56007000D01*
X115508674Y-55932829D01*
X115503789Y-55748723D01*
X115508471Y-55689500D01*
X115542204Y-55412585D01*
X115571013Y-55298495D01*
X115592659Y-55349181D01*
X115604903Y-55566591D01*
X115605649Y-55604833D01*
X116081712Y-55604833D01*
X115923271Y-54313667D01*
X115556136Y-54313667D01*
X115293230Y-54337782D01*
G36*
X114003666Y-57023000D02*
X114596333Y-57023000D01*
X114596333Y-54313667D01*
X114003666Y-54313667D01*
X114003666Y-57023000D01*
X114003666Y-57023000D01*
G37*
X114003666Y-57023000D02*
X114596333Y-57023000D01*
X114596333Y-54313667D01*
X114003666Y-54313667D01*
X114003666Y-57023000D01*
G36*
X112845075Y-54328518D02*
X112601126Y-54368467D01*
X112496600Y-54415267D01*
X112435254Y-54563912D01*
X112403026Y-54815378D01*
X112399915Y-55105676D01*
X112425921Y-55370817D01*
X112481045Y-55546809D01*
X112496600Y-55566733D01*
X112554605Y-55681947D01*
X112496600Y-55769933D01*
X112441187Y-55909507D01*
X112405187Y-56171884D01*
X112395000Y-56447266D01*
X112395000Y-57023000D01*
X112987666Y-57023000D01*
X112987666Y-56472667D01*
X112999629Y-56185084D01*
X113031319Y-55988190D01*
X113072333Y-55922333D01*
X113116577Y-56000091D01*
X113146868Y-56206073D01*
X113157000Y-56472667D01*
X113159954Y-56768272D01*
X113179960Y-56932890D01*
X113233732Y-57004865D01*
X113337985Y-57022543D01*
X113396889Y-57023000D01*
X113590797Y-57004867D01*
X113693222Y-56966555D01*
X113712752Y-56866431D01*
X113729354Y-56627629D01*
X113741750Y-56280796D01*
X113748662Y-55856579D01*
X113749666Y-55611889D01*
X113749666Y-55194612D01*
X113155245Y-55194612D01*
X113132794Y-55372954D01*
X113100555Y-55442555D01*
X113034787Y-55489738D01*
X113000917Y-55441574D01*
X112988772Y-55268822D01*
X112987666Y-55118000D01*
X113004483Y-54890780D01*
X113047030Y-54754482D01*
X113072333Y-54737000D01*
X113122351Y-54810043D01*
X113150876Y-54984777D01*
X113155245Y-55194612D01*
X113749666Y-55194612D01*
X113749666Y-54313667D01*
X113173933Y-54313667D01*
X112845075Y-54328518D01*
X112845075Y-54328518D01*
G37*
X112845075Y-54328518D02*
X112601126Y-54368467D01*
X112496600Y-54415267D01*
X112435254Y-54563912D01*
X112403026Y-54815378D01*
X112399915Y-55105676D01*
X112425921Y-55370817D01*
X112481045Y-55546809D01*
X112496600Y-55566733D01*
X112554605Y-55681947D01*
X112496600Y-55769933D01*
X112441187Y-55909507D01*
X112405187Y-56171884D01*
X112395000Y-56447266D01*
X112395000Y-57023000D01*
X112987666Y-57023000D01*
X112987666Y-56472667D01*
X112999629Y-56185084D01*
X113031319Y-55988190D01*
X113072333Y-55922333D01*
X113116577Y-56000091D01*
X113146868Y-56206073D01*
X113157000Y-56472667D01*
X113159954Y-56768272D01*
X113179960Y-56932890D01*
X113233732Y-57004865D01*
X113337985Y-57022543D01*
X113396889Y-57023000D01*
X113590797Y-57004867D01*
X113693222Y-56966555D01*
X113712752Y-56866431D01*
X113729354Y-56627629D01*
X113741750Y-56280796D01*
X113748662Y-55856579D01*
X113749666Y-55611889D01*
X113749666Y-55194612D01*
X113155245Y-55194612D01*
X113132794Y-55372954D01*
X113100555Y-55442555D01*
X113034787Y-55489738D01*
X113000917Y-55441574D01*
X112988772Y-55268822D01*
X112987666Y-55118000D01*
X113004483Y-54890780D01*
X113047030Y-54754482D01*
X113072333Y-54737000D01*
X113122351Y-54810043D01*
X113150876Y-54984777D01*
X113155245Y-55194612D01*
X113749666Y-55194612D01*
X113749666Y-54313667D01*
X113173933Y-54313667D01*
X112845075Y-54328518D01*
G36*
X118279124Y-50912983D02*
X118053039Y-51014777D01*
X117935201Y-51215316D01*
X117898571Y-51539866D01*
X117898333Y-51578182D01*
X117898333Y-51943000D01*
X118237000Y-51943000D01*
X118453836Y-51934029D01*
X118550199Y-51878637D01*
X118574909Y-51734107D01*
X118575666Y-51646667D01*
X118596932Y-51450799D01*
X118649222Y-51352893D01*
X118660333Y-51350333D01*
X118716375Y-51424743D01*
X118744298Y-51607629D01*
X118745000Y-51645604D01*
X118722183Y-51847181D01*
X118626812Y-51993942D01*
X118418505Y-52146970D01*
X118409974Y-52152368D01*
X118143429Y-52348719D01*
X117987290Y-52555950D01*
X117914624Y-52827667D01*
X117898333Y-53170667D01*
X117911702Y-53544541D01*
X117971377Y-53780914D01*
X118106708Y-53910768D01*
X118347045Y-53965083D01*
X118660333Y-53975000D01*
X118982508Y-53967617D01*
X119177394Y-53938723D01*
X119286651Y-53878201D01*
X119334688Y-53811233D01*
X119383869Y-53636716D01*
X119415669Y-53365276D01*
X119422333Y-53171122D01*
X119422333Y-52694778D01*
X119104833Y-52721056D01*
X118904849Y-52748092D01*
X118808788Y-52818939D01*
X118771353Y-52984506D01*
X118761298Y-53107167D01*
X118720916Y-53363598D01*
X118662752Y-53457398D01*
X118607811Y-53390768D01*
X118577099Y-53165908D01*
X118575666Y-53087721D01*
X118587951Y-52845070D01*
X118653101Y-52701845D01*
X118813559Y-52588458D01*
X118911502Y-52537111D01*
X119176822Y-52371426D01*
X119333305Y-52177311D01*
X119406506Y-51906784D01*
X119422333Y-51577933D01*
X119399361Y-51249356D01*
X119310885Y-51042194D01*
X119127560Y-50930429D01*
X118820046Y-50888042D01*
X118640495Y-50884667D01*
X118279124Y-50912983D01*
X118279124Y-50912983D01*
G37*
X118279124Y-50912983D02*
X118053039Y-51014777D01*
X117935201Y-51215316D01*
X117898571Y-51539866D01*
X117898333Y-51578182D01*
X117898333Y-51943000D01*
X118237000Y-51943000D01*
X118453836Y-51934029D01*
X118550199Y-51878637D01*
X118574909Y-51734107D01*
X118575666Y-51646667D01*
X118596932Y-51450799D01*
X118649222Y-51352893D01*
X118660333Y-51350333D01*
X118716375Y-51424743D01*
X118744298Y-51607629D01*
X118745000Y-51645604D01*
X118722183Y-51847181D01*
X118626812Y-51993942D01*
X118418505Y-52146970D01*
X118409974Y-52152368D01*
X118143429Y-52348719D01*
X117987290Y-52555950D01*
X117914624Y-52827667D01*
X117898333Y-53170667D01*
X117911702Y-53544541D01*
X117971377Y-53780914D01*
X118106708Y-53910768D01*
X118347045Y-53965083D01*
X118660333Y-53975000D01*
X118982508Y-53967617D01*
X119177394Y-53938723D01*
X119286651Y-53878201D01*
X119334688Y-53811233D01*
X119383869Y-53636716D01*
X119415669Y-53365276D01*
X119422333Y-53171122D01*
X119422333Y-52694778D01*
X119104833Y-52721056D01*
X118904849Y-52748092D01*
X118808788Y-52818939D01*
X118771353Y-52984506D01*
X118761298Y-53107167D01*
X118720916Y-53363598D01*
X118662752Y-53457398D01*
X118607811Y-53390768D01*
X118577099Y-53165908D01*
X118575666Y-53087721D01*
X118587951Y-52845070D01*
X118653101Y-52701845D01*
X118813559Y-52588458D01*
X118911502Y-52537111D01*
X119176822Y-52371426D01*
X119333305Y-52177311D01*
X119406506Y-51906784D01*
X119422333Y-51577933D01*
X119399361Y-51249356D01*
X119310885Y-51042194D01*
X119127560Y-50930429D01*
X118820046Y-50888042D01*
X118640495Y-50884667D01*
X118279124Y-50912983D01*
G36*
X116353166Y-50858135D02*
X116078000Y-50884667D01*
X116054923Y-52429833D01*
X116031847Y-53975000D01*
X116689862Y-53975000D01*
X116798426Y-53445833D01*
X116884629Y-53063665D01*
X116952231Y-52849519D01*
X117001694Y-52803161D01*
X117033480Y-52924358D01*
X117048051Y-53212874D01*
X117049092Y-53318833D01*
X117051666Y-53975000D01*
X117559666Y-53975000D01*
X117559666Y-50842333D01*
X117269336Y-50842333D01*
X117105516Y-50850316D01*
X117008745Y-50900717D01*
X116947416Y-51033219D01*
X116889923Y-51287501D01*
X116881564Y-51329167D01*
X116792939Y-51756331D01*
X116728596Y-52020505D01*
X116684608Y-52125664D01*
X116657048Y-52075786D01*
X116641986Y-51874845D01*
X116635969Y-51577802D01*
X116628333Y-50831604D01*
X116353166Y-50858135D01*
X116353166Y-50858135D01*
G37*
X116353166Y-50858135D02*
X116078000Y-50884667D01*
X116054923Y-52429833D01*
X116031847Y-53975000D01*
X116689862Y-53975000D01*
X116798426Y-53445833D01*
X116884629Y-53063665D01*
X116952231Y-52849519D01*
X117001694Y-52803161D01*
X117033480Y-52924358D01*
X117048051Y-53212874D01*
X117049092Y-53318833D01*
X117051666Y-53975000D01*
X117559666Y-53975000D01*
X117559666Y-50842333D01*
X117269336Y-50842333D01*
X117105516Y-50850316D01*
X117008745Y-50900717D01*
X116947416Y-51033219D01*
X116889923Y-51287501D01*
X116881564Y-51329167D01*
X116792939Y-51756331D01*
X116728596Y-52020505D01*
X116684608Y-52125664D01*
X116657048Y-52075786D01*
X116641986Y-51874845D01*
X116635969Y-51577802D01*
X116628333Y-50831604D01*
X116353166Y-50858135D01*
G36*
X114534616Y-50854213D02*
X114511666Y-50862533D01*
X114500779Y-50959821D01*
X114471222Y-51190517D01*
X114427655Y-51520310D01*
X114374736Y-51914890D01*
X114317124Y-52339946D01*
X114259477Y-52761168D01*
X114206455Y-53144244D01*
X114162715Y-53454864D01*
X114132917Y-53658717D01*
X114126421Y-53699833D01*
X114106131Y-53875216D01*
X114152046Y-53953702D01*
X114306194Y-53974262D01*
X114423163Y-53975000D01*
X114641602Y-53966317D01*
X114739296Y-53912263D01*
X114764801Y-53770826D01*
X114765666Y-53678667D01*
X114796951Y-53452544D01*
X114883608Y-53382333D01*
X115015547Y-53458794D01*
X115092495Y-53662896D01*
X115104333Y-53812591D01*
X115139534Y-53924277D01*
X115274052Y-53969762D01*
X115406759Y-53975000D01*
X115709184Y-53975000D01*
X115648700Y-53488167D01*
X115613477Y-53207731D01*
X115563487Y-52813704D01*
X115558173Y-52772061D01*
X115006871Y-52772061D01*
X114963791Y-52861723D01*
X114913833Y-52874449D01*
X114853188Y-52819326D01*
X114832837Y-52638841D01*
X114843503Y-52387615D01*
X114879005Y-51900667D01*
X114944457Y-52239333D01*
X114999994Y-52573552D01*
X115006871Y-52772061D01*
X115558173Y-52772061D01*
X115505646Y-52360436D01*
X115452107Y-51943000D01*
X115316000Y-50884667D01*
X114913833Y-50858861D01*
X114679591Y-50849384D01*
X114534616Y-50854213D01*
X114534616Y-50854213D01*
G37*
X114534616Y-50854213D02*
X114511666Y-50862533D01*
X114500779Y-50959821D01*
X114471222Y-51190517D01*
X114427655Y-51520310D01*
X114374736Y-51914890D01*
X114317124Y-52339946D01*
X114259477Y-52761168D01*
X114206455Y-53144244D01*
X114162715Y-53454864D01*
X114132917Y-53658717D01*
X114126421Y-53699833D01*
X114106131Y-53875216D01*
X114152046Y-53953702D01*
X114306194Y-53974262D01*
X114423163Y-53975000D01*
X114641602Y-53966317D01*
X114739296Y-53912263D01*
X114764801Y-53770826D01*
X114765666Y-53678667D01*
X114796951Y-53452544D01*
X114883608Y-53382333D01*
X115015547Y-53458794D01*
X115092495Y-53662896D01*
X115104333Y-53812591D01*
X115139534Y-53924277D01*
X115274052Y-53969762D01*
X115406759Y-53975000D01*
X115709184Y-53975000D01*
X115648700Y-53488167D01*
X115613477Y-53207731D01*
X115563487Y-52813704D01*
X115558173Y-52772061D01*
X115006871Y-52772061D01*
X114963791Y-52861723D01*
X114913833Y-52874449D01*
X114853188Y-52819326D01*
X114832837Y-52638841D01*
X114843503Y-52387615D01*
X114879005Y-51900667D01*
X114944457Y-52239333D01*
X114999994Y-52573552D01*
X115006871Y-52772061D01*
X115558173Y-52772061D01*
X115505646Y-52360436D01*
X115452107Y-51943000D01*
X115316000Y-50884667D01*
X114913833Y-50858861D01*
X114679591Y-50849384D01*
X114534616Y-50854213D01*
G36*
X113202400Y-50860620D02*
X112876598Y-50894338D01*
X112607345Y-50945374D01*
X112448280Y-51003274D01*
X112440400Y-51009121D01*
X112372715Y-51111318D01*
X112331840Y-51301468D01*
X112313019Y-51610749D01*
X112310333Y-51861775D01*
X112315774Y-52213308D01*
X112330288Y-52508796D01*
X112351162Y-52700621D01*
X112360166Y-52736345D01*
X112473694Y-52832484D01*
X112702457Y-52907617D01*
X112783499Y-52922217D01*
X113157000Y-52978227D01*
X113157000Y-53975000D01*
X113834333Y-53975000D01*
X113834333Y-51900667D01*
X113157000Y-51900667D01*
X113145037Y-52188249D01*
X113113348Y-52385143D01*
X113072333Y-52451000D01*
X113028090Y-52373242D01*
X112997798Y-52167260D01*
X112987666Y-51900667D01*
X112999629Y-51613084D01*
X113031319Y-51416190D01*
X113072333Y-51350333D01*
X113116577Y-51428091D01*
X113146868Y-51634073D01*
X113157000Y-51900667D01*
X113834333Y-51900667D01*
X113834333Y-50820065D01*
X113202400Y-50860620D01*
X113202400Y-50860620D01*
G37*
X113202400Y-50860620D02*
X112876598Y-50894338D01*
X112607345Y-50945374D01*
X112448280Y-51003274D01*
X112440400Y-51009121D01*
X112372715Y-51111318D01*
X112331840Y-51301468D01*
X112313019Y-51610749D01*
X112310333Y-51861775D01*
X112315774Y-52213308D01*
X112330288Y-52508796D01*
X112351162Y-52700621D01*
X112360166Y-52736345D01*
X112473694Y-52832484D01*
X112702457Y-52907617D01*
X112783499Y-52922217D01*
X113157000Y-52978227D01*
X113157000Y-53975000D01*
X113834333Y-53975000D01*
X113834333Y-51900667D01*
X113157000Y-51900667D01*
X113145037Y-52188249D01*
X113113348Y-52385143D01*
X113072333Y-52451000D01*
X113028090Y-52373242D01*
X112997798Y-52167260D01*
X112987666Y-51900667D01*
X112999629Y-51613084D01*
X113031319Y-51416190D01*
X113072333Y-51350333D01*
X113116577Y-51428091D01*
X113146868Y-51634073D01*
X113157000Y-51900667D01*
X113834333Y-51900667D01*
X113834333Y-50820065D01*
X113202400Y-50860620D01*
G36*
X108458404Y-49143549D02*
X108428940Y-49359819D01*
X108415949Y-49681074D01*
X108415666Y-49741667D01*
X108425569Y-50077099D01*
X108452602Y-50312813D01*
X108492759Y-50416742D01*
X108500333Y-50419000D01*
X108542262Y-50339784D01*
X108571727Y-50123514D01*
X108584718Y-49802259D01*
X108585000Y-49741667D01*
X108575098Y-49406234D01*
X108548064Y-49170520D01*
X108507907Y-49066591D01*
X108500333Y-49064333D01*
X108458404Y-49143549D01*
X108458404Y-49143549D01*
G37*
X108458404Y-49143549D02*
X108428940Y-49359819D01*
X108415949Y-49681074D01*
X108415666Y-49741667D01*
X108425569Y-50077099D01*
X108452602Y-50312813D01*
X108492759Y-50416742D01*
X108500333Y-50419000D01*
X108542262Y-50339784D01*
X108571727Y-50123514D01*
X108584718Y-49802259D01*
X108585000Y-49741667D01*
X108575098Y-49406234D01*
X108548064Y-49170520D01*
X108507907Y-49066591D01*
X108500333Y-49064333D01*
X108458404Y-49143549D01*
G36*
X108790702Y-49394480D02*
X108760047Y-49589175D01*
X108754333Y-49741667D01*
X108769563Y-49983154D01*
X108808502Y-50136431D01*
X108839000Y-50165000D01*
X108887297Y-50088853D01*
X108917953Y-49894158D01*
X108923666Y-49741667D01*
X108908437Y-49500179D01*
X108869498Y-49346902D01*
X108839000Y-49318333D01*
X108790702Y-49394480D01*
X108790702Y-49394480D01*
G37*
X108790702Y-49394480D02*
X108760047Y-49589175D01*
X108754333Y-49741667D01*
X108769563Y-49983154D01*
X108808502Y-50136431D01*
X108839000Y-50165000D01*
X108887297Y-50088853D01*
X108917953Y-49894158D01*
X108923666Y-49741667D01*
X108908437Y-49500179D01*
X108869498Y-49346902D01*
X108839000Y-49318333D01*
X108790702Y-49394480D01*
G36*
X108039468Y-49363653D02*
X108000460Y-49520560D01*
X107992333Y-49741667D01*
X108005929Y-50007885D01*
X108053001Y-50137911D01*
X108119333Y-50165000D01*
X108199199Y-50119680D01*
X108238206Y-49962773D01*
X108246333Y-49741667D01*
X108232737Y-49475448D01*
X108185665Y-49345422D01*
X108119333Y-49318333D01*
X108039468Y-49363653D01*
X108039468Y-49363653D01*
G37*
X108039468Y-49363653D02*
X108000460Y-49520560D01*
X107992333Y-49741667D01*
X108005929Y-50007885D01*
X108053001Y-50137911D01*
X108119333Y-50165000D01*
X108199199Y-50119680D01*
X108238206Y-49962773D01*
X108246333Y-49741667D01*
X108232737Y-49475448D01*
X108185665Y-49345422D01*
X108119333Y-49318333D01*
X108039468Y-49363653D01*
G36*
X109587835Y-49421499D02*
X109515630Y-49515166D01*
X109483964Y-49687354D01*
X109493831Y-49866990D01*
X109546219Y-49983001D01*
X109579833Y-49995673D01*
X109655535Y-49918242D01*
X109685568Y-49707971D01*
X109685666Y-49692278D01*
X109662002Y-49483145D01*
X109595442Y-49419544D01*
X109587835Y-49421499D01*
X109587835Y-49421499D01*
G37*
X109587835Y-49421499D02*
X109515630Y-49515166D01*
X109483964Y-49687354D01*
X109493831Y-49866990D01*
X109546219Y-49983001D01*
X109579833Y-49995673D01*
X109655535Y-49918242D01*
X109685568Y-49707971D01*
X109685666Y-49692278D01*
X109662002Y-49483145D01*
X109595442Y-49419544D01*
X109587835Y-49421499D01*
G36*
X107679840Y-49563395D02*
X107653666Y-49741667D01*
X107691531Y-49943319D01*
X107780666Y-49995667D01*
X107881493Y-49919938D01*
X107907666Y-49741667D01*
X107869802Y-49540014D01*
X107780666Y-49487667D01*
X107679840Y-49563395D01*
X107679840Y-49563395D01*
G37*
X107679840Y-49563395D02*
X107653666Y-49741667D01*
X107691531Y-49943319D01*
X107780666Y-49995667D01*
X107881493Y-49919938D01*
X107907666Y-49741667D01*
X107869802Y-49540014D01*
X107780666Y-49487667D01*
X107679840Y-49563395D01*
G36*
X106618523Y-49610884D02*
X106595333Y-49741667D01*
X106635245Y-49909239D01*
X106701166Y-49974500D01*
X106781455Y-49930442D01*
X106807000Y-49741667D01*
X106779044Y-49547588D01*
X106701166Y-49508833D01*
X106618523Y-49610884D01*
X106618523Y-49610884D01*
G37*
X106618523Y-49610884D02*
X106595333Y-49741667D01*
X106635245Y-49909239D01*
X106701166Y-49974500D01*
X106781455Y-49930442D01*
X106807000Y-49741667D01*
X106779044Y-49547588D01*
X106701166Y-49508833D01*
X106618523Y-49610884D01*
G36*
X109870876Y-49643246D02*
X109855000Y-49741667D01*
X109890456Y-49879247D01*
X109939666Y-49911000D01*
X110008457Y-49840087D01*
X110024333Y-49741667D01*
X109988877Y-49604086D01*
X109939666Y-49572333D01*
X109870876Y-49643246D01*
X109870876Y-49643246D01*
G37*
X109870876Y-49643246D02*
X109855000Y-49741667D01*
X109890456Y-49879247D01*
X109939666Y-49911000D01*
X110008457Y-49840087D01*
X110024333Y-49741667D01*
X109988877Y-49604086D01*
X109939666Y-49572333D01*
X109870876Y-49643246D01*
G36*
X109116572Y-49642919D02*
X109093000Y-49741667D01*
X109145939Y-49879571D01*
X109220000Y-49911000D01*
X109323428Y-49840414D01*
X109347000Y-49741667D01*
X109294060Y-49603762D01*
X109220000Y-49572333D01*
X109116572Y-49642919D01*
X109116572Y-49642919D01*
G37*
X109116572Y-49642919D02*
X109093000Y-49741667D01*
X109145939Y-49879571D01*
X109220000Y-49911000D01*
X109323428Y-49840414D01*
X109347000Y-49741667D01*
X109294060Y-49603762D01*
X109220000Y-49572333D01*
X109116572Y-49642919D01*
G36*
X107330876Y-49643246D02*
X107315000Y-49741667D01*
X107350456Y-49879247D01*
X107399666Y-49911000D01*
X107468457Y-49840087D01*
X107484333Y-49741667D01*
X107448877Y-49604086D01*
X107399666Y-49572333D01*
X107330876Y-49643246D01*
X107330876Y-49643246D01*
G37*
X107330876Y-49643246D02*
X107315000Y-49741667D01*
X107350456Y-49879247D01*
X107399666Y-49911000D01*
X107468457Y-49840087D01*
X107484333Y-49741667D01*
X107448877Y-49604086D01*
X107399666Y-49572333D01*
X107330876Y-49643246D01*
G36*
X106229257Y-49643291D02*
X106214333Y-49741667D01*
X106259010Y-49885737D01*
X106358419Y-49897070D01*
X106426000Y-49826333D01*
X106436410Y-49686229D01*
X106343718Y-49582533D01*
X106294003Y-49572333D01*
X106229257Y-49643291D01*
X106229257Y-49643291D01*
G37*
X106229257Y-49643291D02*
X106214333Y-49741667D01*
X106259010Y-49885737D01*
X106358419Y-49897070D01*
X106426000Y-49826333D01*
X106436410Y-49686229D01*
X106343718Y-49582533D01*
X106294003Y-49572333D01*
X106229257Y-49643291D01*
G36*
X110207995Y-49702717D02*
X110193666Y-49741667D01*
X110262243Y-49816781D01*
X110320666Y-49826333D01*
X110433338Y-49780616D01*
X110447666Y-49741667D01*
X110379090Y-49666552D01*
X110320666Y-49657000D01*
X110207995Y-49702717D01*
X110207995Y-49702717D01*
G37*
X110207995Y-49702717D02*
X110193666Y-49741667D01*
X110262243Y-49816781D01*
X110320666Y-49826333D01*
X110433338Y-49780616D01*
X110447666Y-49741667D01*
X110379090Y-49666552D01*
X110320666Y-49657000D01*
X110207995Y-49702717D01*
G36*
X106978793Y-49721429D02*
X106976333Y-49741667D01*
X107040762Y-49823873D01*
X107061000Y-49826333D01*
X107143206Y-49761904D01*
X107145666Y-49741667D01*
X107081237Y-49659460D01*
X107061000Y-49657000D01*
X106978793Y-49721429D01*
X106978793Y-49721429D01*
G37*
X106978793Y-49721429D02*
X106976333Y-49741667D01*
X107040762Y-49823873D01*
X107061000Y-49826333D01*
X107143206Y-49761904D01*
X107145666Y-49741667D01*
X107081237Y-49659460D01*
X107061000Y-49657000D01*
X106978793Y-49721429D01*
G36*
X107315000Y-56032539D02*
X107634070Y-56161432D01*
X107962279Y-56211933D01*
X108203615Y-56179731D01*
X108262550Y-56137766D01*
X108177265Y-56101962D01*
X107949615Y-56068378D01*
X107653901Y-56028417D01*
X107395597Y-55983883D01*
X107315000Y-55966075D01*
X107103333Y-55912599D01*
X107315000Y-56032539D01*
X107315000Y-56032539D01*
G37*
X107315000Y-56032539D02*
X107634070Y-56161432D01*
X107962279Y-56211933D01*
X108203615Y-56179731D01*
X108262550Y-56137766D01*
X108177265Y-56101962D01*
X107949615Y-56068378D01*
X107653901Y-56028417D01*
X107395597Y-55983883D01*
X107315000Y-55966075D01*
X107103333Y-55912599D01*
X107315000Y-56032539D01*
G36*
X105593622Y-52076506D02*
X105502474Y-52221976D01*
X105441946Y-52471966D01*
X105424442Y-52792778D01*
X105507977Y-53497436D01*
X105716183Y-54153201D01*
X106034939Y-54725101D01*
X106352903Y-55092046D01*
X106803973Y-55412506D01*
X107358278Y-55646056D01*
X107968910Y-55784084D01*
X108588957Y-55817975D01*
X109171511Y-55739116D01*
X109428745Y-55656831D01*
X109904513Y-55390477D01*
X110357066Y-54996245D01*
X110639187Y-54653989D01*
X110447666Y-54653989D01*
X110384386Y-54755146D01*
X110222758Y-54914806D01*
X110005102Y-55097204D01*
X109773740Y-55266573D01*
X109593388Y-55375936D01*
X109065809Y-55560014D01*
X108460252Y-55619506D01*
X107813703Y-55554154D01*
X107238220Y-55392432D01*
X106969062Y-55263317D01*
X106691610Y-55082850D01*
X106436181Y-54878140D01*
X106233090Y-54676296D01*
X106112657Y-54504429D01*
X106105197Y-54389649D01*
X106110293Y-54383840D01*
X106263044Y-54316700D01*
X106534275Y-54270857D01*
X106874160Y-54248972D01*
X107232874Y-54253701D01*
X107560594Y-54287703D01*
X107637738Y-54302341D01*
X107965550Y-54350973D01*
X108267233Y-54334184D01*
X108561186Y-54270067D01*
X108906227Y-54204578D01*
X109222537Y-54185754D01*
X109344736Y-54196673D01*
X109591308Y-54257812D01*
X109871215Y-54352353D01*
X110137816Y-54460958D01*
X110344473Y-54564289D01*
X110444546Y-54643008D01*
X110447666Y-54653989D01*
X110639187Y-54653989D01*
X110753500Y-54515311D01*
X111060911Y-53988853D01*
X111246395Y-53458049D01*
X111258659Y-53393789D01*
X111035328Y-53393789D01*
X110982601Y-53648946D01*
X110938658Y-53778489D01*
X110866107Y-53937031D01*
X110766021Y-54026865D01*
X110602796Y-54055462D01*
X110340826Y-54030294D01*
X110014723Y-53972362D01*
X109690338Y-53913867D01*
X109381174Y-53863837D01*
X109259853Y-53846714D01*
X108999477Y-53806827D01*
X108670758Y-53748158D01*
X108497853Y-53714368D01*
X108173529Y-53653308D01*
X107865281Y-53602876D01*
X107738333Y-53585685D01*
X107466553Y-53544718D01*
X107230333Y-53495114D01*
X107053864Y-53455823D01*
X106971254Y-53447749D01*
X106870599Y-53438765D01*
X106647930Y-53407216D01*
X106348066Y-53359537D01*
X106293921Y-53350506D01*
X105664000Y-53244736D01*
X105638409Y-52805535D01*
X105612817Y-52366333D01*
X105899464Y-52366333D01*
X106110059Y-52381457D01*
X106237307Y-52418270D01*
X106242077Y-52422300D01*
X106360619Y-52469153D01*
X106531355Y-52494552D01*
X106733537Y-52517213D01*
X107035468Y-52560652D01*
X107357333Y-52613037D01*
X107693179Y-52670269D01*
X107994167Y-52720390D01*
X108187214Y-52751308D01*
X108399546Y-52785431D01*
X108702912Y-52836308D01*
X108949214Y-52878647D01*
X109285261Y-52935458D01*
X109601504Y-52986247D01*
X109770333Y-53011521D01*
X110008630Y-53053553D01*
X110185697Y-53099239D01*
X110193666Y-53102193D01*
X110290203Y-53133362D01*
X110418581Y-53156379D01*
X110629796Y-53178639D01*
X110849833Y-53197370D01*
X110992207Y-53250687D01*
X111035328Y-53393789D01*
X111258659Y-53393789D01*
X111265427Y-53358328D01*
X111284771Y-53271568D01*
X111301028Y-53201553D01*
X111298564Y-53143874D01*
X111261748Y-53094122D01*
X111174945Y-53047887D01*
X111022523Y-53000760D01*
X110788848Y-52948333D01*
X110458287Y-52886194D01*
X110015208Y-52809935D01*
X109443976Y-52715148D01*
X108728960Y-52597421D01*
X108339200Y-52532980D01*
X107698923Y-52425970D01*
X107112740Y-52326314D01*
X106601459Y-52237684D01*
X106185889Y-52163751D01*
X105886840Y-52108185D01*
X105725120Y-52074657D01*
X105702960Y-52067915D01*
X105593622Y-52076506D01*
X105593622Y-52076506D01*
G37*
X105593622Y-52076506D02*
X105502474Y-52221976D01*
X105441946Y-52471966D01*
X105424442Y-52792778D01*
X105507977Y-53497436D01*
X105716183Y-54153201D01*
X106034939Y-54725101D01*
X106352903Y-55092046D01*
X106803973Y-55412506D01*
X107358278Y-55646056D01*
X107968910Y-55784084D01*
X108588957Y-55817975D01*
X109171511Y-55739116D01*
X109428745Y-55656831D01*
X109904513Y-55390477D01*
X110357066Y-54996245D01*
X110639187Y-54653989D01*
X110447666Y-54653989D01*
X110384386Y-54755146D01*
X110222758Y-54914806D01*
X110005102Y-55097204D01*
X109773740Y-55266573D01*
X109593388Y-55375936D01*
X109065809Y-55560014D01*
X108460252Y-55619506D01*
X107813703Y-55554154D01*
X107238220Y-55392432D01*
X106969062Y-55263317D01*
X106691610Y-55082850D01*
X106436181Y-54878140D01*
X106233090Y-54676296D01*
X106112657Y-54504429D01*
X106105197Y-54389649D01*
X106110293Y-54383840D01*
X106263044Y-54316700D01*
X106534275Y-54270857D01*
X106874160Y-54248972D01*
X107232874Y-54253701D01*
X107560594Y-54287703D01*
X107637738Y-54302341D01*
X107965550Y-54350973D01*
X108267233Y-54334184D01*
X108561186Y-54270067D01*
X108906227Y-54204578D01*
X109222537Y-54185754D01*
X109344736Y-54196673D01*
X109591308Y-54257812D01*
X109871215Y-54352353D01*
X110137816Y-54460958D01*
X110344473Y-54564289D01*
X110444546Y-54643008D01*
X110447666Y-54653989D01*
X110639187Y-54653989D01*
X110753500Y-54515311D01*
X111060911Y-53988853D01*
X111246395Y-53458049D01*
X111258659Y-53393789D01*
X111035328Y-53393789D01*
X110982601Y-53648946D01*
X110938658Y-53778489D01*
X110866107Y-53937031D01*
X110766021Y-54026865D01*
X110602796Y-54055462D01*
X110340826Y-54030294D01*
X110014723Y-53972362D01*
X109690338Y-53913867D01*
X109381174Y-53863837D01*
X109259853Y-53846714D01*
X108999477Y-53806827D01*
X108670758Y-53748158D01*
X108497853Y-53714368D01*
X108173529Y-53653308D01*
X107865281Y-53602876D01*
X107738333Y-53585685D01*
X107466553Y-53544718D01*
X107230333Y-53495114D01*
X107053864Y-53455823D01*
X106971254Y-53447749D01*
X106870599Y-53438765D01*
X106647930Y-53407216D01*
X106348066Y-53359537D01*
X106293921Y-53350506D01*
X105664000Y-53244736D01*
X105638409Y-52805535D01*
X105612817Y-52366333D01*
X105899464Y-52366333D01*
X106110059Y-52381457D01*
X106237307Y-52418270D01*
X106242077Y-52422300D01*
X106360619Y-52469153D01*
X106531355Y-52494552D01*
X106733537Y-52517213D01*
X107035468Y-52560652D01*
X107357333Y-52613037D01*
X107693179Y-52670269D01*
X107994167Y-52720390D01*
X108187214Y-52751308D01*
X108399546Y-52785431D01*
X108702912Y-52836308D01*
X108949214Y-52878647D01*
X109285261Y-52935458D01*
X109601504Y-52986247D01*
X109770333Y-53011521D01*
X110008630Y-53053553D01*
X110185697Y-53099239D01*
X110193666Y-53102193D01*
X110290203Y-53133362D01*
X110418581Y-53156379D01*
X110629796Y-53178639D01*
X110849833Y-53197370D01*
X110992207Y-53250687D01*
X111035328Y-53393789D01*
X111258659Y-53393789D01*
X111265427Y-53358328D01*
X111284771Y-53271568D01*
X111301028Y-53201553D01*
X111298564Y-53143874D01*
X111261748Y-53094122D01*
X111174945Y-53047887D01*
X111022523Y-53000760D01*
X110788848Y-52948333D01*
X110458287Y-52886194D01*
X110015208Y-52809935D01*
X109443976Y-52715148D01*
X108728960Y-52597421D01*
X108339200Y-52532980D01*
X107698923Y-52425970D01*
X107112740Y-52326314D01*
X106601459Y-52237684D01*
X106185889Y-52163751D01*
X105886840Y-52108185D01*
X105725120Y-52074657D01*
X105702960Y-52067915D01*
X105593622Y-52076506D01*
G36*
X110455455Y-52541185D02*
X110447666Y-52554596D01*
X110519577Y-52606419D01*
X110638166Y-52621581D01*
X110958835Y-52694298D01*
X111233283Y-52880420D01*
X111354916Y-53045335D01*
X111431045Y-53185958D01*
X111458349Y-53180054D01*
X111462418Y-53068131D01*
X111385985Y-52834812D01*
X111178371Y-52646933D01*
X110877025Y-52534512D01*
X110779182Y-52520473D01*
X110570453Y-52515330D01*
X110455455Y-52541185D01*
X110455455Y-52541185D01*
G37*
X110455455Y-52541185D02*
X110447666Y-52554596D01*
X110519577Y-52606419D01*
X110638166Y-52621581D01*
X110958835Y-52694298D01*
X111233283Y-52880420D01*
X111354916Y-53045335D01*
X111431045Y-53185958D01*
X111458349Y-53180054D01*
X111462418Y-53068131D01*
X111385985Y-52834812D01*
X111178371Y-52646933D01*
X110877025Y-52534512D01*
X110779182Y-52520473D01*
X110570453Y-52515330D01*
X110455455Y-52541185D01*
G36*
X105398157Y-51771410D02*
X105170041Y-51962781D01*
X105049589Y-52151386D01*
X105043145Y-52223375D01*
X105136745Y-52173018D01*
X105297854Y-52015202D01*
X105445633Y-51870409D01*
X105586462Y-51803802D01*
X105786423Y-51795513D01*
X105975188Y-51811562D01*
X106219591Y-51834004D01*
X106309241Y-51833288D01*
X106257572Y-51805928D01*
X106142012Y-51768276D01*
X105730252Y-51699435D01*
X105398157Y-51771410D01*
X105398157Y-51771410D01*
G37*
X105398157Y-51771410D02*
X105170041Y-51962781D01*
X105049589Y-52151386D01*
X105043145Y-52223375D01*
X105136745Y-52173018D01*
X105297854Y-52015202D01*
X105445633Y-51870409D01*
X105586462Y-51803802D01*
X105786423Y-51795513D01*
X105975188Y-51811562D01*
X106219591Y-51834004D01*
X106309241Y-51833288D01*
X106257572Y-51805928D01*
X106142012Y-51768276D01*
X105730252Y-51699435D01*
X105398157Y-51771410D01*
D11*
X133031714Y-26189714D02*
X133103143Y-26261143D01*
X133317429Y-26332571D01*
X133460286Y-26332571D01*
X133674571Y-26261143D01*
X133817429Y-26118286D01*
X133888857Y-25975429D01*
X133960286Y-25689714D01*
X133960286Y-25475429D01*
X133888857Y-25189714D01*
X133817429Y-25046857D01*
X133674571Y-24904000D01*
X133460286Y-24832571D01*
X133317429Y-24832571D01*
X133103143Y-24904000D01*
X133031714Y-24975429D01*
X132174571Y-26332571D02*
X132317429Y-26261143D01*
X132388857Y-26189714D01*
X132460286Y-26046857D01*
X132460286Y-25618286D01*
X132388857Y-25475429D01*
X132317429Y-25404000D01*
X132174571Y-25332571D01*
X131960286Y-25332571D01*
X131817429Y-25404000D01*
X131746000Y-25475429D01*
X131674571Y-25618286D01*
X131674571Y-26046857D01*
X131746000Y-26189714D01*
X131817429Y-26261143D01*
X131960286Y-26332571D01*
X132174571Y-26332571D01*
X131031714Y-25332571D02*
X131031714Y-26332571D01*
X131031714Y-25475429D02*
X130960286Y-25404000D01*
X130817428Y-25332571D01*
X130603143Y-25332571D01*
X130460286Y-25404000D01*
X130388857Y-25546857D01*
X130388857Y-26332571D01*
X129674571Y-25332571D02*
X129674571Y-26332571D01*
X129674571Y-25475429D02*
X129603143Y-25404000D01*
X129460285Y-25332571D01*
X129246000Y-25332571D01*
X129103143Y-25404000D01*
X129031714Y-25546857D01*
X129031714Y-26332571D01*
X128674571Y-26475429D02*
X127531714Y-26475429D01*
X126317428Y-26189714D02*
X126388857Y-26261143D01*
X126603143Y-26332571D01*
X126746000Y-26332571D01*
X126960285Y-26261143D01*
X127103143Y-26118286D01*
X127174571Y-25975429D01*
X127246000Y-25689714D01*
X127246000Y-25475429D01*
X127174571Y-25189714D01*
X127103143Y-25046857D01*
X126960285Y-24904000D01*
X126746000Y-24832571D01*
X126603143Y-24832571D01*
X126388857Y-24904000D01*
X126317428Y-24975429D01*
X125460285Y-26332571D02*
X125603143Y-26261143D01*
X125674571Y-26189714D01*
X125746000Y-26046857D01*
X125746000Y-25618286D01*
X125674571Y-25475429D01*
X125603143Y-25404000D01*
X125460285Y-25332571D01*
X125246000Y-25332571D01*
X125103143Y-25404000D01*
X125031714Y-25475429D01*
X124960285Y-25618286D01*
X124960285Y-26046857D01*
X125031714Y-26189714D01*
X125103143Y-26261143D01*
X125246000Y-26332571D01*
X125460285Y-26332571D01*
X123674571Y-26332571D02*
X123674571Y-25546857D01*
X123746000Y-25404000D01*
X123888857Y-25332571D01*
X124174571Y-25332571D01*
X124317428Y-25404000D01*
X123674571Y-26261143D02*
X123817428Y-26332571D01*
X124174571Y-26332571D01*
X124317428Y-26261143D01*
X124388857Y-26118286D01*
X124388857Y-25975429D01*
X124317428Y-25832571D01*
X124174571Y-25761143D01*
X123817428Y-25761143D01*
X123674571Y-25689714D01*
X123103142Y-26332571D02*
X122317428Y-25332571D01*
X123103142Y-25332571D02*
X122317428Y-26332571D01*
X121745999Y-26332571D02*
X121745999Y-25332571D01*
X121745999Y-24832571D02*
X121817428Y-24904000D01*
X121745999Y-24975429D01*
X121674571Y-24904000D01*
X121745999Y-24832571D01*
X121745999Y-24975429D01*
X120388856Y-26332571D02*
X120388856Y-25546857D01*
X120460285Y-25404000D01*
X120603142Y-25332571D01*
X120888856Y-25332571D01*
X121031713Y-25404000D01*
X120388856Y-26261143D02*
X120531713Y-26332571D01*
X120888856Y-26332571D01*
X121031713Y-26261143D01*
X121103142Y-26118286D01*
X121103142Y-25975429D01*
X121031713Y-25832571D01*
X120888856Y-25761143D01*
X120531713Y-25761143D01*
X120388856Y-25689714D01*
X119460284Y-26332571D02*
X119603142Y-26261143D01*
X119674570Y-26118286D01*
X119674570Y-24832571D01*
X126342381Y-52070095D02*
X127151905Y-52070095D01*
X127247143Y-52117714D01*
X127294762Y-52165333D01*
X127342381Y-52260571D01*
X127342381Y-52451048D01*
X127294762Y-52546286D01*
X127247143Y-52593905D01*
X127151905Y-52641524D01*
X126342381Y-52641524D01*
X126342381Y-53022476D02*
X126342381Y-53641524D01*
X126723333Y-53308190D01*
X126723333Y-53451048D01*
X126770952Y-53546286D01*
X126818571Y-53593905D01*
X126913810Y-53641524D01*
X127151905Y-53641524D01*
X127247143Y-53593905D01*
X127294762Y-53546286D01*
X127342381Y-53451048D01*
X127342381Y-53165333D01*
X127294762Y-53070095D01*
X127247143Y-53022476D01*
X103680762Y-41084667D02*
X103728381Y-41227524D01*
X103728381Y-41465620D01*
X103680762Y-41560858D01*
X103633143Y-41608477D01*
X103537905Y-41656096D01*
X103442667Y-41656096D01*
X103347429Y-41608477D01*
X103299810Y-41560858D01*
X103252190Y-41465620D01*
X103204571Y-41275143D01*
X103156952Y-41179905D01*
X103109333Y-41132286D01*
X103014095Y-41084667D01*
X102918857Y-41084667D01*
X102823619Y-41132286D01*
X102776000Y-41179905D01*
X102728381Y-41275143D01*
X102728381Y-41513239D01*
X102776000Y-41656096D01*
X102728381Y-41989429D02*
X103728381Y-42227524D01*
X103014095Y-42418001D01*
X103728381Y-42608477D01*
X102728381Y-42846572D01*
X102728381Y-43656096D02*
X102728381Y-43465619D01*
X102776000Y-43370381D01*
X102823619Y-43322762D01*
X102966476Y-43227524D01*
X103156952Y-43179905D01*
X103537905Y-43179905D01*
X103633143Y-43227524D01*
X103680762Y-43275143D01*
X103728381Y-43370381D01*
X103728381Y-43560858D01*
X103680762Y-43656096D01*
X103633143Y-43703715D01*
X103537905Y-43751334D01*
X103299810Y-43751334D01*
X103204571Y-43703715D01*
X103156952Y-43656096D01*
X103109333Y-43560858D01*
X103109333Y-43370381D01*
X103156952Y-43275143D01*
X103204571Y-43227524D01*
X103299810Y-43179905D01*
X140803381Y-80264095D02*
X141612905Y-80264095D01*
X141708143Y-80311714D01*
X141755762Y-80359333D01*
X141803381Y-80454571D01*
X141803381Y-80645048D01*
X141755762Y-80740286D01*
X141708143Y-80787905D01*
X141612905Y-80835524D01*
X140803381Y-80835524D01*
X140803381Y-81740286D02*
X140803381Y-81549809D01*
X140851000Y-81454571D01*
X140898619Y-81406952D01*
X141041476Y-81311714D01*
X141231952Y-81264095D01*
X141612905Y-81264095D01*
X141708143Y-81311714D01*
X141755762Y-81359333D01*
X141803381Y-81454571D01*
X141803381Y-81645048D01*
X141755762Y-81740286D01*
X141708143Y-81787905D01*
X141612905Y-81835524D01*
X141374810Y-81835524D01*
X141279571Y-81787905D01*
X141231952Y-81740286D01*
X141184333Y-81645048D01*
X141184333Y-81454571D01*
X141231952Y-81359333D01*
X141279571Y-81311714D01*
X141374810Y-81264095D01*
X143343381Y-73795524D02*
X143343381Y-74366953D01*
X144343381Y-74081238D02*
X143343381Y-74081238D01*
X143343381Y-74557429D02*
X143343381Y-75128858D01*
X144343381Y-74843143D02*
X143343381Y-74843143D01*
X143391000Y-75986001D02*
X143343381Y-75890763D01*
X143343381Y-75747906D01*
X143391000Y-75605048D01*
X143486238Y-75509810D01*
X143581476Y-75462191D01*
X143771952Y-75414572D01*
X143914810Y-75414572D01*
X144105286Y-75462191D01*
X144200524Y-75509810D01*
X144295762Y-75605048D01*
X144343381Y-75747906D01*
X144343381Y-75843144D01*
X144295762Y-75986001D01*
X144248143Y-76033620D01*
X143914810Y-76033620D01*
X143914810Y-75843144D01*
X143343381Y-76652667D02*
X143343381Y-76843144D01*
X143391000Y-76938382D01*
X143486238Y-77033620D01*
X143676714Y-77081239D01*
X144010048Y-77081239D01*
X144200524Y-77033620D01*
X144295762Y-76938382D01*
X144343381Y-76843144D01*
X144343381Y-76652667D01*
X144295762Y-76557429D01*
X144200524Y-76462191D01*
X144010048Y-76414572D01*
X143676714Y-76414572D01*
X143486238Y-76462191D01*
X143391000Y-76557429D01*
X143343381Y-76652667D01*
X143962429Y-77509810D02*
X143962429Y-78271715D01*
X143819571Y-78747905D02*
X143819571Y-79081239D01*
X144343381Y-79224096D02*
X144343381Y-78747905D01*
X143343381Y-78747905D01*
X143343381Y-79224096D01*
X144295762Y-79605048D02*
X144343381Y-79747905D01*
X144343381Y-79986001D01*
X144295762Y-80081239D01*
X144248143Y-80128858D01*
X144152905Y-80176477D01*
X144057667Y-80176477D01*
X143962429Y-80128858D01*
X143914810Y-80081239D01*
X143867190Y-79986001D01*
X143819571Y-79795524D01*
X143771952Y-79700286D01*
X143724333Y-79652667D01*
X143629095Y-79605048D01*
X143533857Y-79605048D01*
X143438619Y-79652667D01*
X143391000Y-79700286D01*
X143343381Y-79795524D01*
X143343381Y-80033620D01*
X143391000Y-80176477D01*
X144343381Y-80605048D02*
X143343381Y-80605048D01*
X143343381Y-80986001D01*
X143391000Y-81081239D01*
X143438619Y-81128858D01*
X143533857Y-81176477D01*
X143676714Y-81176477D01*
X143771952Y-81128858D01*
X143819571Y-81081239D01*
X143867190Y-80986001D01*
X143867190Y-80605048D01*
X143343381Y-81509810D02*
X143343381Y-82128858D01*
X143724333Y-81795524D01*
X143724333Y-81938382D01*
X143771952Y-82033620D01*
X143819571Y-82081239D01*
X143914810Y-82128858D01*
X144152905Y-82128858D01*
X144248143Y-82081239D01*
X144295762Y-82033620D01*
X144343381Y-81938382D01*
X144343381Y-81652667D01*
X144295762Y-81557429D01*
X144248143Y-81509810D01*
X143438619Y-82509810D02*
X143391000Y-82557429D01*
X143343381Y-82652667D01*
X143343381Y-82890763D01*
X143391000Y-82986001D01*
X143438619Y-83033620D01*
X143533857Y-83081239D01*
X143629095Y-83081239D01*
X143771952Y-83033620D01*
X144343381Y-82462191D01*
X144343381Y-83081239D01*
X109677905Y-50370381D02*
X109677905Y-51179905D01*
X109630286Y-51275143D01*
X109582667Y-51322762D01*
X109487429Y-51370381D01*
X109296952Y-51370381D01*
X109201714Y-51322762D01*
X109154095Y-51275143D01*
X109106476Y-51179905D01*
X109106476Y-50370381D01*
X108106476Y-51370381D02*
X108677905Y-51370381D01*
X108392191Y-51370381D02*
X108392191Y-50370381D01*
X108487429Y-50513238D01*
X108582667Y-50608476D01*
X108677905Y-50656095D01*
X106146952Y-39089429D02*
X105385047Y-39089429D01*
X105765999Y-39470381D02*
X105765999Y-38708476D01*
X134786666Y-39496381D02*
X135120000Y-39020190D01*
X135358095Y-39496381D02*
X135358095Y-38496381D01*
X134977142Y-38496381D01*
X134881904Y-38544000D01*
X134834285Y-38591619D01*
X134786666Y-38686857D01*
X134786666Y-38829714D01*
X134834285Y-38924952D01*
X134881904Y-38972571D01*
X134977142Y-39020190D01*
X135358095Y-39020190D01*
X134453333Y-38496381D02*
X133834285Y-38496381D01*
X134167619Y-38877333D01*
X134024761Y-38877333D01*
X133929523Y-38924952D01*
X133881904Y-38972571D01*
X133834285Y-39067810D01*
X133834285Y-39305905D01*
X133881904Y-39401143D01*
X133929523Y-39448762D01*
X134024761Y-39496381D01*
X134310476Y-39496381D01*
X134405714Y-39448762D01*
X134453333Y-39401143D01*
X130643238Y-40584381D02*
X131214667Y-40584381D01*
X130928953Y-40584381D02*
X130928953Y-39584381D01*
X131024191Y-39727238D01*
X131119429Y-39822476D01*
X131214667Y-39870095D01*
X130024191Y-39584381D02*
X129928952Y-39584381D01*
X129833714Y-39632000D01*
X129786095Y-39679619D01*
X129738476Y-39774857D01*
X129690857Y-39965333D01*
X129690857Y-40203429D01*
X129738476Y-40393905D01*
X129786095Y-40489143D01*
X129833714Y-40536762D01*
X129928952Y-40584381D01*
X130024191Y-40584381D01*
X130119429Y-40536762D01*
X130167048Y-40489143D01*
X130214667Y-40393905D01*
X130262286Y-40203429D01*
X130262286Y-39965333D01*
X130214667Y-39774857D01*
X130167048Y-39679619D01*
X130119429Y-39632000D01*
X130024191Y-39584381D01*
X129262286Y-40584381D02*
X129262286Y-39584381D01*
X129167048Y-40203429D02*
X128881333Y-40584381D01*
X128881333Y-39917714D02*
X129262286Y-40298667D01*
M02*
