G04 #@! TF.FileFunction,Copper,L2,Bot,Signal*
%FSLAX46Y46*%
G04 Gerber Fmt 4.6, Leading zero omitted, Abs format (unit mm)*
G04 Created by KiCad (PCBNEW 4.0.4-stable) date 04/18/19 20:28:09*
%MOMM*%
%LPD*%
G01*
G04 APERTURE LIST*
%ADD10C,0.100000*%
%ADD11R,1.270000X4.191000*%
%ADD12R,1.270000X3.683000*%
%ADD13R,1.200000X4.000000*%
%ADD14R,1.700000X1.700000*%
%ADD15O,1.700000X1.700000*%
%ADD16C,1.524000*%
%ADD17R,1.500000X0.700000*%
%ADD18R,0.800000X1.000000*%
%ADD19R,1.500000X3.000000*%
%ADD20R,2.000000X1.700000*%
%ADD21C,0.600000*%
%ADD22C,0.250000*%
%ADD23C,0.600000*%
%ADD24C,0.200000*%
G04 APERTURE END LIST*
D10*
D11*
X126885700Y-36893500D03*
X131178300Y-36893500D03*
D12*
X129032000Y-36639500D03*
D13*
X142890000Y-60832000D03*
X140890000Y-60832000D03*
X138890000Y-60832000D03*
X136890000Y-60832000D03*
X134890000Y-60832000D03*
X132890000Y-60832000D03*
X130890000Y-60832000D03*
X128890000Y-60832000D03*
X128890000Y-44832000D03*
X130890000Y-44832000D03*
X132890000Y-44832000D03*
X134890000Y-44832000D03*
X136890000Y-44832000D03*
X138890000Y-44832000D03*
X140890000Y-44832000D03*
X142890000Y-44832000D03*
D14*
X127635000Y-64897000D03*
D15*
X130175000Y-64897000D03*
D16*
X100330000Y-81915000D03*
X100330000Y-79375000D03*
X100330000Y-76835000D03*
X100330000Y-74295000D03*
D17*
X101506000Y-44668000D03*
X101506000Y-41668000D03*
X101506000Y-40168000D03*
D18*
X98646000Y-46068000D03*
X98646000Y-38768000D03*
X100856000Y-38768000D03*
X100856000Y-46068000D03*
D16*
X105791000Y-68326000D03*
X108331000Y-68326000D03*
X110871000Y-68326000D03*
X113411000Y-68326000D03*
X115951000Y-68326000D03*
X118491000Y-68326000D03*
X121031000Y-68326000D03*
X123571000Y-68326000D03*
X126111000Y-68326000D03*
X128651000Y-68326000D03*
X131191000Y-68326000D03*
X133731000Y-68326000D03*
X136271000Y-68326000D03*
X138811000Y-68326000D03*
X141351000Y-68326000D03*
X143891000Y-68326000D03*
X143891000Y-88646000D03*
X141351000Y-88646000D03*
X138811000Y-88646000D03*
X136271000Y-88646000D03*
X133731000Y-88646000D03*
X131191000Y-88646000D03*
X128651000Y-88646000D03*
X126111000Y-88646000D03*
X123571000Y-88646000D03*
X121031000Y-88646000D03*
X118491000Y-88646000D03*
X115951000Y-88646000D03*
D19*
X108966000Y-47498000D03*
X108966000Y-37338000D03*
D20*
X136620000Y-40894000D03*
X132620000Y-40894000D03*
D21*
X138417000Y-38861000D03*
X130937000Y-44577000D03*
X127000000Y-42291000D03*
X122555000Y-46228000D03*
X102997000Y-63627000D03*
X102997000Y-65278000D03*
X144145000Y-83947000D03*
X128778000Y-61087000D03*
X115824000Y-49657000D03*
X117348000Y-49657000D03*
X108966000Y-47498000D03*
X139954000Y-41021000D03*
X115824000Y-59817000D03*
X110871000Y-61976000D03*
X136906000Y-44323000D03*
X116205000Y-60960000D03*
X118999000Y-63373000D03*
X123698000Y-64897000D03*
X118999000Y-60452000D03*
X113919000Y-58801000D03*
X122174000Y-71755000D03*
X120015000Y-72517000D03*
X106172000Y-69977000D03*
X106680000Y-62992000D03*
X113157000Y-59563000D03*
X123063000Y-72517000D03*
X120904000Y-73406000D03*
X107061000Y-70739000D03*
X108077000Y-63500000D03*
X112522000Y-60325000D03*
X114681000Y-77089000D03*
X113030000Y-62357000D03*
X111379000Y-63500000D03*
X112395000Y-77216000D03*
X133731000Y-65024000D03*
X133477000Y-66675000D03*
X132461000Y-70739000D03*
X117602000Y-78740000D03*
X125730000Y-62103000D03*
X130429000Y-55245000D03*
X141859000Y-66421000D03*
X140335000Y-49149000D03*
X145919747Y-75822253D03*
X100457000Y-51435000D03*
X100203000Y-83566000D03*
X138811000Y-51181000D03*
X143891000Y-41021000D03*
X132588000Y-40894000D03*
X125984000Y-43434000D03*
X125730000Y-45720000D03*
X146050000Y-47974000D03*
X147447000Y-58166000D03*
X149352000Y-59817000D03*
X149352000Y-49276000D03*
X132334000Y-86106000D03*
X134747000Y-86106000D03*
X147193000Y-81026000D03*
X149098000Y-79883000D03*
D22*
X131178300Y-36893500D02*
X136461500Y-36893500D01*
X137922000Y-38354000D02*
X136461500Y-36893500D01*
X137922000Y-38366000D02*
X137922000Y-38354000D01*
X137922000Y-38366000D02*
X138417000Y-38861000D01*
X130890000Y-44832000D02*
X130890000Y-37181800D01*
X130890000Y-37181800D02*
X131178300Y-36893500D01*
X130937000Y-44577000D02*
X130890000Y-44624000D01*
X124079000Y-42291000D02*
X127000000Y-42291000D01*
X122936000Y-43434000D02*
X124079000Y-42291000D01*
X122936000Y-45847000D02*
X122936000Y-43434000D01*
X122555000Y-46228000D02*
X122936000Y-45847000D01*
X130890000Y-44624000D02*
X130890000Y-44832000D01*
X128890000Y-60832000D02*
X128890000Y-58054000D01*
X143383000Y-58166000D02*
X143383000Y-60339000D01*
X143002000Y-57785000D02*
X143383000Y-58166000D01*
X142113000Y-57785000D02*
X143002000Y-57785000D01*
X141097000Y-56769000D02*
X142113000Y-57785000D01*
X130175000Y-56769000D02*
X141097000Y-56769000D01*
X128890000Y-58054000D02*
X130175000Y-56769000D01*
X143383000Y-60339000D02*
X142890000Y-60832000D01*
X113411000Y-68326000D02*
X113411000Y-67945000D01*
X113411000Y-67945000D02*
X110744000Y-65278000D01*
X107823000Y-47498000D02*
X108966000Y-47498000D01*
X105156000Y-50165000D02*
X107823000Y-47498000D01*
X105156000Y-61468000D02*
X105156000Y-50165000D01*
X102997000Y-63627000D02*
X105156000Y-61468000D01*
X110744000Y-65278000D02*
X102997000Y-65278000D01*
X142890000Y-60832000D02*
X147065000Y-60832000D01*
X145669000Y-83947000D02*
X144145000Y-83947000D01*
X147574000Y-82042000D02*
X145669000Y-83947000D01*
X149225000Y-82042000D02*
X147574000Y-82042000D01*
X149860000Y-81407000D02*
X149225000Y-82042000D01*
X149860000Y-63627000D02*
X149860000Y-81407000D01*
X147065000Y-60832000D02*
X149860000Y-63627000D01*
X128778000Y-61087000D02*
X128890000Y-60975000D01*
X128890000Y-60975000D02*
X128890000Y-60832000D01*
X115824000Y-49657000D02*
X117348000Y-49657000D01*
D23*
X128890000Y-44832000D02*
X128890000Y-36781500D01*
X128890000Y-36781500D02*
X129032000Y-36639500D01*
D22*
X136620000Y-40894000D02*
X139827000Y-40894000D01*
X139827000Y-40894000D02*
X139954000Y-41021000D01*
X114300000Y-61341000D02*
X115824000Y-59817000D01*
X111506000Y-61341000D02*
X114300000Y-61341000D01*
X110871000Y-61976000D02*
X111506000Y-61341000D01*
X136906000Y-44323000D02*
X136890000Y-44339000D01*
X136890000Y-44339000D02*
X136890000Y-44832000D01*
X138890000Y-47673000D02*
X138890000Y-44832000D01*
X138049000Y-48514000D02*
X138890000Y-47673000D01*
X134874000Y-48514000D02*
X138049000Y-48514000D01*
X133477000Y-49911000D02*
X134874000Y-48514000D01*
X133223000Y-49911000D02*
X133477000Y-49911000D01*
X121793000Y-61341000D02*
X133223000Y-49911000D01*
X116586000Y-61341000D02*
X121793000Y-61341000D01*
X116205000Y-60960000D02*
X116586000Y-61341000D01*
X132715000Y-63246000D02*
X132715000Y-61007000D01*
X132588000Y-63373000D02*
X132715000Y-63246000D01*
X129921000Y-63373000D02*
X132588000Y-63373000D01*
X118999000Y-63373000D02*
X129921000Y-63373000D01*
X132715000Y-61007000D02*
X132890000Y-60832000D01*
X128651000Y-67310000D02*
X128651000Y-68326000D01*
X128016000Y-66675000D02*
X128651000Y-67310000D01*
X125476000Y-66675000D02*
X128016000Y-66675000D01*
X123698000Y-64897000D02*
X125476000Y-66675000D01*
X117602000Y-59055000D02*
X118999000Y-60452000D01*
X114173000Y-59055000D02*
X117602000Y-59055000D01*
X113919000Y-58801000D02*
X114173000Y-59055000D01*
X131191000Y-71120000D02*
X131191000Y-68326000D01*
X130556000Y-71755000D02*
X131191000Y-71120000D01*
X123825000Y-71755000D02*
X130556000Y-71755000D01*
X123571000Y-71501000D02*
X123825000Y-71755000D01*
X122428000Y-71501000D02*
X123571000Y-71501000D01*
X122174000Y-71755000D02*
X122428000Y-71501000D01*
X119888000Y-72644000D02*
X120015000Y-72517000D01*
X108839000Y-72644000D02*
X119888000Y-72644000D01*
X107950000Y-71755000D02*
X108839000Y-72644000D01*
X107950000Y-70231000D02*
X107950000Y-71755000D01*
X107696000Y-69977000D02*
X107950000Y-70231000D01*
X106172000Y-69977000D02*
X107696000Y-69977000D01*
X109601000Y-60071000D02*
X106680000Y-62992000D01*
X111125000Y-60071000D02*
X109601000Y-60071000D01*
X111633000Y-59563000D02*
X111125000Y-60071000D01*
X113157000Y-59563000D02*
X111633000Y-59563000D01*
X136890000Y-60832000D02*
X136890000Y-64786000D01*
X133350000Y-65659000D02*
X131191000Y-67818000D01*
X136017000Y-65659000D02*
X133350000Y-65659000D01*
X136890000Y-64786000D02*
X136017000Y-65659000D01*
X131191000Y-67818000D02*
X131191000Y-68326000D01*
X133731000Y-71755000D02*
X133731000Y-68326000D01*
X132842000Y-72644000D02*
X133731000Y-71755000D01*
X123190000Y-72644000D02*
X132842000Y-72644000D01*
X123063000Y-72517000D02*
X123190000Y-72644000D01*
X108204000Y-73406000D02*
X120904000Y-73406000D01*
X107188000Y-72390000D02*
X108204000Y-73406000D01*
X107188000Y-70866000D02*
X107188000Y-72390000D01*
X107061000Y-70739000D02*
X107188000Y-70866000D01*
X110744000Y-60833000D02*
X108077000Y-63500000D01*
X112014000Y-60833000D02*
X110744000Y-60833000D01*
X112522000Y-60325000D02*
X112014000Y-60833000D01*
X133731000Y-68326000D02*
X133731000Y-67437000D01*
X138890000Y-63294000D02*
X138890000Y-60832000D01*
X138303000Y-63881000D02*
X138890000Y-63294000D01*
X138303000Y-64516000D02*
X138303000Y-63881000D01*
X136398000Y-66421000D02*
X138303000Y-64516000D01*
X134747000Y-66421000D02*
X136398000Y-66421000D01*
X133731000Y-67437000D02*
X134747000Y-66421000D01*
X136271000Y-68326000D02*
X136271000Y-67818000D01*
X136271000Y-67818000D02*
X138938000Y-65151000D01*
X138938000Y-65151000D02*
X140589000Y-65151000D01*
X140589000Y-65151000D02*
X140970000Y-64770000D01*
X140970000Y-64770000D02*
X140970000Y-60912000D01*
X140970000Y-60912000D02*
X140890000Y-60832000D01*
X138811000Y-88646000D02*
X138811000Y-85598000D01*
X130302000Y-77089000D02*
X114681000Y-77089000D01*
X138811000Y-85598000D02*
X130302000Y-77089000D01*
X136271000Y-88646000D02*
X136271000Y-85217000D01*
X112522000Y-62357000D02*
X113030000Y-62357000D01*
X111379000Y-63500000D02*
X112522000Y-62357000D01*
X113411000Y-77216000D02*
X112395000Y-77216000D01*
X114173000Y-77978000D02*
X113411000Y-77216000D01*
X125603000Y-77978000D02*
X114173000Y-77978000D01*
X125984000Y-78359000D02*
X125603000Y-77978000D01*
X129413000Y-78359000D02*
X125984000Y-78359000D01*
X136271000Y-85217000D02*
X129413000Y-78359000D01*
X134890000Y-63865000D02*
X134890000Y-60832000D01*
X133731000Y-65024000D02*
X134890000Y-63865000D01*
X133223000Y-66675000D02*
X133477000Y-66675000D01*
X132461000Y-67437000D02*
X133223000Y-66675000D01*
X132461000Y-68961000D02*
X132461000Y-67437000D01*
X132461000Y-70739000D02*
X132461000Y-68961000D01*
X131191000Y-88646000D02*
X131191000Y-85217000D01*
X124714000Y-78740000D02*
X117602000Y-78740000D01*
X131191000Y-85217000D02*
X124714000Y-78740000D01*
X101506000Y-41668000D02*
X101866000Y-41668000D01*
X101866000Y-41668000D02*
X103124000Y-42926000D01*
X103124000Y-42926000D02*
X103124000Y-47244000D01*
X103124000Y-47244000D02*
X99441000Y-50927000D01*
X99441000Y-50927000D02*
X99441000Y-63754000D01*
X99441000Y-63754000D02*
X99949000Y-64262000D01*
X99949000Y-64262000D02*
X127000000Y-64262000D01*
X127000000Y-64262000D02*
X127635000Y-64897000D01*
X125730000Y-62103000D02*
X125984000Y-61849000D01*
X125984000Y-61849000D02*
X125984000Y-59690000D01*
X125984000Y-59690000D02*
X130429000Y-55245000D01*
X141859000Y-66421000D02*
X143764000Y-68326000D01*
X143764000Y-68326000D02*
X143891000Y-68326000D01*
X128651000Y-88646000D02*
X128651000Y-89916000D01*
X141224000Y-49149000D02*
X140335000Y-49149000D01*
X142113000Y-50038000D02*
X141224000Y-49149000D01*
X148844000Y-50038000D02*
X142113000Y-50038000D01*
X150368000Y-51562000D02*
X148844000Y-50038000D01*
X150368000Y-89789000D02*
X150368000Y-51562000D01*
X149733000Y-90424000D02*
X150368000Y-89789000D01*
X129159000Y-90424000D02*
X149733000Y-90424000D01*
X128651000Y-89916000D02*
X129159000Y-90424000D01*
X121031000Y-68326000D02*
X121031000Y-72136000D01*
X122174000Y-73279000D02*
X121031000Y-72136000D01*
X131064000Y-73279000D02*
X122174000Y-73279000D01*
X139954000Y-82169000D02*
X131064000Y-73279000D01*
X142367000Y-82169000D02*
X139954000Y-82169000D01*
X143764000Y-80772000D02*
X142367000Y-82169000D01*
X143764000Y-77978000D02*
X143764000Y-80772000D01*
X143764000Y-77978000D02*
X145919747Y-75822253D01*
X143891000Y-88646000D02*
X143891000Y-87757000D01*
X130302000Y-74168000D02*
X100457000Y-74168000D01*
X143891000Y-87757000D02*
X130302000Y-74168000D01*
X100457000Y-74168000D02*
X100330000Y-74295000D01*
X141351000Y-88646000D02*
X141351000Y-86487000D01*
X100965000Y-76200000D02*
X100330000Y-76835000D01*
X131064000Y-76200000D02*
X100965000Y-76200000D01*
X141351000Y-86487000D02*
X131064000Y-76200000D01*
X115951000Y-88646000D02*
X112014000Y-88646000D01*
X102235000Y-45397000D02*
X101506000Y-44668000D01*
X102235000Y-46609000D02*
X102235000Y-45397000D01*
X101219000Y-47625000D02*
X102235000Y-46609000D01*
X100711000Y-47625000D02*
X101219000Y-47625000D01*
X98552000Y-49784000D02*
X100711000Y-47625000D01*
X98552000Y-83312000D02*
X98552000Y-49784000D01*
X99695000Y-84455000D02*
X98552000Y-83312000D01*
X107823000Y-84455000D02*
X99695000Y-84455000D01*
X112014000Y-88646000D02*
X107823000Y-84455000D01*
X123571000Y-88646000D02*
X123571000Y-87630000D01*
X106299000Y-37338000D02*
X108966000Y-37338000D01*
X104013000Y-39624000D02*
X106299000Y-37338000D01*
X104013000Y-47879000D02*
X104013000Y-39624000D01*
X100457000Y-51435000D02*
X104013000Y-47879000D01*
X100330000Y-83693000D02*
X100203000Y-83566000D01*
X119634000Y-83693000D02*
X100330000Y-83693000D01*
X123571000Y-87630000D02*
X119634000Y-83693000D01*
X138811000Y-51181000D02*
X139065000Y-50927000D01*
X139065000Y-50927000D02*
X139065000Y-49022000D01*
X139065000Y-49022000D02*
X140208000Y-47879000D01*
X140208000Y-47879000D02*
X141351000Y-47879000D01*
X141351000Y-47879000D02*
X141859000Y-47371000D01*
X141859000Y-47371000D02*
X141859000Y-41783000D01*
X141859000Y-41783000D02*
X142621000Y-41021000D01*
X142621000Y-41021000D02*
X143891000Y-41021000D01*
X132588000Y-40894000D02*
X132620000Y-40894000D01*
X125603000Y-43815000D02*
X125984000Y-43434000D01*
X125603000Y-45593000D02*
X125603000Y-43815000D01*
X125730000Y-45720000D02*
X125603000Y-45593000D01*
X147828000Y-58547000D02*
X147447000Y-58166000D01*
X148082000Y-58547000D02*
X147828000Y-58547000D01*
X149352000Y-59817000D02*
X148082000Y-58547000D01*
X149098000Y-49022000D02*
X149352000Y-49276000D01*
X147098000Y-49022000D02*
X149098000Y-49022000D01*
X147098000Y-49022000D02*
X146050000Y-47974000D01*
X132334000Y-86106000D02*
X134747000Y-86106000D01*
X147193000Y-81026000D02*
X148336000Y-79883000D01*
X148336000Y-79883000D02*
X149098000Y-79883000D01*
D24*
G36*
X125944823Y-38989000D02*
X125965742Y-39100173D01*
X126031445Y-39202279D01*
X126131697Y-39270778D01*
X126250700Y-39294877D01*
X127520700Y-39294877D01*
X127631873Y-39273958D01*
X127733979Y-39208255D01*
X127802478Y-39108003D01*
X127826577Y-38989000D01*
X127826577Y-34919000D01*
X128091123Y-34919000D01*
X128091123Y-38481000D01*
X128112042Y-38592173D01*
X128177745Y-38694279D01*
X128277997Y-38762778D01*
X128290000Y-38765209D01*
X128290000Y-42526123D01*
X128178827Y-42547042D01*
X128076721Y-42612745D01*
X128008222Y-42712997D01*
X127984123Y-42832000D01*
X127984123Y-46832000D01*
X128005042Y-46943173D01*
X128070745Y-47045279D01*
X128170997Y-47113778D01*
X128290000Y-47137877D01*
X129490000Y-47137877D01*
X129601173Y-47116958D01*
X129703279Y-47051255D01*
X129771778Y-46951003D01*
X129795877Y-46832000D01*
X129795877Y-44957000D01*
X129990000Y-44957000D01*
X129990000Y-46891674D01*
X130035672Y-47001937D01*
X130120064Y-47086328D01*
X130230327Y-47132000D01*
X130765000Y-47132000D01*
X130840000Y-47057000D01*
X130840000Y-44882000D01*
X130940000Y-44882000D01*
X130940000Y-47057000D01*
X131015000Y-47132000D01*
X131549673Y-47132000D01*
X131659936Y-47086328D01*
X131744328Y-47001937D01*
X131790000Y-46891674D01*
X131790000Y-44957000D01*
X131715000Y-44882000D01*
X130940000Y-44882000D01*
X130840000Y-44882000D01*
X130065000Y-44882000D01*
X129990000Y-44957000D01*
X129795877Y-44957000D01*
X129795877Y-42832000D01*
X129784649Y-42772326D01*
X129990000Y-42772326D01*
X129990000Y-44707000D01*
X130065000Y-44782000D01*
X130840000Y-44782000D01*
X130840000Y-42607000D01*
X130940000Y-42607000D01*
X130940000Y-44782000D01*
X131715000Y-44782000D01*
X131790000Y-44707000D01*
X131790000Y-42832000D01*
X131984123Y-42832000D01*
X131984123Y-46832000D01*
X132005042Y-46943173D01*
X132070745Y-47045279D01*
X132170997Y-47113778D01*
X132290000Y-47137877D01*
X133490000Y-47137877D01*
X133601173Y-47116958D01*
X133703279Y-47051255D01*
X133771778Y-46951003D01*
X133795877Y-46832000D01*
X133795877Y-42832000D01*
X133984123Y-42832000D01*
X133984123Y-46832000D01*
X134005042Y-46943173D01*
X134070745Y-47045279D01*
X134170997Y-47113778D01*
X134290000Y-47137877D01*
X135490000Y-47137877D01*
X135601173Y-47116958D01*
X135703279Y-47051255D01*
X135771778Y-46951003D01*
X135795877Y-46832000D01*
X135795877Y-42832000D01*
X135984123Y-42832000D01*
X135984123Y-46832000D01*
X136005042Y-46943173D01*
X136070745Y-47045279D01*
X136170997Y-47113778D01*
X136290000Y-47137877D01*
X137490000Y-47137877D01*
X137601173Y-47116958D01*
X137703279Y-47051255D01*
X137771778Y-46951003D01*
X137795877Y-46832000D01*
X137795877Y-42832000D01*
X137774958Y-42720827D01*
X137709255Y-42618721D01*
X137609003Y-42550222D01*
X137490000Y-42526123D01*
X136290000Y-42526123D01*
X136178827Y-42547042D01*
X136076721Y-42612745D01*
X136008222Y-42712997D01*
X135984123Y-42832000D01*
X135795877Y-42832000D01*
X135774958Y-42720827D01*
X135709255Y-42618721D01*
X135609003Y-42550222D01*
X135490000Y-42526123D01*
X134290000Y-42526123D01*
X134178827Y-42547042D01*
X134076721Y-42612745D01*
X134008222Y-42712997D01*
X133984123Y-42832000D01*
X133795877Y-42832000D01*
X133774958Y-42720827D01*
X133709255Y-42618721D01*
X133609003Y-42550222D01*
X133490000Y-42526123D01*
X132290000Y-42526123D01*
X132178827Y-42547042D01*
X132076721Y-42612745D01*
X132008222Y-42712997D01*
X131984123Y-42832000D01*
X131790000Y-42832000D01*
X131790000Y-42772326D01*
X131744328Y-42662063D01*
X131659936Y-42577672D01*
X131549673Y-42532000D01*
X131015000Y-42532000D01*
X130940000Y-42607000D01*
X130840000Y-42607000D01*
X130765000Y-42532000D01*
X130230327Y-42532000D01*
X130120064Y-42577672D01*
X130035672Y-42662063D01*
X129990000Y-42772326D01*
X129784649Y-42772326D01*
X129774958Y-42720827D01*
X129709255Y-42618721D01*
X129609003Y-42550222D01*
X129490000Y-42526123D01*
X129490000Y-40044000D01*
X131314123Y-40044000D01*
X131314123Y-41744000D01*
X131335042Y-41855173D01*
X131400745Y-41957279D01*
X131500997Y-42025778D01*
X131620000Y-42049877D01*
X133620000Y-42049877D01*
X133731173Y-42028958D01*
X133833279Y-41963255D01*
X133901778Y-41863003D01*
X133925877Y-41744000D01*
X133925877Y-40044000D01*
X135314123Y-40044000D01*
X135314123Y-41744000D01*
X135335042Y-41855173D01*
X135400745Y-41957279D01*
X135500997Y-42025778D01*
X135620000Y-42049877D01*
X137620000Y-42049877D01*
X137731173Y-42028958D01*
X137833279Y-41963255D01*
X137901778Y-41863003D01*
X137925877Y-41744000D01*
X137925877Y-41319000D01*
X139427930Y-41319000D01*
X139445048Y-41360429D01*
X139613683Y-41529359D01*
X139834129Y-41620896D01*
X140072824Y-41621104D01*
X140293429Y-41529952D01*
X140462359Y-41361317D01*
X140553896Y-41140871D01*
X140554104Y-40902176D01*
X140462952Y-40681571D01*
X140294317Y-40512641D01*
X140073871Y-40421104D01*
X139835176Y-40420896D01*
X139718755Y-40469000D01*
X137925877Y-40469000D01*
X137925877Y-40044000D01*
X137904958Y-39932827D01*
X137839255Y-39830721D01*
X137739003Y-39762222D01*
X137620000Y-39738123D01*
X135620000Y-39738123D01*
X135508827Y-39759042D01*
X135406721Y-39824745D01*
X135338222Y-39924997D01*
X135314123Y-40044000D01*
X133925877Y-40044000D01*
X133904958Y-39932827D01*
X133839255Y-39830721D01*
X133739003Y-39762222D01*
X133620000Y-39738123D01*
X131620000Y-39738123D01*
X131508827Y-39759042D01*
X131406721Y-39824745D01*
X131338222Y-39924997D01*
X131314123Y-40044000D01*
X129490000Y-40044000D01*
X129490000Y-38786877D01*
X129667000Y-38786877D01*
X129778173Y-38765958D01*
X129880279Y-38700255D01*
X129948778Y-38600003D01*
X129972877Y-38481000D01*
X129972877Y-37018500D01*
X130243300Y-37018500D01*
X130243300Y-39048673D01*
X130288972Y-39158936D01*
X130373363Y-39243328D01*
X130483626Y-39289000D01*
X131053300Y-39289000D01*
X131128300Y-39214000D01*
X131128300Y-36943500D01*
X131228300Y-36943500D01*
X131228300Y-39214000D01*
X131303300Y-39289000D01*
X131872974Y-39289000D01*
X131983237Y-39243328D01*
X132067628Y-39158936D01*
X132111714Y-39052500D01*
X145637774Y-39052500D01*
X145799661Y-39866363D01*
X146260678Y-40556322D01*
X146950637Y-41017339D01*
X147764500Y-41179226D01*
X148578363Y-41017339D01*
X149268322Y-40556322D01*
X149729339Y-39866363D01*
X149891226Y-39052500D01*
X149729339Y-38238637D01*
X149268322Y-37548678D01*
X148578363Y-37087661D01*
X147764500Y-36925774D01*
X146950637Y-37087661D01*
X146260678Y-37548678D01*
X145799661Y-38238637D01*
X145637774Y-39052500D01*
X132111714Y-39052500D01*
X132113300Y-39048673D01*
X132113300Y-37018500D01*
X132038300Y-36943500D01*
X131228300Y-36943500D01*
X131128300Y-36943500D01*
X130318300Y-36943500D01*
X130243300Y-37018500D01*
X129972877Y-37018500D01*
X129972877Y-34919000D01*
X130243300Y-34919000D01*
X130243300Y-36768500D01*
X130318300Y-36843500D01*
X131128300Y-36843500D01*
X131128300Y-36823500D01*
X131228300Y-36823500D01*
X131228300Y-36843500D01*
X132038300Y-36843500D01*
X132113300Y-36768500D01*
X132113300Y-34919000D01*
X150077063Y-34919000D01*
X150356489Y-34974581D01*
X150562060Y-35111940D01*
X150699419Y-35317512D01*
X150755000Y-35596936D01*
X150755000Y-51390906D01*
X150705067Y-51316176D01*
X150668520Y-51261479D01*
X149282980Y-49875940D01*
X149470824Y-49876104D01*
X149691429Y-49784952D01*
X149860359Y-49616317D01*
X149951896Y-49395871D01*
X149952104Y-49157176D01*
X149860952Y-48936571D01*
X149692317Y-48767641D01*
X149471871Y-48676104D01*
X149330426Y-48675981D01*
X149260641Y-48629351D01*
X149233657Y-48623984D01*
X149098000Y-48597000D01*
X147274041Y-48597000D01*
X146650001Y-47972961D01*
X146650104Y-47855176D01*
X146558952Y-47634571D01*
X146390317Y-47465641D01*
X146169871Y-47374104D01*
X145931176Y-47373896D01*
X145710571Y-47465048D01*
X145541641Y-47633683D01*
X145450104Y-47854129D01*
X145449896Y-48092824D01*
X145541048Y-48313429D01*
X145709683Y-48482359D01*
X145930129Y-48573896D01*
X146048959Y-48574000D01*
X146797480Y-49322521D01*
X146935359Y-49414649D01*
X147098000Y-49447000D01*
X148773455Y-49447000D01*
X148842044Y-49613000D01*
X142289040Y-49613000D01*
X141524520Y-48848480D01*
X141386641Y-48756351D01*
X141359657Y-48750984D01*
X141224000Y-48724000D01*
X140758530Y-48724000D01*
X140675317Y-48640641D01*
X140454871Y-48549104D01*
X140216176Y-48548896D01*
X140084903Y-48603137D01*
X140384040Y-48304000D01*
X141351000Y-48304000D01*
X141486657Y-48277016D01*
X141513641Y-48271649D01*
X141651520Y-48179520D01*
X142159520Y-47671521D01*
X142251648Y-47533641D01*
X142251649Y-47533640D01*
X142284000Y-47371000D01*
X142284000Y-47136662D01*
X142290000Y-47137877D01*
X143490000Y-47137877D01*
X143601173Y-47116958D01*
X143703279Y-47051255D01*
X143771778Y-46951003D01*
X143795877Y-46832000D01*
X143795877Y-42832000D01*
X143774958Y-42720827D01*
X143709255Y-42618721D01*
X143609003Y-42550222D01*
X143490000Y-42526123D01*
X142290000Y-42526123D01*
X142284000Y-42527252D01*
X142284000Y-41959040D01*
X142797041Y-41446000D01*
X143467470Y-41446000D01*
X143550683Y-41529359D01*
X143771129Y-41620896D01*
X144009824Y-41621104D01*
X144230429Y-41529952D01*
X144399359Y-41361317D01*
X144490896Y-41140871D01*
X144491104Y-40902176D01*
X144399952Y-40681571D01*
X144231317Y-40512641D01*
X144010871Y-40421104D01*
X143772176Y-40420896D01*
X143551571Y-40512048D01*
X143467472Y-40596000D01*
X142621000Y-40596000D01*
X142458359Y-40628351D01*
X142320480Y-40720479D01*
X141558480Y-41482480D01*
X141466351Y-41620359D01*
X141466351Y-41620360D01*
X141434000Y-41783000D01*
X141434000Y-42526123D01*
X140290000Y-42526123D01*
X140178827Y-42547042D01*
X140076721Y-42612745D01*
X140008222Y-42712997D01*
X139984123Y-42832000D01*
X139984123Y-46832000D01*
X140005042Y-46943173D01*
X140070745Y-47045279D01*
X140170997Y-47113778D01*
X140290000Y-47137877D01*
X141434000Y-47137877D01*
X141434000Y-47194959D01*
X141174960Y-47454000D01*
X140208000Y-47454000D01*
X140072343Y-47480984D01*
X140045359Y-47486351D01*
X139907480Y-47578480D01*
X138764480Y-48721480D01*
X138672351Y-48859359D01*
X138672351Y-48859360D01*
X138640000Y-49022000D01*
X138640000Y-50602455D01*
X138471571Y-50672048D01*
X138302641Y-50840683D01*
X138211104Y-51061129D01*
X138210896Y-51299824D01*
X138302048Y-51520429D01*
X138470683Y-51689359D01*
X138691129Y-51780896D01*
X138929824Y-51781104D01*
X139150429Y-51689952D01*
X139319359Y-51521317D01*
X139410896Y-51300871D01*
X139411019Y-51159426D01*
X139457648Y-51089641D01*
X139457649Y-51089640D01*
X139490000Y-50927000D01*
X139490000Y-49198040D01*
X139789208Y-48898832D01*
X139735104Y-49029129D01*
X139734896Y-49267824D01*
X139826048Y-49488429D01*
X139994683Y-49657359D01*
X140215129Y-49748896D01*
X140453824Y-49749104D01*
X140674429Y-49657952D01*
X140758528Y-49574000D01*
X141047960Y-49574000D01*
X141812480Y-50338520D01*
X141950359Y-50430649D01*
X142113000Y-50463000D01*
X148667960Y-50463000D01*
X149943000Y-51738041D01*
X149943000Y-59676143D01*
X149860952Y-59477571D01*
X149692317Y-59308641D01*
X149471871Y-59217104D01*
X149353041Y-59217000D01*
X148382520Y-58246480D01*
X148244641Y-58154351D01*
X148217657Y-58148984D01*
X148082000Y-58122000D01*
X148047039Y-58122000D01*
X148047104Y-58047176D01*
X147955952Y-57826571D01*
X147787317Y-57657641D01*
X147566871Y-57566104D01*
X147328176Y-57565896D01*
X147107571Y-57657048D01*
X146938641Y-57825683D01*
X146847104Y-58046129D01*
X146846896Y-58284824D01*
X146938048Y-58505429D01*
X147106683Y-58674359D01*
X147327129Y-58765896D01*
X147445959Y-58766000D01*
X147527479Y-58847520D01*
X147594586Y-58892359D01*
X147665360Y-58939649D01*
X147828000Y-58972000D01*
X147905960Y-58972000D01*
X148751999Y-59818039D01*
X148751896Y-59935824D01*
X148843048Y-60156429D01*
X149011683Y-60325359D01*
X149232129Y-60416896D01*
X149470824Y-60417104D01*
X149691429Y-60325952D01*
X149860359Y-60157317D01*
X149943000Y-59958295D01*
X149943000Y-89612959D01*
X149556960Y-89999000D01*
X129335041Y-89999000D01*
X129076000Y-89739960D01*
X129076000Y-89619479D01*
X129251789Y-89546845D01*
X129550795Y-89248360D01*
X129712815Y-88858172D01*
X129713184Y-88435682D01*
X129551845Y-88045211D01*
X129253360Y-87746205D01*
X128863172Y-87584185D01*
X128440682Y-87583816D01*
X128050211Y-87745155D01*
X127751205Y-88043640D01*
X127589185Y-88433828D01*
X127588816Y-88856318D01*
X127750155Y-89246789D01*
X128048640Y-89545795D01*
X128226000Y-89619441D01*
X128226000Y-89916000D01*
X128235083Y-89961661D01*
X128258351Y-90078641D01*
X128350480Y-90216520D01*
X128858479Y-90724520D01*
X128905931Y-90756226D01*
X128996360Y-90816649D01*
X129159000Y-90849000D01*
X149733000Y-90849000D01*
X149868657Y-90822016D01*
X149895641Y-90816649D01*
X150033520Y-90724520D01*
X150668521Y-90089520D01*
X150755000Y-89960095D01*
X150755000Y-90133064D01*
X150680085Y-90509689D01*
X150487666Y-90797666D01*
X150199689Y-90990085D01*
X149823068Y-91065000D01*
X99096936Y-91065000D01*
X98720311Y-90990085D01*
X98432334Y-90797666D01*
X98239915Y-90509689D01*
X98165000Y-90133068D01*
X98165000Y-87376000D01*
X99701000Y-87376000D01*
X99826218Y-88005514D01*
X100182809Y-88539191D01*
X100716486Y-88895782D01*
X101346000Y-89021000D01*
X101975514Y-88895782D01*
X102509191Y-88539191D01*
X102865782Y-88005514D01*
X102991000Y-87376000D01*
X102865782Y-86746486D01*
X102509191Y-86212809D01*
X101975514Y-85856218D01*
X101346000Y-85731000D01*
X100716486Y-85856218D01*
X100182809Y-86212809D01*
X99826218Y-86746486D01*
X99701000Y-87376000D01*
X98165000Y-87376000D01*
X98165000Y-83483095D01*
X98251480Y-83612520D01*
X99394480Y-84755520D01*
X99532359Y-84847649D01*
X99559343Y-84853016D01*
X99695000Y-84880000D01*
X107646960Y-84880000D01*
X111713480Y-88946520D01*
X111851359Y-89038649D01*
X111878343Y-89044016D01*
X112014000Y-89071000D01*
X114977521Y-89071000D01*
X115050155Y-89246789D01*
X115348640Y-89545795D01*
X115738828Y-89707815D01*
X116161318Y-89708184D01*
X116551789Y-89546845D01*
X116850795Y-89248360D01*
X117012815Y-88858172D01*
X117012816Y-88856318D01*
X117428816Y-88856318D01*
X117590155Y-89246789D01*
X117888640Y-89545795D01*
X118278828Y-89707815D01*
X118701318Y-89708184D01*
X119091789Y-89546845D01*
X119390795Y-89248360D01*
X119552815Y-88858172D01*
X119552816Y-88856318D01*
X119968816Y-88856318D01*
X120130155Y-89246789D01*
X120428640Y-89545795D01*
X120818828Y-89707815D01*
X121241318Y-89708184D01*
X121631789Y-89546845D01*
X121930795Y-89248360D01*
X122092815Y-88858172D01*
X122093184Y-88435682D01*
X121931845Y-88045211D01*
X121633360Y-87746205D01*
X121243172Y-87584185D01*
X120820682Y-87583816D01*
X120430211Y-87745155D01*
X120131205Y-88043640D01*
X119969185Y-88433828D01*
X119968816Y-88856318D01*
X119552816Y-88856318D01*
X119553184Y-88435682D01*
X119391845Y-88045211D01*
X119093360Y-87746205D01*
X118703172Y-87584185D01*
X118280682Y-87583816D01*
X117890211Y-87745155D01*
X117591205Y-88043640D01*
X117429185Y-88433828D01*
X117428816Y-88856318D01*
X117012816Y-88856318D01*
X117013184Y-88435682D01*
X116851845Y-88045211D01*
X116553360Y-87746205D01*
X116163172Y-87584185D01*
X115740682Y-87583816D01*
X115350211Y-87745155D01*
X115051205Y-88043640D01*
X114977559Y-88221000D01*
X112190040Y-88221000D01*
X108123520Y-84154480D01*
X108068925Y-84118000D01*
X119457960Y-84118000D01*
X123051519Y-87711559D01*
X122970211Y-87745155D01*
X122671205Y-88043640D01*
X122509185Y-88433828D01*
X122508816Y-88856318D01*
X122670155Y-89246789D01*
X122968640Y-89545795D01*
X123358828Y-89707815D01*
X123781318Y-89708184D01*
X124171789Y-89546845D01*
X124470795Y-89248360D01*
X124632815Y-88858172D01*
X124632816Y-88856318D01*
X125048816Y-88856318D01*
X125210155Y-89246789D01*
X125508640Y-89545795D01*
X125898828Y-89707815D01*
X126321318Y-89708184D01*
X126711789Y-89546845D01*
X127010795Y-89248360D01*
X127172815Y-88858172D01*
X127173184Y-88435682D01*
X127011845Y-88045211D01*
X126713360Y-87746205D01*
X126323172Y-87584185D01*
X125900682Y-87583816D01*
X125510211Y-87745155D01*
X125211205Y-88043640D01*
X125049185Y-88433828D01*
X125048816Y-88856318D01*
X124632816Y-88856318D01*
X124633184Y-88435682D01*
X124471845Y-88045211D01*
X124173360Y-87746205D01*
X123996000Y-87672559D01*
X123996000Y-87630000D01*
X123986887Y-87584185D01*
X123963649Y-87467359D01*
X123871521Y-87329480D01*
X119934520Y-83392480D01*
X119796641Y-83300351D01*
X119769657Y-83294984D01*
X119634000Y-83268000D01*
X100729070Y-83268000D01*
X100711952Y-83226571D01*
X100543317Y-83057641D01*
X100348858Y-82976895D01*
X100548591Y-82975512D01*
X100925327Y-82819463D01*
X101006394Y-82662104D01*
X100330000Y-81985711D01*
X99653606Y-82662104D01*
X99734673Y-82819463D01*
X100095256Y-82965906D01*
X100084176Y-82965896D01*
X99863571Y-83057048D01*
X99694641Y-83225683D01*
X99603104Y-83446129D01*
X99602896Y-83684824D01*
X99657137Y-83816097D01*
X98977000Y-83135960D01*
X98977000Y-81711112D01*
X99266563Y-81711112D01*
X99269488Y-82133591D01*
X99425537Y-82510327D01*
X99582896Y-82591394D01*
X100259289Y-81915000D01*
X100400711Y-81915000D01*
X101077104Y-82591394D01*
X101234463Y-82510327D01*
X101393437Y-82118888D01*
X101390512Y-81696409D01*
X101234463Y-81319673D01*
X101077104Y-81238606D01*
X100400711Y-81915000D01*
X100259289Y-81915000D01*
X99582896Y-81238606D01*
X99425537Y-81319673D01*
X99266563Y-81711112D01*
X98977000Y-81711112D01*
X98977000Y-81167896D01*
X99653606Y-81167896D01*
X100330000Y-81844289D01*
X101006394Y-81167896D01*
X100925327Y-81010537D01*
X100533888Y-80851563D01*
X100111409Y-80854488D01*
X99734673Y-81010537D01*
X99653606Y-81167896D01*
X98977000Y-81167896D01*
X98977000Y-79585318D01*
X99267816Y-79585318D01*
X99429155Y-79975789D01*
X99727640Y-80274795D01*
X100117828Y-80436815D01*
X100540318Y-80437184D01*
X100930789Y-80275845D01*
X101229795Y-79977360D01*
X101391815Y-79587172D01*
X101392184Y-79164682D01*
X101230845Y-78774211D01*
X100932360Y-78475205D01*
X100542172Y-78313185D01*
X100119682Y-78312816D01*
X99729211Y-78474155D01*
X99430205Y-78772640D01*
X99268185Y-79162828D01*
X99267816Y-79585318D01*
X98977000Y-79585318D01*
X98977000Y-77045318D01*
X99267816Y-77045318D01*
X99429155Y-77435789D01*
X99727640Y-77734795D01*
X100117828Y-77896815D01*
X100540318Y-77897184D01*
X100930789Y-77735845D01*
X101229795Y-77437360D01*
X101391815Y-77047172D01*
X101392184Y-76625000D01*
X112254143Y-76625000D01*
X112055571Y-76707048D01*
X111886641Y-76875683D01*
X111795104Y-77096129D01*
X111794896Y-77334824D01*
X111886048Y-77555429D01*
X112054683Y-77724359D01*
X112275129Y-77815896D01*
X112513824Y-77816104D01*
X112734429Y-77724952D01*
X112818528Y-77641000D01*
X113234960Y-77641000D01*
X113872480Y-78278521D01*
X114010359Y-78370649D01*
X114173000Y-78403000D01*
X117092264Y-78403000D01*
X117002104Y-78620129D01*
X117001896Y-78858824D01*
X117093048Y-79079429D01*
X117261683Y-79248359D01*
X117482129Y-79339896D01*
X117720824Y-79340104D01*
X117941429Y-79248952D01*
X118025528Y-79165000D01*
X124537960Y-79165000D01*
X130766000Y-85393041D01*
X130766000Y-87672521D01*
X130590211Y-87745155D01*
X130291205Y-88043640D01*
X130129185Y-88433828D01*
X130128816Y-88856318D01*
X130290155Y-89246789D01*
X130588640Y-89545795D01*
X130978828Y-89707815D01*
X131401318Y-89708184D01*
X131791789Y-89546845D01*
X132090795Y-89248360D01*
X132252815Y-88858172D01*
X132252816Y-88856318D01*
X132668816Y-88856318D01*
X132830155Y-89246789D01*
X133128640Y-89545795D01*
X133518828Y-89707815D01*
X133941318Y-89708184D01*
X134331789Y-89546845D01*
X134630795Y-89248360D01*
X134792815Y-88858172D01*
X134793184Y-88435682D01*
X134631845Y-88045211D01*
X134333360Y-87746205D01*
X133943172Y-87584185D01*
X133520682Y-87583816D01*
X133130211Y-87745155D01*
X132831205Y-88043640D01*
X132669185Y-88433828D01*
X132668816Y-88856318D01*
X132252816Y-88856318D01*
X132253184Y-88435682D01*
X132091845Y-88045211D01*
X131793360Y-87746205D01*
X131616000Y-87672559D01*
X131616000Y-86224824D01*
X131733896Y-86224824D01*
X131825048Y-86445429D01*
X131993683Y-86614359D01*
X132214129Y-86705896D01*
X132452824Y-86706104D01*
X132673429Y-86614952D01*
X132757528Y-86531000D01*
X134323470Y-86531000D01*
X134406683Y-86614359D01*
X134627129Y-86705896D01*
X134865824Y-86706104D01*
X135086429Y-86614952D01*
X135255359Y-86446317D01*
X135346896Y-86225871D01*
X135347104Y-85987176D01*
X135255952Y-85766571D01*
X135087317Y-85597641D01*
X134866871Y-85506104D01*
X134628176Y-85505896D01*
X134407571Y-85597048D01*
X134323472Y-85681000D01*
X132757530Y-85681000D01*
X132674317Y-85597641D01*
X132453871Y-85506104D01*
X132215176Y-85505896D01*
X131994571Y-85597048D01*
X131825641Y-85765683D01*
X131734104Y-85986129D01*
X131733896Y-86224824D01*
X131616000Y-86224824D01*
X131616000Y-85217000D01*
X131583649Y-85054360D01*
X131553078Y-85008608D01*
X131491520Y-84916479D01*
X125014520Y-78439480D01*
X124959925Y-78403000D01*
X125426960Y-78403000D01*
X125683479Y-78659520D01*
X125775608Y-78721078D01*
X125821360Y-78751649D01*
X125984000Y-78784000D01*
X129236960Y-78784000D01*
X135846000Y-85393041D01*
X135846000Y-87672521D01*
X135670211Y-87745155D01*
X135371205Y-88043640D01*
X135209185Y-88433828D01*
X135208816Y-88856318D01*
X135370155Y-89246789D01*
X135668640Y-89545795D01*
X136058828Y-89707815D01*
X136481318Y-89708184D01*
X136871789Y-89546845D01*
X137170795Y-89248360D01*
X137332815Y-88858172D01*
X137333184Y-88435682D01*
X137171845Y-88045211D01*
X136873360Y-87746205D01*
X136696000Y-87672559D01*
X136696000Y-85217000D01*
X136663649Y-85054360D01*
X136663649Y-85054359D01*
X136571521Y-84916480D01*
X129713520Y-78058480D01*
X129575641Y-77966351D01*
X129548657Y-77960984D01*
X129413000Y-77934000D01*
X126160041Y-77934000D01*
X125903520Y-77677480D01*
X125765641Y-77585351D01*
X125738657Y-77579984D01*
X125603000Y-77553000D01*
X115065460Y-77553000D01*
X115104528Y-77514000D01*
X130125960Y-77514000D01*
X138386000Y-85774041D01*
X138386000Y-87672521D01*
X138210211Y-87745155D01*
X137911205Y-88043640D01*
X137749185Y-88433828D01*
X137748816Y-88856318D01*
X137910155Y-89246789D01*
X138208640Y-89545795D01*
X138598828Y-89707815D01*
X139021318Y-89708184D01*
X139411789Y-89546845D01*
X139710795Y-89248360D01*
X139872815Y-88858172D01*
X139873184Y-88435682D01*
X139711845Y-88045211D01*
X139413360Y-87746205D01*
X139236000Y-87672559D01*
X139236000Y-85598000D01*
X139203649Y-85435360D01*
X139166419Y-85379641D01*
X139111520Y-85297479D01*
X130602520Y-76788480D01*
X130464641Y-76696351D01*
X130437657Y-76690984D01*
X130302000Y-76664000D01*
X115104530Y-76664000D01*
X115065599Y-76625000D01*
X130887960Y-76625000D01*
X140926000Y-86663040D01*
X140926000Y-87672521D01*
X140750211Y-87745155D01*
X140451205Y-88043640D01*
X140289185Y-88433828D01*
X140288816Y-88856318D01*
X140450155Y-89246789D01*
X140748640Y-89545795D01*
X141138828Y-89707815D01*
X141561318Y-89708184D01*
X141951789Y-89546845D01*
X142250795Y-89248360D01*
X142412815Y-88858172D01*
X142413184Y-88435682D01*
X142251845Y-88045211D01*
X141953360Y-87746205D01*
X141776000Y-87672559D01*
X141776000Y-86487000D01*
X141759992Y-86406520D01*
X141743649Y-86324359D01*
X141651520Y-86186480D01*
X131364520Y-75899480D01*
X131226641Y-75807351D01*
X131199657Y-75801984D01*
X131064000Y-75775000D01*
X100965000Y-75775000D01*
X100802359Y-75807351D01*
X100734174Y-75852911D01*
X100542172Y-75773185D01*
X100119682Y-75772816D01*
X99729211Y-75934155D01*
X99430205Y-76232640D01*
X99268185Y-76622828D01*
X99267816Y-77045318D01*
X98977000Y-77045318D01*
X98977000Y-74505318D01*
X99267816Y-74505318D01*
X99429155Y-74895789D01*
X99727640Y-75194795D01*
X100117828Y-75356815D01*
X100540318Y-75357184D01*
X100930789Y-75195845D01*
X101229795Y-74897360D01*
X101356176Y-74593000D01*
X130125960Y-74593000D01*
X143284158Y-87751198D01*
X142991205Y-88043640D01*
X142829185Y-88433828D01*
X142828816Y-88856318D01*
X142990155Y-89246789D01*
X143288640Y-89545795D01*
X143678828Y-89707815D01*
X144101318Y-89708184D01*
X144491789Y-89546845D01*
X144790795Y-89248360D01*
X144952815Y-88858172D01*
X144953184Y-88435682D01*
X144791845Y-88045211D01*
X144493360Y-87746205D01*
X144297691Y-87664956D01*
X144283649Y-87594360D01*
X144283649Y-87594359D01*
X144191520Y-87456480D01*
X144111040Y-87376000D01*
X145546866Y-87376000D01*
X145710840Y-88200351D01*
X146177797Y-88899203D01*
X146876649Y-89366160D01*
X147701000Y-89530134D01*
X148525351Y-89366160D01*
X149224203Y-88899203D01*
X149691160Y-88200351D01*
X149855134Y-87376000D01*
X149691160Y-86551649D01*
X149224203Y-85852797D01*
X148525351Y-85385840D01*
X147701000Y-85221866D01*
X146876649Y-85385840D01*
X146177797Y-85852797D01*
X145710840Y-86551649D01*
X145546866Y-87376000D01*
X144111040Y-87376000D01*
X130602520Y-73867480D01*
X130464641Y-73775351D01*
X130437657Y-73769984D01*
X130302000Y-73743000D01*
X121413736Y-73743000D01*
X121503896Y-73525871D01*
X121504104Y-73287176D01*
X121449863Y-73155903D01*
X121873480Y-73579520D01*
X122011359Y-73671649D01*
X122038343Y-73677016D01*
X122174000Y-73704000D01*
X130887960Y-73704000D01*
X139653480Y-82469521D01*
X139791359Y-82561649D01*
X139954000Y-82594000D01*
X142367000Y-82594000D01*
X142502657Y-82567016D01*
X142529641Y-82561649D01*
X142667520Y-82469520D01*
X143992216Y-81144824D01*
X146592896Y-81144824D01*
X146684048Y-81365429D01*
X146852683Y-81534359D01*
X147073129Y-81625896D01*
X147311824Y-81626104D01*
X147532429Y-81534952D01*
X147701359Y-81366317D01*
X147792896Y-81145871D01*
X147793000Y-81027040D01*
X148512040Y-80308000D01*
X148674470Y-80308000D01*
X148757683Y-80391359D01*
X148978129Y-80482896D01*
X149216824Y-80483104D01*
X149437429Y-80391952D01*
X149606359Y-80223317D01*
X149697896Y-80002871D01*
X149698104Y-79764176D01*
X149606952Y-79543571D01*
X149438317Y-79374641D01*
X149217871Y-79283104D01*
X148979176Y-79282896D01*
X148758571Y-79374048D01*
X148674472Y-79458000D01*
X148336000Y-79458000D01*
X148200343Y-79484984D01*
X148173359Y-79490351D01*
X148035480Y-79582480D01*
X147191961Y-80425999D01*
X147074176Y-80425896D01*
X146853571Y-80517048D01*
X146684641Y-80685683D01*
X146593104Y-80906129D01*
X146592896Y-81144824D01*
X143992216Y-81144824D01*
X144064520Y-81072521D01*
X144156648Y-80934641D01*
X144156649Y-80934640D01*
X144189000Y-80772000D01*
X144189000Y-78154040D01*
X145920786Y-76422254D01*
X146038571Y-76422357D01*
X146259176Y-76331205D01*
X146428106Y-76162570D01*
X146519643Y-75942124D01*
X146519851Y-75703429D01*
X146428699Y-75482824D01*
X146260064Y-75313894D01*
X146039618Y-75222357D01*
X145800923Y-75222149D01*
X145580318Y-75313301D01*
X145411388Y-75481936D01*
X145319851Y-75702382D01*
X145319747Y-75821212D01*
X143463480Y-77677480D01*
X143371351Y-77815359D01*
X143371351Y-77815360D01*
X143339000Y-77978000D01*
X143339000Y-80595959D01*
X142190960Y-81744000D01*
X140130041Y-81744000D01*
X131455040Y-73069000D01*
X132842000Y-73069000D01*
X132977657Y-73042016D01*
X133004641Y-73036649D01*
X133142520Y-72944520D01*
X134031520Y-72055520D01*
X134123649Y-71917641D01*
X134156000Y-71755000D01*
X134156000Y-69596000D01*
X145536697Y-69596000D01*
X145701445Y-70424243D01*
X146170607Y-71126393D01*
X146872757Y-71595555D01*
X147701000Y-71760303D01*
X148529243Y-71595555D01*
X149231393Y-71126393D01*
X149700555Y-70424243D01*
X149865303Y-69596000D01*
X149700555Y-68767757D01*
X149231393Y-68065607D01*
X148529243Y-67596445D01*
X147701000Y-67431697D01*
X146872757Y-67596445D01*
X146170607Y-68065607D01*
X145701445Y-68767757D01*
X145536697Y-69596000D01*
X134156000Y-69596000D01*
X134156000Y-69299479D01*
X134331789Y-69226845D01*
X134630795Y-68928360D01*
X134792815Y-68538172D01*
X134792816Y-68536318D01*
X135208816Y-68536318D01*
X135370155Y-68926789D01*
X135668640Y-69225795D01*
X136058828Y-69387815D01*
X136481318Y-69388184D01*
X136871789Y-69226845D01*
X137170795Y-68928360D01*
X137332815Y-68538172D01*
X137332816Y-68536318D01*
X137748816Y-68536318D01*
X137910155Y-68926789D01*
X138208640Y-69225795D01*
X138598828Y-69387815D01*
X139021318Y-69388184D01*
X139411789Y-69226845D01*
X139710795Y-68928360D01*
X139872815Y-68538172D01*
X139872816Y-68536318D01*
X140288816Y-68536318D01*
X140450155Y-68926789D01*
X140748640Y-69225795D01*
X141138828Y-69387815D01*
X141561318Y-69388184D01*
X141951789Y-69226845D01*
X142250795Y-68928360D01*
X142412815Y-68538172D01*
X142413184Y-68115682D01*
X142251845Y-67725211D01*
X141953360Y-67426205D01*
X141563172Y-67264185D01*
X141140682Y-67263816D01*
X140750211Y-67425155D01*
X140451205Y-67723640D01*
X140289185Y-68113828D01*
X140288816Y-68536318D01*
X139872816Y-68536318D01*
X139873184Y-68115682D01*
X139711845Y-67725211D01*
X139413360Y-67426205D01*
X139023172Y-67264185D01*
X138600682Y-67263816D01*
X138210211Y-67425155D01*
X137911205Y-67723640D01*
X137749185Y-68113828D01*
X137748816Y-68536318D01*
X137332816Y-68536318D01*
X137333184Y-68115682D01*
X137171845Y-67725211D01*
X137068427Y-67621613D01*
X138150216Y-66539824D01*
X141258896Y-66539824D01*
X141350048Y-66760429D01*
X141518683Y-66929359D01*
X141739129Y-67020896D01*
X141857960Y-67021000D01*
X142864864Y-68027904D01*
X142829185Y-68113828D01*
X142828816Y-68536318D01*
X142990155Y-68926789D01*
X143288640Y-69225795D01*
X143678828Y-69387815D01*
X144101318Y-69388184D01*
X144491789Y-69226845D01*
X144790795Y-68928360D01*
X144952815Y-68538172D01*
X144953184Y-68115682D01*
X144791845Y-67725211D01*
X144493360Y-67426205D01*
X144103172Y-67264185D01*
X143680682Y-67263816D01*
X143413325Y-67374285D01*
X142459001Y-66419961D01*
X142459104Y-66302176D01*
X142367952Y-66081571D01*
X142199317Y-65912641D01*
X141978871Y-65821104D01*
X141740176Y-65820896D01*
X141519571Y-65912048D01*
X141350641Y-66080683D01*
X141259104Y-66301129D01*
X141258896Y-66539824D01*
X138150216Y-66539824D01*
X139114041Y-65576000D01*
X140589000Y-65576000D01*
X140724657Y-65549016D01*
X140751641Y-65543649D01*
X140889520Y-65451520D01*
X141270520Y-65070521D01*
X141362648Y-64932641D01*
X141362649Y-64932640D01*
X141395000Y-64770000D01*
X141395000Y-63137877D01*
X141490000Y-63137877D01*
X141601173Y-63116958D01*
X141703279Y-63051255D01*
X141771778Y-62951003D01*
X141795877Y-62832000D01*
X141795877Y-60957000D01*
X141990000Y-60957000D01*
X141990000Y-62891674D01*
X142035672Y-63001937D01*
X142120064Y-63086328D01*
X142230327Y-63132000D01*
X142765000Y-63132000D01*
X142840000Y-63057000D01*
X142840000Y-60882000D01*
X142940000Y-60882000D01*
X142940000Y-63057000D01*
X143015000Y-63132000D01*
X143549673Y-63132000D01*
X143659936Y-63086328D01*
X143744328Y-63001937D01*
X143790000Y-62891674D01*
X143790000Y-60957000D01*
X143715000Y-60882000D01*
X142940000Y-60882000D01*
X142840000Y-60882000D01*
X142065000Y-60882000D01*
X141990000Y-60957000D01*
X141795877Y-60957000D01*
X141795877Y-58832000D01*
X141784649Y-58772326D01*
X141990000Y-58772326D01*
X141990000Y-60707000D01*
X142065000Y-60782000D01*
X142840000Y-60782000D01*
X142840000Y-58607000D01*
X142940000Y-58607000D01*
X142940000Y-60782000D01*
X143715000Y-60782000D01*
X143790000Y-60707000D01*
X143790000Y-58772326D01*
X143744328Y-58662063D01*
X143659936Y-58577672D01*
X143549673Y-58532000D01*
X143015000Y-58532000D01*
X142940000Y-58607000D01*
X142840000Y-58607000D01*
X142765000Y-58532000D01*
X142230327Y-58532000D01*
X142120064Y-58577672D01*
X142035672Y-58662063D01*
X141990000Y-58772326D01*
X141784649Y-58772326D01*
X141774958Y-58720827D01*
X141709255Y-58618721D01*
X141609003Y-58550222D01*
X141490000Y-58526123D01*
X140290000Y-58526123D01*
X140178827Y-58547042D01*
X140076721Y-58612745D01*
X140008222Y-58712997D01*
X139984123Y-58832000D01*
X139984123Y-62832000D01*
X140005042Y-62943173D01*
X140070745Y-63045279D01*
X140170997Y-63113778D01*
X140290000Y-63137877D01*
X140545000Y-63137877D01*
X140545000Y-64593959D01*
X140412960Y-64726000D01*
X138938000Y-64726000D01*
X138775359Y-64758351D01*
X138637480Y-64850479D01*
X136224001Y-67263959D01*
X136060682Y-67263816D01*
X135670211Y-67425155D01*
X135371205Y-67723640D01*
X135209185Y-68113828D01*
X135208816Y-68536318D01*
X134792816Y-68536318D01*
X134793184Y-68115682D01*
X134631845Y-67725211D01*
X134338093Y-67430947D01*
X134923040Y-66846000D01*
X136398000Y-66846000D01*
X136533657Y-66819016D01*
X136560641Y-66813649D01*
X136698520Y-66721520D01*
X138603520Y-64816520D01*
X138695649Y-64678641D01*
X138728000Y-64516000D01*
X138728000Y-64057040D01*
X139190520Y-63594521D01*
X139282648Y-63456641D01*
X139282649Y-63456640D01*
X139315000Y-63294000D01*
X139315000Y-63137877D01*
X139490000Y-63137877D01*
X139601173Y-63116958D01*
X139703279Y-63051255D01*
X139771778Y-62951003D01*
X139795877Y-62832000D01*
X139795877Y-58832000D01*
X139774958Y-58720827D01*
X139709255Y-58618721D01*
X139609003Y-58550222D01*
X139490000Y-58526123D01*
X138290000Y-58526123D01*
X138178827Y-58547042D01*
X138076721Y-58612745D01*
X138008222Y-58712997D01*
X137984123Y-58832000D01*
X137984123Y-62832000D01*
X138005042Y-62943173D01*
X138070745Y-63045279D01*
X138170997Y-63113778D01*
X138290000Y-63137877D01*
X138445082Y-63137877D01*
X138002480Y-63580480D01*
X137910351Y-63718359D01*
X137910351Y-63718360D01*
X137878000Y-63881000D01*
X137878000Y-64339960D01*
X137285959Y-64932001D01*
X137315000Y-64786000D01*
X137315000Y-63137877D01*
X137490000Y-63137877D01*
X137601173Y-63116958D01*
X137703279Y-63051255D01*
X137771778Y-62951003D01*
X137795877Y-62832000D01*
X137795877Y-58832000D01*
X137774958Y-58720827D01*
X137709255Y-58618721D01*
X137609003Y-58550222D01*
X137490000Y-58526123D01*
X136290000Y-58526123D01*
X136178827Y-58547042D01*
X136076721Y-58612745D01*
X136008222Y-58712997D01*
X135984123Y-58832000D01*
X135984123Y-62832000D01*
X136005042Y-62943173D01*
X136070745Y-63045279D01*
X136170997Y-63113778D01*
X136290000Y-63137877D01*
X136465000Y-63137877D01*
X136465000Y-64609959D01*
X135840960Y-65234000D01*
X134293471Y-65234000D01*
X134330896Y-65143871D01*
X134331000Y-65025041D01*
X135190521Y-64165520D01*
X135282649Y-64027641D01*
X135315000Y-63865000D01*
X135315000Y-63137877D01*
X135490000Y-63137877D01*
X135601173Y-63116958D01*
X135703279Y-63051255D01*
X135771778Y-62951003D01*
X135795877Y-62832000D01*
X135795877Y-58832000D01*
X135774958Y-58720827D01*
X135709255Y-58618721D01*
X135609003Y-58550222D01*
X135490000Y-58526123D01*
X134290000Y-58526123D01*
X134178827Y-58547042D01*
X134076721Y-58612745D01*
X134008222Y-58712997D01*
X133984123Y-58832000D01*
X133984123Y-62832000D01*
X134005042Y-62943173D01*
X134070745Y-63045279D01*
X134170997Y-63113778D01*
X134290000Y-63137877D01*
X134465000Y-63137877D01*
X134465000Y-63688959D01*
X133729961Y-64423999D01*
X133612176Y-64423896D01*
X133391571Y-64515048D01*
X133222641Y-64683683D01*
X133131104Y-64904129D01*
X133130896Y-65142824D01*
X133183109Y-65269190D01*
X133049480Y-65358480D01*
X131144001Y-67263959D01*
X130980682Y-67263816D01*
X130590211Y-67425155D01*
X130291205Y-67723640D01*
X130129185Y-68113828D01*
X130128816Y-68536318D01*
X130290155Y-68926789D01*
X130588640Y-69225795D01*
X130766000Y-69299441D01*
X130766000Y-70943959D01*
X130379960Y-71330000D01*
X124001041Y-71330000D01*
X123871520Y-71200480D01*
X123733641Y-71108351D01*
X123706657Y-71102984D01*
X123571000Y-71076000D01*
X122428000Y-71076000D01*
X122265360Y-71108351D01*
X122230492Y-71131649D01*
X122195518Y-71155018D01*
X122055176Y-71154896D01*
X121834571Y-71246048D01*
X121665641Y-71414683D01*
X121574104Y-71635129D01*
X121573896Y-71873824D01*
X121665048Y-72094429D01*
X121833683Y-72263359D01*
X122054129Y-72354896D01*
X122292824Y-72355104D01*
X122513429Y-72263952D01*
X122521926Y-72255470D01*
X122463104Y-72397129D01*
X122462896Y-72635824D01*
X122553044Y-72854000D01*
X122350040Y-72854000D01*
X121456000Y-71959960D01*
X121456000Y-69299479D01*
X121631789Y-69226845D01*
X121930795Y-68928360D01*
X122092815Y-68538172D01*
X122092816Y-68536318D01*
X122508816Y-68536318D01*
X122670155Y-68926789D01*
X122968640Y-69225795D01*
X123358828Y-69387815D01*
X123781318Y-69388184D01*
X124171789Y-69226845D01*
X124470795Y-68928360D01*
X124632815Y-68538172D01*
X124632816Y-68536318D01*
X125048816Y-68536318D01*
X125210155Y-68926789D01*
X125508640Y-69225795D01*
X125898828Y-69387815D01*
X126321318Y-69388184D01*
X126711789Y-69226845D01*
X127010795Y-68928360D01*
X127172815Y-68538172D01*
X127173184Y-68115682D01*
X127011845Y-67725211D01*
X126713360Y-67426205D01*
X126323172Y-67264185D01*
X125900682Y-67263816D01*
X125510211Y-67425155D01*
X125211205Y-67723640D01*
X125049185Y-68113828D01*
X125048816Y-68536318D01*
X124632816Y-68536318D01*
X124633184Y-68115682D01*
X124471845Y-67725211D01*
X124173360Y-67426205D01*
X123783172Y-67264185D01*
X123360682Y-67263816D01*
X122970211Y-67425155D01*
X122671205Y-67723640D01*
X122509185Y-68113828D01*
X122508816Y-68536318D01*
X122092816Y-68536318D01*
X122093184Y-68115682D01*
X121931845Y-67725211D01*
X121633360Y-67426205D01*
X121243172Y-67264185D01*
X120820682Y-67263816D01*
X120430211Y-67425155D01*
X120131205Y-67723640D01*
X119969185Y-68113828D01*
X119968816Y-68536318D01*
X120130155Y-68926789D01*
X120428640Y-69225795D01*
X120606000Y-69299441D01*
X120606000Y-72136000D01*
X120628945Y-72251351D01*
X120638351Y-72298641D01*
X120730480Y-72436520D01*
X121154168Y-72860208D01*
X121023871Y-72806104D01*
X120785176Y-72805896D01*
X120564571Y-72897048D01*
X120480472Y-72981000D01*
X120399460Y-72981000D01*
X120523359Y-72857317D01*
X120614896Y-72636871D01*
X120615104Y-72398176D01*
X120523952Y-72177571D01*
X120355317Y-72008641D01*
X120134871Y-71917104D01*
X119896176Y-71916896D01*
X119675571Y-72008048D01*
X119506641Y-72176683D01*
X119489069Y-72219000D01*
X109015040Y-72219000D01*
X108375000Y-71578960D01*
X108375000Y-70231000D01*
X108342649Y-70068360D01*
X108281604Y-69977000D01*
X108250520Y-69930479D01*
X107996520Y-69676480D01*
X107858641Y-69584351D01*
X107831657Y-69578984D01*
X107696000Y-69552000D01*
X106595530Y-69552000D01*
X106512317Y-69468641D01*
X106291871Y-69377104D01*
X106053176Y-69376896D01*
X105832571Y-69468048D01*
X105663641Y-69636683D01*
X105572104Y-69857129D01*
X105571896Y-70095824D01*
X105663048Y-70316429D01*
X105831683Y-70485359D01*
X106052129Y-70576896D01*
X106290824Y-70577104D01*
X106511429Y-70485952D01*
X106519926Y-70477470D01*
X106461104Y-70619129D01*
X106460896Y-70857824D01*
X106552048Y-71078429D01*
X106720683Y-71247359D01*
X106763000Y-71264931D01*
X106763000Y-72390000D01*
X106781173Y-72481360D01*
X106795351Y-72552641D01*
X106887480Y-72690520D01*
X107903480Y-73706520D01*
X107958075Y-73743000D01*
X101251004Y-73743000D01*
X101230845Y-73694211D01*
X100932360Y-73395205D01*
X100542172Y-73233185D01*
X100119682Y-73232816D01*
X99729211Y-73394155D01*
X99430205Y-73692640D01*
X99268185Y-74082828D01*
X99267816Y-74505318D01*
X98977000Y-74505318D01*
X98977000Y-69596000D01*
X99693087Y-69596000D01*
X99818908Y-70228542D01*
X100177214Y-70764786D01*
X100713458Y-71123092D01*
X101346000Y-71248913D01*
X101978542Y-71123092D01*
X102514786Y-70764786D01*
X102873092Y-70228542D01*
X102998913Y-69596000D01*
X102873092Y-68963458D01*
X102587687Y-68536318D01*
X104728816Y-68536318D01*
X104890155Y-68926789D01*
X105188640Y-69225795D01*
X105578828Y-69387815D01*
X106001318Y-69388184D01*
X106391789Y-69226845D01*
X106690795Y-68928360D01*
X106852815Y-68538172D01*
X106852816Y-68536318D01*
X107268816Y-68536318D01*
X107430155Y-68926789D01*
X107728640Y-69225795D01*
X108118828Y-69387815D01*
X108541318Y-69388184D01*
X108931789Y-69226845D01*
X109230795Y-68928360D01*
X109392815Y-68538172D01*
X109392816Y-68536318D01*
X109808816Y-68536318D01*
X109970155Y-68926789D01*
X110268640Y-69225795D01*
X110658828Y-69387815D01*
X111081318Y-69388184D01*
X111471789Y-69226845D01*
X111625798Y-69073104D01*
X112734606Y-69073104D01*
X112815673Y-69230463D01*
X113207112Y-69389437D01*
X113629591Y-69386512D01*
X114006327Y-69230463D01*
X114087394Y-69073104D01*
X113411000Y-68396711D01*
X112734606Y-69073104D01*
X111625798Y-69073104D01*
X111770795Y-68928360D01*
X111932815Y-68538172D01*
X111933178Y-68122112D01*
X112347563Y-68122112D01*
X112350488Y-68544591D01*
X112506537Y-68921327D01*
X112663896Y-69002394D01*
X113340289Y-68326000D01*
X113481711Y-68326000D01*
X114158104Y-69002394D01*
X114315463Y-68921327D01*
X114471825Y-68536318D01*
X114888816Y-68536318D01*
X115050155Y-68926789D01*
X115348640Y-69225795D01*
X115738828Y-69387815D01*
X116161318Y-69388184D01*
X116551789Y-69226845D01*
X116850795Y-68928360D01*
X117012815Y-68538172D01*
X117012816Y-68536318D01*
X117428816Y-68536318D01*
X117590155Y-68926789D01*
X117888640Y-69225795D01*
X118278828Y-69387815D01*
X118701318Y-69388184D01*
X119091789Y-69226845D01*
X119390795Y-68928360D01*
X119552815Y-68538172D01*
X119553184Y-68115682D01*
X119391845Y-67725211D01*
X119093360Y-67426205D01*
X118703172Y-67264185D01*
X118280682Y-67263816D01*
X117890211Y-67425155D01*
X117591205Y-67723640D01*
X117429185Y-68113828D01*
X117428816Y-68536318D01*
X117012816Y-68536318D01*
X117013184Y-68115682D01*
X116851845Y-67725211D01*
X116553360Y-67426205D01*
X116163172Y-67264185D01*
X115740682Y-67263816D01*
X115350211Y-67425155D01*
X115051205Y-67723640D01*
X114889185Y-68113828D01*
X114888816Y-68536318D01*
X114471825Y-68536318D01*
X114474437Y-68529888D01*
X114471512Y-68107409D01*
X114315463Y-67730673D01*
X114158104Y-67649606D01*
X113481711Y-68326000D01*
X113340289Y-68326000D01*
X112663896Y-67649606D01*
X112506537Y-67730673D01*
X112347563Y-68122112D01*
X111933178Y-68122112D01*
X111933184Y-68115682D01*
X111771845Y-67725211D01*
X111625785Y-67578896D01*
X112734606Y-67578896D01*
X113411000Y-68255289D01*
X114087394Y-67578896D01*
X114006327Y-67421537D01*
X113614888Y-67262563D01*
X113192409Y-67265488D01*
X112815673Y-67421537D01*
X112734606Y-67578896D01*
X111625785Y-67578896D01*
X111473360Y-67426205D01*
X111083172Y-67264185D01*
X110660682Y-67263816D01*
X110270211Y-67425155D01*
X109971205Y-67723640D01*
X109809185Y-68113828D01*
X109808816Y-68536318D01*
X109392816Y-68536318D01*
X109393184Y-68115682D01*
X109231845Y-67725211D01*
X108933360Y-67426205D01*
X108543172Y-67264185D01*
X108120682Y-67263816D01*
X107730211Y-67425155D01*
X107431205Y-67723640D01*
X107269185Y-68113828D01*
X107268816Y-68536318D01*
X106852816Y-68536318D01*
X106853184Y-68115682D01*
X106691845Y-67725211D01*
X106393360Y-67426205D01*
X106003172Y-67264185D01*
X105580682Y-67263816D01*
X105190211Y-67425155D01*
X104891205Y-67723640D01*
X104729185Y-68113828D01*
X104728816Y-68536318D01*
X102587687Y-68536318D01*
X102514786Y-68427214D01*
X101978542Y-68068908D01*
X101346000Y-67943087D01*
X100713458Y-68068908D01*
X100177214Y-68427214D01*
X99818908Y-68963458D01*
X99693087Y-69596000D01*
X98977000Y-69596000D01*
X98977000Y-50927000D01*
X99016000Y-50927000D01*
X99016000Y-63754000D01*
X99038079Y-63865000D01*
X99048351Y-63916641D01*
X99140480Y-64054520D01*
X99648479Y-64562520D01*
X99699304Y-64596480D01*
X99786360Y-64654649D01*
X99949000Y-64687000D01*
X123135529Y-64687000D01*
X123098104Y-64777129D01*
X123097896Y-65015824D01*
X123189048Y-65236429D01*
X123357683Y-65405359D01*
X123578129Y-65496896D01*
X123696959Y-65497000D01*
X125175480Y-66975521D01*
X125313359Y-67067649D01*
X125476000Y-67100000D01*
X127839960Y-67100000D01*
X128131519Y-67391559D01*
X128050211Y-67425155D01*
X127751205Y-67723640D01*
X127589185Y-68113828D01*
X127588816Y-68536318D01*
X127750155Y-68926789D01*
X128048640Y-69225795D01*
X128438828Y-69387815D01*
X128861318Y-69388184D01*
X129251789Y-69226845D01*
X129550795Y-68928360D01*
X129712815Y-68538172D01*
X129713184Y-68115682D01*
X129551845Y-67725211D01*
X129253360Y-67426205D01*
X129076000Y-67352559D01*
X129076000Y-67310000D01*
X129066887Y-67264185D01*
X129043649Y-67147359D01*
X128951521Y-67009480D01*
X128316520Y-66374480D01*
X128178641Y-66282351D01*
X128151657Y-66276984D01*
X128016000Y-66250000D01*
X125652041Y-66250000D01*
X124298001Y-64895961D01*
X124298104Y-64778176D01*
X124260431Y-64687000D01*
X126479123Y-64687000D01*
X126479123Y-65747000D01*
X126500042Y-65858173D01*
X126565745Y-65960279D01*
X126665997Y-66028778D01*
X126785000Y-66052877D01*
X128485000Y-66052877D01*
X128596173Y-66031958D01*
X128698279Y-65966255D01*
X128766778Y-65866003D01*
X128790877Y-65747000D01*
X128790877Y-65126115D01*
X129048050Y-65126115D01*
X129221512Y-65539940D01*
X129540134Y-65855883D01*
X129945886Y-66023946D01*
X130125000Y-65970837D01*
X130125000Y-64947000D01*
X130225000Y-64947000D01*
X130225000Y-65970837D01*
X130404114Y-66023946D01*
X130809866Y-65855883D01*
X131128488Y-65539940D01*
X131301950Y-65126115D01*
X131248917Y-64947000D01*
X130225000Y-64947000D01*
X130125000Y-64947000D01*
X129101083Y-64947000D01*
X129048050Y-65126115D01*
X128790877Y-65126115D01*
X128790877Y-64047000D01*
X128769958Y-63935827D01*
X128704255Y-63833721D01*
X128651975Y-63798000D01*
X129878416Y-63798000D01*
X129540134Y-63938117D01*
X129221512Y-64254060D01*
X129048050Y-64667885D01*
X129101083Y-64847000D01*
X130125000Y-64847000D01*
X130125000Y-64827000D01*
X130225000Y-64827000D01*
X130225000Y-64847000D01*
X131248917Y-64847000D01*
X131301950Y-64667885D01*
X131128488Y-64254060D01*
X130809866Y-63938117D01*
X130471584Y-63798000D01*
X132588000Y-63798000D01*
X132723657Y-63771016D01*
X132750641Y-63765649D01*
X132888520Y-63673520D01*
X133015520Y-63546520D01*
X133107649Y-63408641D01*
X133117055Y-63361351D01*
X133140000Y-63246000D01*
X133140000Y-63137877D01*
X133490000Y-63137877D01*
X133601173Y-63116958D01*
X133703279Y-63051255D01*
X133771778Y-62951003D01*
X133795877Y-62832000D01*
X133795877Y-58832000D01*
X133774958Y-58720827D01*
X133709255Y-58618721D01*
X133609003Y-58550222D01*
X133490000Y-58526123D01*
X132290000Y-58526123D01*
X132178827Y-58547042D01*
X132076721Y-58612745D01*
X132008222Y-58712997D01*
X131984123Y-58832000D01*
X131984123Y-62832000D01*
X132005042Y-62943173D01*
X132008148Y-62948000D01*
X131772386Y-62948000D01*
X131795877Y-62832000D01*
X131795877Y-58832000D01*
X131774958Y-58720827D01*
X131709255Y-58618721D01*
X131609003Y-58550222D01*
X131490000Y-58526123D01*
X130290000Y-58526123D01*
X130178827Y-58547042D01*
X130076721Y-58612745D01*
X130008222Y-58712997D01*
X129984123Y-58832000D01*
X129984123Y-62832000D01*
X130005042Y-62943173D01*
X130008148Y-62948000D01*
X129766669Y-62948000D01*
X129790000Y-62891674D01*
X129790000Y-60957000D01*
X129715000Y-60882000D01*
X128940000Y-60882000D01*
X128940000Y-60902000D01*
X128840000Y-60902000D01*
X128840000Y-60882000D01*
X128065000Y-60882000D01*
X127990000Y-60957000D01*
X127990000Y-62891674D01*
X128013331Y-62948000D01*
X119422530Y-62948000D01*
X119339317Y-62864641D01*
X119118871Y-62773104D01*
X118880176Y-62772896D01*
X118659571Y-62864048D01*
X118490641Y-63032683D01*
X118399104Y-63253129D01*
X118398896Y-63491824D01*
X118490048Y-63712429D01*
X118614401Y-63837000D01*
X111888736Y-63837000D01*
X111978896Y-63619871D01*
X111979000Y-63501040D01*
X112652215Y-62827825D01*
X112689683Y-62865359D01*
X112910129Y-62956896D01*
X113148824Y-62957104D01*
X113369429Y-62865952D01*
X113538359Y-62697317D01*
X113629896Y-62476871D01*
X113630104Y-62238176D01*
X113623348Y-62221824D01*
X125129896Y-62221824D01*
X125221048Y-62442429D01*
X125389683Y-62611359D01*
X125610129Y-62702896D01*
X125848824Y-62703104D01*
X126069429Y-62611952D01*
X126238359Y-62443317D01*
X126329896Y-62222871D01*
X126330019Y-62081426D01*
X126376648Y-62011641D01*
X126376649Y-62011640D01*
X126409000Y-61849000D01*
X126409000Y-59866040D01*
X127502714Y-58772326D01*
X127990000Y-58772326D01*
X127990000Y-60707000D01*
X128065000Y-60782000D01*
X128840000Y-60782000D01*
X128840000Y-58607000D01*
X128940000Y-58607000D01*
X128940000Y-60782000D01*
X129715000Y-60782000D01*
X129790000Y-60707000D01*
X129790000Y-58772326D01*
X129744328Y-58662063D01*
X129659936Y-58577672D01*
X129549673Y-58532000D01*
X129015000Y-58532000D01*
X128940000Y-58607000D01*
X128840000Y-58607000D01*
X128765000Y-58532000D01*
X128230327Y-58532000D01*
X128120064Y-58577672D01*
X128035672Y-58662063D01*
X127990000Y-58772326D01*
X127502714Y-58772326D01*
X130430040Y-55845001D01*
X130547824Y-55845104D01*
X130768429Y-55753952D01*
X130937359Y-55585317D01*
X131028896Y-55364871D01*
X131029104Y-55126176D01*
X130937952Y-54905571D01*
X130769317Y-54736641D01*
X130548871Y-54645104D01*
X130310176Y-54644896D01*
X130089571Y-54736048D01*
X129920641Y-54904683D01*
X129829104Y-55125129D01*
X129829000Y-55243959D01*
X125683480Y-59389480D01*
X125591351Y-59527359D01*
X125591351Y-59527360D01*
X125559000Y-59690000D01*
X125559000Y-61524455D01*
X125390571Y-61594048D01*
X125221641Y-61762683D01*
X125130104Y-61983129D01*
X125129896Y-62221824D01*
X113623348Y-62221824D01*
X113538952Y-62017571D01*
X113370317Y-61848641D01*
X113171295Y-61766000D01*
X114300000Y-61766000D01*
X114435657Y-61739016D01*
X114462641Y-61733649D01*
X114600520Y-61641520D01*
X115825039Y-60417001D01*
X115942824Y-60417104D01*
X116163429Y-60325952D01*
X116332359Y-60157317D01*
X116423896Y-59936871D01*
X116424104Y-59698176D01*
X116333956Y-59480000D01*
X117425960Y-59480000D01*
X118398999Y-60453039D01*
X118398896Y-60570824D01*
X118490048Y-60791429D01*
X118614401Y-60916000D01*
X116805039Y-60916000D01*
X116805104Y-60841176D01*
X116713952Y-60620571D01*
X116545317Y-60451641D01*
X116324871Y-60360104D01*
X116086176Y-60359896D01*
X115865571Y-60451048D01*
X115696641Y-60619683D01*
X115605104Y-60840129D01*
X115604896Y-61078824D01*
X115696048Y-61299429D01*
X115864683Y-61468359D01*
X116085129Y-61559896D01*
X116203959Y-61560000D01*
X116285479Y-61641520D01*
X116336304Y-61675480D01*
X116423360Y-61733649D01*
X116586000Y-61766000D01*
X121793000Y-61766000D01*
X121928657Y-61739016D01*
X121955641Y-61733649D01*
X122093520Y-61641520D01*
X133399040Y-50336000D01*
X133477000Y-50336000D01*
X133612657Y-50309016D01*
X133639641Y-50303649D01*
X133777520Y-50211520D01*
X135050041Y-48939000D01*
X138049000Y-48939000D01*
X138184657Y-48912016D01*
X138211641Y-48906649D01*
X138349520Y-48814520D01*
X139190521Y-47973520D01*
X139282649Y-47835641D01*
X139315000Y-47673000D01*
X139315000Y-47137877D01*
X139490000Y-47137877D01*
X139601173Y-47116958D01*
X139703279Y-47051255D01*
X139771778Y-46951003D01*
X139795877Y-46832000D01*
X139795877Y-42832000D01*
X139774958Y-42720827D01*
X139709255Y-42618721D01*
X139609003Y-42550222D01*
X139490000Y-42526123D01*
X138290000Y-42526123D01*
X138178827Y-42547042D01*
X138076721Y-42612745D01*
X138008222Y-42712997D01*
X137984123Y-42832000D01*
X137984123Y-46832000D01*
X138005042Y-46943173D01*
X138070745Y-47045279D01*
X138170997Y-47113778D01*
X138290000Y-47137877D01*
X138465000Y-47137877D01*
X138465000Y-47496959D01*
X137872960Y-48089000D01*
X134874000Y-48089000D01*
X134711360Y-48121351D01*
X134711358Y-48121352D01*
X134711359Y-48121352D01*
X134573479Y-48213480D01*
X133300960Y-49486000D01*
X133223000Y-49486000D01*
X133087343Y-49512984D01*
X133060359Y-49518351D01*
X132922480Y-49610480D01*
X121616960Y-60916000D01*
X119383460Y-60916000D01*
X119507359Y-60792317D01*
X119598896Y-60571871D01*
X119599104Y-60333176D01*
X119507952Y-60112571D01*
X119339317Y-59943641D01*
X119118871Y-59852104D01*
X119000041Y-59852000D01*
X117902520Y-58754480D01*
X117764641Y-58662351D01*
X117737657Y-58656984D01*
X117602000Y-58630000D01*
X114497545Y-58630000D01*
X114427952Y-58461571D01*
X114259317Y-58292641D01*
X114038871Y-58201104D01*
X113800176Y-58200896D01*
X113579571Y-58292048D01*
X113410641Y-58460683D01*
X113319104Y-58681129D01*
X113318896Y-58919824D01*
X113349186Y-58993132D01*
X113276871Y-58963104D01*
X113038176Y-58962896D01*
X112817571Y-59054048D01*
X112733472Y-59138000D01*
X111633000Y-59138000D01*
X111470360Y-59170351D01*
X111470358Y-59170352D01*
X111470359Y-59170352D01*
X111332479Y-59262480D01*
X110948960Y-59646000D01*
X109601000Y-59646000D01*
X109438359Y-59678351D01*
X109300480Y-59770479D01*
X106678961Y-62391999D01*
X106561176Y-62391896D01*
X106340571Y-62483048D01*
X106171641Y-62651683D01*
X106080104Y-62872129D01*
X106079896Y-63110824D01*
X106171048Y-63331429D01*
X106339683Y-63500359D01*
X106560129Y-63591896D01*
X106798824Y-63592104D01*
X107019429Y-63500952D01*
X107188359Y-63332317D01*
X107279896Y-63111871D01*
X107280000Y-62993041D01*
X109777041Y-60496000D01*
X110498075Y-60496000D01*
X110443480Y-60532479D01*
X108075961Y-62899999D01*
X107958176Y-62899896D01*
X107737571Y-62991048D01*
X107568641Y-63159683D01*
X107477104Y-63380129D01*
X107476896Y-63618824D01*
X107567044Y-63837000D01*
X100125041Y-63837000D01*
X99866000Y-63577960D01*
X99866000Y-51575857D01*
X99948048Y-51774429D01*
X100116683Y-51943359D01*
X100337129Y-52034896D01*
X100575824Y-52035104D01*
X100796429Y-51943952D01*
X100965359Y-51775317D01*
X101056896Y-51554871D01*
X101057000Y-51436041D01*
X104313520Y-48179521D01*
X104375078Y-48087392D01*
X104405649Y-48041640D01*
X104438000Y-47879000D01*
X104438000Y-47623000D01*
X107916000Y-47623000D01*
X107916000Y-49057673D01*
X107961672Y-49167936D01*
X108046063Y-49252328D01*
X108156326Y-49298000D01*
X108841000Y-49298000D01*
X108916000Y-49223000D01*
X108916000Y-47548000D01*
X109016000Y-47548000D01*
X109016000Y-49223000D01*
X109091000Y-49298000D01*
X109775674Y-49298000D01*
X109885937Y-49252328D01*
X109970328Y-49167936D01*
X110016000Y-49057673D01*
X110016000Y-47623000D01*
X109941000Y-47548000D01*
X109016000Y-47548000D01*
X108916000Y-47548000D01*
X107991000Y-47548000D01*
X107916000Y-47623000D01*
X104438000Y-47623000D01*
X104438000Y-45938327D01*
X107916000Y-45938327D01*
X107916000Y-47373000D01*
X107991000Y-47448000D01*
X108916000Y-47448000D01*
X108916000Y-45773000D01*
X109016000Y-45773000D01*
X109016000Y-47448000D01*
X109941000Y-47448000D01*
X110016000Y-47373000D01*
X110016000Y-45938327D01*
X109974785Y-45838824D01*
X125129896Y-45838824D01*
X125221048Y-46059429D01*
X125389683Y-46228359D01*
X125610129Y-46319896D01*
X125848824Y-46320104D01*
X126069429Y-46228952D01*
X126238359Y-46060317D01*
X126329896Y-45839871D01*
X126330104Y-45601176D01*
X126238952Y-45380571D01*
X126070317Y-45211641D01*
X126028000Y-45194069D01*
X126028000Y-44034039D01*
X126102824Y-44034104D01*
X126323429Y-43942952D01*
X126492359Y-43774317D01*
X126583896Y-43553871D01*
X126584104Y-43315176D01*
X126492952Y-43094571D01*
X126324317Y-42925641D01*
X126103871Y-42834104D01*
X125865176Y-42833896D01*
X125644571Y-42925048D01*
X125475641Y-43093683D01*
X125384104Y-43314129D01*
X125384000Y-43432959D01*
X125302480Y-43514480D01*
X125210351Y-43652359D01*
X125210351Y-43652360D01*
X125178000Y-43815000D01*
X125178000Y-45484782D01*
X125130104Y-45600129D01*
X125129896Y-45838824D01*
X109974785Y-45838824D01*
X109970328Y-45828064D01*
X109885937Y-45743672D01*
X109775674Y-45698000D01*
X109091000Y-45698000D01*
X109016000Y-45773000D01*
X108916000Y-45773000D01*
X108841000Y-45698000D01*
X108156326Y-45698000D01*
X108046063Y-45743672D01*
X107961672Y-45828064D01*
X107916000Y-45938327D01*
X104438000Y-45938327D01*
X104438000Y-39800040D01*
X106475041Y-37763000D01*
X107910123Y-37763000D01*
X107910123Y-38838000D01*
X107931042Y-38949173D01*
X107996745Y-39051279D01*
X108096997Y-39119778D01*
X108216000Y-39143877D01*
X109716000Y-39143877D01*
X109827173Y-39122958D01*
X109929279Y-39057255D01*
X109997778Y-38957003D01*
X110021877Y-38838000D01*
X110021877Y-35838000D01*
X110000958Y-35726827D01*
X109935255Y-35624721D01*
X109835003Y-35556222D01*
X109716000Y-35532123D01*
X108216000Y-35532123D01*
X108104827Y-35553042D01*
X108002721Y-35618745D01*
X107934222Y-35718997D01*
X107910123Y-35838000D01*
X107910123Y-36913000D01*
X106299000Y-36913000D01*
X106136360Y-36945351D01*
X106136358Y-36945352D01*
X106136359Y-36945352D01*
X105998479Y-37037480D01*
X103712480Y-39323480D01*
X103620351Y-39461359D01*
X103620351Y-39461360D01*
X103588000Y-39624000D01*
X103588000Y-47702959D01*
X100455961Y-50834999D01*
X100338176Y-50834896D01*
X100117571Y-50926048D01*
X99948641Y-51094683D01*
X99866000Y-51293705D01*
X99866000Y-51103040D01*
X103424521Y-47544520D01*
X103516649Y-47406641D01*
X103549000Y-47244000D01*
X103549000Y-42926000D01*
X103530721Y-42834104D01*
X103516649Y-42763359D01*
X103424521Y-42625480D01*
X102561877Y-41762837D01*
X102561877Y-41318000D01*
X102540958Y-41206827D01*
X102475255Y-41104721D01*
X102375003Y-41036222D01*
X102256000Y-41012123D01*
X100756000Y-41012123D01*
X100644827Y-41033042D01*
X100542721Y-41098745D01*
X100474222Y-41198997D01*
X100450123Y-41318000D01*
X100450123Y-42018000D01*
X100471042Y-42129173D01*
X100536745Y-42231279D01*
X100636997Y-42299778D01*
X100756000Y-42323877D01*
X101920837Y-42323877D01*
X102699000Y-43102041D01*
X102699000Y-47067959D01*
X99140480Y-50626480D01*
X99048351Y-50764359D01*
X99048351Y-50764360D01*
X99016000Y-50927000D01*
X98977000Y-50927000D01*
X98977000Y-49960040D01*
X100887040Y-48050000D01*
X101219000Y-48050000D01*
X101354657Y-48023016D01*
X101381641Y-48017649D01*
X101519520Y-47925520D01*
X102535520Y-46909520D01*
X102627649Y-46771641D01*
X102644484Y-46687003D01*
X102660000Y-46609000D01*
X102660000Y-45397000D01*
X102641294Y-45302958D01*
X102627649Y-45234359D01*
X102543551Y-45108497D01*
X102561877Y-45018000D01*
X102561877Y-44318000D01*
X102540958Y-44206827D01*
X102475255Y-44104721D01*
X102375003Y-44036222D01*
X102256000Y-44012123D01*
X100756000Y-44012123D01*
X100644827Y-44033042D01*
X100542721Y-44098745D01*
X100474222Y-44198997D01*
X100450123Y-44318000D01*
X100450123Y-45018000D01*
X100471042Y-45129173D01*
X100536745Y-45231279D01*
X100581887Y-45262123D01*
X100456000Y-45262123D01*
X100344827Y-45283042D01*
X100242721Y-45348745D01*
X100174222Y-45448997D01*
X100150123Y-45568000D01*
X100150123Y-46568000D01*
X100171042Y-46679173D01*
X100236745Y-46781279D01*
X100336997Y-46849778D01*
X100456000Y-46873877D01*
X101256000Y-46873877D01*
X101367173Y-46852958D01*
X101431206Y-46811754D01*
X101042960Y-47200000D01*
X100711000Y-47200000D01*
X100575343Y-47226984D01*
X100548359Y-47232351D01*
X100410480Y-47324480D01*
X98251480Y-49483480D01*
X98165000Y-49612905D01*
X98165000Y-46857474D01*
X98246000Y-46873877D01*
X99046000Y-46873877D01*
X99157173Y-46852958D01*
X99259279Y-46787255D01*
X99327778Y-46687003D01*
X99351877Y-46568000D01*
X99351877Y-45568000D01*
X99330958Y-45456827D01*
X99265255Y-45354721D01*
X99165003Y-45286222D01*
X99046000Y-45262123D01*
X98246000Y-45262123D01*
X98165000Y-45277364D01*
X98165000Y-44066530D01*
X98995870Y-44066530D01*
X99109811Y-44342286D01*
X99320605Y-44553448D01*
X99596161Y-44667869D01*
X99894530Y-44668130D01*
X100170286Y-44554189D01*
X100381448Y-44343395D01*
X100495869Y-44067839D01*
X100496130Y-43769470D01*
X100382189Y-43493714D01*
X100171395Y-43282552D01*
X99895839Y-43168131D01*
X99597470Y-43167870D01*
X99321714Y-43281811D01*
X99110552Y-43492605D01*
X98996131Y-43768161D01*
X98995870Y-44066530D01*
X98165000Y-44066530D01*
X98165000Y-41066530D01*
X98995870Y-41066530D01*
X99109811Y-41342286D01*
X99320605Y-41553448D01*
X99596161Y-41667869D01*
X99894530Y-41668130D01*
X100170286Y-41554189D01*
X100381448Y-41343395D01*
X100495869Y-41067839D01*
X100496130Y-40769470D01*
X100382189Y-40493714D01*
X100171395Y-40282552D01*
X99895839Y-40168131D01*
X99597470Y-40167870D01*
X99321714Y-40281811D01*
X99110552Y-40492605D01*
X98996131Y-40768161D01*
X98995870Y-41066530D01*
X98165000Y-41066530D01*
X98165000Y-39557474D01*
X98246000Y-39573877D01*
X99046000Y-39573877D01*
X99157173Y-39552958D01*
X99259279Y-39487255D01*
X99327778Y-39387003D01*
X99351877Y-39268000D01*
X99351877Y-38268000D01*
X100150123Y-38268000D01*
X100150123Y-39268000D01*
X100171042Y-39379173D01*
X100236745Y-39481279D01*
X100336997Y-39549778D01*
X100456000Y-39573877D01*
X100581367Y-39573877D01*
X100542721Y-39598745D01*
X100474222Y-39698997D01*
X100450123Y-39818000D01*
X100450123Y-40518000D01*
X100471042Y-40629173D01*
X100536745Y-40731279D01*
X100636997Y-40799778D01*
X100756000Y-40823877D01*
X102256000Y-40823877D01*
X102367173Y-40802958D01*
X102469279Y-40737255D01*
X102537778Y-40637003D01*
X102561877Y-40518000D01*
X102561877Y-39818000D01*
X102540958Y-39706827D01*
X102475255Y-39604721D01*
X102375003Y-39536222D01*
X102256000Y-39512123D01*
X101430633Y-39512123D01*
X101469279Y-39487255D01*
X101537778Y-39387003D01*
X101561877Y-39268000D01*
X101561877Y-38268000D01*
X101540958Y-38156827D01*
X101475255Y-38054721D01*
X101375003Y-37986222D01*
X101256000Y-37962123D01*
X100456000Y-37962123D01*
X100344827Y-37983042D01*
X100242721Y-38048745D01*
X100174222Y-38148997D01*
X100150123Y-38268000D01*
X99351877Y-38268000D01*
X99330958Y-38156827D01*
X99265255Y-38054721D01*
X99165003Y-37986222D01*
X99046000Y-37962123D01*
X98246000Y-37962123D01*
X98165000Y-37977364D01*
X98165000Y-35596937D01*
X98220581Y-35317511D01*
X98357940Y-35111940D01*
X98563512Y-34974581D01*
X98842936Y-34919000D01*
X125944823Y-34919000D01*
X125944823Y-38989000D01*
X125944823Y-38989000D01*
G37*
X125944823Y-38989000D02*
X125965742Y-39100173D01*
X126031445Y-39202279D01*
X126131697Y-39270778D01*
X126250700Y-39294877D01*
X127520700Y-39294877D01*
X127631873Y-39273958D01*
X127733979Y-39208255D01*
X127802478Y-39108003D01*
X127826577Y-38989000D01*
X127826577Y-34919000D01*
X128091123Y-34919000D01*
X128091123Y-38481000D01*
X128112042Y-38592173D01*
X128177745Y-38694279D01*
X128277997Y-38762778D01*
X128290000Y-38765209D01*
X128290000Y-42526123D01*
X128178827Y-42547042D01*
X128076721Y-42612745D01*
X128008222Y-42712997D01*
X127984123Y-42832000D01*
X127984123Y-46832000D01*
X128005042Y-46943173D01*
X128070745Y-47045279D01*
X128170997Y-47113778D01*
X128290000Y-47137877D01*
X129490000Y-47137877D01*
X129601173Y-47116958D01*
X129703279Y-47051255D01*
X129771778Y-46951003D01*
X129795877Y-46832000D01*
X129795877Y-44957000D01*
X129990000Y-44957000D01*
X129990000Y-46891674D01*
X130035672Y-47001937D01*
X130120064Y-47086328D01*
X130230327Y-47132000D01*
X130765000Y-47132000D01*
X130840000Y-47057000D01*
X130840000Y-44882000D01*
X130940000Y-44882000D01*
X130940000Y-47057000D01*
X131015000Y-47132000D01*
X131549673Y-47132000D01*
X131659936Y-47086328D01*
X131744328Y-47001937D01*
X131790000Y-46891674D01*
X131790000Y-44957000D01*
X131715000Y-44882000D01*
X130940000Y-44882000D01*
X130840000Y-44882000D01*
X130065000Y-44882000D01*
X129990000Y-44957000D01*
X129795877Y-44957000D01*
X129795877Y-42832000D01*
X129784649Y-42772326D01*
X129990000Y-42772326D01*
X129990000Y-44707000D01*
X130065000Y-44782000D01*
X130840000Y-44782000D01*
X130840000Y-42607000D01*
X130940000Y-42607000D01*
X130940000Y-44782000D01*
X131715000Y-44782000D01*
X131790000Y-44707000D01*
X131790000Y-42832000D01*
X131984123Y-42832000D01*
X131984123Y-46832000D01*
X132005042Y-46943173D01*
X132070745Y-47045279D01*
X132170997Y-47113778D01*
X132290000Y-47137877D01*
X133490000Y-47137877D01*
X133601173Y-47116958D01*
X133703279Y-47051255D01*
X133771778Y-46951003D01*
X133795877Y-46832000D01*
X133795877Y-42832000D01*
X133984123Y-42832000D01*
X133984123Y-46832000D01*
X134005042Y-46943173D01*
X134070745Y-47045279D01*
X134170997Y-47113778D01*
X134290000Y-47137877D01*
X135490000Y-47137877D01*
X135601173Y-47116958D01*
X135703279Y-47051255D01*
X135771778Y-46951003D01*
X135795877Y-46832000D01*
X135795877Y-42832000D01*
X135984123Y-42832000D01*
X135984123Y-46832000D01*
X136005042Y-46943173D01*
X136070745Y-47045279D01*
X136170997Y-47113778D01*
X136290000Y-47137877D01*
X137490000Y-47137877D01*
X137601173Y-47116958D01*
X137703279Y-47051255D01*
X137771778Y-46951003D01*
X137795877Y-46832000D01*
X137795877Y-42832000D01*
X137774958Y-42720827D01*
X137709255Y-42618721D01*
X137609003Y-42550222D01*
X137490000Y-42526123D01*
X136290000Y-42526123D01*
X136178827Y-42547042D01*
X136076721Y-42612745D01*
X136008222Y-42712997D01*
X135984123Y-42832000D01*
X135795877Y-42832000D01*
X135774958Y-42720827D01*
X135709255Y-42618721D01*
X135609003Y-42550222D01*
X135490000Y-42526123D01*
X134290000Y-42526123D01*
X134178827Y-42547042D01*
X134076721Y-42612745D01*
X134008222Y-42712997D01*
X133984123Y-42832000D01*
X133795877Y-42832000D01*
X133774958Y-42720827D01*
X133709255Y-42618721D01*
X133609003Y-42550222D01*
X133490000Y-42526123D01*
X132290000Y-42526123D01*
X132178827Y-42547042D01*
X132076721Y-42612745D01*
X132008222Y-42712997D01*
X131984123Y-42832000D01*
X131790000Y-42832000D01*
X131790000Y-42772326D01*
X131744328Y-42662063D01*
X131659936Y-42577672D01*
X131549673Y-42532000D01*
X131015000Y-42532000D01*
X130940000Y-42607000D01*
X130840000Y-42607000D01*
X130765000Y-42532000D01*
X130230327Y-42532000D01*
X130120064Y-42577672D01*
X130035672Y-42662063D01*
X129990000Y-42772326D01*
X129784649Y-42772326D01*
X129774958Y-42720827D01*
X129709255Y-42618721D01*
X129609003Y-42550222D01*
X129490000Y-42526123D01*
X129490000Y-40044000D01*
X131314123Y-40044000D01*
X131314123Y-41744000D01*
X131335042Y-41855173D01*
X131400745Y-41957279D01*
X131500997Y-42025778D01*
X131620000Y-42049877D01*
X133620000Y-42049877D01*
X133731173Y-42028958D01*
X133833279Y-41963255D01*
X133901778Y-41863003D01*
X133925877Y-41744000D01*
X133925877Y-40044000D01*
X135314123Y-40044000D01*
X135314123Y-41744000D01*
X135335042Y-41855173D01*
X135400745Y-41957279D01*
X135500997Y-42025778D01*
X135620000Y-42049877D01*
X137620000Y-42049877D01*
X137731173Y-42028958D01*
X137833279Y-41963255D01*
X137901778Y-41863003D01*
X137925877Y-41744000D01*
X137925877Y-41319000D01*
X139427930Y-41319000D01*
X139445048Y-41360429D01*
X139613683Y-41529359D01*
X139834129Y-41620896D01*
X140072824Y-41621104D01*
X140293429Y-41529952D01*
X140462359Y-41361317D01*
X140553896Y-41140871D01*
X140554104Y-40902176D01*
X140462952Y-40681571D01*
X140294317Y-40512641D01*
X140073871Y-40421104D01*
X139835176Y-40420896D01*
X139718755Y-40469000D01*
X137925877Y-40469000D01*
X137925877Y-40044000D01*
X137904958Y-39932827D01*
X137839255Y-39830721D01*
X137739003Y-39762222D01*
X137620000Y-39738123D01*
X135620000Y-39738123D01*
X135508827Y-39759042D01*
X135406721Y-39824745D01*
X135338222Y-39924997D01*
X135314123Y-40044000D01*
X133925877Y-40044000D01*
X133904958Y-39932827D01*
X133839255Y-39830721D01*
X133739003Y-39762222D01*
X133620000Y-39738123D01*
X131620000Y-39738123D01*
X131508827Y-39759042D01*
X131406721Y-39824745D01*
X131338222Y-39924997D01*
X131314123Y-40044000D01*
X129490000Y-40044000D01*
X129490000Y-38786877D01*
X129667000Y-38786877D01*
X129778173Y-38765958D01*
X129880279Y-38700255D01*
X129948778Y-38600003D01*
X129972877Y-38481000D01*
X129972877Y-37018500D01*
X130243300Y-37018500D01*
X130243300Y-39048673D01*
X130288972Y-39158936D01*
X130373363Y-39243328D01*
X130483626Y-39289000D01*
X131053300Y-39289000D01*
X131128300Y-39214000D01*
X131128300Y-36943500D01*
X131228300Y-36943500D01*
X131228300Y-39214000D01*
X131303300Y-39289000D01*
X131872974Y-39289000D01*
X131983237Y-39243328D01*
X132067628Y-39158936D01*
X132111714Y-39052500D01*
X145637774Y-39052500D01*
X145799661Y-39866363D01*
X146260678Y-40556322D01*
X146950637Y-41017339D01*
X147764500Y-41179226D01*
X148578363Y-41017339D01*
X149268322Y-40556322D01*
X149729339Y-39866363D01*
X149891226Y-39052500D01*
X149729339Y-38238637D01*
X149268322Y-37548678D01*
X148578363Y-37087661D01*
X147764500Y-36925774D01*
X146950637Y-37087661D01*
X146260678Y-37548678D01*
X145799661Y-38238637D01*
X145637774Y-39052500D01*
X132111714Y-39052500D01*
X132113300Y-39048673D01*
X132113300Y-37018500D01*
X132038300Y-36943500D01*
X131228300Y-36943500D01*
X131128300Y-36943500D01*
X130318300Y-36943500D01*
X130243300Y-37018500D01*
X129972877Y-37018500D01*
X129972877Y-34919000D01*
X130243300Y-34919000D01*
X130243300Y-36768500D01*
X130318300Y-36843500D01*
X131128300Y-36843500D01*
X131128300Y-36823500D01*
X131228300Y-36823500D01*
X131228300Y-36843500D01*
X132038300Y-36843500D01*
X132113300Y-36768500D01*
X132113300Y-34919000D01*
X150077063Y-34919000D01*
X150356489Y-34974581D01*
X150562060Y-35111940D01*
X150699419Y-35317512D01*
X150755000Y-35596936D01*
X150755000Y-51390906D01*
X150705067Y-51316176D01*
X150668520Y-51261479D01*
X149282980Y-49875940D01*
X149470824Y-49876104D01*
X149691429Y-49784952D01*
X149860359Y-49616317D01*
X149951896Y-49395871D01*
X149952104Y-49157176D01*
X149860952Y-48936571D01*
X149692317Y-48767641D01*
X149471871Y-48676104D01*
X149330426Y-48675981D01*
X149260641Y-48629351D01*
X149233657Y-48623984D01*
X149098000Y-48597000D01*
X147274041Y-48597000D01*
X146650001Y-47972961D01*
X146650104Y-47855176D01*
X146558952Y-47634571D01*
X146390317Y-47465641D01*
X146169871Y-47374104D01*
X145931176Y-47373896D01*
X145710571Y-47465048D01*
X145541641Y-47633683D01*
X145450104Y-47854129D01*
X145449896Y-48092824D01*
X145541048Y-48313429D01*
X145709683Y-48482359D01*
X145930129Y-48573896D01*
X146048959Y-48574000D01*
X146797480Y-49322521D01*
X146935359Y-49414649D01*
X147098000Y-49447000D01*
X148773455Y-49447000D01*
X148842044Y-49613000D01*
X142289040Y-49613000D01*
X141524520Y-48848480D01*
X141386641Y-48756351D01*
X141359657Y-48750984D01*
X141224000Y-48724000D01*
X140758530Y-48724000D01*
X140675317Y-48640641D01*
X140454871Y-48549104D01*
X140216176Y-48548896D01*
X140084903Y-48603137D01*
X140384040Y-48304000D01*
X141351000Y-48304000D01*
X141486657Y-48277016D01*
X141513641Y-48271649D01*
X141651520Y-48179520D01*
X142159520Y-47671521D01*
X142251648Y-47533641D01*
X142251649Y-47533640D01*
X142284000Y-47371000D01*
X142284000Y-47136662D01*
X142290000Y-47137877D01*
X143490000Y-47137877D01*
X143601173Y-47116958D01*
X143703279Y-47051255D01*
X143771778Y-46951003D01*
X143795877Y-46832000D01*
X143795877Y-42832000D01*
X143774958Y-42720827D01*
X143709255Y-42618721D01*
X143609003Y-42550222D01*
X143490000Y-42526123D01*
X142290000Y-42526123D01*
X142284000Y-42527252D01*
X142284000Y-41959040D01*
X142797041Y-41446000D01*
X143467470Y-41446000D01*
X143550683Y-41529359D01*
X143771129Y-41620896D01*
X144009824Y-41621104D01*
X144230429Y-41529952D01*
X144399359Y-41361317D01*
X144490896Y-41140871D01*
X144491104Y-40902176D01*
X144399952Y-40681571D01*
X144231317Y-40512641D01*
X144010871Y-40421104D01*
X143772176Y-40420896D01*
X143551571Y-40512048D01*
X143467472Y-40596000D01*
X142621000Y-40596000D01*
X142458359Y-40628351D01*
X142320480Y-40720479D01*
X141558480Y-41482480D01*
X141466351Y-41620359D01*
X141466351Y-41620360D01*
X141434000Y-41783000D01*
X141434000Y-42526123D01*
X140290000Y-42526123D01*
X140178827Y-42547042D01*
X140076721Y-42612745D01*
X140008222Y-42712997D01*
X139984123Y-42832000D01*
X139984123Y-46832000D01*
X140005042Y-46943173D01*
X140070745Y-47045279D01*
X140170997Y-47113778D01*
X140290000Y-47137877D01*
X141434000Y-47137877D01*
X141434000Y-47194959D01*
X141174960Y-47454000D01*
X140208000Y-47454000D01*
X140072343Y-47480984D01*
X140045359Y-47486351D01*
X139907480Y-47578480D01*
X138764480Y-48721480D01*
X138672351Y-48859359D01*
X138672351Y-48859360D01*
X138640000Y-49022000D01*
X138640000Y-50602455D01*
X138471571Y-50672048D01*
X138302641Y-50840683D01*
X138211104Y-51061129D01*
X138210896Y-51299824D01*
X138302048Y-51520429D01*
X138470683Y-51689359D01*
X138691129Y-51780896D01*
X138929824Y-51781104D01*
X139150429Y-51689952D01*
X139319359Y-51521317D01*
X139410896Y-51300871D01*
X139411019Y-51159426D01*
X139457648Y-51089641D01*
X139457649Y-51089640D01*
X139490000Y-50927000D01*
X139490000Y-49198040D01*
X139789208Y-48898832D01*
X139735104Y-49029129D01*
X139734896Y-49267824D01*
X139826048Y-49488429D01*
X139994683Y-49657359D01*
X140215129Y-49748896D01*
X140453824Y-49749104D01*
X140674429Y-49657952D01*
X140758528Y-49574000D01*
X141047960Y-49574000D01*
X141812480Y-50338520D01*
X141950359Y-50430649D01*
X142113000Y-50463000D01*
X148667960Y-50463000D01*
X149943000Y-51738041D01*
X149943000Y-59676143D01*
X149860952Y-59477571D01*
X149692317Y-59308641D01*
X149471871Y-59217104D01*
X149353041Y-59217000D01*
X148382520Y-58246480D01*
X148244641Y-58154351D01*
X148217657Y-58148984D01*
X148082000Y-58122000D01*
X148047039Y-58122000D01*
X148047104Y-58047176D01*
X147955952Y-57826571D01*
X147787317Y-57657641D01*
X147566871Y-57566104D01*
X147328176Y-57565896D01*
X147107571Y-57657048D01*
X146938641Y-57825683D01*
X146847104Y-58046129D01*
X146846896Y-58284824D01*
X146938048Y-58505429D01*
X147106683Y-58674359D01*
X147327129Y-58765896D01*
X147445959Y-58766000D01*
X147527479Y-58847520D01*
X147594586Y-58892359D01*
X147665360Y-58939649D01*
X147828000Y-58972000D01*
X147905960Y-58972000D01*
X148751999Y-59818039D01*
X148751896Y-59935824D01*
X148843048Y-60156429D01*
X149011683Y-60325359D01*
X149232129Y-60416896D01*
X149470824Y-60417104D01*
X149691429Y-60325952D01*
X149860359Y-60157317D01*
X149943000Y-59958295D01*
X149943000Y-89612959D01*
X149556960Y-89999000D01*
X129335041Y-89999000D01*
X129076000Y-89739960D01*
X129076000Y-89619479D01*
X129251789Y-89546845D01*
X129550795Y-89248360D01*
X129712815Y-88858172D01*
X129713184Y-88435682D01*
X129551845Y-88045211D01*
X129253360Y-87746205D01*
X128863172Y-87584185D01*
X128440682Y-87583816D01*
X128050211Y-87745155D01*
X127751205Y-88043640D01*
X127589185Y-88433828D01*
X127588816Y-88856318D01*
X127750155Y-89246789D01*
X128048640Y-89545795D01*
X128226000Y-89619441D01*
X128226000Y-89916000D01*
X128235083Y-89961661D01*
X128258351Y-90078641D01*
X128350480Y-90216520D01*
X128858479Y-90724520D01*
X128905931Y-90756226D01*
X128996360Y-90816649D01*
X129159000Y-90849000D01*
X149733000Y-90849000D01*
X149868657Y-90822016D01*
X149895641Y-90816649D01*
X150033520Y-90724520D01*
X150668521Y-90089520D01*
X150755000Y-89960095D01*
X150755000Y-90133064D01*
X150680085Y-90509689D01*
X150487666Y-90797666D01*
X150199689Y-90990085D01*
X149823068Y-91065000D01*
X99096936Y-91065000D01*
X98720311Y-90990085D01*
X98432334Y-90797666D01*
X98239915Y-90509689D01*
X98165000Y-90133068D01*
X98165000Y-87376000D01*
X99701000Y-87376000D01*
X99826218Y-88005514D01*
X100182809Y-88539191D01*
X100716486Y-88895782D01*
X101346000Y-89021000D01*
X101975514Y-88895782D01*
X102509191Y-88539191D01*
X102865782Y-88005514D01*
X102991000Y-87376000D01*
X102865782Y-86746486D01*
X102509191Y-86212809D01*
X101975514Y-85856218D01*
X101346000Y-85731000D01*
X100716486Y-85856218D01*
X100182809Y-86212809D01*
X99826218Y-86746486D01*
X99701000Y-87376000D01*
X98165000Y-87376000D01*
X98165000Y-83483095D01*
X98251480Y-83612520D01*
X99394480Y-84755520D01*
X99532359Y-84847649D01*
X99559343Y-84853016D01*
X99695000Y-84880000D01*
X107646960Y-84880000D01*
X111713480Y-88946520D01*
X111851359Y-89038649D01*
X111878343Y-89044016D01*
X112014000Y-89071000D01*
X114977521Y-89071000D01*
X115050155Y-89246789D01*
X115348640Y-89545795D01*
X115738828Y-89707815D01*
X116161318Y-89708184D01*
X116551789Y-89546845D01*
X116850795Y-89248360D01*
X117012815Y-88858172D01*
X117012816Y-88856318D01*
X117428816Y-88856318D01*
X117590155Y-89246789D01*
X117888640Y-89545795D01*
X118278828Y-89707815D01*
X118701318Y-89708184D01*
X119091789Y-89546845D01*
X119390795Y-89248360D01*
X119552815Y-88858172D01*
X119552816Y-88856318D01*
X119968816Y-88856318D01*
X120130155Y-89246789D01*
X120428640Y-89545795D01*
X120818828Y-89707815D01*
X121241318Y-89708184D01*
X121631789Y-89546845D01*
X121930795Y-89248360D01*
X122092815Y-88858172D01*
X122093184Y-88435682D01*
X121931845Y-88045211D01*
X121633360Y-87746205D01*
X121243172Y-87584185D01*
X120820682Y-87583816D01*
X120430211Y-87745155D01*
X120131205Y-88043640D01*
X119969185Y-88433828D01*
X119968816Y-88856318D01*
X119552816Y-88856318D01*
X119553184Y-88435682D01*
X119391845Y-88045211D01*
X119093360Y-87746205D01*
X118703172Y-87584185D01*
X118280682Y-87583816D01*
X117890211Y-87745155D01*
X117591205Y-88043640D01*
X117429185Y-88433828D01*
X117428816Y-88856318D01*
X117012816Y-88856318D01*
X117013184Y-88435682D01*
X116851845Y-88045211D01*
X116553360Y-87746205D01*
X116163172Y-87584185D01*
X115740682Y-87583816D01*
X115350211Y-87745155D01*
X115051205Y-88043640D01*
X114977559Y-88221000D01*
X112190040Y-88221000D01*
X108123520Y-84154480D01*
X108068925Y-84118000D01*
X119457960Y-84118000D01*
X123051519Y-87711559D01*
X122970211Y-87745155D01*
X122671205Y-88043640D01*
X122509185Y-88433828D01*
X122508816Y-88856318D01*
X122670155Y-89246789D01*
X122968640Y-89545795D01*
X123358828Y-89707815D01*
X123781318Y-89708184D01*
X124171789Y-89546845D01*
X124470795Y-89248360D01*
X124632815Y-88858172D01*
X124632816Y-88856318D01*
X125048816Y-88856318D01*
X125210155Y-89246789D01*
X125508640Y-89545795D01*
X125898828Y-89707815D01*
X126321318Y-89708184D01*
X126711789Y-89546845D01*
X127010795Y-89248360D01*
X127172815Y-88858172D01*
X127173184Y-88435682D01*
X127011845Y-88045211D01*
X126713360Y-87746205D01*
X126323172Y-87584185D01*
X125900682Y-87583816D01*
X125510211Y-87745155D01*
X125211205Y-88043640D01*
X125049185Y-88433828D01*
X125048816Y-88856318D01*
X124632816Y-88856318D01*
X124633184Y-88435682D01*
X124471845Y-88045211D01*
X124173360Y-87746205D01*
X123996000Y-87672559D01*
X123996000Y-87630000D01*
X123986887Y-87584185D01*
X123963649Y-87467359D01*
X123871521Y-87329480D01*
X119934520Y-83392480D01*
X119796641Y-83300351D01*
X119769657Y-83294984D01*
X119634000Y-83268000D01*
X100729070Y-83268000D01*
X100711952Y-83226571D01*
X100543317Y-83057641D01*
X100348858Y-82976895D01*
X100548591Y-82975512D01*
X100925327Y-82819463D01*
X101006394Y-82662104D01*
X100330000Y-81985711D01*
X99653606Y-82662104D01*
X99734673Y-82819463D01*
X100095256Y-82965906D01*
X100084176Y-82965896D01*
X99863571Y-83057048D01*
X99694641Y-83225683D01*
X99603104Y-83446129D01*
X99602896Y-83684824D01*
X99657137Y-83816097D01*
X98977000Y-83135960D01*
X98977000Y-81711112D01*
X99266563Y-81711112D01*
X99269488Y-82133591D01*
X99425537Y-82510327D01*
X99582896Y-82591394D01*
X100259289Y-81915000D01*
X100400711Y-81915000D01*
X101077104Y-82591394D01*
X101234463Y-82510327D01*
X101393437Y-82118888D01*
X101390512Y-81696409D01*
X101234463Y-81319673D01*
X101077104Y-81238606D01*
X100400711Y-81915000D01*
X100259289Y-81915000D01*
X99582896Y-81238606D01*
X99425537Y-81319673D01*
X99266563Y-81711112D01*
X98977000Y-81711112D01*
X98977000Y-81167896D01*
X99653606Y-81167896D01*
X100330000Y-81844289D01*
X101006394Y-81167896D01*
X100925327Y-81010537D01*
X100533888Y-80851563D01*
X100111409Y-80854488D01*
X99734673Y-81010537D01*
X99653606Y-81167896D01*
X98977000Y-81167896D01*
X98977000Y-79585318D01*
X99267816Y-79585318D01*
X99429155Y-79975789D01*
X99727640Y-80274795D01*
X100117828Y-80436815D01*
X100540318Y-80437184D01*
X100930789Y-80275845D01*
X101229795Y-79977360D01*
X101391815Y-79587172D01*
X101392184Y-79164682D01*
X101230845Y-78774211D01*
X100932360Y-78475205D01*
X100542172Y-78313185D01*
X100119682Y-78312816D01*
X99729211Y-78474155D01*
X99430205Y-78772640D01*
X99268185Y-79162828D01*
X99267816Y-79585318D01*
X98977000Y-79585318D01*
X98977000Y-77045318D01*
X99267816Y-77045318D01*
X99429155Y-77435789D01*
X99727640Y-77734795D01*
X100117828Y-77896815D01*
X100540318Y-77897184D01*
X100930789Y-77735845D01*
X101229795Y-77437360D01*
X101391815Y-77047172D01*
X101392184Y-76625000D01*
X112254143Y-76625000D01*
X112055571Y-76707048D01*
X111886641Y-76875683D01*
X111795104Y-77096129D01*
X111794896Y-77334824D01*
X111886048Y-77555429D01*
X112054683Y-77724359D01*
X112275129Y-77815896D01*
X112513824Y-77816104D01*
X112734429Y-77724952D01*
X112818528Y-77641000D01*
X113234960Y-77641000D01*
X113872480Y-78278521D01*
X114010359Y-78370649D01*
X114173000Y-78403000D01*
X117092264Y-78403000D01*
X117002104Y-78620129D01*
X117001896Y-78858824D01*
X117093048Y-79079429D01*
X117261683Y-79248359D01*
X117482129Y-79339896D01*
X117720824Y-79340104D01*
X117941429Y-79248952D01*
X118025528Y-79165000D01*
X124537960Y-79165000D01*
X130766000Y-85393041D01*
X130766000Y-87672521D01*
X130590211Y-87745155D01*
X130291205Y-88043640D01*
X130129185Y-88433828D01*
X130128816Y-88856318D01*
X130290155Y-89246789D01*
X130588640Y-89545795D01*
X130978828Y-89707815D01*
X131401318Y-89708184D01*
X131791789Y-89546845D01*
X132090795Y-89248360D01*
X132252815Y-88858172D01*
X132252816Y-88856318D01*
X132668816Y-88856318D01*
X132830155Y-89246789D01*
X133128640Y-89545795D01*
X133518828Y-89707815D01*
X133941318Y-89708184D01*
X134331789Y-89546845D01*
X134630795Y-89248360D01*
X134792815Y-88858172D01*
X134793184Y-88435682D01*
X134631845Y-88045211D01*
X134333360Y-87746205D01*
X133943172Y-87584185D01*
X133520682Y-87583816D01*
X133130211Y-87745155D01*
X132831205Y-88043640D01*
X132669185Y-88433828D01*
X132668816Y-88856318D01*
X132252816Y-88856318D01*
X132253184Y-88435682D01*
X132091845Y-88045211D01*
X131793360Y-87746205D01*
X131616000Y-87672559D01*
X131616000Y-86224824D01*
X131733896Y-86224824D01*
X131825048Y-86445429D01*
X131993683Y-86614359D01*
X132214129Y-86705896D01*
X132452824Y-86706104D01*
X132673429Y-86614952D01*
X132757528Y-86531000D01*
X134323470Y-86531000D01*
X134406683Y-86614359D01*
X134627129Y-86705896D01*
X134865824Y-86706104D01*
X135086429Y-86614952D01*
X135255359Y-86446317D01*
X135346896Y-86225871D01*
X135347104Y-85987176D01*
X135255952Y-85766571D01*
X135087317Y-85597641D01*
X134866871Y-85506104D01*
X134628176Y-85505896D01*
X134407571Y-85597048D01*
X134323472Y-85681000D01*
X132757530Y-85681000D01*
X132674317Y-85597641D01*
X132453871Y-85506104D01*
X132215176Y-85505896D01*
X131994571Y-85597048D01*
X131825641Y-85765683D01*
X131734104Y-85986129D01*
X131733896Y-86224824D01*
X131616000Y-86224824D01*
X131616000Y-85217000D01*
X131583649Y-85054360D01*
X131553078Y-85008608D01*
X131491520Y-84916479D01*
X125014520Y-78439480D01*
X124959925Y-78403000D01*
X125426960Y-78403000D01*
X125683479Y-78659520D01*
X125775608Y-78721078D01*
X125821360Y-78751649D01*
X125984000Y-78784000D01*
X129236960Y-78784000D01*
X135846000Y-85393041D01*
X135846000Y-87672521D01*
X135670211Y-87745155D01*
X135371205Y-88043640D01*
X135209185Y-88433828D01*
X135208816Y-88856318D01*
X135370155Y-89246789D01*
X135668640Y-89545795D01*
X136058828Y-89707815D01*
X136481318Y-89708184D01*
X136871789Y-89546845D01*
X137170795Y-89248360D01*
X137332815Y-88858172D01*
X137333184Y-88435682D01*
X137171845Y-88045211D01*
X136873360Y-87746205D01*
X136696000Y-87672559D01*
X136696000Y-85217000D01*
X136663649Y-85054360D01*
X136663649Y-85054359D01*
X136571521Y-84916480D01*
X129713520Y-78058480D01*
X129575641Y-77966351D01*
X129548657Y-77960984D01*
X129413000Y-77934000D01*
X126160041Y-77934000D01*
X125903520Y-77677480D01*
X125765641Y-77585351D01*
X125738657Y-77579984D01*
X125603000Y-77553000D01*
X115065460Y-77553000D01*
X115104528Y-77514000D01*
X130125960Y-77514000D01*
X138386000Y-85774041D01*
X138386000Y-87672521D01*
X138210211Y-87745155D01*
X137911205Y-88043640D01*
X137749185Y-88433828D01*
X137748816Y-88856318D01*
X137910155Y-89246789D01*
X138208640Y-89545795D01*
X138598828Y-89707815D01*
X139021318Y-89708184D01*
X139411789Y-89546845D01*
X139710795Y-89248360D01*
X139872815Y-88858172D01*
X139873184Y-88435682D01*
X139711845Y-88045211D01*
X139413360Y-87746205D01*
X139236000Y-87672559D01*
X139236000Y-85598000D01*
X139203649Y-85435360D01*
X139166419Y-85379641D01*
X139111520Y-85297479D01*
X130602520Y-76788480D01*
X130464641Y-76696351D01*
X130437657Y-76690984D01*
X130302000Y-76664000D01*
X115104530Y-76664000D01*
X115065599Y-76625000D01*
X130887960Y-76625000D01*
X140926000Y-86663040D01*
X140926000Y-87672521D01*
X140750211Y-87745155D01*
X140451205Y-88043640D01*
X140289185Y-88433828D01*
X140288816Y-88856318D01*
X140450155Y-89246789D01*
X140748640Y-89545795D01*
X141138828Y-89707815D01*
X141561318Y-89708184D01*
X141951789Y-89546845D01*
X142250795Y-89248360D01*
X142412815Y-88858172D01*
X142413184Y-88435682D01*
X142251845Y-88045211D01*
X141953360Y-87746205D01*
X141776000Y-87672559D01*
X141776000Y-86487000D01*
X141759992Y-86406520D01*
X141743649Y-86324359D01*
X141651520Y-86186480D01*
X131364520Y-75899480D01*
X131226641Y-75807351D01*
X131199657Y-75801984D01*
X131064000Y-75775000D01*
X100965000Y-75775000D01*
X100802359Y-75807351D01*
X100734174Y-75852911D01*
X100542172Y-75773185D01*
X100119682Y-75772816D01*
X99729211Y-75934155D01*
X99430205Y-76232640D01*
X99268185Y-76622828D01*
X99267816Y-77045318D01*
X98977000Y-77045318D01*
X98977000Y-74505318D01*
X99267816Y-74505318D01*
X99429155Y-74895789D01*
X99727640Y-75194795D01*
X100117828Y-75356815D01*
X100540318Y-75357184D01*
X100930789Y-75195845D01*
X101229795Y-74897360D01*
X101356176Y-74593000D01*
X130125960Y-74593000D01*
X143284158Y-87751198D01*
X142991205Y-88043640D01*
X142829185Y-88433828D01*
X142828816Y-88856318D01*
X142990155Y-89246789D01*
X143288640Y-89545795D01*
X143678828Y-89707815D01*
X144101318Y-89708184D01*
X144491789Y-89546845D01*
X144790795Y-89248360D01*
X144952815Y-88858172D01*
X144953184Y-88435682D01*
X144791845Y-88045211D01*
X144493360Y-87746205D01*
X144297691Y-87664956D01*
X144283649Y-87594360D01*
X144283649Y-87594359D01*
X144191520Y-87456480D01*
X144111040Y-87376000D01*
X145546866Y-87376000D01*
X145710840Y-88200351D01*
X146177797Y-88899203D01*
X146876649Y-89366160D01*
X147701000Y-89530134D01*
X148525351Y-89366160D01*
X149224203Y-88899203D01*
X149691160Y-88200351D01*
X149855134Y-87376000D01*
X149691160Y-86551649D01*
X149224203Y-85852797D01*
X148525351Y-85385840D01*
X147701000Y-85221866D01*
X146876649Y-85385840D01*
X146177797Y-85852797D01*
X145710840Y-86551649D01*
X145546866Y-87376000D01*
X144111040Y-87376000D01*
X130602520Y-73867480D01*
X130464641Y-73775351D01*
X130437657Y-73769984D01*
X130302000Y-73743000D01*
X121413736Y-73743000D01*
X121503896Y-73525871D01*
X121504104Y-73287176D01*
X121449863Y-73155903D01*
X121873480Y-73579520D01*
X122011359Y-73671649D01*
X122038343Y-73677016D01*
X122174000Y-73704000D01*
X130887960Y-73704000D01*
X139653480Y-82469521D01*
X139791359Y-82561649D01*
X139954000Y-82594000D01*
X142367000Y-82594000D01*
X142502657Y-82567016D01*
X142529641Y-82561649D01*
X142667520Y-82469520D01*
X143992216Y-81144824D01*
X146592896Y-81144824D01*
X146684048Y-81365429D01*
X146852683Y-81534359D01*
X147073129Y-81625896D01*
X147311824Y-81626104D01*
X147532429Y-81534952D01*
X147701359Y-81366317D01*
X147792896Y-81145871D01*
X147793000Y-81027040D01*
X148512040Y-80308000D01*
X148674470Y-80308000D01*
X148757683Y-80391359D01*
X148978129Y-80482896D01*
X149216824Y-80483104D01*
X149437429Y-80391952D01*
X149606359Y-80223317D01*
X149697896Y-80002871D01*
X149698104Y-79764176D01*
X149606952Y-79543571D01*
X149438317Y-79374641D01*
X149217871Y-79283104D01*
X148979176Y-79282896D01*
X148758571Y-79374048D01*
X148674472Y-79458000D01*
X148336000Y-79458000D01*
X148200343Y-79484984D01*
X148173359Y-79490351D01*
X148035480Y-79582480D01*
X147191961Y-80425999D01*
X147074176Y-80425896D01*
X146853571Y-80517048D01*
X146684641Y-80685683D01*
X146593104Y-80906129D01*
X146592896Y-81144824D01*
X143992216Y-81144824D01*
X144064520Y-81072521D01*
X144156648Y-80934641D01*
X144156649Y-80934640D01*
X144189000Y-80772000D01*
X144189000Y-78154040D01*
X145920786Y-76422254D01*
X146038571Y-76422357D01*
X146259176Y-76331205D01*
X146428106Y-76162570D01*
X146519643Y-75942124D01*
X146519851Y-75703429D01*
X146428699Y-75482824D01*
X146260064Y-75313894D01*
X146039618Y-75222357D01*
X145800923Y-75222149D01*
X145580318Y-75313301D01*
X145411388Y-75481936D01*
X145319851Y-75702382D01*
X145319747Y-75821212D01*
X143463480Y-77677480D01*
X143371351Y-77815359D01*
X143371351Y-77815360D01*
X143339000Y-77978000D01*
X143339000Y-80595959D01*
X142190960Y-81744000D01*
X140130041Y-81744000D01*
X131455040Y-73069000D01*
X132842000Y-73069000D01*
X132977657Y-73042016D01*
X133004641Y-73036649D01*
X133142520Y-72944520D01*
X134031520Y-72055520D01*
X134123649Y-71917641D01*
X134156000Y-71755000D01*
X134156000Y-69596000D01*
X145536697Y-69596000D01*
X145701445Y-70424243D01*
X146170607Y-71126393D01*
X146872757Y-71595555D01*
X147701000Y-71760303D01*
X148529243Y-71595555D01*
X149231393Y-71126393D01*
X149700555Y-70424243D01*
X149865303Y-69596000D01*
X149700555Y-68767757D01*
X149231393Y-68065607D01*
X148529243Y-67596445D01*
X147701000Y-67431697D01*
X146872757Y-67596445D01*
X146170607Y-68065607D01*
X145701445Y-68767757D01*
X145536697Y-69596000D01*
X134156000Y-69596000D01*
X134156000Y-69299479D01*
X134331789Y-69226845D01*
X134630795Y-68928360D01*
X134792815Y-68538172D01*
X134792816Y-68536318D01*
X135208816Y-68536318D01*
X135370155Y-68926789D01*
X135668640Y-69225795D01*
X136058828Y-69387815D01*
X136481318Y-69388184D01*
X136871789Y-69226845D01*
X137170795Y-68928360D01*
X137332815Y-68538172D01*
X137332816Y-68536318D01*
X137748816Y-68536318D01*
X137910155Y-68926789D01*
X138208640Y-69225795D01*
X138598828Y-69387815D01*
X139021318Y-69388184D01*
X139411789Y-69226845D01*
X139710795Y-68928360D01*
X139872815Y-68538172D01*
X139872816Y-68536318D01*
X140288816Y-68536318D01*
X140450155Y-68926789D01*
X140748640Y-69225795D01*
X141138828Y-69387815D01*
X141561318Y-69388184D01*
X141951789Y-69226845D01*
X142250795Y-68928360D01*
X142412815Y-68538172D01*
X142413184Y-68115682D01*
X142251845Y-67725211D01*
X141953360Y-67426205D01*
X141563172Y-67264185D01*
X141140682Y-67263816D01*
X140750211Y-67425155D01*
X140451205Y-67723640D01*
X140289185Y-68113828D01*
X140288816Y-68536318D01*
X139872816Y-68536318D01*
X139873184Y-68115682D01*
X139711845Y-67725211D01*
X139413360Y-67426205D01*
X139023172Y-67264185D01*
X138600682Y-67263816D01*
X138210211Y-67425155D01*
X137911205Y-67723640D01*
X137749185Y-68113828D01*
X137748816Y-68536318D01*
X137332816Y-68536318D01*
X137333184Y-68115682D01*
X137171845Y-67725211D01*
X137068427Y-67621613D01*
X138150216Y-66539824D01*
X141258896Y-66539824D01*
X141350048Y-66760429D01*
X141518683Y-66929359D01*
X141739129Y-67020896D01*
X141857960Y-67021000D01*
X142864864Y-68027904D01*
X142829185Y-68113828D01*
X142828816Y-68536318D01*
X142990155Y-68926789D01*
X143288640Y-69225795D01*
X143678828Y-69387815D01*
X144101318Y-69388184D01*
X144491789Y-69226845D01*
X144790795Y-68928360D01*
X144952815Y-68538172D01*
X144953184Y-68115682D01*
X144791845Y-67725211D01*
X144493360Y-67426205D01*
X144103172Y-67264185D01*
X143680682Y-67263816D01*
X143413325Y-67374285D01*
X142459001Y-66419961D01*
X142459104Y-66302176D01*
X142367952Y-66081571D01*
X142199317Y-65912641D01*
X141978871Y-65821104D01*
X141740176Y-65820896D01*
X141519571Y-65912048D01*
X141350641Y-66080683D01*
X141259104Y-66301129D01*
X141258896Y-66539824D01*
X138150216Y-66539824D01*
X139114041Y-65576000D01*
X140589000Y-65576000D01*
X140724657Y-65549016D01*
X140751641Y-65543649D01*
X140889520Y-65451520D01*
X141270520Y-65070521D01*
X141362648Y-64932641D01*
X141362649Y-64932640D01*
X141395000Y-64770000D01*
X141395000Y-63137877D01*
X141490000Y-63137877D01*
X141601173Y-63116958D01*
X141703279Y-63051255D01*
X141771778Y-62951003D01*
X141795877Y-62832000D01*
X141795877Y-60957000D01*
X141990000Y-60957000D01*
X141990000Y-62891674D01*
X142035672Y-63001937D01*
X142120064Y-63086328D01*
X142230327Y-63132000D01*
X142765000Y-63132000D01*
X142840000Y-63057000D01*
X142840000Y-60882000D01*
X142940000Y-60882000D01*
X142940000Y-63057000D01*
X143015000Y-63132000D01*
X143549673Y-63132000D01*
X143659936Y-63086328D01*
X143744328Y-63001937D01*
X143790000Y-62891674D01*
X143790000Y-60957000D01*
X143715000Y-60882000D01*
X142940000Y-60882000D01*
X142840000Y-60882000D01*
X142065000Y-60882000D01*
X141990000Y-60957000D01*
X141795877Y-60957000D01*
X141795877Y-58832000D01*
X141784649Y-58772326D01*
X141990000Y-58772326D01*
X141990000Y-60707000D01*
X142065000Y-60782000D01*
X142840000Y-60782000D01*
X142840000Y-58607000D01*
X142940000Y-58607000D01*
X142940000Y-60782000D01*
X143715000Y-60782000D01*
X143790000Y-60707000D01*
X143790000Y-58772326D01*
X143744328Y-58662063D01*
X143659936Y-58577672D01*
X143549673Y-58532000D01*
X143015000Y-58532000D01*
X142940000Y-58607000D01*
X142840000Y-58607000D01*
X142765000Y-58532000D01*
X142230327Y-58532000D01*
X142120064Y-58577672D01*
X142035672Y-58662063D01*
X141990000Y-58772326D01*
X141784649Y-58772326D01*
X141774958Y-58720827D01*
X141709255Y-58618721D01*
X141609003Y-58550222D01*
X141490000Y-58526123D01*
X140290000Y-58526123D01*
X140178827Y-58547042D01*
X140076721Y-58612745D01*
X140008222Y-58712997D01*
X139984123Y-58832000D01*
X139984123Y-62832000D01*
X140005042Y-62943173D01*
X140070745Y-63045279D01*
X140170997Y-63113778D01*
X140290000Y-63137877D01*
X140545000Y-63137877D01*
X140545000Y-64593959D01*
X140412960Y-64726000D01*
X138938000Y-64726000D01*
X138775359Y-64758351D01*
X138637480Y-64850479D01*
X136224001Y-67263959D01*
X136060682Y-67263816D01*
X135670211Y-67425155D01*
X135371205Y-67723640D01*
X135209185Y-68113828D01*
X135208816Y-68536318D01*
X134792816Y-68536318D01*
X134793184Y-68115682D01*
X134631845Y-67725211D01*
X134338093Y-67430947D01*
X134923040Y-66846000D01*
X136398000Y-66846000D01*
X136533657Y-66819016D01*
X136560641Y-66813649D01*
X136698520Y-66721520D01*
X138603520Y-64816520D01*
X138695649Y-64678641D01*
X138728000Y-64516000D01*
X138728000Y-64057040D01*
X139190520Y-63594521D01*
X139282648Y-63456641D01*
X139282649Y-63456640D01*
X139315000Y-63294000D01*
X139315000Y-63137877D01*
X139490000Y-63137877D01*
X139601173Y-63116958D01*
X139703279Y-63051255D01*
X139771778Y-62951003D01*
X139795877Y-62832000D01*
X139795877Y-58832000D01*
X139774958Y-58720827D01*
X139709255Y-58618721D01*
X139609003Y-58550222D01*
X139490000Y-58526123D01*
X138290000Y-58526123D01*
X138178827Y-58547042D01*
X138076721Y-58612745D01*
X138008222Y-58712997D01*
X137984123Y-58832000D01*
X137984123Y-62832000D01*
X138005042Y-62943173D01*
X138070745Y-63045279D01*
X138170997Y-63113778D01*
X138290000Y-63137877D01*
X138445082Y-63137877D01*
X138002480Y-63580480D01*
X137910351Y-63718359D01*
X137910351Y-63718360D01*
X137878000Y-63881000D01*
X137878000Y-64339960D01*
X137285959Y-64932001D01*
X137315000Y-64786000D01*
X137315000Y-63137877D01*
X137490000Y-63137877D01*
X137601173Y-63116958D01*
X137703279Y-63051255D01*
X137771778Y-62951003D01*
X137795877Y-62832000D01*
X137795877Y-58832000D01*
X137774958Y-58720827D01*
X137709255Y-58618721D01*
X137609003Y-58550222D01*
X137490000Y-58526123D01*
X136290000Y-58526123D01*
X136178827Y-58547042D01*
X136076721Y-58612745D01*
X136008222Y-58712997D01*
X135984123Y-58832000D01*
X135984123Y-62832000D01*
X136005042Y-62943173D01*
X136070745Y-63045279D01*
X136170997Y-63113778D01*
X136290000Y-63137877D01*
X136465000Y-63137877D01*
X136465000Y-64609959D01*
X135840960Y-65234000D01*
X134293471Y-65234000D01*
X134330896Y-65143871D01*
X134331000Y-65025041D01*
X135190521Y-64165520D01*
X135282649Y-64027641D01*
X135315000Y-63865000D01*
X135315000Y-63137877D01*
X135490000Y-63137877D01*
X135601173Y-63116958D01*
X135703279Y-63051255D01*
X135771778Y-62951003D01*
X135795877Y-62832000D01*
X135795877Y-58832000D01*
X135774958Y-58720827D01*
X135709255Y-58618721D01*
X135609003Y-58550222D01*
X135490000Y-58526123D01*
X134290000Y-58526123D01*
X134178827Y-58547042D01*
X134076721Y-58612745D01*
X134008222Y-58712997D01*
X133984123Y-58832000D01*
X133984123Y-62832000D01*
X134005042Y-62943173D01*
X134070745Y-63045279D01*
X134170997Y-63113778D01*
X134290000Y-63137877D01*
X134465000Y-63137877D01*
X134465000Y-63688959D01*
X133729961Y-64423999D01*
X133612176Y-64423896D01*
X133391571Y-64515048D01*
X133222641Y-64683683D01*
X133131104Y-64904129D01*
X133130896Y-65142824D01*
X133183109Y-65269190D01*
X133049480Y-65358480D01*
X131144001Y-67263959D01*
X130980682Y-67263816D01*
X130590211Y-67425155D01*
X130291205Y-67723640D01*
X130129185Y-68113828D01*
X130128816Y-68536318D01*
X130290155Y-68926789D01*
X130588640Y-69225795D01*
X130766000Y-69299441D01*
X130766000Y-70943959D01*
X130379960Y-71330000D01*
X124001041Y-71330000D01*
X123871520Y-71200480D01*
X123733641Y-71108351D01*
X123706657Y-71102984D01*
X123571000Y-71076000D01*
X122428000Y-71076000D01*
X122265360Y-71108351D01*
X122230492Y-71131649D01*
X122195518Y-71155018D01*
X122055176Y-71154896D01*
X121834571Y-71246048D01*
X121665641Y-71414683D01*
X121574104Y-71635129D01*
X121573896Y-71873824D01*
X121665048Y-72094429D01*
X121833683Y-72263359D01*
X122054129Y-72354896D01*
X122292824Y-72355104D01*
X122513429Y-72263952D01*
X122521926Y-72255470D01*
X122463104Y-72397129D01*
X122462896Y-72635824D01*
X122553044Y-72854000D01*
X122350040Y-72854000D01*
X121456000Y-71959960D01*
X121456000Y-69299479D01*
X121631789Y-69226845D01*
X121930795Y-68928360D01*
X122092815Y-68538172D01*
X122092816Y-68536318D01*
X122508816Y-68536318D01*
X122670155Y-68926789D01*
X122968640Y-69225795D01*
X123358828Y-69387815D01*
X123781318Y-69388184D01*
X124171789Y-69226845D01*
X124470795Y-68928360D01*
X124632815Y-68538172D01*
X124632816Y-68536318D01*
X125048816Y-68536318D01*
X125210155Y-68926789D01*
X125508640Y-69225795D01*
X125898828Y-69387815D01*
X126321318Y-69388184D01*
X126711789Y-69226845D01*
X127010795Y-68928360D01*
X127172815Y-68538172D01*
X127173184Y-68115682D01*
X127011845Y-67725211D01*
X126713360Y-67426205D01*
X126323172Y-67264185D01*
X125900682Y-67263816D01*
X125510211Y-67425155D01*
X125211205Y-67723640D01*
X125049185Y-68113828D01*
X125048816Y-68536318D01*
X124632816Y-68536318D01*
X124633184Y-68115682D01*
X124471845Y-67725211D01*
X124173360Y-67426205D01*
X123783172Y-67264185D01*
X123360682Y-67263816D01*
X122970211Y-67425155D01*
X122671205Y-67723640D01*
X122509185Y-68113828D01*
X122508816Y-68536318D01*
X122092816Y-68536318D01*
X122093184Y-68115682D01*
X121931845Y-67725211D01*
X121633360Y-67426205D01*
X121243172Y-67264185D01*
X120820682Y-67263816D01*
X120430211Y-67425155D01*
X120131205Y-67723640D01*
X119969185Y-68113828D01*
X119968816Y-68536318D01*
X120130155Y-68926789D01*
X120428640Y-69225795D01*
X120606000Y-69299441D01*
X120606000Y-72136000D01*
X120628945Y-72251351D01*
X120638351Y-72298641D01*
X120730480Y-72436520D01*
X121154168Y-72860208D01*
X121023871Y-72806104D01*
X120785176Y-72805896D01*
X120564571Y-72897048D01*
X120480472Y-72981000D01*
X120399460Y-72981000D01*
X120523359Y-72857317D01*
X120614896Y-72636871D01*
X120615104Y-72398176D01*
X120523952Y-72177571D01*
X120355317Y-72008641D01*
X120134871Y-71917104D01*
X119896176Y-71916896D01*
X119675571Y-72008048D01*
X119506641Y-72176683D01*
X119489069Y-72219000D01*
X109015040Y-72219000D01*
X108375000Y-71578960D01*
X108375000Y-70231000D01*
X108342649Y-70068360D01*
X108281604Y-69977000D01*
X108250520Y-69930479D01*
X107996520Y-69676480D01*
X107858641Y-69584351D01*
X107831657Y-69578984D01*
X107696000Y-69552000D01*
X106595530Y-69552000D01*
X106512317Y-69468641D01*
X106291871Y-69377104D01*
X106053176Y-69376896D01*
X105832571Y-69468048D01*
X105663641Y-69636683D01*
X105572104Y-69857129D01*
X105571896Y-70095824D01*
X105663048Y-70316429D01*
X105831683Y-70485359D01*
X106052129Y-70576896D01*
X106290824Y-70577104D01*
X106511429Y-70485952D01*
X106519926Y-70477470D01*
X106461104Y-70619129D01*
X106460896Y-70857824D01*
X106552048Y-71078429D01*
X106720683Y-71247359D01*
X106763000Y-71264931D01*
X106763000Y-72390000D01*
X106781173Y-72481360D01*
X106795351Y-72552641D01*
X106887480Y-72690520D01*
X107903480Y-73706520D01*
X107958075Y-73743000D01*
X101251004Y-73743000D01*
X101230845Y-73694211D01*
X100932360Y-73395205D01*
X100542172Y-73233185D01*
X100119682Y-73232816D01*
X99729211Y-73394155D01*
X99430205Y-73692640D01*
X99268185Y-74082828D01*
X99267816Y-74505318D01*
X98977000Y-74505318D01*
X98977000Y-69596000D01*
X99693087Y-69596000D01*
X99818908Y-70228542D01*
X100177214Y-70764786D01*
X100713458Y-71123092D01*
X101346000Y-71248913D01*
X101978542Y-71123092D01*
X102514786Y-70764786D01*
X102873092Y-70228542D01*
X102998913Y-69596000D01*
X102873092Y-68963458D01*
X102587687Y-68536318D01*
X104728816Y-68536318D01*
X104890155Y-68926789D01*
X105188640Y-69225795D01*
X105578828Y-69387815D01*
X106001318Y-69388184D01*
X106391789Y-69226845D01*
X106690795Y-68928360D01*
X106852815Y-68538172D01*
X106852816Y-68536318D01*
X107268816Y-68536318D01*
X107430155Y-68926789D01*
X107728640Y-69225795D01*
X108118828Y-69387815D01*
X108541318Y-69388184D01*
X108931789Y-69226845D01*
X109230795Y-68928360D01*
X109392815Y-68538172D01*
X109392816Y-68536318D01*
X109808816Y-68536318D01*
X109970155Y-68926789D01*
X110268640Y-69225795D01*
X110658828Y-69387815D01*
X111081318Y-69388184D01*
X111471789Y-69226845D01*
X111625798Y-69073104D01*
X112734606Y-69073104D01*
X112815673Y-69230463D01*
X113207112Y-69389437D01*
X113629591Y-69386512D01*
X114006327Y-69230463D01*
X114087394Y-69073104D01*
X113411000Y-68396711D01*
X112734606Y-69073104D01*
X111625798Y-69073104D01*
X111770795Y-68928360D01*
X111932815Y-68538172D01*
X111933178Y-68122112D01*
X112347563Y-68122112D01*
X112350488Y-68544591D01*
X112506537Y-68921327D01*
X112663896Y-69002394D01*
X113340289Y-68326000D01*
X113481711Y-68326000D01*
X114158104Y-69002394D01*
X114315463Y-68921327D01*
X114471825Y-68536318D01*
X114888816Y-68536318D01*
X115050155Y-68926789D01*
X115348640Y-69225795D01*
X115738828Y-69387815D01*
X116161318Y-69388184D01*
X116551789Y-69226845D01*
X116850795Y-68928360D01*
X117012815Y-68538172D01*
X117012816Y-68536318D01*
X117428816Y-68536318D01*
X117590155Y-68926789D01*
X117888640Y-69225795D01*
X118278828Y-69387815D01*
X118701318Y-69388184D01*
X119091789Y-69226845D01*
X119390795Y-68928360D01*
X119552815Y-68538172D01*
X119553184Y-68115682D01*
X119391845Y-67725211D01*
X119093360Y-67426205D01*
X118703172Y-67264185D01*
X118280682Y-67263816D01*
X117890211Y-67425155D01*
X117591205Y-67723640D01*
X117429185Y-68113828D01*
X117428816Y-68536318D01*
X117012816Y-68536318D01*
X117013184Y-68115682D01*
X116851845Y-67725211D01*
X116553360Y-67426205D01*
X116163172Y-67264185D01*
X115740682Y-67263816D01*
X115350211Y-67425155D01*
X115051205Y-67723640D01*
X114889185Y-68113828D01*
X114888816Y-68536318D01*
X114471825Y-68536318D01*
X114474437Y-68529888D01*
X114471512Y-68107409D01*
X114315463Y-67730673D01*
X114158104Y-67649606D01*
X113481711Y-68326000D01*
X113340289Y-68326000D01*
X112663896Y-67649606D01*
X112506537Y-67730673D01*
X112347563Y-68122112D01*
X111933178Y-68122112D01*
X111933184Y-68115682D01*
X111771845Y-67725211D01*
X111625785Y-67578896D01*
X112734606Y-67578896D01*
X113411000Y-68255289D01*
X114087394Y-67578896D01*
X114006327Y-67421537D01*
X113614888Y-67262563D01*
X113192409Y-67265488D01*
X112815673Y-67421537D01*
X112734606Y-67578896D01*
X111625785Y-67578896D01*
X111473360Y-67426205D01*
X111083172Y-67264185D01*
X110660682Y-67263816D01*
X110270211Y-67425155D01*
X109971205Y-67723640D01*
X109809185Y-68113828D01*
X109808816Y-68536318D01*
X109392816Y-68536318D01*
X109393184Y-68115682D01*
X109231845Y-67725211D01*
X108933360Y-67426205D01*
X108543172Y-67264185D01*
X108120682Y-67263816D01*
X107730211Y-67425155D01*
X107431205Y-67723640D01*
X107269185Y-68113828D01*
X107268816Y-68536318D01*
X106852816Y-68536318D01*
X106853184Y-68115682D01*
X106691845Y-67725211D01*
X106393360Y-67426205D01*
X106003172Y-67264185D01*
X105580682Y-67263816D01*
X105190211Y-67425155D01*
X104891205Y-67723640D01*
X104729185Y-68113828D01*
X104728816Y-68536318D01*
X102587687Y-68536318D01*
X102514786Y-68427214D01*
X101978542Y-68068908D01*
X101346000Y-67943087D01*
X100713458Y-68068908D01*
X100177214Y-68427214D01*
X99818908Y-68963458D01*
X99693087Y-69596000D01*
X98977000Y-69596000D01*
X98977000Y-50927000D01*
X99016000Y-50927000D01*
X99016000Y-63754000D01*
X99038079Y-63865000D01*
X99048351Y-63916641D01*
X99140480Y-64054520D01*
X99648479Y-64562520D01*
X99699304Y-64596480D01*
X99786360Y-64654649D01*
X99949000Y-64687000D01*
X123135529Y-64687000D01*
X123098104Y-64777129D01*
X123097896Y-65015824D01*
X123189048Y-65236429D01*
X123357683Y-65405359D01*
X123578129Y-65496896D01*
X123696959Y-65497000D01*
X125175480Y-66975521D01*
X125313359Y-67067649D01*
X125476000Y-67100000D01*
X127839960Y-67100000D01*
X128131519Y-67391559D01*
X128050211Y-67425155D01*
X127751205Y-67723640D01*
X127589185Y-68113828D01*
X127588816Y-68536318D01*
X127750155Y-68926789D01*
X128048640Y-69225795D01*
X128438828Y-69387815D01*
X128861318Y-69388184D01*
X129251789Y-69226845D01*
X129550795Y-68928360D01*
X129712815Y-68538172D01*
X129713184Y-68115682D01*
X129551845Y-67725211D01*
X129253360Y-67426205D01*
X129076000Y-67352559D01*
X129076000Y-67310000D01*
X129066887Y-67264185D01*
X129043649Y-67147359D01*
X128951521Y-67009480D01*
X128316520Y-66374480D01*
X128178641Y-66282351D01*
X128151657Y-66276984D01*
X128016000Y-66250000D01*
X125652041Y-66250000D01*
X124298001Y-64895961D01*
X124298104Y-64778176D01*
X124260431Y-64687000D01*
X126479123Y-64687000D01*
X126479123Y-65747000D01*
X126500042Y-65858173D01*
X126565745Y-65960279D01*
X126665997Y-66028778D01*
X126785000Y-66052877D01*
X128485000Y-66052877D01*
X128596173Y-66031958D01*
X128698279Y-65966255D01*
X128766778Y-65866003D01*
X128790877Y-65747000D01*
X128790877Y-65126115D01*
X129048050Y-65126115D01*
X129221512Y-65539940D01*
X129540134Y-65855883D01*
X129945886Y-66023946D01*
X130125000Y-65970837D01*
X130125000Y-64947000D01*
X130225000Y-64947000D01*
X130225000Y-65970837D01*
X130404114Y-66023946D01*
X130809866Y-65855883D01*
X131128488Y-65539940D01*
X131301950Y-65126115D01*
X131248917Y-64947000D01*
X130225000Y-64947000D01*
X130125000Y-64947000D01*
X129101083Y-64947000D01*
X129048050Y-65126115D01*
X128790877Y-65126115D01*
X128790877Y-64047000D01*
X128769958Y-63935827D01*
X128704255Y-63833721D01*
X128651975Y-63798000D01*
X129878416Y-63798000D01*
X129540134Y-63938117D01*
X129221512Y-64254060D01*
X129048050Y-64667885D01*
X129101083Y-64847000D01*
X130125000Y-64847000D01*
X130125000Y-64827000D01*
X130225000Y-64827000D01*
X130225000Y-64847000D01*
X131248917Y-64847000D01*
X131301950Y-64667885D01*
X131128488Y-64254060D01*
X130809866Y-63938117D01*
X130471584Y-63798000D01*
X132588000Y-63798000D01*
X132723657Y-63771016D01*
X132750641Y-63765649D01*
X132888520Y-63673520D01*
X133015520Y-63546520D01*
X133107649Y-63408641D01*
X133117055Y-63361351D01*
X133140000Y-63246000D01*
X133140000Y-63137877D01*
X133490000Y-63137877D01*
X133601173Y-63116958D01*
X133703279Y-63051255D01*
X133771778Y-62951003D01*
X133795877Y-62832000D01*
X133795877Y-58832000D01*
X133774958Y-58720827D01*
X133709255Y-58618721D01*
X133609003Y-58550222D01*
X133490000Y-58526123D01*
X132290000Y-58526123D01*
X132178827Y-58547042D01*
X132076721Y-58612745D01*
X132008222Y-58712997D01*
X131984123Y-58832000D01*
X131984123Y-62832000D01*
X132005042Y-62943173D01*
X132008148Y-62948000D01*
X131772386Y-62948000D01*
X131795877Y-62832000D01*
X131795877Y-58832000D01*
X131774958Y-58720827D01*
X131709255Y-58618721D01*
X131609003Y-58550222D01*
X131490000Y-58526123D01*
X130290000Y-58526123D01*
X130178827Y-58547042D01*
X130076721Y-58612745D01*
X130008222Y-58712997D01*
X129984123Y-58832000D01*
X129984123Y-62832000D01*
X130005042Y-62943173D01*
X130008148Y-62948000D01*
X129766669Y-62948000D01*
X129790000Y-62891674D01*
X129790000Y-60957000D01*
X129715000Y-60882000D01*
X128940000Y-60882000D01*
X128940000Y-60902000D01*
X128840000Y-60902000D01*
X128840000Y-60882000D01*
X128065000Y-60882000D01*
X127990000Y-60957000D01*
X127990000Y-62891674D01*
X128013331Y-62948000D01*
X119422530Y-62948000D01*
X119339317Y-62864641D01*
X119118871Y-62773104D01*
X118880176Y-62772896D01*
X118659571Y-62864048D01*
X118490641Y-63032683D01*
X118399104Y-63253129D01*
X118398896Y-63491824D01*
X118490048Y-63712429D01*
X118614401Y-63837000D01*
X111888736Y-63837000D01*
X111978896Y-63619871D01*
X111979000Y-63501040D01*
X112652215Y-62827825D01*
X112689683Y-62865359D01*
X112910129Y-62956896D01*
X113148824Y-62957104D01*
X113369429Y-62865952D01*
X113538359Y-62697317D01*
X113629896Y-62476871D01*
X113630104Y-62238176D01*
X113623348Y-62221824D01*
X125129896Y-62221824D01*
X125221048Y-62442429D01*
X125389683Y-62611359D01*
X125610129Y-62702896D01*
X125848824Y-62703104D01*
X126069429Y-62611952D01*
X126238359Y-62443317D01*
X126329896Y-62222871D01*
X126330019Y-62081426D01*
X126376648Y-62011641D01*
X126376649Y-62011640D01*
X126409000Y-61849000D01*
X126409000Y-59866040D01*
X127502714Y-58772326D01*
X127990000Y-58772326D01*
X127990000Y-60707000D01*
X128065000Y-60782000D01*
X128840000Y-60782000D01*
X128840000Y-58607000D01*
X128940000Y-58607000D01*
X128940000Y-60782000D01*
X129715000Y-60782000D01*
X129790000Y-60707000D01*
X129790000Y-58772326D01*
X129744328Y-58662063D01*
X129659936Y-58577672D01*
X129549673Y-58532000D01*
X129015000Y-58532000D01*
X128940000Y-58607000D01*
X128840000Y-58607000D01*
X128765000Y-58532000D01*
X128230327Y-58532000D01*
X128120064Y-58577672D01*
X128035672Y-58662063D01*
X127990000Y-58772326D01*
X127502714Y-58772326D01*
X130430040Y-55845001D01*
X130547824Y-55845104D01*
X130768429Y-55753952D01*
X130937359Y-55585317D01*
X131028896Y-55364871D01*
X131029104Y-55126176D01*
X130937952Y-54905571D01*
X130769317Y-54736641D01*
X130548871Y-54645104D01*
X130310176Y-54644896D01*
X130089571Y-54736048D01*
X129920641Y-54904683D01*
X129829104Y-55125129D01*
X129829000Y-55243959D01*
X125683480Y-59389480D01*
X125591351Y-59527359D01*
X125591351Y-59527360D01*
X125559000Y-59690000D01*
X125559000Y-61524455D01*
X125390571Y-61594048D01*
X125221641Y-61762683D01*
X125130104Y-61983129D01*
X125129896Y-62221824D01*
X113623348Y-62221824D01*
X113538952Y-62017571D01*
X113370317Y-61848641D01*
X113171295Y-61766000D01*
X114300000Y-61766000D01*
X114435657Y-61739016D01*
X114462641Y-61733649D01*
X114600520Y-61641520D01*
X115825039Y-60417001D01*
X115942824Y-60417104D01*
X116163429Y-60325952D01*
X116332359Y-60157317D01*
X116423896Y-59936871D01*
X116424104Y-59698176D01*
X116333956Y-59480000D01*
X117425960Y-59480000D01*
X118398999Y-60453039D01*
X118398896Y-60570824D01*
X118490048Y-60791429D01*
X118614401Y-60916000D01*
X116805039Y-60916000D01*
X116805104Y-60841176D01*
X116713952Y-60620571D01*
X116545317Y-60451641D01*
X116324871Y-60360104D01*
X116086176Y-60359896D01*
X115865571Y-60451048D01*
X115696641Y-60619683D01*
X115605104Y-60840129D01*
X115604896Y-61078824D01*
X115696048Y-61299429D01*
X115864683Y-61468359D01*
X116085129Y-61559896D01*
X116203959Y-61560000D01*
X116285479Y-61641520D01*
X116336304Y-61675480D01*
X116423360Y-61733649D01*
X116586000Y-61766000D01*
X121793000Y-61766000D01*
X121928657Y-61739016D01*
X121955641Y-61733649D01*
X122093520Y-61641520D01*
X133399040Y-50336000D01*
X133477000Y-50336000D01*
X133612657Y-50309016D01*
X133639641Y-50303649D01*
X133777520Y-50211520D01*
X135050041Y-48939000D01*
X138049000Y-48939000D01*
X138184657Y-48912016D01*
X138211641Y-48906649D01*
X138349520Y-48814520D01*
X139190521Y-47973520D01*
X139282649Y-47835641D01*
X139315000Y-47673000D01*
X139315000Y-47137877D01*
X139490000Y-47137877D01*
X139601173Y-47116958D01*
X139703279Y-47051255D01*
X139771778Y-46951003D01*
X139795877Y-46832000D01*
X139795877Y-42832000D01*
X139774958Y-42720827D01*
X139709255Y-42618721D01*
X139609003Y-42550222D01*
X139490000Y-42526123D01*
X138290000Y-42526123D01*
X138178827Y-42547042D01*
X138076721Y-42612745D01*
X138008222Y-42712997D01*
X137984123Y-42832000D01*
X137984123Y-46832000D01*
X138005042Y-46943173D01*
X138070745Y-47045279D01*
X138170997Y-47113778D01*
X138290000Y-47137877D01*
X138465000Y-47137877D01*
X138465000Y-47496959D01*
X137872960Y-48089000D01*
X134874000Y-48089000D01*
X134711360Y-48121351D01*
X134711358Y-48121352D01*
X134711359Y-48121352D01*
X134573479Y-48213480D01*
X133300960Y-49486000D01*
X133223000Y-49486000D01*
X133087343Y-49512984D01*
X133060359Y-49518351D01*
X132922480Y-49610480D01*
X121616960Y-60916000D01*
X119383460Y-60916000D01*
X119507359Y-60792317D01*
X119598896Y-60571871D01*
X119599104Y-60333176D01*
X119507952Y-60112571D01*
X119339317Y-59943641D01*
X119118871Y-59852104D01*
X119000041Y-59852000D01*
X117902520Y-58754480D01*
X117764641Y-58662351D01*
X117737657Y-58656984D01*
X117602000Y-58630000D01*
X114497545Y-58630000D01*
X114427952Y-58461571D01*
X114259317Y-58292641D01*
X114038871Y-58201104D01*
X113800176Y-58200896D01*
X113579571Y-58292048D01*
X113410641Y-58460683D01*
X113319104Y-58681129D01*
X113318896Y-58919824D01*
X113349186Y-58993132D01*
X113276871Y-58963104D01*
X113038176Y-58962896D01*
X112817571Y-59054048D01*
X112733472Y-59138000D01*
X111633000Y-59138000D01*
X111470360Y-59170351D01*
X111470358Y-59170352D01*
X111470359Y-59170352D01*
X111332479Y-59262480D01*
X110948960Y-59646000D01*
X109601000Y-59646000D01*
X109438359Y-59678351D01*
X109300480Y-59770479D01*
X106678961Y-62391999D01*
X106561176Y-62391896D01*
X106340571Y-62483048D01*
X106171641Y-62651683D01*
X106080104Y-62872129D01*
X106079896Y-63110824D01*
X106171048Y-63331429D01*
X106339683Y-63500359D01*
X106560129Y-63591896D01*
X106798824Y-63592104D01*
X107019429Y-63500952D01*
X107188359Y-63332317D01*
X107279896Y-63111871D01*
X107280000Y-62993041D01*
X109777041Y-60496000D01*
X110498075Y-60496000D01*
X110443480Y-60532479D01*
X108075961Y-62899999D01*
X107958176Y-62899896D01*
X107737571Y-62991048D01*
X107568641Y-63159683D01*
X107477104Y-63380129D01*
X107476896Y-63618824D01*
X107567044Y-63837000D01*
X100125041Y-63837000D01*
X99866000Y-63577960D01*
X99866000Y-51575857D01*
X99948048Y-51774429D01*
X100116683Y-51943359D01*
X100337129Y-52034896D01*
X100575824Y-52035104D01*
X100796429Y-51943952D01*
X100965359Y-51775317D01*
X101056896Y-51554871D01*
X101057000Y-51436041D01*
X104313520Y-48179521D01*
X104375078Y-48087392D01*
X104405649Y-48041640D01*
X104438000Y-47879000D01*
X104438000Y-47623000D01*
X107916000Y-47623000D01*
X107916000Y-49057673D01*
X107961672Y-49167936D01*
X108046063Y-49252328D01*
X108156326Y-49298000D01*
X108841000Y-49298000D01*
X108916000Y-49223000D01*
X108916000Y-47548000D01*
X109016000Y-47548000D01*
X109016000Y-49223000D01*
X109091000Y-49298000D01*
X109775674Y-49298000D01*
X109885937Y-49252328D01*
X109970328Y-49167936D01*
X110016000Y-49057673D01*
X110016000Y-47623000D01*
X109941000Y-47548000D01*
X109016000Y-47548000D01*
X108916000Y-47548000D01*
X107991000Y-47548000D01*
X107916000Y-47623000D01*
X104438000Y-47623000D01*
X104438000Y-45938327D01*
X107916000Y-45938327D01*
X107916000Y-47373000D01*
X107991000Y-47448000D01*
X108916000Y-47448000D01*
X108916000Y-45773000D01*
X109016000Y-45773000D01*
X109016000Y-47448000D01*
X109941000Y-47448000D01*
X110016000Y-47373000D01*
X110016000Y-45938327D01*
X109974785Y-45838824D01*
X125129896Y-45838824D01*
X125221048Y-46059429D01*
X125389683Y-46228359D01*
X125610129Y-46319896D01*
X125848824Y-46320104D01*
X126069429Y-46228952D01*
X126238359Y-46060317D01*
X126329896Y-45839871D01*
X126330104Y-45601176D01*
X126238952Y-45380571D01*
X126070317Y-45211641D01*
X126028000Y-45194069D01*
X126028000Y-44034039D01*
X126102824Y-44034104D01*
X126323429Y-43942952D01*
X126492359Y-43774317D01*
X126583896Y-43553871D01*
X126584104Y-43315176D01*
X126492952Y-43094571D01*
X126324317Y-42925641D01*
X126103871Y-42834104D01*
X125865176Y-42833896D01*
X125644571Y-42925048D01*
X125475641Y-43093683D01*
X125384104Y-43314129D01*
X125384000Y-43432959D01*
X125302480Y-43514480D01*
X125210351Y-43652359D01*
X125210351Y-43652360D01*
X125178000Y-43815000D01*
X125178000Y-45484782D01*
X125130104Y-45600129D01*
X125129896Y-45838824D01*
X109974785Y-45838824D01*
X109970328Y-45828064D01*
X109885937Y-45743672D01*
X109775674Y-45698000D01*
X109091000Y-45698000D01*
X109016000Y-45773000D01*
X108916000Y-45773000D01*
X108841000Y-45698000D01*
X108156326Y-45698000D01*
X108046063Y-45743672D01*
X107961672Y-45828064D01*
X107916000Y-45938327D01*
X104438000Y-45938327D01*
X104438000Y-39800040D01*
X106475041Y-37763000D01*
X107910123Y-37763000D01*
X107910123Y-38838000D01*
X107931042Y-38949173D01*
X107996745Y-39051279D01*
X108096997Y-39119778D01*
X108216000Y-39143877D01*
X109716000Y-39143877D01*
X109827173Y-39122958D01*
X109929279Y-39057255D01*
X109997778Y-38957003D01*
X110021877Y-38838000D01*
X110021877Y-35838000D01*
X110000958Y-35726827D01*
X109935255Y-35624721D01*
X109835003Y-35556222D01*
X109716000Y-35532123D01*
X108216000Y-35532123D01*
X108104827Y-35553042D01*
X108002721Y-35618745D01*
X107934222Y-35718997D01*
X107910123Y-35838000D01*
X107910123Y-36913000D01*
X106299000Y-36913000D01*
X106136360Y-36945351D01*
X106136358Y-36945352D01*
X106136359Y-36945352D01*
X105998479Y-37037480D01*
X103712480Y-39323480D01*
X103620351Y-39461359D01*
X103620351Y-39461360D01*
X103588000Y-39624000D01*
X103588000Y-47702959D01*
X100455961Y-50834999D01*
X100338176Y-50834896D01*
X100117571Y-50926048D01*
X99948641Y-51094683D01*
X99866000Y-51293705D01*
X99866000Y-51103040D01*
X103424521Y-47544520D01*
X103516649Y-47406641D01*
X103549000Y-47244000D01*
X103549000Y-42926000D01*
X103530721Y-42834104D01*
X103516649Y-42763359D01*
X103424521Y-42625480D01*
X102561877Y-41762837D01*
X102561877Y-41318000D01*
X102540958Y-41206827D01*
X102475255Y-41104721D01*
X102375003Y-41036222D01*
X102256000Y-41012123D01*
X100756000Y-41012123D01*
X100644827Y-41033042D01*
X100542721Y-41098745D01*
X100474222Y-41198997D01*
X100450123Y-41318000D01*
X100450123Y-42018000D01*
X100471042Y-42129173D01*
X100536745Y-42231279D01*
X100636997Y-42299778D01*
X100756000Y-42323877D01*
X101920837Y-42323877D01*
X102699000Y-43102041D01*
X102699000Y-47067959D01*
X99140480Y-50626480D01*
X99048351Y-50764359D01*
X99048351Y-50764360D01*
X99016000Y-50927000D01*
X98977000Y-50927000D01*
X98977000Y-49960040D01*
X100887040Y-48050000D01*
X101219000Y-48050000D01*
X101354657Y-48023016D01*
X101381641Y-48017649D01*
X101519520Y-47925520D01*
X102535520Y-46909520D01*
X102627649Y-46771641D01*
X102644484Y-46687003D01*
X102660000Y-46609000D01*
X102660000Y-45397000D01*
X102641294Y-45302958D01*
X102627649Y-45234359D01*
X102543551Y-45108497D01*
X102561877Y-45018000D01*
X102561877Y-44318000D01*
X102540958Y-44206827D01*
X102475255Y-44104721D01*
X102375003Y-44036222D01*
X102256000Y-44012123D01*
X100756000Y-44012123D01*
X100644827Y-44033042D01*
X100542721Y-44098745D01*
X100474222Y-44198997D01*
X100450123Y-44318000D01*
X100450123Y-45018000D01*
X100471042Y-45129173D01*
X100536745Y-45231279D01*
X100581887Y-45262123D01*
X100456000Y-45262123D01*
X100344827Y-45283042D01*
X100242721Y-45348745D01*
X100174222Y-45448997D01*
X100150123Y-45568000D01*
X100150123Y-46568000D01*
X100171042Y-46679173D01*
X100236745Y-46781279D01*
X100336997Y-46849778D01*
X100456000Y-46873877D01*
X101256000Y-46873877D01*
X101367173Y-46852958D01*
X101431206Y-46811754D01*
X101042960Y-47200000D01*
X100711000Y-47200000D01*
X100575343Y-47226984D01*
X100548359Y-47232351D01*
X100410480Y-47324480D01*
X98251480Y-49483480D01*
X98165000Y-49612905D01*
X98165000Y-46857474D01*
X98246000Y-46873877D01*
X99046000Y-46873877D01*
X99157173Y-46852958D01*
X99259279Y-46787255D01*
X99327778Y-46687003D01*
X99351877Y-46568000D01*
X99351877Y-45568000D01*
X99330958Y-45456827D01*
X99265255Y-45354721D01*
X99165003Y-45286222D01*
X99046000Y-45262123D01*
X98246000Y-45262123D01*
X98165000Y-45277364D01*
X98165000Y-44066530D01*
X98995870Y-44066530D01*
X99109811Y-44342286D01*
X99320605Y-44553448D01*
X99596161Y-44667869D01*
X99894530Y-44668130D01*
X100170286Y-44554189D01*
X100381448Y-44343395D01*
X100495869Y-44067839D01*
X100496130Y-43769470D01*
X100382189Y-43493714D01*
X100171395Y-43282552D01*
X99895839Y-43168131D01*
X99597470Y-43167870D01*
X99321714Y-43281811D01*
X99110552Y-43492605D01*
X98996131Y-43768161D01*
X98995870Y-44066530D01*
X98165000Y-44066530D01*
X98165000Y-41066530D01*
X98995870Y-41066530D01*
X99109811Y-41342286D01*
X99320605Y-41553448D01*
X99596161Y-41667869D01*
X99894530Y-41668130D01*
X100170286Y-41554189D01*
X100381448Y-41343395D01*
X100495869Y-41067839D01*
X100496130Y-40769470D01*
X100382189Y-40493714D01*
X100171395Y-40282552D01*
X99895839Y-40168131D01*
X99597470Y-40167870D01*
X99321714Y-40281811D01*
X99110552Y-40492605D01*
X98996131Y-40768161D01*
X98995870Y-41066530D01*
X98165000Y-41066530D01*
X98165000Y-39557474D01*
X98246000Y-39573877D01*
X99046000Y-39573877D01*
X99157173Y-39552958D01*
X99259279Y-39487255D01*
X99327778Y-39387003D01*
X99351877Y-39268000D01*
X99351877Y-38268000D01*
X100150123Y-38268000D01*
X100150123Y-39268000D01*
X100171042Y-39379173D01*
X100236745Y-39481279D01*
X100336997Y-39549778D01*
X100456000Y-39573877D01*
X100581367Y-39573877D01*
X100542721Y-39598745D01*
X100474222Y-39698997D01*
X100450123Y-39818000D01*
X100450123Y-40518000D01*
X100471042Y-40629173D01*
X100536745Y-40731279D01*
X100636997Y-40799778D01*
X100756000Y-40823877D01*
X102256000Y-40823877D01*
X102367173Y-40802958D01*
X102469279Y-40737255D01*
X102537778Y-40637003D01*
X102561877Y-40518000D01*
X102561877Y-39818000D01*
X102540958Y-39706827D01*
X102475255Y-39604721D01*
X102375003Y-39536222D01*
X102256000Y-39512123D01*
X101430633Y-39512123D01*
X101469279Y-39487255D01*
X101537778Y-39387003D01*
X101561877Y-39268000D01*
X101561877Y-38268000D01*
X101540958Y-38156827D01*
X101475255Y-38054721D01*
X101375003Y-37986222D01*
X101256000Y-37962123D01*
X100456000Y-37962123D01*
X100344827Y-37983042D01*
X100242721Y-38048745D01*
X100174222Y-38148997D01*
X100150123Y-38268000D01*
X99351877Y-38268000D01*
X99330958Y-38156827D01*
X99265255Y-38054721D01*
X99165003Y-37986222D01*
X99046000Y-37962123D01*
X98246000Y-37962123D01*
X98165000Y-37977364D01*
X98165000Y-35596937D01*
X98220581Y-35317511D01*
X98357940Y-35111940D01*
X98563512Y-34974581D01*
X98842936Y-34919000D01*
X125944823Y-34919000D01*
X125944823Y-38989000D01*
M02*
