G04 #@! TF.FileFunction,Legend,Top*
%FSLAX46Y46*%
G04 Gerber Fmt 4.6, Leading zero omitted, Abs format (unit mm)*
G04 Created by KiCad (PCBNEW 4.0.4-stable) date 04/18/19 20:28:09*
%MOMM*%
%LPD*%
G01*
G04 APERTURE LIST*
%ADD10C,0.100000*%
%ADD11C,0.150000*%
%ADD12C,0.120000*%
%ADD13C,0.200000*%
%ADD14C,0.010000*%
G04 APERTURE END LIST*
D10*
X125476048Y-64079429D02*
X126237953Y-64079429D01*
X125857001Y-64460381D02*
X125857001Y-63698476D01*
X113737143Y-35990571D02*
X113844286Y-36026286D01*
X114022857Y-36026286D01*
X114094286Y-35990571D01*
X114130000Y-35954857D01*
X114165715Y-35883429D01*
X114165715Y-35812000D01*
X114130000Y-35740571D01*
X114094286Y-35704857D01*
X114022857Y-35669143D01*
X113880000Y-35633429D01*
X113808572Y-35597714D01*
X113772857Y-35562000D01*
X113737143Y-35490571D01*
X113737143Y-35419143D01*
X113772857Y-35347714D01*
X113808572Y-35312000D01*
X113880000Y-35276286D01*
X114058572Y-35276286D01*
X114165715Y-35312000D01*
X114487143Y-35526286D02*
X114487143Y-36026286D01*
X114487143Y-35597714D02*
X114522858Y-35562000D01*
X114594286Y-35526286D01*
X114701429Y-35526286D01*
X114772858Y-35562000D01*
X114808572Y-35633429D01*
X114808572Y-36026286D01*
X115487143Y-36026286D02*
X115487143Y-35633429D01*
X115451429Y-35562000D01*
X115380000Y-35526286D01*
X115237143Y-35526286D01*
X115165714Y-35562000D01*
X115487143Y-35990571D02*
X115415714Y-36026286D01*
X115237143Y-36026286D01*
X115165714Y-35990571D01*
X115130000Y-35919143D01*
X115130000Y-35847714D01*
X115165714Y-35776286D01*
X115237143Y-35740571D01*
X115415714Y-35740571D01*
X115487143Y-35704857D01*
X115844285Y-35526286D02*
X115844285Y-36276286D01*
X115844285Y-35562000D02*
X115915714Y-35526286D01*
X116058571Y-35526286D01*
X116130000Y-35562000D01*
X116165714Y-35597714D01*
X116201428Y-35669143D01*
X116201428Y-35883429D01*
X116165714Y-35954857D01*
X116130000Y-35990571D01*
X116058571Y-36026286D01*
X115915714Y-36026286D01*
X115844285Y-35990571D01*
X116665714Y-35276286D02*
X116808571Y-35276286D01*
X116879999Y-35312000D01*
X116951428Y-35383429D01*
X116987142Y-35526286D01*
X116987142Y-35776286D01*
X116951428Y-35919143D01*
X116879999Y-35990571D01*
X116808571Y-36026286D01*
X116665714Y-36026286D01*
X116594285Y-35990571D01*
X116522856Y-35919143D01*
X116487142Y-35776286D01*
X116487142Y-35526286D01*
X116522856Y-35383429D01*
X116594285Y-35312000D01*
X116665714Y-35276286D01*
X117308570Y-35526286D02*
X117308570Y-36026286D01*
X117308570Y-35597714D02*
X117344285Y-35562000D01*
X117415713Y-35526286D01*
X117522856Y-35526286D01*
X117594285Y-35562000D01*
X117629999Y-35633429D01*
X117629999Y-36026286D01*
X117951427Y-35812000D02*
X118308570Y-35812000D01*
X117879999Y-36026286D02*
X118129999Y-35276286D01*
X118379999Y-36026286D01*
X118629998Y-36026286D02*
X118629998Y-35526286D01*
X118629998Y-35276286D02*
X118594284Y-35312000D01*
X118629998Y-35347714D01*
X118665713Y-35312000D01*
X118629998Y-35276286D01*
X118629998Y-35347714D01*
X118987141Y-36026286D02*
X118987141Y-35526286D01*
X118987141Y-35669143D02*
X119022856Y-35597714D01*
X119058570Y-35562000D01*
X119129999Y-35526286D01*
X119201427Y-35526286D01*
X120022856Y-36026286D02*
X120022856Y-35276286D01*
X120201428Y-35276286D01*
X120308571Y-35312000D01*
X120379999Y-35383429D01*
X120415714Y-35454857D01*
X120451428Y-35597714D01*
X120451428Y-35704857D01*
X120415714Y-35847714D01*
X120379999Y-35919143D01*
X120308571Y-35990571D01*
X120201428Y-36026286D01*
X120022856Y-36026286D01*
X120772856Y-35276286D02*
X120772856Y-35883429D01*
X120808571Y-35954857D01*
X120844285Y-35990571D01*
X120915714Y-36026286D01*
X121058571Y-36026286D01*
X121129999Y-35990571D01*
X121165714Y-35954857D01*
X121201428Y-35883429D01*
X121201428Y-35276286D01*
X121701428Y-35276286D02*
X121844285Y-35276286D01*
X121915713Y-35312000D01*
X121987142Y-35383429D01*
X122022856Y-35526286D01*
X122022856Y-35776286D01*
X121987142Y-35919143D01*
X121915713Y-35990571D01*
X121844285Y-36026286D01*
X121701428Y-36026286D01*
X121629999Y-35990571D01*
X121558570Y-35919143D01*
X121522856Y-35776286D01*
X121522856Y-35526286D01*
X121558570Y-35383429D01*
X121629999Y-35312000D01*
X121701428Y-35276286D01*
X122808571Y-35276286D02*
X123058571Y-36026286D01*
X123308571Y-35276286D01*
X123487142Y-35276286D02*
X123951428Y-35276286D01*
X123701428Y-35562000D01*
X123808570Y-35562000D01*
X123879999Y-35597714D01*
X123915713Y-35633429D01*
X123951428Y-35704857D01*
X123951428Y-35883429D01*
X123915713Y-35954857D01*
X123879999Y-35990571D01*
X123808570Y-36026286D01*
X123594285Y-36026286D01*
X123522856Y-35990571D01*
X123487142Y-35954857D01*
X124272856Y-35954857D02*
X124308571Y-35990571D01*
X124272856Y-36026286D01*
X124237142Y-35990571D01*
X124272856Y-35954857D01*
X124272856Y-36026286D01*
X124772857Y-35276286D02*
X124844285Y-35276286D01*
X124915714Y-35312000D01*
X124951428Y-35347714D01*
X124987142Y-35419143D01*
X125022857Y-35562000D01*
X125022857Y-35740571D01*
X124987142Y-35883429D01*
X124951428Y-35954857D01*
X124915714Y-35990571D01*
X124844285Y-36026286D01*
X124772857Y-36026286D01*
X124701428Y-35990571D01*
X124665714Y-35954857D01*
X124629999Y-35883429D01*
X124594285Y-35740571D01*
X124594285Y-35562000D01*
X124629999Y-35419143D01*
X124665714Y-35347714D01*
X124701428Y-35312000D01*
X124772857Y-35276286D01*
X99514714Y-36026286D02*
X99514714Y-35276286D01*
X99693286Y-35276286D01*
X99800429Y-35312000D01*
X99871857Y-35383429D01*
X99907572Y-35454857D01*
X99943286Y-35597714D01*
X99943286Y-35704857D01*
X99907572Y-35847714D01*
X99871857Y-35919143D01*
X99800429Y-35990571D01*
X99693286Y-36026286D01*
X99514714Y-36026286D01*
X100264714Y-36026286D02*
X100264714Y-35526286D01*
X100264714Y-35669143D02*
X100300429Y-35597714D01*
X100336143Y-35562000D01*
X100407572Y-35526286D01*
X100479000Y-35526286D01*
X101729001Y-35954857D02*
X101693287Y-35990571D01*
X101586144Y-36026286D01*
X101514715Y-36026286D01*
X101407572Y-35990571D01*
X101336144Y-35919143D01*
X101300429Y-35847714D01*
X101264715Y-35704857D01*
X101264715Y-35597714D01*
X101300429Y-35454857D01*
X101336144Y-35383429D01*
X101407572Y-35312000D01*
X101514715Y-35276286D01*
X101586144Y-35276286D01*
X101693287Y-35312000D01*
X101729001Y-35347714D01*
X102014715Y-35812000D02*
X102371858Y-35812000D01*
X101943287Y-36026286D02*
X102193287Y-35276286D01*
X102443287Y-36026286D01*
X102693286Y-36026286D02*
X102693286Y-35276286D01*
X102871858Y-35276286D01*
X102979001Y-35312000D01*
X103050429Y-35383429D01*
X103086144Y-35454857D01*
X103121858Y-35597714D01*
X103121858Y-35704857D01*
X103086144Y-35847714D01*
X103050429Y-35919143D01*
X102979001Y-35990571D01*
X102871858Y-36026286D01*
X102693286Y-36026286D01*
X103443286Y-36026286D02*
X103443286Y-35276286D01*
X104229001Y-35954857D02*
X104193287Y-35990571D01*
X104086144Y-36026286D01*
X104014715Y-36026286D01*
X103907572Y-35990571D01*
X103836144Y-35919143D01*
X103800429Y-35847714D01*
X103764715Y-35704857D01*
X103764715Y-35597714D01*
X103800429Y-35454857D01*
X103836144Y-35383429D01*
X103907572Y-35312000D01*
X104014715Y-35276286D01*
X104086144Y-35276286D01*
X104193287Y-35312000D01*
X104229001Y-35347714D01*
D11*
X105704858Y-85949286D02*
X106133429Y-85949286D01*
X105919143Y-86699286D02*
X105919143Y-85949286D01*
X106383429Y-86699286D02*
X106383429Y-86199286D01*
X106383429Y-85949286D02*
X106347715Y-85985000D01*
X106383429Y-86020714D01*
X106419144Y-85985000D01*
X106383429Y-85949286D01*
X106383429Y-86020714D01*
X106740572Y-86199286D02*
X106740572Y-86699286D01*
X106740572Y-86270714D02*
X106776287Y-86235000D01*
X106847715Y-86199286D01*
X106954858Y-86199286D01*
X107026287Y-86235000D01*
X107062001Y-86306429D01*
X107062001Y-86699286D01*
X107347715Y-86199286D02*
X107526286Y-86699286D01*
X107704858Y-86199286D02*
X107526286Y-86699286D01*
X107454858Y-86877857D01*
X107419143Y-86913571D01*
X107347715Y-86949286D01*
X108919144Y-86699286D02*
X108562001Y-86699286D01*
X108562001Y-85949286D01*
X109276287Y-86699286D02*
X109204859Y-86663571D01*
X109169144Y-86627857D01*
X109133430Y-86556429D01*
X109133430Y-86342143D01*
X109169144Y-86270714D01*
X109204859Y-86235000D01*
X109276287Y-86199286D01*
X109383430Y-86199286D01*
X109454859Y-86235000D01*
X109490573Y-86270714D01*
X109526287Y-86342143D01*
X109526287Y-86556429D01*
X109490573Y-86627857D01*
X109454859Y-86663571D01*
X109383430Y-86699286D01*
X109276287Y-86699286D01*
X109847715Y-86699286D02*
X109847715Y-86199286D01*
X109847715Y-86342143D02*
X109883430Y-86270714D01*
X109919144Y-86235000D01*
X109990573Y-86199286D01*
X110062001Y-86199286D01*
X110633430Y-86699286D02*
X110633430Y-86306429D01*
X110597716Y-86235000D01*
X110526287Y-86199286D01*
X110383430Y-86199286D01*
X110312001Y-86235000D01*
X110633430Y-86663571D02*
X110562001Y-86699286D01*
X110383430Y-86699286D01*
X110312001Y-86663571D01*
X110276287Y-86592143D01*
X110276287Y-86520714D01*
X110312001Y-86449286D01*
X110383430Y-86413571D01*
X110562001Y-86413571D01*
X110633430Y-86377857D01*
X111990573Y-86627857D02*
X111954859Y-86663571D01*
X111847716Y-86699286D01*
X111776287Y-86699286D01*
X111669144Y-86663571D01*
X111597716Y-86592143D01*
X111562001Y-86520714D01*
X111526287Y-86377857D01*
X111526287Y-86270714D01*
X111562001Y-86127857D01*
X111597716Y-86056429D01*
X111669144Y-85985000D01*
X111776287Y-85949286D01*
X111847716Y-85949286D01*
X111954859Y-85985000D01*
X111990573Y-86020714D01*
X112419144Y-86699286D02*
X112347716Y-86663571D01*
X112312001Y-86627857D01*
X112276287Y-86556429D01*
X112276287Y-86342143D01*
X112312001Y-86270714D01*
X112347716Y-86235000D01*
X112419144Y-86199286D01*
X112526287Y-86199286D01*
X112597716Y-86235000D01*
X112633430Y-86270714D01*
X112669144Y-86342143D01*
X112669144Y-86556429D01*
X112633430Y-86627857D01*
X112597716Y-86663571D01*
X112526287Y-86699286D01*
X112419144Y-86699286D01*
X112990572Y-86699286D02*
X112990572Y-86199286D01*
X112990572Y-86270714D02*
X113026287Y-86235000D01*
X113097715Y-86199286D01*
X113204858Y-86199286D01*
X113276287Y-86235000D01*
X113312001Y-86306429D01*
X113312001Y-86699286D01*
X113312001Y-86306429D02*
X113347715Y-86235000D01*
X113419144Y-86199286D01*
X113526287Y-86199286D01*
X113597715Y-86235000D01*
X113633430Y-86306429D01*
X113633430Y-86699286D01*
X113990572Y-86699286D02*
X113990572Y-86199286D01*
X113990572Y-86270714D02*
X114026287Y-86235000D01*
X114097715Y-86199286D01*
X114204858Y-86199286D01*
X114276287Y-86235000D01*
X114312001Y-86306429D01*
X114312001Y-86699286D01*
X114312001Y-86306429D02*
X114347715Y-86235000D01*
X114419144Y-86199286D01*
X114526287Y-86199286D01*
X114597715Y-86235000D01*
X114633430Y-86306429D01*
X114633430Y-86699286D01*
X115312001Y-86199286D02*
X115312001Y-86699286D01*
X114990572Y-86199286D02*
X114990572Y-86592143D01*
X115026287Y-86663571D01*
X115097715Y-86699286D01*
X115204858Y-86699286D01*
X115276287Y-86663571D01*
X115312001Y-86627857D01*
X115669143Y-86199286D02*
X115669143Y-86699286D01*
X115669143Y-86270714D02*
X115704858Y-86235000D01*
X115776286Y-86199286D01*
X115883429Y-86199286D01*
X115954858Y-86235000D01*
X115990572Y-86306429D01*
X115990572Y-86699286D01*
X116347714Y-86699286D02*
X116347714Y-86199286D01*
X116347714Y-85949286D02*
X116312000Y-85985000D01*
X116347714Y-86020714D01*
X116383429Y-85985000D01*
X116347714Y-85949286D01*
X116347714Y-86020714D01*
X117026286Y-86663571D02*
X116954857Y-86699286D01*
X116812000Y-86699286D01*
X116740572Y-86663571D01*
X116704857Y-86627857D01*
X116669143Y-86556429D01*
X116669143Y-86342143D01*
X116704857Y-86270714D01*
X116740572Y-86235000D01*
X116812000Y-86199286D01*
X116954857Y-86199286D01*
X117026286Y-86235000D01*
X117669143Y-86699286D02*
X117669143Y-86306429D01*
X117633429Y-86235000D01*
X117562000Y-86199286D01*
X117419143Y-86199286D01*
X117347714Y-86235000D01*
X117669143Y-86663571D02*
X117597714Y-86699286D01*
X117419143Y-86699286D01*
X117347714Y-86663571D01*
X117312000Y-86592143D01*
X117312000Y-86520714D01*
X117347714Y-86449286D01*
X117419143Y-86413571D01*
X117597714Y-86413571D01*
X117669143Y-86377857D01*
X117919143Y-86199286D02*
X118204857Y-86199286D01*
X118026285Y-85949286D02*
X118026285Y-86592143D01*
X118062000Y-86663571D01*
X118133428Y-86699286D01*
X118204857Y-86699286D01*
X118561999Y-86699286D02*
X118490571Y-86663571D01*
X118454856Y-86627857D01*
X118419142Y-86556429D01*
X118419142Y-86342143D01*
X118454856Y-86270714D01*
X118490571Y-86235000D01*
X118561999Y-86199286D01*
X118669142Y-86199286D01*
X118740571Y-86235000D01*
X118776285Y-86270714D01*
X118811999Y-86342143D01*
X118811999Y-86556429D01*
X118776285Y-86627857D01*
X118740571Y-86663571D01*
X118669142Y-86699286D01*
X118561999Y-86699286D01*
X119133427Y-86699286D02*
X119133427Y-86199286D01*
X119133427Y-86342143D02*
X119169142Y-86270714D01*
X119204856Y-86235000D01*
X119276285Y-86199286D01*
X119347713Y-86199286D01*
X120383428Y-86985000D02*
X120347714Y-86949286D01*
X120276285Y-86842143D01*
X120240571Y-86770714D01*
X120204857Y-86663571D01*
X120169142Y-86485000D01*
X120169142Y-86342143D01*
X120204857Y-86163571D01*
X120240571Y-86056429D01*
X120276285Y-85985000D01*
X120347714Y-85877857D01*
X120383428Y-85842143D01*
X120990571Y-86663571D02*
X120919142Y-86699286D01*
X120776285Y-86699286D01*
X120704857Y-86663571D01*
X120669142Y-86627857D01*
X120633428Y-86556429D01*
X120633428Y-86342143D01*
X120669142Y-86270714D01*
X120704857Y-86235000D01*
X120776285Y-86199286D01*
X120919142Y-86199286D01*
X120990571Y-86235000D01*
X121240571Y-86985000D02*
X121276285Y-86949286D01*
X121347714Y-86842143D01*
X121383428Y-86770714D01*
X121419142Y-86663571D01*
X121454857Y-86485000D01*
X121454857Y-86342143D01*
X121419142Y-86163571D01*
X121383428Y-86056429D01*
X121347714Y-85985000D01*
X121276285Y-85877857D01*
X121240571Y-85842143D01*
X121776285Y-86020714D02*
X121811999Y-85985000D01*
X121883428Y-85949286D01*
X122061999Y-85949286D01*
X122133428Y-85985000D01*
X122169142Y-86020714D01*
X122204857Y-86092143D01*
X122204857Y-86163571D01*
X122169142Y-86270714D01*
X121740571Y-86699286D01*
X122204857Y-86699286D01*
X122669143Y-85949286D02*
X122740571Y-85949286D01*
X122812000Y-85985000D01*
X122847714Y-86020714D01*
X122883428Y-86092143D01*
X122919143Y-86235000D01*
X122919143Y-86413571D01*
X122883428Y-86556429D01*
X122847714Y-86627857D01*
X122812000Y-86663571D01*
X122740571Y-86699286D01*
X122669143Y-86699286D01*
X122597714Y-86663571D01*
X122562000Y-86627857D01*
X122526285Y-86556429D01*
X122490571Y-86413571D01*
X122490571Y-86235000D01*
X122526285Y-86092143D01*
X122562000Y-86020714D01*
X122597714Y-85985000D01*
X122669143Y-85949286D01*
X123633429Y-86699286D02*
X123204857Y-86699286D01*
X123419143Y-86699286D02*
X123419143Y-85949286D01*
X123347714Y-86056429D01*
X123276286Y-86127857D01*
X123204857Y-86163571D01*
X123990572Y-86699286D02*
X124133429Y-86699286D01*
X124204857Y-86663571D01*
X124240572Y-86627857D01*
X124312000Y-86520714D01*
X124347715Y-86377857D01*
X124347715Y-86092143D01*
X124312000Y-86020714D01*
X124276286Y-85985000D01*
X124204857Y-85949286D01*
X124062000Y-85949286D01*
X123990572Y-85985000D01*
X123954857Y-86020714D01*
X123919143Y-86092143D01*
X123919143Y-86270714D01*
X123954857Y-86342143D01*
X123990572Y-86377857D01*
X124062000Y-86413571D01*
X124204857Y-86413571D01*
X124276286Y-86377857D01*
X124312000Y-86342143D01*
X124347715Y-86270714D01*
D12*
X128905000Y-66227000D02*
X131505000Y-66227000D01*
X131505000Y-66227000D02*
X131505000Y-63567000D01*
X131505000Y-63567000D02*
X128905000Y-63567000D01*
X128905000Y-63567000D02*
X128905000Y-66227000D01*
X127635000Y-66227000D02*
X126305000Y-66227000D01*
X126305000Y-66227000D02*
X126305000Y-64897000D01*
D11*
X132258641Y-51747146D02*
X130844427Y-50332932D01*
X130844427Y-50332932D02*
X126601786Y-54575573D01*
X126601786Y-54575573D02*
X128016000Y-55989786D01*
X129430214Y-57404000D02*
X130844427Y-58818214D01*
X130844427Y-58818214D02*
X135087068Y-54575573D01*
X135087068Y-54575573D02*
X133672854Y-53161359D01*
X139370641Y-58859146D02*
X137956427Y-57444932D01*
X137956427Y-57444932D02*
X133713786Y-61687573D01*
X133713786Y-61687573D02*
X135128000Y-63101786D01*
X136542214Y-64516000D02*
X137956427Y-65930214D01*
X137956427Y-65930214D02*
X142199068Y-61687573D01*
X142199068Y-61687573D02*
X140784854Y-60273359D01*
X139370641Y-45651146D02*
X137956427Y-44236932D01*
X137956427Y-44236932D02*
X133713786Y-48479573D01*
X133713786Y-48479573D02*
X135128000Y-49893786D01*
X136542214Y-51308000D02*
X137956427Y-52722214D01*
X137956427Y-52722214D02*
X142199068Y-48479573D01*
X142199068Y-48479573D02*
X140784854Y-47065359D01*
X146482641Y-51747146D02*
X145068427Y-50332932D01*
X145068427Y-50332932D02*
X140825786Y-54575573D01*
X140825786Y-54575573D02*
X142240000Y-55989786D01*
X143654214Y-57404000D02*
X145068427Y-58818214D01*
X145068427Y-58818214D02*
X149311068Y-54575573D01*
X149311068Y-54575573D02*
X147896854Y-53161359D01*
X145212641Y-75115146D02*
X143798427Y-73700932D01*
X143798427Y-73700932D02*
X139555786Y-77943573D01*
X139555786Y-77943573D02*
X140970000Y-79357786D01*
X142384214Y-80772000D02*
X143798427Y-82186214D01*
X143798427Y-82186214D02*
X148041068Y-77943573D01*
X148041068Y-77943573D02*
X146626854Y-76529359D01*
X104140000Y-74295000D02*
X130810000Y-74295000D01*
X130810000Y-74295000D02*
X130810000Y-81280000D01*
X130810000Y-81280000D02*
X104140000Y-81280000D01*
X104140000Y-81280000D02*
X104140000Y-74295000D01*
X99060000Y-84455000D02*
X137060000Y-84455000D01*
X137060000Y-84455000D02*
X137060000Y-72455000D01*
X137060000Y-72455000D02*
X99060000Y-72455000D01*
X99060000Y-72455000D02*
X99060000Y-84455000D01*
D12*
X147304000Y-82800000D02*
X145304000Y-82800000D01*
X145304000Y-84840000D02*
X147304000Y-84840000D01*
D11*
X100060000Y-65040000D02*
X100060000Y-66040000D01*
X122060000Y-65540000D02*
X122060000Y-66040000D01*
X122060000Y-65540000D02*
X122060000Y-63540000D01*
X122060000Y-63540000D02*
X120560000Y-60040000D01*
X120560000Y-60040000D02*
X120560000Y-52040000D01*
X120560000Y-52040000D02*
X109560000Y-52040000D01*
X109560000Y-52040000D02*
X109560000Y-60040000D01*
X109560000Y-60040000D02*
X100060000Y-65040000D01*
X99060000Y-66040000D02*
X99060000Y-36780000D01*
X99060000Y-36780000D02*
X125210000Y-36740000D01*
X125210000Y-36740000D02*
X125210000Y-66040000D01*
X125210000Y-66040000D02*
X99060000Y-66040000D01*
D12*
X126438000Y-47863000D02*
X126438000Y-45863000D01*
X128578000Y-45863000D02*
X128578000Y-47863000D01*
X140986000Y-39824000D02*
X142986000Y-39824000D01*
X142986000Y-41964000D02*
X140986000Y-41964000D01*
X147120000Y-44974000D02*
X147120000Y-46974000D01*
X144980000Y-46974000D02*
X144980000Y-44974000D01*
X142351000Y-72444000D02*
X140351000Y-72444000D01*
X140351000Y-70304000D02*
X142351000Y-70304000D01*
X145399000Y-37011000D02*
X143399000Y-37011000D01*
X143399000Y-34871000D02*
X145399000Y-34871000D01*
D13*
X135017000Y-38211000D02*
X135017000Y-36211000D01*
X135017000Y-36211000D02*
X137017000Y-36211000D01*
X137017000Y-36211000D02*
X137017000Y-37711000D01*
X137017000Y-37711000D02*
X136517000Y-38211000D01*
X136517000Y-38211000D02*
X135017000Y-38211000D01*
X135017000Y-39711000D02*
X137017000Y-39711000D01*
X138517000Y-37711000D02*
X138517000Y-36711000D01*
X135017000Y-34711000D02*
X137017000Y-34711000D01*
X133517000Y-37711000D02*
X133517000Y-36711000D01*
D14*
G36*
X120385621Y-41862592D02*
X120403862Y-41871874D01*
X120541194Y-42024277D01*
X120545444Y-42220864D01*
X120438334Y-42375667D01*
X120344395Y-42533738D01*
X120311334Y-42724700D01*
X120323317Y-42874587D01*
X120389849Y-42945584D01*
X120556805Y-42967027D01*
X120692334Y-42968333D01*
X121073334Y-42968333D01*
X121073334Y-49741667D01*
X118357094Y-49741667D01*
X116212558Y-50673000D01*
X115562777Y-50954917D01*
X115051615Y-51175614D01*
X114662484Y-51341574D01*
X114378795Y-51459281D01*
X114183957Y-51535219D01*
X114061383Y-51575874D01*
X113994482Y-51587729D01*
X113966667Y-51577268D01*
X113961334Y-51552942D01*
X114006979Y-51467038D01*
X114064139Y-51377403D01*
X114215334Y-51377403D01*
X114289142Y-51355311D01*
X114496756Y-51272735D01*
X114817460Y-51138447D01*
X115230537Y-50961222D01*
X115715271Y-50749832D01*
X116141500Y-50561675D01*
X118067667Y-49707008D01*
X119507000Y-49660837D01*
X120946334Y-49614667D01*
X120968506Y-46376167D01*
X120990679Y-43137667D01*
X114407683Y-43137667D01*
X114353842Y-43530484D01*
X114340926Y-43708641D01*
X114329122Y-44032930D01*
X114318813Y-44480151D01*
X114310383Y-45027103D01*
X114304214Y-45650586D01*
X114300691Y-46327400D01*
X114300000Y-46790150D01*
X114300000Y-49657000D01*
X114751556Y-49657000D01*
X115014568Y-49666445D01*
X115202629Y-49690679D01*
X115257480Y-49711368D01*
X115233727Y-49797992D01*
X115128133Y-49992118D01*
X114958131Y-50264069D01*
X114763591Y-50552100D01*
X114545434Y-50868236D01*
X114368441Y-51130876D01*
X114252094Y-51310695D01*
X114215334Y-51377403D01*
X114064139Y-51377403D01*
X114130906Y-51272705D01*
X114313602Y-50999756D01*
X114511667Y-50712210D01*
X114730445Y-50394417D01*
X114908007Y-50128877D01*
X115024857Y-49945263D01*
X115062000Y-49874601D01*
X114985805Y-49847059D01*
X114791000Y-49829584D01*
X114638667Y-49826333D01*
X114215334Y-49826333D01*
X114215334Y-42968333D01*
X114554000Y-42968333D01*
X114770836Y-42959362D01*
X114867200Y-42903970D01*
X114891910Y-42759441D01*
X114892667Y-42672000D01*
X114873669Y-42476100D01*
X114826959Y-42378214D01*
X114817059Y-42375666D01*
X114721485Y-42304982D01*
X114673197Y-42146470D01*
X114676100Y-42121667D01*
X114808000Y-42121667D01*
X114850852Y-42260627D01*
X114956167Y-42274882D01*
X115082126Y-42191396D01*
X115104334Y-42121667D01*
X115033949Y-42002118D01*
X114956167Y-41968451D01*
X114836155Y-41997903D01*
X114808000Y-42121667D01*
X114676100Y-42121667D01*
X114690204Y-42001213D01*
X114818513Y-41853539D01*
X115013168Y-41844090D01*
X115193174Y-41940490D01*
X115393973Y-42098438D01*
X115200444Y-42280249D01*
X115055116Y-42488575D01*
X115044067Y-42715197D01*
X115081219Y-42968333D01*
X120226667Y-42968333D01*
X120226667Y-42740957D01*
X120169274Y-42517475D01*
X120036167Y-42310431D01*
X119888304Y-42152749D01*
X120080875Y-42152749D01*
X120098005Y-42203644D01*
X120221723Y-42274022D01*
X120374668Y-42241369D01*
X120459525Y-42142878D01*
X120429640Y-42033242D01*
X120306617Y-41973051D01*
X120165284Y-41990299D01*
X120126753Y-42018380D01*
X120080875Y-42152749D01*
X119888304Y-42152749D01*
X119845667Y-42107282D01*
X120044029Y-41946370D01*
X120226168Y-41840085D01*
X120385621Y-41862592D01*
X120385621Y-41862592D01*
G37*
X120385621Y-41862592D02*
X120403862Y-41871874D01*
X120541194Y-42024277D01*
X120545444Y-42220864D01*
X120438334Y-42375667D01*
X120344395Y-42533738D01*
X120311334Y-42724700D01*
X120323317Y-42874587D01*
X120389849Y-42945584D01*
X120556805Y-42967027D01*
X120692334Y-42968333D01*
X121073334Y-42968333D01*
X121073334Y-49741667D01*
X118357094Y-49741667D01*
X116212558Y-50673000D01*
X115562777Y-50954917D01*
X115051615Y-51175614D01*
X114662484Y-51341574D01*
X114378795Y-51459281D01*
X114183957Y-51535219D01*
X114061383Y-51575874D01*
X113994482Y-51587729D01*
X113966667Y-51577268D01*
X113961334Y-51552942D01*
X114006979Y-51467038D01*
X114064139Y-51377403D01*
X114215334Y-51377403D01*
X114289142Y-51355311D01*
X114496756Y-51272735D01*
X114817460Y-51138447D01*
X115230537Y-50961222D01*
X115715271Y-50749832D01*
X116141500Y-50561675D01*
X118067667Y-49707008D01*
X119507000Y-49660837D01*
X120946334Y-49614667D01*
X120968506Y-46376167D01*
X120990679Y-43137667D01*
X114407683Y-43137667D01*
X114353842Y-43530484D01*
X114340926Y-43708641D01*
X114329122Y-44032930D01*
X114318813Y-44480151D01*
X114310383Y-45027103D01*
X114304214Y-45650586D01*
X114300691Y-46327400D01*
X114300000Y-46790150D01*
X114300000Y-49657000D01*
X114751556Y-49657000D01*
X115014568Y-49666445D01*
X115202629Y-49690679D01*
X115257480Y-49711368D01*
X115233727Y-49797992D01*
X115128133Y-49992118D01*
X114958131Y-50264069D01*
X114763591Y-50552100D01*
X114545434Y-50868236D01*
X114368441Y-51130876D01*
X114252094Y-51310695D01*
X114215334Y-51377403D01*
X114064139Y-51377403D01*
X114130906Y-51272705D01*
X114313602Y-50999756D01*
X114511667Y-50712210D01*
X114730445Y-50394417D01*
X114908007Y-50128877D01*
X115024857Y-49945263D01*
X115062000Y-49874601D01*
X114985805Y-49847059D01*
X114791000Y-49829584D01*
X114638667Y-49826333D01*
X114215334Y-49826333D01*
X114215334Y-42968333D01*
X114554000Y-42968333D01*
X114770836Y-42959362D01*
X114867200Y-42903970D01*
X114891910Y-42759441D01*
X114892667Y-42672000D01*
X114873669Y-42476100D01*
X114826959Y-42378214D01*
X114817059Y-42375666D01*
X114721485Y-42304982D01*
X114673197Y-42146470D01*
X114676100Y-42121667D01*
X114808000Y-42121667D01*
X114850852Y-42260627D01*
X114956167Y-42274882D01*
X115082126Y-42191396D01*
X115104334Y-42121667D01*
X115033949Y-42002118D01*
X114956167Y-41968451D01*
X114836155Y-41997903D01*
X114808000Y-42121667D01*
X114676100Y-42121667D01*
X114690204Y-42001213D01*
X114818513Y-41853539D01*
X115013168Y-41844090D01*
X115193174Y-41940490D01*
X115393973Y-42098438D01*
X115200444Y-42280249D01*
X115055116Y-42488575D01*
X115044067Y-42715197D01*
X115081219Y-42968333D01*
X120226667Y-42968333D01*
X120226667Y-42740957D01*
X120169274Y-42517475D01*
X120036167Y-42310431D01*
X119888304Y-42152749D01*
X120080875Y-42152749D01*
X120098005Y-42203644D01*
X120221723Y-42274022D01*
X120374668Y-42241369D01*
X120459525Y-42142878D01*
X120429640Y-42033242D01*
X120306617Y-41973051D01*
X120165284Y-41990299D01*
X120126753Y-42018380D01*
X120080875Y-42152749D01*
X119888304Y-42152749D01*
X119845667Y-42107282D01*
X120044029Y-41946370D01*
X120226168Y-41840085D01*
X120385621Y-41862592D01*
G36*
X109374582Y-50402106D02*
X109389334Y-50461333D01*
X109321561Y-50573582D01*
X109262334Y-50588333D01*
X109150085Y-50520560D01*
X109135334Y-50461333D01*
X109203106Y-50349085D01*
X109262334Y-50334333D01*
X109374582Y-50402106D01*
X109374582Y-50402106D01*
G37*
X109374582Y-50402106D02*
X109389334Y-50461333D01*
X109321561Y-50573582D01*
X109262334Y-50588333D01*
X109150085Y-50520560D01*
X109135334Y-50461333D01*
X109203106Y-50349085D01*
X109262334Y-50334333D01*
X109374582Y-50402106D01*
G36*
X110621978Y-49812929D02*
X110737510Y-49918425D01*
X110744000Y-49954946D01*
X110697772Y-50066579D01*
X110659334Y-50080333D01*
X110577127Y-50015904D01*
X110574667Y-49995667D01*
X110500238Y-49939704D01*
X110317223Y-49911731D01*
X110278334Y-49911000D01*
X110079239Y-49925159D01*
X109997578Y-49996979D01*
X109982000Y-50165000D01*
X109998520Y-50335653D01*
X110082310Y-50405647D01*
X110278334Y-50419000D01*
X110474182Y-50396485D01*
X110572100Y-50341120D01*
X110574667Y-50329336D01*
X110626537Y-50278770D01*
X110659334Y-50292000D01*
X110737238Y-50414502D01*
X110744000Y-50466330D01*
X110697391Y-50540469D01*
X110538174Y-50578588D01*
X110273695Y-50588333D01*
X109803389Y-50588333D01*
X109829195Y-50186167D01*
X109853763Y-49941297D01*
X109906164Y-49817874D01*
X110016333Y-49768023D01*
X110098064Y-49756222D01*
X110394595Y-49754482D01*
X110621978Y-49812929D01*
X110621978Y-49812929D01*
G37*
X110621978Y-49812929D02*
X110737510Y-49918425D01*
X110744000Y-49954946D01*
X110697772Y-50066579D01*
X110659334Y-50080333D01*
X110577127Y-50015904D01*
X110574667Y-49995667D01*
X110500238Y-49939704D01*
X110317223Y-49911731D01*
X110278334Y-49911000D01*
X110079239Y-49925159D01*
X109997578Y-49996979D01*
X109982000Y-50165000D01*
X109998520Y-50335653D01*
X110082310Y-50405647D01*
X110278334Y-50419000D01*
X110474182Y-50396485D01*
X110572100Y-50341120D01*
X110574667Y-50329336D01*
X110626537Y-50278770D01*
X110659334Y-50292000D01*
X110737238Y-50414502D01*
X110744000Y-50466330D01*
X110697391Y-50540469D01*
X110538174Y-50578588D01*
X110273695Y-50588333D01*
X109803389Y-50588333D01*
X109829195Y-50186167D01*
X109853763Y-49941297D01*
X109906164Y-49817874D01*
X110016333Y-49768023D01*
X110098064Y-49756222D01*
X110394595Y-49754482D01*
X110621978Y-49812929D01*
G36*
X112082139Y-50186167D02*
X112107945Y-50588333D01*
X111073389Y-50588333D01*
X111099195Y-50186167D01*
X111100553Y-50165000D01*
X111252000Y-50165000D01*
X111265374Y-50327867D01*
X111337846Y-50400268D01*
X111517945Y-50418599D01*
X111590667Y-50419000D01*
X111807822Y-50408970D01*
X111904357Y-50354615D01*
X111928799Y-50219541D01*
X111929334Y-50165000D01*
X111915960Y-50002133D01*
X111843487Y-49929732D01*
X111663389Y-49911401D01*
X111590667Y-49911000D01*
X111373511Y-49921030D01*
X111276976Y-49975385D01*
X111252534Y-50110458D01*
X111252000Y-50165000D01*
X111100553Y-50165000D01*
X111125000Y-49784000D01*
X112056334Y-49784000D01*
X112082139Y-50186167D01*
X112082139Y-50186167D01*
G37*
X112082139Y-50186167D02*
X112107945Y-50588333D01*
X111073389Y-50588333D01*
X111099195Y-50186167D01*
X111100553Y-50165000D01*
X111252000Y-50165000D01*
X111265374Y-50327867D01*
X111337846Y-50400268D01*
X111517945Y-50418599D01*
X111590667Y-50419000D01*
X111807822Y-50408970D01*
X111904357Y-50354615D01*
X111928799Y-50219541D01*
X111929334Y-50165000D01*
X111915960Y-50002133D01*
X111843487Y-49929732D01*
X111663389Y-49911401D01*
X111590667Y-49911000D01*
X111373511Y-49921030D01*
X111276976Y-49975385D01*
X111252534Y-50110458D01*
X111252000Y-50165000D01*
X111100553Y-50165000D01*
X111125000Y-49784000D01*
X112056334Y-49784000D01*
X112082139Y-50186167D01*
G36*
X113535518Y-50143833D02*
X113522364Y-50392143D01*
X113485914Y-50553481D01*
X113453334Y-50588333D01*
X113394888Y-50514509D01*
X113368762Y-50335555D01*
X113368667Y-50322915D01*
X113368667Y-50057497D01*
X113183873Y-50292424D01*
X112999079Y-50527352D01*
X112803294Y-50282676D01*
X112607508Y-50038000D01*
X112607087Y-50313167D01*
X112584022Y-50500464D01*
X112528404Y-50587548D01*
X112522000Y-50588333D01*
X112471228Y-50512720D01*
X112441007Y-50321674D01*
X112437334Y-50212330D01*
X112458290Y-49926499D01*
X112524797Y-49802113D01*
X112642311Y-49836098D01*
X112801981Y-50006914D01*
X113010838Y-50273784D01*
X113271937Y-49986559D01*
X113533036Y-49699333D01*
X113535518Y-50143833D01*
X113535518Y-50143833D01*
G37*
X113535518Y-50143833D02*
X113522364Y-50392143D01*
X113485914Y-50553481D01*
X113453334Y-50588333D01*
X113394888Y-50514509D01*
X113368762Y-50335555D01*
X113368667Y-50322915D01*
X113368667Y-50057497D01*
X113183873Y-50292424D01*
X112999079Y-50527352D01*
X112803294Y-50282676D01*
X112607508Y-50038000D01*
X112607087Y-50313167D01*
X112584022Y-50500464D01*
X112528404Y-50587548D01*
X112522000Y-50588333D01*
X112471228Y-50512720D01*
X112441007Y-50321674D01*
X112437334Y-50212330D01*
X112458290Y-49926499D01*
X112524797Y-49802113D01*
X112642311Y-49836098D01*
X112801981Y-50006914D01*
X113010838Y-50273784D01*
X113271937Y-49986559D01*
X113533036Y-49699333D01*
X113535518Y-50143833D01*
G36*
X107414364Y-46712527D02*
X107618340Y-46760593D01*
X107679067Y-46795267D01*
X107726970Y-46924742D01*
X107759442Y-47205803D01*
X107776990Y-47644758D01*
X107780667Y-48062288D01*
X107778812Y-48530922D01*
X107770789Y-48858472D01*
X107752906Y-49073168D01*
X107721476Y-49203241D01*
X107672808Y-49276921D01*
X107616900Y-49315354D01*
X107365119Y-49384015D01*
X107043626Y-49388882D01*
X106739580Y-49329924D01*
X106701167Y-49315695D01*
X106625399Y-49278093D01*
X106572951Y-49218017D01*
X106539540Y-49107416D01*
X106520883Y-48918240D01*
X106512698Y-48622438D01*
X106511803Y-48429424D01*
X107029322Y-48429424D01*
X107043315Y-48745455D01*
X107080427Y-48917576D01*
X107142643Y-48957957D01*
X107194007Y-48922860D01*
X107230305Y-48801936D01*
X107252526Y-48548467D01*
X107258225Y-48198840D01*
X107254731Y-48019271D01*
X107231037Y-47584729D01*
X107194575Y-47309555D01*
X107151336Y-47195450D01*
X107107316Y-47244115D01*
X107068506Y-47457251D01*
X107040901Y-47836560D01*
X107036460Y-47957315D01*
X107029322Y-48429424D01*
X106511803Y-48429424D01*
X106510701Y-48191960D01*
X106510667Y-48067995D01*
X106517713Y-47510427D01*
X106539194Y-47115151D01*
X106575627Y-46875697D01*
X106612267Y-46795267D01*
X106751207Y-46736481D01*
X106992172Y-46699796D01*
X107145667Y-46693667D01*
X107414364Y-46712527D01*
X107414364Y-46712527D01*
G37*
X107414364Y-46712527D02*
X107618340Y-46760593D01*
X107679067Y-46795267D01*
X107726970Y-46924742D01*
X107759442Y-47205803D01*
X107776990Y-47644758D01*
X107780667Y-48062288D01*
X107778812Y-48530922D01*
X107770789Y-48858472D01*
X107752906Y-49073168D01*
X107721476Y-49203241D01*
X107672808Y-49276921D01*
X107616900Y-49315354D01*
X107365119Y-49384015D01*
X107043626Y-49388882D01*
X106739580Y-49329924D01*
X106701167Y-49315695D01*
X106625399Y-49278093D01*
X106572951Y-49218017D01*
X106539540Y-49107416D01*
X106520883Y-48918240D01*
X106512698Y-48622438D01*
X106511803Y-48429424D01*
X107029322Y-48429424D01*
X107043315Y-48745455D01*
X107080427Y-48917576D01*
X107142643Y-48957957D01*
X107194007Y-48922860D01*
X107230305Y-48801936D01*
X107252526Y-48548467D01*
X107258225Y-48198840D01*
X107254731Y-48019271D01*
X107231037Y-47584729D01*
X107194575Y-47309555D01*
X107151336Y-47195450D01*
X107107316Y-47244115D01*
X107068506Y-47457251D01*
X107040901Y-47836560D01*
X107036460Y-47957315D01*
X107029322Y-48429424D01*
X106511803Y-48429424D01*
X106510701Y-48191960D01*
X106510667Y-48067995D01*
X106517713Y-47510427D01*
X106539194Y-47115151D01*
X106575627Y-46875697D01*
X106612267Y-46795267D01*
X106751207Y-46736481D01*
X106992172Y-46699796D01*
X107145667Y-46693667D01*
X107414364Y-46712527D01*
G36*
X108508698Y-46705650D02*
X108595710Y-46768029D01*
X108656634Y-46920445D01*
X108715290Y-47180500D01*
X108786567Y-47519171D01*
X108831571Y-47695200D01*
X108856853Y-47712066D01*
X108868962Y-47573249D01*
X108874448Y-47282229D01*
X108874649Y-47265167D01*
X108881334Y-46693667D01*
X109389334Y-46693667D01*
X109389334Y-49403000D01*
X109144392Y-49403000D01*
X108988354Y-49387688D01*
X108888093Y-49318355D01*
X108821547Y-49159901D01*
X108766652Y-48877228D01*
X108751375Y-48777783D01*
X108692339Y-48485608D01*
X108633673Y-48359771D01*
X108583757Y-48397464D01*
X108550972Y-48595882D01*
X108542667Y-48847670D01*
X108539034Y-49145159D01*
X108518456Y-49311421D01*
X108466416Y-49384544D01*
X108368397Y-49402617D01*
X108331000Y-49403000D01*
X108119334Y-49403000D01*
X108119334Y-46693667D01*
X108367262Y-46693667D01*
X108508698Y-46705650D01*
X108508698Y-46705650D01*
G37*
X108508698Y-46705650D02*
X108595710Y-46768029D01*
X108656634Y-46920445D01*
X108715290Y-47180500D01*
X108786567Y-47519171D01*
X108831571Y-47695200D01*
X108856853Y-47712066D01*
X108868962Y-47573249D01*
X108874448Y-47282229D01*
X108874649Y-47265167D01*
X108881334Y-46693667D01*
X109389334Y-46693667D01*
X109389334Y-49403000D01*
X109144392Y-49403000D01*
X108988354Y-49387688D01*
X108888093Y-49318355D01*
X108821547Y-49159901D01*
X108766652Y-48877228D01*
X108751375Y-48777783D01*
X108692339Y-48485608D01*
X108633673Y-48359771D01*
X108583757Y-48397464D01*
X108550972Y-48595882D01*
X108542667Y-48847670D01*
X108539034Y-49145159D01*
X108518456Y-49311421D01*
X108466416Y-49384544D01*
X108368397Y-49402617D01*
X108331000Y-49403000D01*
X108119334Y-49403000D01*
X108119334Y-46693667D01*
X108367262Y-46693667D01*
X108508698Y-46705650D01*
G36*
X110639770Y-46717782D02*
X110742520Y-46789688D01*
X110744000Y-46803017D01*
X110754923Y-46940363D01*
X110784190Y-47204710D01*
X110826551Y-47555375D01*
X110876756Y-47951679D01*
X110929554Y-48352940D01*
X110979695Y-48718477D01*
X111021929Y-49007608D01*
X111050281Y-49176130D01*
X111070152Y-49336442D01*
X111010067Y-49394455D01*
X110827075Y-49388895D01*
X110815537Y-49387797D01*
X110618488Y-49348426D01*
X110532594Y-49244078D01*
X110505419Y-49080360D01*
X110454082Y-48883409D01*
X110373505Y-48838149D01*
X110294630Y-48937994D01*
X110251802Y-49134353D01*
X110213451Y-49320661D01*
X110110875Y-49392594D01*
X109951267Y-49403000D01*
X109677263Y-49403000D01*
X109843496Y-48048333D01*
X109851288Y-47984833D01*
X110327351Y-47984833D01*
X110336224Y-48219251D01*
X110366302Y-48364198D01*
X110388332Y-48387000D01*
X110424326Y-48312829D01*
X110429211Y-48128723D01*
X110424529Y-48069500D01*
X110390796Y-47792585D01*
X110361987Y-47678495D01*
X110340341Y-47729181D01*
X110328097Y-47946591D01*
X110327351Y-47984833D01*
X109851288Y-47984833D01*
X110009729Y-46693667D01*
X110376864Y-46693667D01*
X110639770Y-46717782D01*
X110639770Y-46717782D01*
G37*
X110639770Y-46717782D02*
X110742520Y-46789688D01*
X110744000Y-46803017D01*
X110754923Y-46940363D01*
X110784190Y-47204710D01*
X110826551Y-47555375D01*
X110876756Y-47951679D01*
X110929554Y-48352940D01*
X110979695Y-48718477D01*
X111021929Y-49007608D01*
X111050281Y-49176130D01*
X111070152Y-49336442D01*
X111010067Y-49394455D01*
X110827075Y-49388895D01*
X110815537Y-49387797D01*
X110618488Y-49348426D01*
X110532594Y-49244078D01*
X110505419Y-49080360D01*
X110454082Y-48883409D01*
X110373505Y-48838149D01*
X110294630Y-48937994D01*
X110251802Y-49134353D01*
X110213451Y-49320661D01*
X110110875Y-49392594D01*
X109951267Y-49403000D01*
X109677263Y-49403000D01*
X109843496Y-48048333D01*
X109851288Y-47984833D01*
X110327351Y-47984833D01*
X110336224Y-48219251D01*
X110366302Y-48364198D01*
X110388332Y-48387000D01*
X110424326Y-48312829D01*
X110429211Y-48128723D01*
X110424529Y-48069500D01*
X110390796Y-47792585D01*
X110361987Y-47678495D01*
X110340341Y-47729181D01*
X110328097Y-47946591D01*
X110327351Y-47984833D01*
X109851288Y-47984833D01*
X110009729Y-46693667D01*
X110376864Y-46693667D01*
X110639770Y-46717782D01*
G36*
X111929334Y-49403000D02*
X111336667Y-49403000D01*
X111336667Y-46693667D01*
X111929334Y-46693667D01*
X111929334Y-49403000D01*
X111929334Y-49403000D01*
G37*
X111929334Y-49403000D02*
X111336667Y-49403000D01*
X111336667Y-46693667D01*
X111929334Y-46693667D01*
X111929334Y-49403000D01*
G36*
X113087925Y-46708518D02*
X113331874Y-46748467D01*
X113436400Y-46795267D01*
X113497746Y-46943912D01*
X113529974Y-47195378D01*
X113533085Y-47485676D01*
X113507079Y-47750817D01*
X113451955Y-47926809D01*
X113436400Y-47946733D01*
X113378395Y-48061947D01*
X113436400Y-48149933D01*
X113491813Y-48289507D01*
X113527813Y-48551884D01*
X113538000Y-48827266D01*
X113538000Y-49403000D01*
X112945334Y-49403000D01*
X112945334Y-48852667D01*
X112933371Y-48565084D01*
X112901681Y-48368190D01*
X112860667Y-48302333D01*
X112816423Y-48380091D01*
X112786132Y-48586073D01*
X112776000Y-48852667D01*
X112773046Y-49148272D01*
X112753040Y-49312890D01*
X112699268Y-49384865D01*
X112595015Y-49402543D01*
X112536111Y-49403000D01*
X112342203Y-49384867D01*
X112239778Y-49346555D01*
X112220248Y-49246431D01*
X112203646Y-49007629D01*
X112191250Y-48660796D01*
X112184338Y-48236579D01*
X112183334Y-47991889D01*
X112183334Y-47574612D01*
X112777755Y-47574612D01*
X112800206Y-47752954D01*
X112832445Y-47822555D01*
X112898213Y-47869738D01*
X112932083Y-47821574D01*
X112944228Y-47648822D01*
X112945334Y-47498000D01*
X112928517Y-47270780D01*
X112885970Y-47134482D01*
X112860667Y-47117000D01*
X112810649Y-47190043D01*
X112782124Y-47364777D01*
X112777755Y-47574612D01*
X112183334Y-47574612D01*
X112183334Y-46693667D01*
X112759067Y-46693667D01*
X113087925Y-46708518D01*
X113087925Y-46708518D01*
G37*
X113087925Y-46708518D02*
X113331874Y-46748467D01*
X113436400Y-46795267D01*
X113497746Y-46943912D01*
X113529974Y-47195378D01*
X113533085Y-47485676D01*
X113507079Y-47750817D01*
X113451955Y-47926809D01*
X113436400Y-47946733D01*
X113378395Y-48061947D01*
X113436400Y-48149933D01*
X113491813Y-48289507D01*
X113527813Y-48551884D01*
X113538000Y-48827266D01*
X113538000Y-49403000D01*
X112945334Y-49403000D01*
X112945334Y-48852667D01*
X112933371Y-48565084D01*
X112901681Y-48368190D01*
X112860667Y-48302333D01*
X112816423Y-48380091D01*
X112786132Y-48586073D01*
X112776000Y-48852667D01*
X112773046Y-49148272D01*
X112753040Y-49312890D01*
X112699268Y-49384865D01*
X112595015Y-49402543D01*
X112536111Y-49403000D01*
X112342203Y-49384867D01*
X112239778Y-49346555D01*
X112220248Y-49246431D01*
X112203646Y-49007629D01*
X112191250Y-48660796D01*
X112184338Y-48236579D01*
X112183334Y-47991889D01*
X112183334Y-47574612D01*
X112777755Y-47574612D01*
X112800206Y-47752954D01*
X112832445Y-47822555D01*
X112898213Y-47869738D01*
X112932083Y-47821574D01*
X112944228Y-47648822D01*
X112945334Y-47498000D01*
X112928517Y-47270780D01*
X112885970Y-47134482D01*
X112860667Y-47117000D01*
X112810649Y-47190043D01*
X112782124Y-47364777D01*
X112777755Y-47574612D01*
X112183334Y-47574612D01*
X112183334Y-46693667D01*
X112759067Y-46693667D01*
X113087925Y-46708518D01*
G36*
X107653876Y-43292983D02*
X107879961Y-43394777D01*
X107997799Y-43595316D01*
X108034429Y-43919866D01*
X108034667Y-43958182D01*
X108034667Y-44323000D01*
X107696000Y-44323000D01*
X107479164Y-44314029D01*
X107382801Y-44258637D01*
X107358091Y-44114107D01*
X107357334Y-44026667D01*
X107336068Y-43830799D01*
X107283778Y-43732893D01*
X107272667Y-43730333D01*
X107216625Y-43804743D01*
X107188702Y-43987629D01*
X107188000Y-44025604D01*
X107210817Y-44227181D01*
X107306188Y-44373942D01*
X107514495Y-44526970D01*
X107523026Y-44532368D01*
X107789571Y-44728719D01*
X107945710Y-44935950D01*
X108018376Y-45207667D01*
X108034667Y-45550667D01*
X108021298Y-45924541D01*
X107961623Y-46160914D01*
X107826292Y-46290768D01*
X107585955Y-46345083D01*
X107272667Y-46355000D01*
X106950492Y-46347617D01*
X106755606Y-46318723D01*
X106646349Y-46258201D01*
X106598312Y-46191233D01*
X106549131Y-46016716D01*
X106517331Y-45745276D01*
X106510667Y-45551122D01*
X106510667Y-45074778D01*
X106828167Y-45101056D01*
X107028151Y-45128092D01*
X107124212Y-45198939D01*
X107161647Y-45364506D01*
X107171702Y-45487167D01*
X107212084Y-45743598D01*
X107270248Y-45837398D01*
X107325189Y-45770768D01*
X107355901Y-45545908D01*
X107357334Y-45467721D01*
X107345049Y-45225070D01*
X107279899Y-45081845D01*
X107119441Y-44968458D01*
X107021498Y-44917111D01*
X106756178Y-44751426D01*
X106599695Y-44557311D01*
X106526494Y-44286784D01*
X106510667Y-43957933D01*
X106533639Y-43629356D01*
X106622115Y-43422194D01*
X106805440Y-43310429D01*
X107112954Y-43268042D01*
X107292505Y-43264667D01*
X107653876Y-43292983D01*
X107653876Y-43292983D01*
G37*
X107653876Y-43292983D02*
X107879961Y-43394777D01*
X107997799Y-43595316D01*
X108034429Y-43919866D01*
X108034667Y-43958182D01*
X108034667Y-44323000D01*
X107696000Y-44323000D01*
X107479164Y-44314029D01*
X107382801Y-44258637D01*
X107358091Y-44114107D01*
X107357334Y-44026667D01*
X107336068Y-43830799D01*
X107283778Y-43732893D01*
X107272667Y-43730333D01*
X107216625Y-43804743D01*
X107188702Y-43987629D01*
X107188000Y-44025604D01*
X107210817Y-44227181D01*
X107306188Y-44373942D01*
X107514495Y-44526970D01*
X107523026Y-44532368D01*
X107789571Y-44728719D01*
X107945710Y-44935950D01*
X108018376Y-45207667D01*
X108034667Y-45550667D01*
X108021298Y-45924541D01*
X107961623Y-46160914D01*
X107826292Y-46290768D01*
X107585955Y-46345083D01*
X107272667Y-46355000D01*
X106950492Y-46347617D01*
X106755606Y-46318723D01*
X106646349Y-46258201D01*
X106598312Y-46191233D01*
X106549131Y-46016716D01*
X106517331Y-45745276D01*
X106510667Y-45551122D01*
X106510667Y-45074778D01*
X106828167Y-45101056D01*
X107028151Y-45128092D01*
X107124212Y-45198939D01*
X107161647Y-45364506D01*
X107171702Y-45487167D01*
X107212084Y-45743598D01*
X107270248Y-45837398D01*
X107325189Y-45770768D01*
X107355901Y-45545908D01*
X107357334Y-45467721D01*
X107345049Y-45225070D01*
X107279899Y-45081845D01*
X107119441Y-44968458D01*
X107021498Y-44917111D01*
X106756178Y-44751426D01*
X106599695Y-44557311D01*
X106526494Y-44286784D01*
X106510667Y-43957933D01*
X106533639Y-43629356D01*
X106622115Y-43422194D01*
X106805440Y-43310429D01*
X107112954Y-43268042D01*
X107292505Y-43264667D01*
X107653876Y-43292983D01*
G36*
X109579834Y-43238135D02*
X109855000Y-43264667D01*
X109878077Y-44809833D01*
X109901153Y-46355000D01*
X109243138Y-46355000D01*
X109134574Y-45825833D01*
X109048371Y-45443665D01*
X108980769Y-45229519D01*
X108931306Y-45183161D01*
X108899520Y-45304358D01*
X108884949Y-45592874D01*
X108883908Y-45698833D01*
X108881334Y-46355000D01*
X108373334Y-46355000D01*
X108373334Y-43222333D01*
X108663664Y-43222333D01*
X108827484Y-43230316D01*
X108924255Y-43280717D01*
X108985584Y-43413219D01*
X109043077Y-43667501D01*
X109051436Y-43709167D01*
X109140061Y-44136331D01*
X109204404Y-44400505D01*
X109248392Y-44505664D01*
X109275952Y-44455786D01*
X109291014Y-44254845D01*
X109297031Y-43957802D01*
X109304667Y-43211604D01*
X109579834Y-43238135D01*
X109579834Y-43238135D01*
G37*
X109579834Y-43238135D02*
X109855000Y-43264667D01*
X109878077Y-44809833D01*
X109901153Y-46355000D01*
X109243138Y-46355000D01*
X109134574Y-45825833D01*
X109048371Y-45443665D01*
X108980769Y-45229519D01*
X108931306Y-45183161D01*
X108899520Y-45304358D01*
X108884949Y-45592874D01*
X108883908Y-45698833D01*
X108881334Y-46355000D01*
X108373334Y-46355000D01*
X108373334Y-43222333D01*
X108663664Y-43222333D01*
X108827484Y-43230316D01*
X108924255Y-43280717D01*
X108985584Y-43413219D01*
X109043077Y-43667501D01*
X109051436Y-43709167D01*
X109140061Y-44136331D01*
X109204404Y-44400505D01*
X109248392Y-44505664D01*
X109275952Y-44455786D01*
X109291014Y-44254845D01*
X109297031Y-43957802D01*
X109304667Y-43211604D01*
X109579834Y-43238135D01*
G36*
X111398384Y-43234213D02*
X111421334Y-43242533D01*
X111432221Y-43339821D01*
X111461778Y-43570517D01*
X111505345Y-43900310D01*
X111558264Y-44294890D01*
X111615876Y-44719946D01*
X111673523Y-45141168D01*
X111726545Y-45524244D01*
X111770285Y-45834864D01*
X111800083Y-46038717D01*
X111806579Y-46079833D01*
X111826869Y-46255216D01*
X111780954Y-46333702D01*
X111626806Y-46354262D01*
X111509837Y-46355000D01*
X111291398Y-46346317D01*
X111193704Y-46292263D01*
X111168199Y-46150826D01*
X111167334Y-46058667D01*
X111136049Y-45832544D01*
X111049392Y-45762333D01*
X110917453Y-45838794D01*
X110840505Y-46042896D01*
X110828667Y-46192591D01*
X110793466Y-46304277D01*
X110658948Y-46349762D01*
X110526241Y-46355000D01*
X110223816Y-46355000D01*
X110284300Y-45868167D01*
X110319523Y-45587731D01*
X110369513Y-45193704D01*
X110374827Y-45152061D01*
X110926129Y-45152061D01*
X110969209Y-45241723D01*
X111019167Y-45254449D01*
X111079812Y-45199326D01*
X111100163Y-45018841D01*
X111089497Y-44767615D01*
X111053995Y-44280667D01*
X110988543Y-44619333D01*
X110933006Y-44953552D01*
X110926129Y-45152061D01*
X110374827Y-45152061D01*
X110427354Y-44740436D01*
X110480893Y-44323000D01*
X110617000Y-43264667D01*
X111019167Y-43238861D01*
X111253409Y-43229384D01*
X111398384Y-43234213D01*
X111398384Y-43234213D01*
G37*
X111398384Y-43234213D02*
X111421334Y-43242533D01*
X111432221Y-43339821D01*
X111461778Y-43570517D01*
X111505345Y-43900310D01*
X111558264Y-44294890D01*
X111615876Y-44719946D01*
X111673523Y-45141168D01*
X111726545Y-45524244D01*
X111770285Y-45834864D01*
X111800083Y-46038717D01*
X111806579Y-46079833D01*
X111826869Y-46255216D01*
X111780954Y-46333702D01*
X111626806Y-46354262D01*
X111509837Y-46355000D01*
X111291398Y-46346317D01*
X111193704Y-46292263D01*
X111168199Y-46150826D01*
X111167334Y-46058667D01*
X111136049Y-45832544D01*
X111049392Y-45762333D01*
X110917453Y-45838794D01*
X110840505Y-46042896D01*
X110828667Y-46192591D01*
X110793466Y-46304277D01*
X110658948Y-46349762D01*
X110526241Y-46355000D01*
X110223816Y-46355000D01*
X110284300Y-45868167D01*
X110319523Y-45587731D01*
X110369513Y-45193704D01*
X110374827Y-45152061D01*
X110926129Y-45152061D01*
X110969209Y-45241723D01*
X111019167Y-45254449D01*
X111079812Y-45199326D01*
X111100163Y-45018841D01*
X111089497Y-44767615D01*
X111053995Y-44280667D01*
X110988543Y-44619333D01*
X110933006Y-44953552D01*
X110926129Y-45152061D01*
X110374827Y-45152061D01*
X110427354Y-44740436D01*
X110480893Y-44323000D01*
X110617000Y-43264667D01*
X111019167Y-43238861D01*
X111253409Y-43229384D01*
X111398384Y-43234213D01*
G36*
X112730600Y-43240620D02*
X113056402Y-43274338D01*
X113325655Y-43325374D01*
X113484720Y-43383274D01*
X113492600Y-43389121D01*
X113560285Y-43491318D01*
X113601160Y-43681468D01*
X113619981Y-43990749D01*
X113622667Y-44241775D01*
X113617226Y-44593308D01*
X113602712Y-44888796D01*
X113581838Y-45080621D01*
X113572834Y-45116345D01*
X113459306Y-45212484D01*
X113230543Y-45287617D01*
X113149501Y-45302217D01*
X112776000Y-45358227D01*
X112776000Y-46355000D01*
X112098667Y-46355000D01*
X112098667Y-44280667D01*
X112776000Y-44280667D01*
X112787963Y-44568249D01*
X112819652Y-44765143D01*
X112860667Y-44831000D01*
X112904910Y-44753242D01*
X112935202Y-44547260D01*
X112945334Y-44280667D01*
X112933371Y-43993084D01*
X112901681Y-43796190D01*
X112860667Y-43730333D01*
X112816423Y-43808091D01*
X112786132Y-44014073D01*
X112776000Y-44280667D01*
X112098667Y-44280667D01*
X112098667Y-43200065D01*
X112730600Y-43240620D01*
X112730600Y-43240620D01*
G37*
X112730600Y-43240620D02*
X113056402Y-43274338D01*
X113325655Y-43325374D01*
X113484720Y-43383274D01*
X113492600Y-43389121D01*
X113560285Y-43491318D01*
X113601160Y-43681468D01*
X113619981Y-43990749D01*
X113622667Y-44241775D01*
X113617226Y-44593308D01*
X113602712Y-44888796D01*
X113581838Y-45080621D01*
X113572834Y-45116345D01*
X113459306Y-45212484D01*
X113230543Y-45287617D01*
X113149501Y-45302217D01*
X112776000Y-45358227D01*
X112776000Y-46355000D01*
X112098667Y-46355000D01*
X112098667Y-44280667D01*
X112776000Y-44280667D01*
X112787963Y-44568249D01*
X112819652Y-44765143D01*
X112860667Y-44831000D01*
X112904910Y-44753242D01*
X112935202Y-44547260D01*
X112945334Y-44280667D01*
X112933371Y-43993084D01*
X112901681Y-43796190D01*
X112860667Y-43730333D01*
X112816423Y-43808091D01*
X112786132Y-44014073D01*
X112776000Y-44280667D01*
X112098667Y-44280667D01*
X112098667Y-43200065D01*
X112730600Y-43240620D01*
G36*
X117474596Y-41523549D02*
X117504060Y-41739819D01*
X117517051Y-42061074D01*
X117517334Y-42121667D01*
X117507431Y-42457099D01*
X117480398Y-42692813D01*
X117440241Y-42796742D01*
X117432667Y-42799000D01*
X117390738Y-42719784D01*
X117361273Y-42503514D01*
X117348282Y-42182259D01*
X117348000Y-42121667D01*
X117357902Y-41786234D01*
X117384936Y-41550520D01*
X117425093Y-41446591D01*
X117432667Y-41444333D01*
X117474596Y-41523549D01*
X117474596Y-41523549D01*
G37*
X117474596Y-41523549D02*
X117504060Y-41739819D01*
X117517051Y-42061074D01*
X117517334Y-42121667D01*
X117507431Y-42457099D01*
X117480398Y-42692813D01*
X117440241Y-42796742D01*
X117432667Y-42799000D01*
X117390738Y-42719784D01*
X117361273Y-42503514D01*
X117348282Y-42182259D01*
X117348000Y-42121667D01*
X117357902Y-41786234D01*
X117384936Y-41550520D01*
X117425093Y-41446591D01*
X117432667Y-41444333D01*
X117474596Y-41523549D01*
G36*
X117142298Y-41774480D02*
X117172953Y-41969175D01*
X117178667Y-42121667D01*
X117163437Y-42363154D01*
X117124498Y-42516431D01*
X117094000Y-42545000D01*
X117045703Y-42468853D01*
X117015047Y-42274158D01*
X117009334Y-42121667D01*
X117024563Y-41880179D01*
X117063502Y-41726902D01*
X117094000Y-41698333D01*
X117142298Y-41774480D01*
X117142298Y-41774480D01*
G37*
X117142298Y-41774480D02*
X117172953Y-41969175D01*
X117178667Y-42121667D01*
X117163437Y-42363154D01*
X117124498Y-42516431D01*
X117094000Y-42545000D01*
X117045703Y-42468853D01*
X117015047Y-42274158D01*
X117009334Y-42121667D01*
X117024563Y-41880179D01*
X117063502Y-41726902D01*
X117094000Y-41698333D01*
X117142298Y-41774480D01*
G36*
X117893532Y-41743653D02*
X117932540Y-41900560D01*
X117940667Y-42121667D01*
X117927071Y-42387885D01*
X117879999Y-42517911D01*
X117813667Y-42545000D01*
X117733801Y-42499680D01*
X117694794Y-42342773D01*
X117686667Y-42121667D01*
X117700263Y-41855448D01*
X117747335Y-41725422D01*
X117813667Y-41698333D01*
X117893532Y-41743653D01*
X117893532Y-41743653D01*
G37*
X117893532Y-41743653D02*
X117932540Y-41900560D01*
X117940667Y-42121667D01*
X117927071Y-42387885D01*
X117879999Y-42517911D01*
X117813667Y-42545000D01*
X117733801Y-42499680D01*
X117694794Y-42342773D01*
X117686667Y-42121667D01*
X117700263Y-41855448D01*
X117747335Y-41725422D01*
X117813667Y-41698333D01*
X117893532Y-41743653D01*
G36*
X116345165Y-41801499D02*
X116417370Y-41895166D01*
X116449036Y-42067354D01*
X116439169Y-42246990D01*
X116386781Y-42363001D01*
X116353167Y-42375673D01*
X116277465Y-42298242D01*
X116247432Y-42087971D01*
X116247334Y-42072278D01*
X116270998Y-41863145D01*
X116337558Y-41799544D01*
X116345165Y-41801499D01*
X116345165Y-41801499D01*
G37*
X116345165Y-41801499D02*
X116417370Y-41895166D01*
X116449036Y-42067354D01*
X116439169Y-42246990D01*
X116386781Y-42363001D01*
X116353167Y-42375673D01*
X116277465Y-42298242D01*
X116247432Y-42087971D01*
X116247334Y-42072278D01*
X116270998Y-41863145D01*
X116337558Y-41799544D01*
X116345165Y-41801499D01*
G36*
X118253160Y-41943395D02*
X118279334Y-42121667D01*
X118241469Y-42323319D01*
X118152334Y-42375667D01*
X118051507Y-42299938D01*
X118025334Y-42121667D01*
X118063198Y-41920014D01*
X118152334Y-41867667D01*
X118253160Y-41943395D01*
X118253160Y-41943395D01*
G37*
X118253160Y-41943395D02*
X118279334Y-42121667D01*
X118241469Y-42323319D01*
X118152334Y-42375667D01*
X118051507Y-42299938D01*
X118025334Y-42121667D01*
X118063198Y-41920014D01*
X118152334Y-41867667D01*
X118253160Y-41943395D01*
G36*
X119314477Y-41990884D02*
X119337667Y-42121667D01*
X119297755Y-42289239D01*
X119231834Y-42354500D01*
X119151545Y-42310442D01*
X119126000Y-42121667D01*
X119153956Y-41927588D01*
X119231834Y-41888833D01*
X119314477Y-41990884D01*
X119314477Y-41990884D01*
G37*
X119314477Y-41990884D02*
X119337667Y-42121667D01*
X119297755Y-42289239D01*
X119231834Y-42354500D01*
X119151545Y-42310442D01*
X119126000Y-42121667D01*
X119153956Y-41927588D01*
X119231834Y-41888833D01*
X119314477Y-41990884D01*
G36*
X116062124Y-42023246D02*
X116078000Y-42121667D01*
X116042544Y-42259247D01*
X115993334Y-42291000D01*
X115924543Y-42220087D01*
X115908667Y-42121667D01*
X115944123Y-41984086D01*
X115993334Y-41952333D01*
X116062124Y-42023246D01*
X116062124Y-42023246D01*
G37*
X116062124Y-42023246D02*
X116078000Y-42121667D01*
X116042544Y-42259247D01*
X115993334Y-42291000D01*
X115924543Y-42220087D01*
X115908667Y-42121667D01*
X115944123Y-41984086D01*
X115993334Y-41952333D01*
X116062124Y-42023246D01*
G36*
X116816428Y-42022919D02*
X116840000Y-42121667D01*
X116787061Y-42259571D01*
X116713000Y-42291000D01*
X116609572Y-42220414D01*
X116586000Y-42121667D01*
X116638940Y-41983762D01*
X116713000Y-41952333D01*
X116816428Y-42022919D01*
X116816428Y-42022919D01*
G37*
X116816428Y-42022919D02*
X116840000Y-42121667D01*
X116787061Y-42259571D01*
X116713000Y-42291000D01*
X116609572Y-42220414D01*
X116586000Y-42121667D01*
X116638940Y-41983762D01*
X116713000Y-41952333D01*
X116816428Y-42022919D01*
G36*
X118602124Y-42023246D02*
X118618000Y-42121667D01*
X118582544Y-42259247D01*
X118533334Y-42291000D01*
X118464543Y-42220087D01*
X118448667Y-42121667D01*
X118484123Y-41984086D01*
X118533334Y-41952333D01*
X118602124Y-42023246D01*
X118602124Y-42023246D01*
G37*
X118602124Y-42023246D02*
X118618000Y-42121667D01*
X118582544Y-42259247D01*
X118533334Y-42291000D01*
X118464543Y-42220087D01*
X118448667Y-42121667D01*
X118484123Y-41984086D01*
X118533334Y-41952333D01*
X118602124Y-42023246D01*
G36*
X119703743Y-42023291D02*
X119718667Y-42121667D01*
X119673990Y-42265737D01*
X119574581Y-42277070D01*
X119507000Y-42206333D01*
X119496590Y-42066229D01*
X119589282Y-41962533D01*
X119638997Y-41952333D01*
X119703743Y-42023291D01*
X119703743Y-42023291D01*
G37*
X119703743Y-42023291D02*
X119718667Y-42121667D01*
X119673990Y-42265737D01*
X119574581Y-42277070D01*
X119507000Y-42206333D01*
X119496590Y-42066229D01*
X119589282Y-41962533D01*
X119638997Y-41952333D01*
X119703743Y-42023291D01*
G36*
X115725005Y-42082717D02*
X115739334Y-42121667D01*
X115670757Y-42196781D01*
X115612334Y-42206333D01*
X115499662Y-42160616D01*
X115485334Y-42121667D01*
X115553910Y-42046552D01*
X115612334Y-42037000D01*
X115725005Y-42082717D01*
X115725005Y-42082717D01*
G37*
X115725005Y-42082717D02*
X115739334Y-42121667D01*
X115670757Y-42196781D01*
X115612334Y-42206333D01*
X115499662Y-42160616D01*
X115485334Y-42121667D01*
X115553910Y-42046552D01*
X115612334Y-42037000D01*
X115725005Y-42082717D01*
G36*
X118954207Y-42101429D02*
X118956667Y-42121667D01*
X118892238Y-42203873D01*
X118872000Y-42206333D01*
X118789794Y-42141904D01*
X118787334Y-42121667D01*
X118851763Y-42039460D01*
X118872000Y-42037000D01*
X118954207Y-42101429D01*
X118954207Y-42101429D01*
G37*
X118954207Y-42101429D02*
X118956667Y-42121667D01*
X118892238Y-42203873D01*
X118872000Y-42206333D01*
X118789794Y-42141904D01*
X118787334Y-42121667D01*
X118851763Y-42039460D01*
X118872000Y-42037000D01*
X118954207Y-42101429D01*
G36*
X118618000Y-48412539D02*
X118298930Y-48541432D01*
X117970721Y-48591933D01*
X117729385Y-48559731D01*
X117670450Y-48517766D01*
X117755735Y-48481962D01*
X117983385Y-48448378D01*
X118279099Y-48408417D01*
X118537403Y-48363883D01*
X118618000Y-48346075D01*
X118829667Y-48292599D01*
X118618000Y-48412539D01*
X118618000Y-48412539D01*
G37*
X118618000Y-48412539D02*
X118298930Y-48541432D01*
X117970721Y-48591933D01*
X117729385Y-48559731D01*
X117670450Y-48517766D01*
X117755735Y-48481962D01*
X117983385Y-48448378D01*
X118279099Y-48408417D01*
X118537403Y-48363883D01*
X118618000Y-48346075D01*
X118829667Y-48292599D01*
X118618000Y-48412539D01*
G36*
X120339378Y-44456506D02*
X120430526Y-44601976D01*
X120491054Y-44851966D01*
X120508558Y-45172778D01*
X120425023Y-45877436D01*
X120216817Y-46533201D01*
X119898061Y-47105101D01*
X119580097Y-47472046D01*
X119129027Y-47792506D01*
X118574722Y-48026056D01*
X117964090Y-48164084D01*
X117344043Y-48197975D01*
X116761489Y-48119116D01*
X116504255Y-48036831D01*
X116028487Y-47770477D01*
X115575934Y-47376245D01*
X115293813Y-47033989D01*
X115485334Y-47033989D01*
X115548614Y-47135146D01*
X115710242Y-47294806D01*
X115927898Y-47477204D01*
X116159260Y-47646573D01*
X116339612Y-47755936D01*
X116867191Y-47940014D01*
X117472748Y-47999506D01*
X118119297Y-47934154D01*
X118694780Y-47772432D01*
X118963938Y-47643317D01*
X119241390Y-47462850D01*
X119496819Y-47258140D01*
X119699910Y-47056296D01*
X119820343Y-46884429D01*
X119827803Y-46769649D01*
X119822707Y-46763840D01*
X119669956Y-46696700D01*
X119398725Y-46650857D01*
X119058840Y-46628972D01*
X118700126Y-46633701D01*
X118372406Y-46667703D01*
X118295262Y-46682341D01*
X117967450Y-46730973D01*
X117665767Y-46714184D01*
X117371814Y-46650067D01*
X117026773Y-46584578D01*
X116710463Y-46565754D01*
X116588264Y-46576673D01*
X116341692Y-46637812D01*
X116061785Y-46732353D01*
X115795184Y-46840958D01*
X115588527Y-46944289D01*
X115488454Y-47023008D01*
X115485334Y-47033989D01*
X115293813Y-47033989D01*
X115179500Y-46895311D01*
X114872089Y-46368853D01*
X114686605Y-45838049D01*
X114674341Y-45773789D01*
X114897672Y-45773789D01*
X114950399Y-46028946D01*
X114994342Y-46158489D01*
X115066893Y-46317031D01*
X115166979Y-46406865D01*
X115330204Y-46435462D01*
X115592174Y-46410294D01*
X115918277Y-46352362D01*
X116242662Y-46293867D01*
X116551826Y-46243837D01*
X116673147Y-46226714D01*
X116933523Y-46186827D01*
X117262242Y-46128158D01*
X117435147Y-46094368D01*
X117759471Y-46033308D01*
X118067719Y-45982876D01*
X118194667Y-45965685D01*
X118466447Y-45924718D01*
X118702667Y-45875114D01*
X118879136Y-45835823D01*
X118961746Y-45827749D01*
X119062401Y-45818765D01*
X119285070Y-45787216D01*
X119584934Y-45739537D01*
X119639079Y-45730506D01*
X120269000Y-45624736D01*
X120294591Y-45185535D01*
X120320183Y-44746333D01*
X120033536Y-44746333D01*
X119822941Y-44761457D01*
X119695693Y-44798270D01*
X119690923Y-44802300D01*
X119572381Y-44849153D01*
X119401645Y-44874552D01*
X119199463Y-44897213D01*
X118897532Y-44940652D01*
X118575667Y-44993037D01*
X118239821Y-45050269D01*
X117938833Y-45100390D01*
X117745786Y-45131308D01*
X117533454Y-45165431D01*
X117230088Y-45216308D01*
X116983786Y-45258647D01*
X116647739Y-45315458D01*
X116331496Y-45366247D01*
X116162667Y-45391521D01*
X115924370Y-45433553D01*
X115747303Y-45479239D01*
X115739334Y-45482193D01*
X115642797Y-45513362D01*
X115514419Y-45536379D01*
X115303204Y-45558639D01*
X115083167Y-45577370D01*
X114940793Y-45630687D01*
X114897672Y-45773789D01*
X114674341Y-45773789D01*
X114667573Y-45738328D01*
X114648229Y-45651568D01*
X114631972Y-45581553D01*
X114634436Y-45523874D01*
X114671252Y-45474122D01*
X114758055Y-45427887D01*
X114910477Y-45380760D01*
X115144152Y-45328333D01*
X115474713Y-45266194D01*
X115917792Y-45189935D01*
X116489024Y-45095148D01*
X117204040Y-44977421D01*
X117593800Y-44912980D01*
X118234077Y-44805970D01*
X118820260Y-44706314D01*
X119331541Y-44617684D01*
X119747111Y-44543751D01*
X120046160Y-44488185D01*
X120207880Y-44454657D01*
X120230040Y-44447915D01*
X120339378Y-44456506D01*
X120339378Y-44456506D01*
G37*
X120339378Y-44456506D02*
X120430526Y-44601976D01*
X120491054Y-44851966D01*
X120508558Y-45172778D01*
X120425023Y-45877436D01*
X120216817Y-46533201D01*
X119898061Y-47105101D01*
X119580097Y-47472046D01*
X119129027Y-47792506D01*
X118574722Y-48026056D01*
X117964090Y-48164084D01*
X117344043Y-48197975D01*
X116761489Y-48119116D01*
X116504255Y-48036831D01*
X116028487Y-47770477D01*
X115575934Y-47376245D01*
X115293813Y-47033989D01*
X115485334Y-47033989D01*
X115548614Y-47135146D01*
X115710242Y-47294806D01*
X115927898Y-47477204D01*
X116159260Y-47646573D01*
X116339612Y-47755936D01*
X116867191Y-47940014D01*
X117472748Y-47999506D01*
X118119297Y-47934154D01*
X118694780Y-47772432D01*
X118963938Y-47643317D01*
X119241390Y-47462850D01*
X119496819Y-47258140D01*
X119699910Y-47056296D01*
X119820343Y-46884429D01*
X119827803Y-46769649D01*
X119822707Y-46763840D01*
X119669956Y-46696700D01*
X119398725Y-46650857D01*
X119058840Y-46628972D01*
X118700126Y-46633701D01*
X118372406Y-46667703D01*
X118295262Y-46682341D01*
X117967450Y-46730973D01*
X117665767Y-46714184D01*
X117371814Y-46650067D01*
X117026773Y-46584578D01*
X116710463Y-46565754D01*
X116588264Y-46576673D01*
X116341692Y-46637812D01*
X116061785Y-46732353D01*
X115795184Y-46840958D01*
X115588527Y-46944289D01*
X115488454Y-47023008D01*
X115485334Y-47033989D01*
X115293813Y-47033989D01*
X115179500Y-46895311D01*
X114872089Y-46368853D01*
X114686605Y-45838049D01*
X114674341Y-45773789D01*
X114897672Y-45773789D01*
X114950399Y-46028946D01*
X114994342Y-46158489D01*
X115066893Y-46317031D01*
X115166979Y-46406865D01*
X115330204Y-46435462D01*
X115592174Y-46410294D01*
X115918277Y-46352362D01*
X116242662Y-46293867D01*
X116551826Y-46243837D01*
X116673147Y-46226714D01*
X116933523Y-46186827D01*
X117262242Y-46128158D01*
X117435147Y-46094368D01*
X117759471Y-46033308D01*
X118067719Y-45982876D01*
X118194667Y-45965685D01*
X118466447Y-45924718D01*
X118702667Y-45875114D01*
X118879136Y-45835823D01*
X118961746Y-45827749D01*
X119062401Y-45818765D01*
X119285070Y-45787216D01*
X119584934Y-45739537D01*
X119639079Y-45730506D01*
X120269000Y-45624736D01*
X120294591Y-45185535D01*
X120320183Y-44746333D01*
X120033536Y-44746333D01*
X119822941Y-44761457D01*
X119695693Y-44798270D01*
X119690923Y-44802300D01*
X119572381Y-44849153D01*
X119401645Y-44874552D01*
X119199463Y-44897213D01*
X118897532Y-44940652D01*
X118575667Y-44993037D01*
X118239821Y-45050269D01*
X117938833Y-45100390D01*
X117745786Y-45131308D01*
X117533454Y-45165431D01*
X117230088Y-45216308D01*
X116983786Y-45258647D01*
X116647739Y-45315458D01*
X116331496Y-45366247D01*
X116162667Y-45391521D01*
X115924370Y-45433553D01*
X115747303Y-45479239D01*
X115739334Y-45482193D01*
X115642797Y-45513362D01*
X115514419Y-45536379D01*
X115303204Y-45558639D01*
X115083167Y-45577370D01*
X114940793Y-45630687D01*
X114897672Y-45773789D01*
X114674341Y-45773789D01*
X114667573Y-45738328D01*
X114648229Y-45651568D01*
X114631972Y-45581553D01*
X114634436Y-45523874D01*
X114671252Y-45474122D01*
X114758055Y-45427887D01*
X114910477Y-45380760D01*
X115144152Y-45328333D01*
X115474713Y-45266194D01*
X115917792Y-45189935D01*
X116489024Y-45095148D01*
X117204040Y-44977421D01*
X117593800Y-44912980D01*
X118234077Y-44805970D01*
X118820260Y-44706314D01*
X119331541Y-44617684D01*
X119747111Y-44543751D01*
X120046160Y-44488185D01*
X120207880Y-44454657D01*
X120230040Y-44447915D01*
X120339378Y-44456506D01*
G36*
X115477545Y-44921185D02*
X115485334Y-44934596D01*
X115413423Y-44986419D01*
X115294834Y-45001581D01*
X114974165Y-45074298D01*
X114699717Y-45260420D01*
X114578084Y-45425335D01*
X114501955Y-45565958D01*
X114474651Y-45560054D01*
X114470582Y-45448131D01*
X114547015Y-45214812D01*
X114754629Y-45026933D01*
X115055975Y-44914512D01*
X115153818Y-44900473D01*
X115362547Y-44895330D01*
X115477545Y-44921185D01*
X115477545Y-44921185D01*
G37*
X115477545Y-44921185D02*
X115485334Y-44934596D01*
X115413423Y-44986419D01*
X115294834Y-45001581D01*
X114974165Y-45074298D01*
X114699717Y-45260420D01*
X114578084Y-45425335D01*
X114501955Y-45565958D01*
X114474651Y-45560054D01*
X114470582Y-45448131D01*
X114547015Y-45214812D01*
X114754629Y-45026933D01*
X115055975Y-44914512D01*
X115153818Y-44900473D01*
X115362547Y-44895330D01*
X115477545Y-44921185D01*
G36*
X120534843Y-44151410D02*
X120762959Y-44342781D01*
X120883411Y-44531386D01*
X120889855Y-44603375D01*
X120796255Y-44553018D01*
X120635146Y-44395202D01*
X120487367Y-44250409D01*
X120346538Y-44183802D01*
X120146577Y-44175513D01*
X119957812Y-44191562D01*
X119713409Y-44214004D01*
X119623759Y-44213288D01*
X119675428Y-44185928D01*
X119790988Y-44148276D01*
X120202748Y-44079435D01*
X120534843Y-44151410D01*
X120534843Y-44151410D01*
G37*
X120534843Y-44151410D02*
X120762959Y-44342781D01*
X120883411Y-44531386D01*
X120889855Y-44603375D01*
X120796255Y-44553018D01*
X120635146Y-44395202D01*
X120487367Y-44250409D01*
X120346538Y-44183802D01*
X120146577Y-44175513D01*
X119957812Y-44191562D01*
X119713409Y-44214004D01*
X119623759Y-44213288D01*
X119675428Y-44185928D01*
X119790988Y-44148276D01*
X120202748Y-44079435D01*
X120534843Y-44151410D01*
D11*
X151979381Y-65484333D02*
X152693667Y-65484333D01*
X152836524Y-65531953D01*
X152931762Y-65627191D01*
X152979381Y-65770048D01*
X152979381Y-65865286D01*
X152074619Y-65055762D02*
X152027000Y-65008143D01*
X151979381Y-64912905D01*
X151979381Y-64674809D01*
X152027000Y-64579571D01*
X152074619Y-64531952D01*
X152169857Y-64484333D01*
X152265095Y-64484333D01*
X152407952Y-64531952D01*
X152979381Y-65103381D01*
X152979381Y-64484333D01*
X132433571Y-66039857D02*
X132481190Y-65897000D01*
X132528810Y-65849381D01*
X132624048Y-65801762D01*
X132766905Y-65801762D01*
X132862143Y-65849381D01*
X132909762Y-65897000D01*
X132957381Y-65992238D01*
X132957381Y-66373191D01*
X131957381Y-66373191D01*
X131957381Y-66039857D01*
X132005000Y-65944619D01*
X132052619Y-65897000D01*
X132147857Y-65849381D01*
X132243095Y-65849381D01*
X132338333Y-65897000D01*
X132385952Y-65944619D01*
X132433571Y-66039857D01*
X132433571Y-66373191D01*
X132957381Y-64944619D02*
X132433571Y-64944619D01*
X132338333Y-64992238D01*
X132290714Y-65087476D01*
X132290714Y-65277953D01*
X132338333Y-65373191D01*
X132909762Y-64944619D02*
X132957381Y-65039857D01*
X132957381Y-65277953D01*
X132909762Y-65373191D01*
X132814524Y-65420810D01*
X132719286Y-65420810D01*
X132624048Y-65373191D01*
X132576429Y-65277953D01*
X132576429Y-65039857D01*
X132528810Y-64944619D01*
X132290714Y-64611286D02*
X132290714Y-64230334D01*
X131957381Y-64468429D02*
X132814524Y-64468429D01*
X132909762Y-64420810D01*
X132957381Y-64325572D01*
X132957381Y-64230334D01*
X131957381Y-63706524D02*
X131957381Y-63611285D01*
X132005000Y-63516047D01*
X132052619Y-63468428D01*
X132147857Y-63420809D01*
X132338333Y-63373190D01*
X132576429Y-63373190D01*
X132766905Y-63420809D01*
X132862143Y-63468428D01*
X132909762Y-63516047D01*
X132957381Y-63611285D01*
X132957381Y-63706524D01*
X132909762Y-63801762D01*
X132862143Y-63849381D01*
X132766905Y-63897000D01*
X132576429Y-63944619D01*
X132338333Y-63944619D01*
X132147857Y-63897000D01*
X132052619Y-63849381D01*
X132005000Y-63801762D01*
X131957381Y-63706524D01*
X129615408Y-53918974D02*
X129682752Y-54053661D01*
X129851111Y-54222020D01*
X129952126Y-54255692D01*
X130019470Y-54255692D01*
X130120485Y-54222020D01*
X130187828Y-54154677D01*
X130221500Y-54053662D01*
X130221500Y-53986318D01*
X130187829Y-53885302D01*
X130086813Y-53716943D01*
X130053141Y-53615928D01*
X130053141Y-53548585D01*
X130086813Y-53447569D01*
X130154156Y-53380226D01*
X130255172Y-53346554D01*
X130322515Y-53346554D01*
X130423530Y-53380226D01*
X130591889Y-53548585D01*
X130659233Y-53683272D01*
X130928607Y-53885302D02*
X130389858Y-54760768D01*
X131029623Y-54390379D01*
X130659233Y-55030142D01*
X131534698Y-54491394D01*
X131467355Y-55838264D02*
X131063294Y-55434203D01*
X131265324Y-55636233D02*
X131972431Y-54929126D01*
X131804072Y-54962798D01*
X131669385Y-54962798D01*
X131568370Y-54929126D01*
D10*
X133555003Y-57969685D02*
X133319301Y-58205387D01*
X132824327Y-57710413D01*
X133884986Y-57592561D02*
X133861417Y-57663272D01*
X133767135Y-57757553D01*
X133696425Y-57781123D01*
X133625714Y-57757553D01*
X133437152Y-57568991D01*
X133413582Y-57498280D01*
X133437152Y-57427570D01*
X133531433Y-57333289D01*
X133602143Y-57309719D01*
X133672855Y-57333289D01*
X133719995Y-57380429D01*
X133531433Y-57663272D01*
X133743565Y-57121157D02*
X133932127Y-56932595D01*
X134144259Y-57380429D02*
X133719995Y-56956165D01*
X133696425Y-56885455D01*
X133719995Y-56814744D01*
X133767135Y-56767604D01*
X134026408Y-56838314D02*
X134214969Y-56649753D01*
X133932127Y-56602612D02*
X134356391Y-57026876D01*
X134427101Y-57050446D01*
X134497813Y-57026876D01*
X134544953Y-56979736D01*
D11*
X136727408Y-61030974D02*
X136794752Y-61165661D01*
X136963111Y-61334020D01*
X137064126Y-61367692D01*
X137131470Y-61367692D01*
X137232485Y-61334020D01*
X137299828Y-61266677D01*
X137333500Y-61165662D01*
X137333500Y-61098318D01*
X137299829Y-60997302D01*
X137198813Y-60828943D01*
X137165141Y-60727928D01*
X137165141Y-60660585D01*
X137198813Y-60559569D01*
X137266156Y-60492226D01*
X137367172Y-60458554D01*
X137434515Y-60458554D01*
X137535530Y-60492226D01*
X137703889Y-60660585D01*
X137771233Y-60795272D01*
X138040607Y-60997302D02*
X137501858Y-61872768D01*
X138141623Y-61502379D01*
X137771233Y-62142142D01*
X138646698Y-61603394D01*
X138815057Y-61906440D02*
X138882400Y-61906440D01*
X138983415Y-61940111D01*
X139151775Y-62108471D01*
X139185446Y-62209486D01*
X139185446Y-62276829D01*
X139151775Y-62377844D01*
X139084431Y-62445188D01*
X138949744Y-62512531D01*
X138141622Y-62512531D01*
X138579355Y-62950264D01*
D10*
X140172029Y-65576659D02*
X139677055Y-65081685D01*
X139794905Y-64963834D01*
X139889186Y-64916693D01*
X139983467Y-64916693D01*
X140054177Y-64940263D01*
X140172029Y-65010974D01*
X140242740Y-65081685D01*
X140313450Y-65199536D01*
X140337021Y-65270247D01*
X140337020Y-65364527D01*
X140289880Y-65458809D01*
X140172029Y-65576659D01*
X140737715Y-65010974D02*
X140667003Y-65034544D01*
X140619863Y-65034544D01*
X140549152Y-65010974D01*
X140407731Y-64869553D01*
X140384161Y-64798842D01*
X140384161Y-64751701D01*
X140407731Y-64680991D01*
X140478442Y-64610280D01*
X140549152Y-64586710D01*
X140596293Y-64586710D01*
X140667003Y-64610280D01*
X140808425Y-64751701D01*
X140831995Y-64822412D01*
X140831995Y-64869553D01*
X140808425Y-64940263D01*
X140737715Y-65010974D01*
X140737714Y-64351008D02*
X141161978Y-64586711D01*
X141020557Y-64256727D01*
X141350540Y-64398149D01*
X141114837Y-63973885D01*
X141303399Y-63785323D02*
X141633383Y-64115306D01*
X141350540Y-63832463D02*
X141350539Y-63785323D01*
X141374110Y-63714612D01*
X141444821Y-63643901D01*
X141515531Y-63620331D01*
X141586242Y-63643901D01*
X141845515Y-63903174D01*
D11*
X136727408Y-47822974D02*
X136794752Y-47957661D01*
X136963111Y-48126020D01*
X137064126Y-48159692D01*
X137131470Y-48159692D01*
X137232485Y-48126020D01*
X137299828Y-48058677D01*
X137333500Y-47957662D01*
X137333500Y-47890318D01*
X137299829Y-47789302D01*
X137198813Y-47620943D01*
X137165141Y-47519928D01*
X137165141Y-47452585D01*
X137198813Y-47351569D01*
X137266156Y-47284226D01*
X137367172Y-47250554D01*
X137434515Y-47250554D01*
X137535530Y-47284226D01*
X137703889Y-47452585D01*
X137771233Y-47587272D01*
X138040607Y-47789302D02*
X137501858Y-48664768D01*
X138141623Y-48294379D01*
X137771233Y-48934142D01*
X138646698Y-48395394D01*
X138848729Y-48597424D02*
X139286462Y-49035157D01*
X138781385Y-49068828D01*
X138882401Y-49169844D01*
X138916073Y-49270859D01*
X138916073Y-49338203D01*
X138882400Y-49439219D01*
X138714042Y-49607577D01*
X138613027Y-49641249D01*
X138545683Y-49641249D01*
X138444668Y-49607577D01*
X138242637Y-49405546D01*
X138208965Y-49304531D01*
X138208965Y-49237188D01*
D10*
X140124889Y-51425851D02*
X140525582Y-51826544D01*
X140596293Y-51850115D01*
X140643433Y-51850115D01*
X140714144Y-51826545D01*
X140808425Y-51732264D01*
X140831995Y-51661553D01*
X140831995Y-51614413D01*
X140808425Y-51543701D01*
X140407731Y-51143008D01*
X141138408Y-51402281D02*
X140643433Y-50907306D01*
X140831995Y-50718745D01*
X140902705Y-50695174D01*
X140949845Y-50695174D01*
X141020557Y-50718744D01*
X141091267Y-50789455D01*
X141114837Y-50860166D01*
X141114837Y-50907306D01*
X141091267Y-50978017D01*
X140902705Y-51166578D01*
D11*
X143839408Y-53918974D02*
X143906752Y-54053661D01*
X144075111Y-54222020D01*
X144176126Y-54255692D01*
X144243470Y-54255692D01*
X144344485Y-54222020D01*
X144411828Y-54154677D01*
X144445500Y-54053662D01*
X144445500Y-53986318D01*
X144411829Y-53885302D01*
X144310813Y-53716943D01*
X144277141Y-53615928D01*
X144277141Y-53548585D01*
X144310813Y-53447569D01*
X144378156Y-53380226D01*
X144479172Y-53346554D01*
X144546515Y-53346554D01*
X144647530Y-53380226D01*
X144815889Y-53548585D01*
X144883233Y-53683272D01*
X145152607Y-53885302D02*
X144613858Y-54760768D01*
X145253623Y-54390379D01*
X144883233Y-55030142D01*
X145758698Y-54491394D01*
X146095416Y-55299516D02*
X145624011Y-55770921D01*
X146196431Y-54861783D02*
X145522996Y-55198501D01*
X145960729Y-55636234D01*
D10*
X147566872Y-58181817D02*
X147166177Y-58111106D01*
X147284029Y-58464659D02*
X146789055Y-57969685D01*
X146977616Y-57781123D01*
X147048327Y-57757553D01*
X147095467Y-57757553D01*
X147166178Y-57781123D01*
X147236889Y-57851833D01*
X147260459Y-57922545D01*
X147260459Y-57969685D01*
X147236888Y-58040395D01*
X147048327Y-58228957D01*
X147779004Y-57969685D02*
X147449021Y-57639701D01*
X147284029Y-57474710D02*
X147284029Y-57521851D01*
X147331169Y-57521850D01*
X147331169Y-57474710D01*
X147284029Y-57474710D01*
X147331169Y-57521850D01*
X147896855Y-57191867D02*
X148297549Y-57592561D01*
X148321118Y-57663272D01*
X148321119Y-57710413D01*
X148297548Y-57781123D01*
X148226837Y-57851834D01*
X148156127Y-57875404D01*
X148203267Y-57498280D02*
X148179697Y-57568991D01*
X148085417Y-57663272D01*
X148014705Y-57686842D01*
X147967565Y-57686842D01*
X147896854Y-57663272D01*
X147755433Y-57521851D01*
X147731863Y-57451140D01*
X147731863Y-57403999D01*
X147755433Y-57333289D01*
X147849714Y-57239008D01*
X147920425Y-57215437D01*
X148462540Y-57286149D02*
X147967565Y-56791174D01*
X148674672Y-57074017D02*
X148415399Y-56814744D01*
X148344688Y-56791174D01*
X148273978Y-56814744D01*
X148203267Y-56885455D01*
X148179697Y-56956165D01*
X148179697Y-57003306D01*
X148509680Y-56579042D02*
X148698241Y-56390481D01*
X148415399Y-56343340D02*
X148839664Y-56767604D01*
X148910373Y-56791174D01*
X148981085Y-56767604D01*
X149028225Y-56720464D01*
D11*
X142569408Y-77286974D02*
X142636752Y-77421661D01*
X142805111Y-77590020D01*
X142906126Y-77623692D01*
X142973470Y-77623692D01*
X143074485Y-77590020D01*
X143141828Y-77522677D01*
X143175500Y-77421662D01*
X143175500Y-77354318D01*
X143141829Y-77253302D01*
X143040813Y-77084943D01*
X143007141Y-76983928D01*
X143007141Y-76916585D01*
X143040813Y-76815569D01*
X143108156Y-76748226D01*
X143209172Y-76714554D01*
X143276515Y-76714554D01*
X143377530Y-76748226D01*
X143545889Y-76916585D01*
X143613233Y-77051272D01*
X143882607Y-77253302D02*
X143343858Y-78128768D01*
X143983623Y-77758379D01*
X143613233Y-78398142D01*
X144488698Y-77859394D01*
X145094790Y-78465486D02*
X144758072Y-78128768D01*
X144387683Y-78431813D01*
X144455027Y-78431813D01*
X144556042Y-78465485D01*
X144724401Y-78633844D01*
X144758073Y-78734859D01*
X144758073Y-78802203D01*
X144724400Y-78903219D01*
X144556042Y-79071577D01*
X144455027Y-79105249D01*
X144387683Y-79105249D01*
X144286668Y-79071577D01*
X144118309Y-78903218D01*
X144084637Y-78802203D01*
X144084637Y-78734859D01*
D10*
X146061169Y-80795570D02*
X146155450Y-80701289D01*
X146226161Y-80677719D01*
X146320442Y-80677719D01*
X146438293Y-80748429D01*
X146603284Y-80913421D01*
X146673995Y-81031272D01*
X146673995Y-81125553D01*
X146650425Y-81196264D01*
X146556144Y-81290545D01*
X146485433Y-81314115D01*
X146391153Y-81314115D01*
X146273301Y-81243404D01*
X146108309Y-81078413D01*
X146037599Y-80960561D01*
X146037599Y-80866281D01*
X146061169Y-80795570D01*
X146980408Y-80866281D02*
X146485433Y-80371306D01*
X147263251Y-80583438D02*
X146768276Y-80512727D01*
X146768276Y-80088463D02*
X146768276Y-80654149D01*
D11*
X105283095Y-82002381D02*
X105283095Y-82811905D01*
X105330714Y-82907143D01*
X105378333Y-82954762D01*
X105473571Y-83002381D01*
X105664048Y-83002381D01*
X105759286Y-82954762D01*
X105806905Y-82907143D01*
X105854524Y-82811905D01*
X105854524Y-82002381D01*
X106806905Y-82002381D02*
X106330714Y-82002381D01*
X106283095Y-82478571D01*
X106330714Y-82430952D01*
X106425952Y-82383333D01*
X106664048Y-82383333D01*
X106759286Y-82430952D01*
X106806905Y-82478571D01*
X106854524Y-82573810D01*
X106854524Y-82811905D01*
X106806905Y-82907143D01*
X106759286Y-82954762D01*
X106664048Y-83002381D01*
X106425952Y-83002381D01*
X106330714Y-82954762D01*
X106283095Y-82907143D01*
X121388666Y-78954381D02*
X121579143Y-78954381D01*
X121674381Y-79002000D01*
X121769619Y-79097238D01*
X121817238Y-79287714D01*
X121817238Y-79621048D01*
X121769619Y-79811524D01*
X121674381Y-79906762D01*
X121579143Y-79954381D01*
X121388666Y-79954381D01*
X121293428Y-79906762D01*
X121198190Y-79811524D01*
X121150571Y-79621048D01*
X121150571Y-79287714D01*
X121198190Y-79097238D01*
X121293428Y-79002000D01*
X121388666Y-78954381D01*
X122722000Y-79954381D02*
X122245809Y-79954381D01*
X122245809Y-78954381D01*
X123055333Y-79430571D02*
X123388667Y-79430571D01*
X123531524Y-79954381D02*
X123055333Y-79954381D01*
X123055333Y-78954381D01*
X123531524Y-78954381D01*
X123960095Y-79954381D02*
X123960095Y-78954381D01*
X124198190Y-78954381D01*
X124341048Y-79002000D01*
X124436286Y-79097238D01*
X124483905Y-79192476D01*
X124531524Y-79382952D01*
X124531524Y-79525810D01*
X124483905Y-79716286D01*
X124436286Y-79811524D01*
X124341048Y-79906762D01*
X124198190Y-79954381D01*
X123960095Y-79954381D01*
X125483905Y-79954381D02*
X124912476Y-79954381D01*
X125198190Y-79954381D02*
X125198190Y-78954381D01*
X125102952Y-79097238D01*
X125007714Y-79192476D01*
X124912476Y-79240095D01*
X125864857Y-79049619D02*
X125912476Y-79002000D01*
X126007714Y-78954381D01*
X126245810Y-78954381D01*
X126341048Y-79002000D01*
X126388667Y-79049619D01*
X126436286Y-79144857D01*
X126436286Y-79240095D01*
X126388667Y-79382952D01*
X125817238Y-79954381D01*
X126436286Y-79954381D01*
X127007714Y-79382952D02*
X126912476Y-79335333D01*
X126864857Y-79287714D01*
X126817238Y-79192476D01*
X126817238Y-79144857D01*
X126864857Y-79049619D01*
X126912476Y-79002000D01*
X127007714Y-78954381D01*
X127198191Y-78954381D01*
X127293429Y-79002000D01*
X127341048Y-79049619D01*
X127388667Y-79144857D01*
X127388667Y-79192476D01*
X127341048Y-79287714D01*
X127293429Y-79335333D01*
X127198191Y-79382952D01*
X127007714Y-79382952D01*
X126912476Y-79430571D01*
X126864857Y-79478190D01*
X126817238Y-79573429D01*
X126817238Y-79763905D01*
X126864857Y-79859143D01*
X126912476Y-79906762D01*
X127007714Y-79954381D01*
X127198191Y-79954381D01*
X127293429Y-79906762D01*
X127341048Y-79859143D01*
X127388667Y-79763905D01*
X127388667Y-79573429D01*
X127341048Y-79478190D01*
X127293429Y-79430571D01*
X127198191Y-79382952D01*
X127722000Y-78954381D02*
X128341048Y-78954381D01*
X128007714Y-79335333D01*
X128150572Y-79335333D01*
X128245810Y-79382952D01*
X128293429Y-79430571D01*
X128341048Y-79525810D01*
X128341048Y-79763905D01*
X128293429Y-79859143D01*
X128245810Y-79906762D01*
X128150572Y-79954381D01*
X127864857Y-79954381D01*
X127769619Y-79906762D01*
X127722000Y-79859143D01*
X128722000Y-79049619D02*
X128769619Y-79002000D01*
X128864857Y-78954381D01*
X129102953Y-78954381D01*
X129198191Y-79002000D01*
X129245810Y-79049619D01*
X129293429Y-79144857D01*
X129293429Y-79240095D01*
X129245810Y-79382952D01*
X128674381Y-79954381D01*
X129293429Y-79954381D01*
X141819334Y-84177143D02*
X141771715Y-84224762D01*
X141628858Y-84272381D01*
X141533620Y-84272381D01*
X141390762Y-84224762D01*
X141295524Y-84129524D01*
X141247905Y-84034286D01*
X141200286Y-83843810D01*
X141200286Y-83700952D01*
X141247905Y-83510476D01*
X141295524Y-83415238D01*
X141390762Y-83320000D01*
X141533620Y-83272381D01*
X141628858Y-83272381D01*
X141771715Y-83320000D01*
X141819334Y-83367619D01*
X142771715Y-84272381D02*
X142200286Y-84272381D01*
X142486000Y-84272381D02*
X142486000Y-83272381D01*
X142390762Y-83415238D01*
X142295524Y-83510476D01*
X142200286Y-83558095D01*
X143214429Y-86050381D02*
X142785857Y-86050381D01*
X143000143Y-86050381D02*
X143000143Y-85050381D01*
X142928714Y-85193238D01*
X142857286Y-85288476D01*
X142785857Y-85336095D01*
X143678715Y-85050381D02*
X143750143Y-85050381D01*
X143821572Y-85098000D01*
X143857286Y-85145619D01*
X143893000Y-85240857D01*
X143928715Y-85431333D01*
X143928715Y-85669429D01*
X143893000Y-85859905D01*
X143857286Y-85955143D01*
X143821572Y-86002762D01*
X143750143Y-86050381D01*
X143678715Y-86050381D01*
X143607286Y-86002762D01*
X143571572Y-85955143D01*
X143535857Y-85859905D01*
X143500143Y-85669429D01*
X143500143Y-85431333D01*
X143535857Y-85240857D01*
X143571572Y-85145619D01*
X143607286Y-85098000D01*
X143678715Y-85050381D01*
X144571572Y-85383714D02*
X144571572Y-86050381D01*
X144250143Y-85383714D02*
X144250143Y-85907524D01*
X144285858Y-86002762D01*
X144357286Y-86050381D01*
X144464429Y-86050381D01*
X144535858Y-86002762D01*
X144571572Y-85955143D01*
X145178714Y-85526571D02*
X144928714Y-85526571D01*
X144928714Y-86050381D02*
X144928714Y-85050381D01*
X145285857Y-85050381D01*
X110798095Y-63992381D02*
X110798095Y-64801905D01*
X110845714Y-64897143D01*
X110893333Y-64944762D01*
X110988571Y-64992381D01*
X111179048Y-64992381D01*
X111274286Y-64944762D01*
X111321905Y-64897143D01*
X111369524Y-64801905D01*
X111369524Y-63992381D01*
X111798095Y-64087619D02*
X111845714Y-64040000D01*
X111940952Y-63992381D01*
X112179048Y-63992381D01*
X112274286Y-64040000D01*
X112321905Y-64087619D01*
X112369524Y-64182857D01*
X112369524Y-64278095D01*
X112321905Y-64420952D01*
X111750476Y-64992381D01*
X112369524Y-64992381D01*
X107738095Y-39207619D02*
X107785714Y-39160000D01*
X107880952Y-39112381D01*
X108119048Y-39112381D01*
X108214286Y-39160000D01*
X108261905Y-39207619D01*
X108309524Y-39302857D01*
X108309524Y-39398095D01*
X108261905Y-39540952D01*
X107690476Y-40112381D01*
X108309524Y-40112381D01*
X109166667Y-39445714D02*
X109166667Y-40112381D01*
X108928571Y-39064762D02*
X108690476Y-39779048D01*
X109309524Y-39779048D01*
X109880952Y-39112381D02*
X109976191Y-39112381D01*
X110071429Y-39160000D01*
X110119048Y-39207619D01*
X110166667Y-39302857D01*
X110214286Y-39493333D01*
X110214286Y-39731429D01*
X110166667Y-39921905D01*
X110119048Y-40017143D01*
X110071429Y-40064762D01*
X109976191Y-40112381D01*
X109880952Y-40112381D01*
X109785714Y-40064762D01*
X109738095Y-40017143D01*
X109690476Y-39921905D01*
X109642857Y-39731429D01*
X109642857Y-39493333D01*
X109690476Y-39302857D01*
X109738095Y-39207619D01*
X109785714Y-39160000D01*
X109880952Y-39112381D01*
X110547619Y-40112381D02*
X111071429Y-39445714D01*
X110547619Y-39445714D02*
X111071429Y-40112381D01*
X111404762Y-39207619D02*
X111452381Y-39160000D01*
X111547619Y-39112381D01*
X111785715Y-39112381D01*
X111880953Y-39160000D01*
X111928572Y-39207619D01*
X111976191Y-39302857D01*
X111976191Y-39398095D01*
X111928572Y-39540952D01*
X111357143Y-40112381D01*
X111976191Y-40112381D01*
X112833334Y-39445714D02*
X112833334Y-40112381D01*
X112595238Y-39064762D02*
X112357143Y-39779048D01*
X112976191Y-39779048D01*
X113547619Y-39112381D02*
X113642858Y-39112381D01*
X113738096Y-39160000D01*
X113785715Y-39207619D01*
X113833334Y-39302857D01*
X113880953Y-39493333D01*
X113880953Y-39731429D01*
X113833334Y-39921905D01*
X113785715Y-40017143D01*
X113738096Y-40064762D01*
X113642858Y-40112381D01*
X113547619Y-40112381D01*
X113452381Y-40064762D01*
X113404762Y-40017143D01*
X113357143Y-39921905D01*
X113309524Y-39731429D01*
X113309524Y-39493333D01*
X113357143Y-39302857D01*
X113404762Y-39207619D01*
X113452381Y-39160000D01*
X113547619Y-39112381D01*
X114166667Y-39112381D02*
X114738096Y-39112381D01*
X114452381Y-40112381D02*
X114452381Y-39112381D01*
X115404763Y-39588571D02*
X115071429Y-39588571D01*
X115071429Y-40112381D02*
X115071429Y-39112381D01*
X115547620Y-39112381D01*
X115785715Y-39112381D02*
X116357144Y-39112381D01*
X116071429Y-40112381D02*
X116071429Y-39112381D01*
X129810381Y-47029666D02*
X129334190Y-47363000D01*
X129810381Y-47601095D02*
X128810381Y-47601095D01*
X128810381Y-47220142D01*
X128858000Y-47124904D01*
X128905619Y-47077285D01*
X129000857Y-47029666D01*
X129143714Y-47029666D01*
X129238952Y-47077285D01*
X129286571Y-47124904D01*
X129334190Y-47220142D01*
X129334190Y-47601095D01*
X129810381Y-46077285D02*
X129810381Y-46648714D01*
X129810381Y-46363000D02*
X128810381Y-46363000D01*
X128953238Y-46458238D01*
X129048476Y-46553476D01*
X129096095Y-46648714D01*
X126563381Y-52030238D02*
X126563381Y-52601667D01*
X126563381Y-52315953D02*
X125563381Y-52315953D01*
X125706238Y-52411191D01*
X125801476Y-52506429D01*
X125849095Y-52601667D01*
X125563381Y-51411191D02*
X125563381Y-51315952D01*
X125611000Y-51220714D01*
X125658619Y-51173095D01*
X125753857Y-51125476D01*
X125944333Y-51077857D01*
X126182429Y-51077857D01*
X126372905Y-51125476D01*
X126468143Y-51173095D01*
X126515762Y-51220714D01*
X126563381Y-51315952D01*
X126563381Y-51411191D01*
X126515762Y-51506429D01*
X126468143Y-51554048D01*
X126372905Y-51601667D01*
X126182429Y-51649286D01*
X125944333Y-51649286D01*
X125753857Y-51601667D01*
X125658619Y-51554048D01*
X125611000Y-51506429D01*
X125563381Y-51411191D01*
X126563381Y-50649286D02*
X125563381Y-50649286D01*
X126182429Y-50554048D02*
X126563381Y-50268333D01*
X125896714Y-50268333D02*
X126277667Y-50649286D01*
X146137334Y-42108381D02*
X145804000Y-41632190D01*
X145565905Y-42108381D02*
X145565905Y-41108381D01*
X145946858Y-41108381D01*
X146042096Y-41156000D01*
X146089715Y-41203619D01*
X146137334Y-41298857D01*
X146137334Y-41441714D01*
X146089715Y-41536952D01*
X146042096Y-41584571D01*
X145946858Y-41632190D01*
X145565905Y-41632190D01*
X146518286Y-41203619D02*
X146565905Y-41156000D01*
X146661143Y-41108381D01*
X146899239Y-41108381D01*
X146994477Y-41156000D01*
X147042096Y-41203619D01*
X147089715Y-41298857D01*
X147089715Y-41394095D01*
X147042096Y-41536952D01*
X146470667Y-42108381D01*
X147089715Y-42108381D01*
X141390762Y-39446381D02*
X140819333Y-39446381D01*
X141105047Y-39446381D02*
X141105047Y-38446381D01*
X141009809Y-38589238D01*
X140914571Y-38684476D01*
X140819333Y-38732095D01*
X142009809Y-38446381D02*
X142105048Y-38446381D01*
X142200286Y-38494000D01*
X142247905Y-38541619D01*
X142295524Y-38636857D01*
X142343143Y-38827333D01*
X142343143Y-39065429D01*
X142295524Y-39255905D01*
X142247905Y-39351143D01*
X142200286Y-39398762D01*
X142105048Y-39446381D01*
X142009809Y-39446381D01*
X141914571Y-39398762D01*
X141866952Y-39351143D01*
X141819333Y-39255905D01*
X141771714Y-39065429D01*
X141771714Y-38827333D01*
X141819333Y-38636857D01*
X141866952Y-38541619D01*
X141914571Y-38494000D01*
X142009809Y-38446381D01*
X142771714Y-39446381D02*
X142771714Y-38446381D01*
X142866952Y-39065429D02*
X143152667Y-39446381D01*
X143152667Y-38779714D02*
X142771714Y-39160667D01*
X144652381Y-46140666D02*
X144176190Y-46474000D01*
X144652381Y-46712095D02*
X143652381Y-46712095D01*
X143652381Y-46331142D01*
X143700000Y-46235904D01*
X143747619Y-46188285D01*
X143842857Y-46140666D01*
X143985714Y-46140666D01*
X144080952Y-46188285D01*
X144128571Y-46235904D01*
X144176190Y-46331142D01*
X144176190Y-46712095D01*
X143985714Y-45283523D02*
X144652381Y-45283523D01*
X143604762Y-45521619D02*
X144319048Y-45759714D01*
X144319048Y-45140666D01*
X148402381Y-46569238D02*
X148402381Y-47140667D01*
X148402381Y-46854953D02*
X147402381Y-46854953D01*
X147545238Y-46950191D01*
X147640476Y-47045429D01*
X147688095Y-47140667D01*
X147402381Y-45950191D02*
X147402381Y-45854952D01*
X147450000Y-45759714D01*
X147497619Y-45712095D01*
X147592857Y-45664476D01*
X147783333Y-45616857D01*
X148021429Y-45616857D01*
X148211905Y-45664476D01*
X148307143Y-45712095D01*
X148354762Y-45759714D01*
X148402381Y-45854952D01*
X148402381Y-45950191D01*
X148354762Y-46045429D01*
X148307143Y-46093048D01*
X148211905Y-46140667D01*
X148021429Y-46188286D01*
X147783333Y-46188286D01*
X147592857Y-46140667D01*
X147497619Y-46093048D01*
X147450000Y-46045429D01*
X147402381Y-45950191D01*
X148402381Y-45188286D02*
X147402381Y-45188286D01*
X148021429Y-45093048D02*
X148402381Y-44807333D01*
X147735714Y-44807333D02*
X148116667Y-45188286D01*
X136485334Y-71572381D02*
X136152000Y-71096190D01*
X135913905Y-71572381D02*
X135913905Y-70572381D01*
X136294858Y-70572381D01*
X136390096Y-70620000D01*
X136437715Y-70667619D01*
X136485334Y-70762857D01*
X136485334Y-70905714D01*
X136437715Y-71000952D01*
X136390096Y-71048571D01*
X136294858Y-71096190D01*
X135913905Y-71096190D01*
X137390096Y-70572381D02*
X136913905Y-70572381D01*
X136866286Y-71048571D01*
X136913905Y-71000952D01*
X137009143Y-70953333D01*
X137247239Y-70953333D01*
X137342477Y-71000952D01*
X137390096Y-71048571D01*
X137437715Y-71143810D01*
X137437715Y-71381905D01*
X137390096Y-71477143D01*
X137342477Y-71524762D01*
X137247239Y-71572381D01*
X137009143Y-71572381D01*
X136913905Y-71524762D01*
X136866286Y-71477143D01*
X140755762Y-73726381D02*
X140184333Y-73726381D01*
X140470047Y-73726381D02*
X140470047Y-72726381D01*
X140374809Y-72869238D01*
X140279571Y-72964476D01*
X140184333Y-73012095D01*
X141374809Y-72726381D02*
X141470048Y-72726381D01*
X141565286Y-72774000D01*
X141612905Y-72821619D01*
X141660524Y-72916857D01*
X141708143Y-73107333D01*
X141708143Y-73345429D01*
X141660524Y-73535905D01*
X141612905Y-73631143D01*
X141565286Y-73678762D01*
X141470048Y-73726381D01*
X141374809Y-73726381D01*
X141279571Y-73678762D01*
X141231952Y-73631143D01*
X141184333Y-73535905D01*
X141136714Y-73345429D01*
X141136714Y-73107333D01*
X141184333Y-72916857D01*
X141231952Y-72821619D01*
X141279571Y-72774000D01*
X141374809Y-72726381D01*
X142136714Y-73726381D02*
X142136714Y-72726381D01*
X142231952Y-73345429D02*
X142517667Y-73726381D01*
X142517667Y-73059714D02*
X142136714Y-73440667D01*
X148804334Y-36393381D02*
X148471000Y-35917190D01*
X148232905Y-36393381D02*
X148232905Y-35393381D01*
X148613858Y-35393381D01*
X148709096Y-35441000D01*
X148756715Y-35488619D01*
X148804334Y-35583857D01*
X148804334Y-35726714D01*
X148756715Y-35821952D01*
X148709096Y-35869571D01*
X148613858Y-35917190D01*
X148232905Y-35917190D01*
X149661477Y-35393381D02*
X149471000Y-35393381D01*
X149375762Y-35441000D01*
X149328143Y-35488619D01*
X149232905Y-35631476D01*
X149185286Y-35821952D01*
X149185286Y-36202905D01*
X149232905Y-36298143D01*
X149280524Y-36345762D01*
X149375762Y-36393381D01*
X149566239Y-36393381D01*
X149661477Y-36345762D01*
X149709096Y-36298143D01*
X149756715Y-36202905D01*
X149756715Y-35964810D01*
X149709096Y-35869571D01*
X149661477Y-35821952D01*
X149566239Y-35774333D01*
X149375762Y-35774333D01*
X149280524Y-35821952D01*
X149232905Y-35869571D01*
X149185286Y-35964810D01*
X143160905Y-37388619D02*
X143208524Y-37341000D01*
X143303762Y-37293381D01*
X143541858Y-37293381D01*
X143637096Y-37341000D01*
X143684715Y-37388619D01*
X143732334Y-37483857D01*
X143732334Y-37579095D01*
X143684715Y-37721952D01*
X143113286Y-38293381D01*
X143732334Y-38293381D01*
X144113286Y-37388619D02*
X144160905Y-37341000D01*
X144256143Y-37293381D01*
X144494239Y-37293381D01*
X144589477Y-37341000D01*
X144637096Y-37388619D01*
X144684715Y-37483857D01*
X144684715Y-37579095D01*
X144637096Y-37721952D01*
X144065667Y-38293381D01*
X144684715Y-38293381D01*
X145303762Y-37293381D02*
X145399001Y-37293381D01*
X145494239Y-37341000D01*
X145541858Y-37388619D01*
X145589477Y-37483857D01*
X145637096Y-37674333D01*
X145637096Y-37912429D01*
X145589477Y-38102905D01*
X145541858Y-38198143D01*
X145494239Y-38245762D01*
X145399001Y-38293381D01*
X145303762Y-38293381D01*
X145208524Y-38245762D01*
X145160905Y-38198143D01*
X145113286Y-38102905D01*
X145065667Y-37912429D01*
X145065667Y-37674333D01*
X145113286Y-37483857D01*
X145160905Y-37388619D01*
X145208524Y-37341000D01*
X145303762Y-37293381D01*
D13*
X130769381Y-37972905D02*
X131578905Y-37972905D01*
X131674143Y-37925286D01*
X131721762Y-37877667D01*
X131769381Y-37782429D01*
X131769381Y-37591952D01*
X131721762Y-37496714D01*
X131674143Y-37449095D01*
X131578905Y-37401476D01*
X130769381Y-37401476D01*
X131102714Y-36496714D02*
X131769381Y-36496714D01*
X130721762Y-36734810D02*
X131436048Y-36972905D01*
X131436048Y-36353857D01*
M02*
