M48
;DRILL file {KiCad 4.0.4-stable} date 04/18/19 20:28:11
;FORMAT={3:3/ absolute / metric / suppress leading zeros}
FMAT,2
METRIC,TZ
T1C0.400
T2C0.762
T3C1.000
%
G90
G05
M71
T1
X100203Y-83566
X100457Y-51435
X102997Y-63627
X102997Y-65278
X106172Y-69977
X106680Y-62992
X107061Y-70739
X108077Y-63500
X108966Y-47498
X110871Y-61976
X111379Y-63500
X112395Y-77216
X112522Y-60325
X113030Y-62357
X113157Y-59563
X113919Y-58801
X114681Y-77089
X115824Y-49657
X115824Y-59817
X116205Y-60960
X117348Y-49657
X117602Y-78740
X118999Y-60452
X118999Y-63373
X120015Y-72517
X120904Y-73406
X122174Y-71755
X122555Y-46228
X123063Y-72517
X123698Y-64897
X125730Y-45720
X125730Y-62103
X125984Y-43434
X127000Y-42291
X128778Y-61087
X130429Y-55245
X130937Y-44577
X132334Y-86106
X132461Y-70739
X132588Y-40894
X133477Y-66675
X133731Y-65024
X134747Y-86106
X136906Y-44323
X138417Y-38861
X138811Y-51181
X139954Y-41021
X140335Y-49149
X141859Y-66421
X143891Y-41021
X144145Y-83947
X145920Y-75822
X146050Y-47974
X147193Y-81026
X147447Y-58166
X149098Y-79883
X149352Y-49276
X149352Y-59817
T2
X100330Y-74295
X100330Y-76835
X100330Y-79375
X100330Y-81915
X105791Y-68326
X108331Y-68326
X110871Y-68326
X113411Y-68326
X115951Y-68326
X115951Y-88646
X118491Y-68326
X118491Y-88646
X121031Y-68326
X121031Y-88646
X123571Y-68326
X123571Y-88646
X126111Y-68326
X126111Y-88646
X128651Y-68326
X128651Y-88646
X131191Y-68326
X131191Y-88646
X133731Y-68326
X133731Y-88646
X136271Y-68326
X136271Y-88646
X138811Y-68326
X138811Y-88646
X141351Y-68326
X141351Y-88646
X143891Y-68326
X143891Y-88646
T3
X127635Y-64897
X130175Y-64897
T0
M30
