G04 #@! TF.FileFunction,Paste,Top*
%FSLAX46Y46*%
G04 Gerber Fmt 4.6, Leading zero omitted, Abs format (unit mm)*
G04 Created by KiCad (PCBNEW 4.0.4-stable) date 04/18/19 20:28:09*
%MOMM*%
%LPD*%
G01*
G04 APERTURE LIST*
%ADD10C,0.100000*%
%ADD11R,2.000000X1.600000*%
%ADD12R,0.350000X2.000000*%
%ADD13R,1.700000X2.000000*%
%ADD14R,2.000000X1.700000*%
%ADD15R,1.800000X1.400000*%
G04 APERTURE END LIST*
D10*
G36*
X131551533Y-52454253D02*
X132965747Y-51040039D01*
X134379961Y-52454253D01*
X132965747Y-53868467D01*
X131551533Y-52454253D01*
X131551533Y-52454253D01*
G37*
G36*
X127308893Y-56696893D02*
X128723107Y-55282679D01*
X130137321Y-56696893D01*
X128723107Y-58111107D01*
X127308893Y-56696893D01*
X127308893Y-56696893D01*
G37*
G36*
X138663533Y-59566253D02*
X140077747Y-58152039D01*
X141491961Y-59566253D01*
X140077747Y-60980467D01*
X138663533Y-59566253D01*
X138663533Y-59566253D01*
G37*
G36*
X134420893Y-63808893D02*
X135835107Y-62394679D01*
X137249321Y-63808893D01*
X135835107Y-65223107D01*
X134420893Y-63808893D01*
X134420893Y-63808893D01*
G37*
G36*
X138663533Y-46358253D02*
X140077747Y-44944039D01*
X141491961Y-46358253D01*
X140077747Y-47772467D01*
X138663533Y-46358253D01*
X138663533Y-46358253D01*
G37*
G36*
X134420893Y-50600893D02*
X135835107Y-49186679D01*
X137249321Y-50600893D01*
X135835107Y-52015107D01*
X134420893Y-50600893D01*
X134420893Y-50600893D01*
G37*
G36*
X145775533Y-52454253D02*
X147189747Y-51040039D01*
X148603961Y-52454253D01*
X147189747Y-53868467D01*
X145775533Y-52454253D01*
X145775533Y-52454253D01*
G37*
G36*
X141532893Y-56696893D02*
X142947107Y-55282679D01*
X144361321Y-56696893D01*
X142947107Y-58111107D01*
X141532893Y-56696893D01*
X141532893Y-56696893D01*
G37*
G36*
X144505533Y-75822253D02*
X145919747Y-74408039D01*
X147333961Y-75822253D01*
X145919747Y-77236467D01*
X144505533Y-75822253D01*
X144505533Y-75822253D01*
G37*
G36*
X140262893Y-80064893D02*
X141677107Y-78650679D01*
X143091321Y-80064893D01*
X141677107Y-81479107D01*
X140262893Y-80064893D01*
X140262893Y-80064893D01*
G37*
D11*
X144304000Y-83820000D03*
X148304000Y-83820000D03*
D12*
X118760000Y-53340000D03*
X118060000Y-53340000D03*
X117360000Y-53340000D03*
X116660000Y-53340000D03*
X115960000Y-53340000D03*
X115260000Y-53340000D03*
X114560000Y-53340000D03*
X113860000Y-53340000D03*
X113160000Y-53340000D03*
X112460000Y-53340000D03*
X111760000Y-53340000D03*
X111060000Y-53340000D03*
D13*
X127508000Y-44863000D03*
X127508000Y-48863000D03*
D14*
X143986000Y-40894000D03*
X139986000Y-40894000D03*
D13*
X146050000Y-47974000D03*
X146050000Y-43974000D03*
D14*
X139351000Y-71374000D03*
X143351000Y-71374000D03*
X142399000Y-35941000D03*
X146399000Y-35941000D03*
D15*
X133617000Y-35561000D03*
X133617000Y-38861000D03*
X138417000Y-38861000D03*
X138417000Y-35561000D03*
M02*
